<?xml version="1.0" encoding="utf-8" ?>
<svg xmlns="http://www.w3.org/2000/svg" xmlns:xlink="http://www.w3.org/1999/xlink" width="24" height="24">
	<path fill="#FFA46A" d="M12 0C5.3862214 0 0 5.3862214 0 12C0 18.613779 5.3862214 24 12 24C18.613779 24 24 18.613779 24 12C24 5.3862214 18.626305 0 12 0Z"/>
	<path fill="white" transform="translate(6.6383 6.6383)" d="M5.999033 5.361659L10.591567 0.76914674C10.767114 0.59303433 10.767397 0.30791351 10.591567 0.13208428C10.414887 -0.044028092 10.130049 -0.044028092 9.9539356 0.13208428L5.3616843 4.7243137L0.76915038 0.13208428C0.59388655 -0.044028092 0.30791497 -0.044028092 0.13208491 0.13208428C-0.044028301 0.30791351 -0.044028301 0.59303433 0.13208491 0.76914674L4.7243357 5.361659L0.13236804 9.9536057C-0.04374516 10.129718 -0.04374516 10.414839 0.13236804 10.591234C0.22042465 10.679008 0.33566272 10.72346 0.45090076 10.723177C0.56642199 10.72346 0.68166006 10.679008 0.7694335 10.591234L5.3616843 5.9990048L9.9539356 10.591234C10.041992 10.679008 10.157514 10.72346 10.272751 10.72346C10.387706 10.72346 10.503227 10.679008 10.591567 10.591234C10.767397 10.414839 10.767397 10.129718 10.591284 9.9536057L5.999033 5.361659Z"/>
	<path fill="none" stroke="white" stroke-width="1.5319149" stroke-miterlimit="10" transform="translate(6.6383 6.6383)" d="M5.999033 5.361659L10.591567 0.76914674C10.767114 0.59303433 10.767397 0.30791351 10.591567 0.13208428C10.414887 -0.044028092 10.130049 -0.044028092 9.9539356 0.13208428L5.3616843 4.7243137L0.76915038 0.13208428C0.59388655 -0.044028092 0.30791497 -0.044028092 0.13208491 0.13208428C-0.044028301 0.30791351 -0.044028301 0.59303433 0.13208491 0.76914674L4.7243357 5.361659L0.13236804 9.9536057C-0.04374516 10.129718 -0.04374516 10.414839 0.13236804 10.591234C0.22042465 10.679008 0.33566272 10.72346 0.45090076 10.723177C0.56642199 10.72346 0.68166006 10.679008 0.7694335 10.591234L5.3616843 5.9990048L9.9539356 10.591234C10.041992 10.679008 10.157514 10.72346 10.272751 10.72346C10.387706 10.72346 10.503227 10.679008 10.591567 10.591234C10.767397 10.414839 10.767397 10.129718 10.591284 9.9536057L5.999033 5.361659Z"/>
</svg>
