<?xml version="1.0" encoding="utf-8" ?>
<svg xmlns="http://www.w3.org/2000/svg" xmlns:xlink="http://www.w3.org/1999/xlink" width="26" height="16">
	<path fill="#39A1D8" d="M20.303255 2.3193855C23.86451 4.4825778 26 6.7980762 26 7.7021508C26 8.606226 23.545244 11.041348 20.303255 12.727952C17.061268 14.414556 14.721298 15 13 15C11.278702 15 8.5801897 14.304168 5.7104578 12.727952C2.8407266 11.151736 0 8.605916 0 7.7021508C0 6.7983856 2.5981665 4.247582 5.7104578 2.3193855C8.8227491 0.39118928 10.456522 0 13 0C15.543478 0 16.742002 0.15619355 20.303255 2.3193855ZM13 2.6320755C10.346632 2.6320755 8.195652 4.7861772 8.195652 7.4433961C8.195652 10.100616 10.346632 12.254717 13 12.254717C15.653368 12.254717 17.804348 10.100616 17.804348 7.4433961C17.804348 4.7861772 15.653368 2.6320755 13 2.6320755ZM13 4.8962264C14.404724 4.8962264 15.543478 6.036633 15.543478 7.4433961C15.543478 8.8501596 14.404724 9.9905663 13 9.9905663C11.595276 9.9905663 10.456522 8.8501596 10.456522 7.4433961C10.456522 6.036633 11.595276 4.8962264 13 4.8962264Z" fill-rule="evenodd"/>
</svg>
