<?xml version="1.0" encoding="UTF-8"?>
<svg width="36px" height="10px" viewBox="0 0 36 10" version="1.1" xmlns="http://www.w3.org/2000/svg" xmlns:xlink="http://www.w3.org/1999/xlink">
    <title>13EACEB2-50CB-41AA-840B-69B0D0226AF0</title>
    <g id="Home" stroke="none" stroke-width="1" fill="none" fill-rule="evenodd">
        <g id="Web-Flotte/Home/Fleet" transform="translate(-751.000000, -506.000000)" fill="#39A1D8">
            <g id="Card/Status/Desktop" transform="translate(734.000000, 451.000000)">
                <g id="Group" transform="translate(10.000000, 43.000000)">
                    <g id="Group" transform="translate(7.000000, 4.000000)">
                        <g id="Group-2" transform="translate(0.000000, 8.000000)">
                            <path d="M22.844408,3.45323741 L22.0740133,3.45323741 C21.688816,3.45323741 21.3036187,3.30935252 20.9954608,3.02158273 L18.1450005,0.503597122 C17.8368427,0.215827338 17.3746059,0 16.9123691,0 L10.9803301,0 C10.5180933,0 10.0558565,0.143884892 9.6706592,0.431654676 L4.74013334,3.81294964 C4.50901494,3.95683453 4.20085707,4.10071942 3.8926992,4.17266187 L1.1192784,4.5323741 C0.811120536,4.60431655 0.50296267,4.74820144 0.27184427,4.96402878 C0.194804803,5.10791367 -0.19039253,5.82733813 0.117765336,6.69064748 C0.348883736,7.48201439 0.580002136,7.84172662 0.73408107,7.91366906 C0.811120536,7.91366906 1.27335734,7.98561151 1.3503968,7.98561151 C1.3503968,7.98561151 1.3503968,8.05755396 1.3503968,8.05755396 C1.3503968,9.13669065 2.2748704,10 3.4304624,10 L3.81565974,10 C4.97125174,10 5.89572534,9.13669065 5.89572534,8.05755396 C5.89572534,8.05755396 5.89572534,7.98561151 5.89572534,7.98561151 L17.1434875,7.98561151 C17.1434875,7.98561151 17.1434875,8.05755396 17.1434875,8.05755396 C17.1434875,9.13669065 18.0679611,10 19.2235531,10 L19.6087504,10 C20.7643424,10 21.688816,9.13669065 21.688816,8.05755396 C21.688816,8.05755396 21.688816,7.98561151 21.688816,7.98561151 L22.844408,7.98561151 C23.4607237,7.98561151 24,7.48201439 24,6.90647482 L24,4.5323741 C24,3.95683453 23.4607237,3.45323741 22.844408,3.45323741 Z M15.5256587,3.66906475 L7.5905936,3.66906475 C7.3594752,3.66906475 7.20539627,3.38129496 7.43651467,3.23741007 L10.132896,0.863309353 C10.2099355,0.791366906 10.2099355,0.791366906 10.2869749,0.791366906 L14.5241456,0.791366906 C14.6011851,0.791366906 14.755264,0.863309353 14.755264,0.935251799 L15.7567771,3.30935252 C15.8338165,3.45323741 15.7567771,3.66906475 15.5256587,3.66906475 Z" id="Shape"></path>
                            <path d="M34.5774648,4 L25.3521127,4 C25.1408451,4 25,3.8 25,3.5 C25,3.2 25.1408451,3 25.3521127,3 L34.6478873,3 C34.8591549,3 35,3.2 35,3.5 C35,3.8 34.7887324,4 34.5774648,4 Z" id="Path"></path>
                            <path d="M35.6534653,6 L29.3465347,6 C29.1386139,6 29,5.8 29,5.5 C29,5.2 29.1386139,5 29.3465347,5 L35.6534653,5 C35.8613861,5 36,5.2 36,5.5 C36,5.8 35.7920792,6 35.6534653,6 Z" id="Path"></path>
                            <path d="M33.6538462,8 L25.3461538,8 C25.1384615,8 25,7.8 25,7.5 C25,7.2 25.1384615,7 25.3461538,7 L33.6538462,7 C33.8615385,7 34,7.2 34,7.5 C34,7.8 33.7923077,8 33.6538462,8 Z" id="Path"></path>
                        </g>
                    </g>
                </g>
            </g>
        </g>
    </g>
</svg>