<?xml version="1.0" encoding="UTF-8"?>
<svg width="36px" height="26px" viewBox="0 0 36 26" version="1.1" xmlns="http://www.w3.org/2000/svg" xmlns:xlink="http://www.w3.org/1999/xlink">
    <title>42B9F15F-E230-4CE0-9CB3-9360F3417F8C</title>
    <g id="Home" stroke="none" stroke-width="1" fill="none" fill-rule="evenodd">
        <g id="Web-Flotte/Home/Fleet" transform="translate(-483.000000, -498.000000)" fill="#FFA46A">
            <g id="Card/Status/Desktop" transform="translate(124.000000, 451.000000)">
                <g id="Group" transform="translate(352.000000, 43.000000)">
                    <g id="Group" transform="translate(7.000000, 4.000000)">
                        <g id="Group" transform="translate(1.000000, 3.000000)">
                            <g id="Group" transform="translate(-0.000000, 0.000000)">
                                <path d="M31.9973171,16.4720769 L30.9101463,17.4195 L29.9962927,17.4195 L29.9962927,15.2678077 C29.9962927,14.7298846 29.5484878,14.2929231 28.9953659,14.2929231 L25.7438049,14.2929231 C25.1915122,14.2929231 24.742878,14.7298846 24.742878,15.2678077 L24.742878,18.6786923 L13.779122,18.6786923 L10.0598537,15.5085 C9.87741463,15.3534231 9.64356098,15.2678077 9.40058537,15.2678077 L5.94087805,15.2678077 L5.94087805,5.72492308 L24.742878,5.72492308 L24.742878,10.8820385 C24.742878,11.4207692 25.1915122,11.8569231 25.7438049,11.8569231 L28.9953659,11.8569231 C29.5484878,11.8569231 29.9962927,11.4207692 29.9962927,10.8820385 L29.9962927,9.33934615 L30.9101463,9.33934615 L31.9973171,10.2867692 L31.9973171,16.4720769 Z M33.6649756,9.1245 L31.96,7.63834615 C31.7767317,7.47842308 31.5387317,7.39038462 31.292439,7.39038462 L28.9953659,7.39038462 C28.4430732,7.39038462 27.9952683,7.82653846 27.9952683,8.36446154 L27.9952683,9.90796154 L26.7439024,9.90796154 L26.7439024,4.75084615 C26.7439024,4.21292308 26.2960976,3.77596154 25.7438049,3.77596154 L14.904439,3.77596154 L14.904439,1.94896154 L19.698439,1.94896154 L19.698439,0 L7.60853659,0 L7.60853659,1.94896154 L12.4025366,1.94896154 L12.4025366,3.77596154 L4.93995122,3.77596154 C4.38765854,3.77596154 3.93985366,4.21292308 3.93985366,4.75084615 L3.93985366,8.64876923 L2.50107317,8.64876923 L2.50107317,3.89792308 L0,3.89792308 L0,16.3234615 L2.50107317,16.3234615 L2.50107317,11.5726154 L3.93985366,11.5726154 L3.93985366,16.2418846 C3.93985366,16.7806154 4.38765854,17.2167692 4.93995122,17.2167692 L9.02492683,17.2167692 L12.7441951,20.3869615 C12.9266341,20.5420385 13.1613171,20.6276538 13.4034634,20.6276538 L25.7438049,20.6276538 C26.2960976,20.6276538 26.7439024,20.1915 26.7439024,19.6527692 L26.7439024,16.2418846 L27.9952683,16.2418846 L27.9952683,18.3943846 C27.9952683,18.9323077 28.4430732,19.3684615 28.9953659,19.3684615 L31.292439,19.3684615 C31.5387317,19.3684615 31.7767317,19.2804231 31.96,19.1205 L33.6649756,17.6343462 C33.8772683,17.4493846 33.9983415,17.1852692 33.9983415,16.9082308 L33.9983415,9.85061538 C33.9983415,9.57357692 33.8772683,9.30946154 33.6649756,9.1245 L33.6649756,9.1245 Z" id="Fill-10-Copy"></path>
                                <path d="M14.8206829,10.5169615 L16.6550244,6.13119231 C16.4054146,6.37511538 10.3185854,13.0345385 10.3185854,13.0345385 L14.904439,12.9529615 L12.8196585,17.5010769 C12.8196585,17.5010769 20.2407805,9.94834615 19.9903415,10.1106923 C19.7399024,10.2730385 14.8206829,10.5169615 14.8206829,10.5169615" id="Fill-11-Copy"></path>
                            </g>
                        </g>
                    </g>
                </g>
            </g>
        </g>
    </g>
</svg>