<?xml version="1.0" encoding="UTF-8"?>
<svg width="45px" height="46px" viewBox="0 0 45 46" version="1.1" xmlns="http://www.w3.org/2000/svg" xmlns:xlink="http://www.w3.org/1999/xlink">
    <title>01E8D16A-F1AD-47A2-BD55-BFDD74D36680</title>
    <g id="Home" stroke="none" stroke-width="1" fill="none" fill-rule="evenodd">
        <g id="Web-Flotte/Home/Fleet" transform="translate(-478.000000, -533.000000)">
            <g id="Card/Status/Desktop" transform="translate(124.000000, 451.000000)">
                <g id="Group" transform="translate(352.000000, 90.000000)">
                    <g id="Group" transform="translate(7.000000, 4.000000)">
                        <g id="no-device" transform="translate(1.000000, 2.000000)">
                            <g id="icon-nodevice">
                                <g id="Véhicule-flotte" transform="translate(9.000000, 8.329599)"></g>
                                <g id="icon-Boitier" stroke="#8B8B8B" transform="translate(-5.520000, -13.228050)">
                                    <path d="M20.88,23.8080499 C22.8129966,23.8080499 24.38,25.3750533 24.38,27.3080499 L24.38,32.2680499 C24.38,34.2010465 22.8129966,35.7680499 20.88,35.7680499 L5.98,35.7680499 L5.98,23.8080499 L20.88,23.8080499 Z M38.18,14.5160499 L38.18,17.6440499 L35.052,17.6440499 L35.052,14.5160499 L38.18,14.5160499 Z M13.34,23.8080499 L13.34,35.7680499" id="Combined-Shape"></path>
                                    <path d="M30.6460676,16.0590944 C30.6460676,17.7370483 31.3522174,18.5293469 32.764517,18.43599 L35.6321301,18.43599 L35.6321301,13.8 L32.764517,13.8 C31.3522174,13.8 30.6460676,14.5530315 30.6460676,16.0590944 C30.6460676,16.0590944 28.496045,16.0590944 24.196,16.0590944 C22.3824922,16.0249848 21.4757384,16.8172834 21.4757384,18.43599 C21.4757384,20.0546966 22.4438256,20.8640499 24.38,20.8640499 L34.04,20.8640499 C36.7199657,21.3285491 38.0599485,22.7721664 38.0599485,25.1949016 C38.0599485,27.6176368 36.7199657,29.1486863 34.04,29.7880499 L24.38,29.7880499" id="Line-Copy-3" transform="translate(29.767843, 21.794025) rotate(-0.000000) translate(-29.767843, -21.794025) "></path>
                                </g>
                            </g>
                            <g id="Group" transform="translate(9.000000, 4.000000)" fill-rule="nonzero">
                                <g id="tick">
                                    <path d="M8,0 C3.5908142,0 0,3.5908142 0,8 C0,12.4091858 3.5908142,16 8,16 C12.4091858,16 16,12.4091858 16,8 C16,3.5908142 12.4175365,0 8,0 Z" id="Path" fill="#E9445A"></path>
                                    <path d="M8.42488726,7.99997135 L11.4865766,4.9382964 C11.6036079,4.82088815 11.6037967,4.63080759 11.4865766,4.5135881 C11.3687903,4.39617985 11.1788976,4.39617985 11.0614888,4.5135881 L7.9999882,7.57507429 L4.93829882,4.5135881 C4.8214563,4.39617985 4.63080856,4.39617985 4.51358852,4.5135881 C4.39617971,4.63080759 4.39617971,4.82088815 4.51358852,4.9382964 L7.57508913,7.99997135 L4.51377728,11.0612688 C4.39636847,11.178677 4.39636847,11.3687576 4.51377728,11.4863546 C4.57248168,11.54487 4.64930705,11.5745052 4.72613243,11.5743164 C4.80314656,11.5745052 4.87997194,11.54487 4.93848758,11.4863546 L7.9999882,8.4248684 L11.0614888,11.4863546 C11.1201932,11.54487 11.1972073,11.5745052 11.2740327,11.5745052 C11.3506693,11.5745052 11.4276835,11.54487 11.4865766,11.4863546 C11.6037967,11.3687576 11.6037967,11.178677 11.4863879,11.0612688 L8.42488726,7.99997135 Z" id="Shape" stroke="#FFFFFF" stroke-width="1.5" fill="#FFFFFF"></path>
                                </g>
                            </g>
                        </g>
                    </g>
                </g>
            </g>
        </g>
    </g>
</svg>