<?xml version="1.0" encoding="UTF-8"?>
<svg width="36px" height="26px" viewBox="0 0 36 26" version="1.1" xmlns="http://www.w3.org/2000/svg" xmlns:xlink="http://www.w3.org/1999/xlink">
    <title>icones/statut/parked</title>
    <g id="icones/statut/parked" stroke="none" stroke-width="1" fill="none" fill-rule="evenodd">
        <g id="Group-2" transform="translate(3.000000, 8.000000)" fill="#39A1D8">
            <path d="M22.844408,3.45323741 L22.0740133,3.45323741 C21.688816,3.45323741 21.3036187,3.30935252 20.9954608,3.02158273 L18.1450005,0.503597122 C17.8368427,0.215827338 17.3746059,0 16.9123691,0 L10.9803301,0 C10.5180933,0 10.0558565,0.143884892 9.6706592,0.431654676 L4.74013334,3.81294964 C4.50901494,3.95683453 4.20085707,4.10071942 3.8926992,4.17266187 L1.1192784,4.5323741 C0.811120536,4.60431655 0.50296267,4.74820144 0.27184427,4.96402878 C0.194804803,5.10791367 -0.19039253,5.82733813 0.117765336,6.69064748 C0.348883736,7.48201439 0.580002136,7.84172662 0.73408107,7.91366906 C0.811120536,7.91366906 1.27335734,7.98561151 1.3503968,7.98561151 C1.3503968,7.98561151 1.3503968,8.05755396 1.3503968,8.05755396 C1.3503968,9.13669065 2.2748704,10 3.4304624,10 L3.81565974,10 C4.97125174,10 5.89572534,9.13669065 5.89572534,8.05755396 C5.89572534,8.05755396 5.89572534,7.98561151 5.89572534,7.98561151 L17.1434875,7.98561151 C17.1434875,7.98561151 17.1434875,8.05755396 17.1434875,8.05755396 C17.1434875,9.13669065 18.0679611,10 19.2235531,10 L19.6087504,10 C20.7643424,10 21.688816,9.13669065 21.688816,8.05755396 C21.688816,8.05755396 21.688816,7.98561151 21.688816,7.98561151 L22.844408,7.98561151 C23.4607237,7.98561151 24,7.48201439 24,6.90647482 L24,4.5323741 C24,3.95683453 23.4607237,3.45323741 22.844408,3.45323741 Z M15.5256587,3.66906475 L7.5905936,3.66906475 C7.3594752,3.66906475 7.20539627,3.38129496 7.43651467,3.23741007 L10.132896,0.863309353 C10.2099355,0.791366906 10.2099355,0.791366906 10.2869749,0.791366906 L14.5241456,0.791366906 C14.6011851,0.791366906 14.755264,0.863309353 14.755264,0.935251799 L15.7567771,3.30935252 C15.8338165,3.45323741 15.7567771,3.66906475 15.5256587,3.66906475 Z" id="Shape"></path>
        </g>
        <g id="Group" transform="translate(21.000000, 2.000000)">
            <g id="p" transform="translate(1.944444, 0.000000)">
                <path d="M1.56035665,10 L8.55075446,10 C9.42455418,10 10.1111111,9.32098765 10.1111111,8.45679012 L10.1111111,1.54320988 C10.1111111,0.679012346 9.42455418,0 8.55075446,0 L1.56035665,0 C0.686556927,0 0,0.679012346 0,1.54320988 L0,8.45679012 C0,9.25925926 0.686556927,10 1.56035665,10 Z" id="Shape" stroke="#FFFFFF" stroke-width="0.5" fill="#39A1D8"></path>
                <path d="M4.25271267,8.67713341 L4.25271267,6.13807091 L4.90934245,6.13807091 C5.80459708,6.13807091 6.49496347,5.93462039 6.98044162,5.52771935 C7.46591978,5.12081831 7.70865885,4.53325321 7.70865885,3.76502404 C7.70865885,3.02609175 7.48073098,2.47026492 7.02487522,2.09754357 C6.56901946,1.72482222 5.9033384,1.53846154 5.02783203,1.53846154 L5.02783203,1.53846154 L2.72222222,1.53846154 L2.72222222,8.67713341 L4.25271267,8.67713341 Z M4.7562934,4.89783654 L4.25271267,4.89783654 L4.25271267,2.77869591 L4.94883898,2.77869591 C5.36684389,2.77869591 5.67376483,2.86333133 5.86960178,3.03260216 C6.06543873,3.201873 6.1633572,3.46391727 6.1633572,3.81873498 C6.1633572,4.17029748 6.04651331,4.43803836 5.81282552,4.62195763 C5.57913773,4.8058769 5.22696036,4.89783654 4.7562934,4.89783654 L4.7562934,4.89783654 Z" id="P" fill="#FFFFFF"></path>
            </g>
        </g>
    </g>
</svg>