<?xml version="1.0" encoding="UTF-8"?>
<svg width="41px" height="20px" viewBox="0 0 41 20" version="1.1" xmlns="http://www.w3.org/2000/svg" xmlns:xlink="http://www.w3.org/1999/xlink">
    <title>4D485659-EC1F-4759-A962-E5DAE4AF477D</title>
    <g id="Icones" stroke="none" stroke-width="1" fill="none" fill-rule="evenodd">
        <g transform="translate(-23.000000, -813.000000)" id="ALERTE-Accident">
            <g transform="translate(24.000000, 815.000000)" id="Group-5-Copy">
                <path d="M38.449255,8.83453237 L37.4154249,8.83453237 C36.8985099,8.83453237 36.3815949,8.63309353 35.9680629,8.23021583 L32.1428918,4.70503597 C31.7293597,4.30215827 31.1090617,4 30.4887637,4 L22.5282725,4 C21.9079744,4 21.2876764,4.20143885 20.7707614,4.60431655 L14.3610152,9.3381295 C14.0508662,9.53956835 13.6373342,9.74100719 13.2238022,9.84172662 L9.50201407,10.4460432 C9.08848205,10.5467626 8.67495004,10.7482014 8.36480103,11.0503597 C8.26141803,11.2517986 7.74450301,12.2589928 8.15803503,13.4676259 C8.26141803,14.5755396 8.57156704,14.9784173 8.77833305,15.0791367 C8.88171605,15.0791367 9.50201407,15.1798561 9.60539707,15.1798561 C9.60539707,15.1798561 9.60539707,15.2805755 9.60539707,15.2805755 C9.60539707,16.7913669 10.8459931,18 12.3967382,18 L12.9136532,18 C14.4643982,18 15.7049943,16.7913669 15.7049943,15.2805755 C15.7049943,15.2805755 15.7049943,15.1798561 15.7049943,15.1798561 L30.7989127,15.1798561 C30.7989127,15.1798561 30.7989127,15.2805755 30.7989127,15.2805755 C30.7989127,16.7913669 32.0395088,18 33.5902538,18 L34.1071688,18 C35.6579139,18 36.8985099,16.7913669 36.8985099,15.2805755 C36.8985099,15.2805755 36.8985099,15.1798561 36.8985099,15.1798561 L38.449255,15.1798561 C39.276319,15.1798561 40,14.4748201 40,13.6690647 L40,10.3453237 C40,9.53956835 39.276319,8.83453237 38.449255,8.83453237 Z M28.6278697,9.13669065 L18.0828033,9.13669065 C17.7726543,9.13669065 17.5658883,8.73381295 17.8760373,8.5323741 L21.4944424,5.20863309 C21.5978254,5.10791367 21.5978254,5.10791367 21.7012084,5.10791367 L27.3872736,5.10791367 C27.4906566,5.10791367 27.6974226,5.20863309 27.6974226,5.30935252 L29.0414017,8.63309353 C29.0414017,8.9352518 28.9380187,9.13669065 28.6278697,9.13669065 Z" id="Shape" fill="#E9445A" fill-rule="nonzero"></path>
                <path d="M4.52443418,4.29212311 L4.52443418,0 L7.41317509,2.14606155 L10.2210312,0 L8.95576273,4.29212311 L13,6.25456442 L7.62694192,7.5571205 L5.74348284,11 L5.05018503,7.0808555 C5.05018503,7.0808555 -0.288208166,5.5086072 0.012220888,5.5086072 C0.312649942,5.5086072 4.52443418,4.29212311 4.52443418,4.29212311 Z" id="Path" stroke="#E9445A"></path>
            </g>
        </g>
    </g>
</svg>