<?xml version="1.0" encoding="UTF-8"?>
<svg width="38px" height="33px" viewBox="0 0 38 33" version="1.1" xmlns="http://www.w3.org/2000/svg" xmlns:xlink="http://www.w3.org/1999/xlink">
    <title>832E2369-0291-4C7E-A436-1B9BDE04137F</title>
    <g id="Icones" stroke="none" stroke-width="1" fill="none" fill-rule="evenodd">
        <g transform="translate(-31.000000, -1081.000000)" fill="#68D15C" id="Notice-appointment">
            <g transform="translate(31.000000, 1076.000000)">
                <g id="icones/alert/impound-warning-copy" transform="translate(0.000000, 5.000000)">
                    <g id="small-calendar" transform="translate(2.590909, 0.000000)">
                        <path d="M30.084017,3.07670455 L25.6392045,3.07670455 L25.6392045,1.02556818 C25.6392045,0.458428977 25.1807756,0 24.6136364,0 C24.0464972,0 23.5880682,0.458428977 23.5880682,1.02556818 L23.5880682,3.07670455 L17.4346591,3.07670455 L17.4346591,1.02556818 C17.4346591,0.458428977 16.9752045,0 16.4090909,0 C15.8429773,0 15.3835227,0.458428977 15.3835227,1.02556818 L15.3835227,3.07670455 L9.23011364,3.07670455 L9.23011364,1.02556818 C9.23011364,0.458428977 8.77065909,0 8.20454545,0 C7.63843182,0 7.17897727,0.458428977 7.17897727,1.02556818 L7.17897727,3.07670455 L2.73519034,3.07670455 C1.22452841,3.07670455 0,4.30020739 0,5.81086932 L0,30.0829915 C0,31.5936534 1.22452841,32.8181818 2.73519034,32.8181818 L30.084017,32.8181818 C31.594679,32.8181818 32.8181818,31.5936534 32.8181818,30.0829915 L32.8181818,5.81086932 C32.8181818,4.30020739 31.594679,3.07670455 30.084017,3.07670455 Z M30.7670455,30.0829915 C30.7670455,30.4604006 30.4604006,30.7670455 30.084017,30.7670455 L2.73519034,30.7670455 C2.35778125,30.7670455 2.05113636,30.4604006 2.05113636,30.0829915 L2.05113636,5.81086932 C2.05113636,5.4344858 2.35778125,5.12784091 2.73519034,5.12784091 L7.17897727,5.12784091 L7.17897727,7.17897727 C7.17897727,7.74611648 7.63843182,8.20454545 8.20454545,8.20454545 C8.77065909,8.20454545 9.23011364,7.74611648 9.23011364,7.17897727 L9.23011364,5.12784091 L15.3835227,5.12784091 L15.3835227,7.17897727 C15.3835227,7.74611648 15.8429773,8.20454545 16.4090909,8.20454545 C16.9752045,8.20454545 17.4346591,7.74611648 17.4346591,7.17897727 L17.4346591,5.12784091 L23.5880682,5.12784091 L23.5880682,7.17897727 C23.5880682,7.74611648 24.0464972,8.20454545 24.6136364,8.20454545 C25.1807756,8.20454545 25.6392045,7.74611648 25.6392045,7.17897727 L25.6392045,5.12784091 L30.084017,5.12784091 C30.4604006,5.12784091 30.7670455,5.4344858 30.7670455,5.81086932 L30.7670455,30.0829915 Z" id="Shape" fill-rule="nonzero"></path>
                        <rect id="Rectangle" x="6.71280992" y="12.6797521" width="4.47520661" height="2.98347107"></rect>
                        <rect id="Rectangle" x="6.71280992" y="17.1549587" width="4.47520661" height="2.98347107"></rect>
                        <rect id="Rectangle" x="6.71280992" y="22.3760331" width="4.47520661" height="2.98347107"></rect>
                        <rect id="Rectangle" x="14.1714876" y="22.3760331" width="4.47520661" height="2.98347107"></rect>
                        <rect id="Rectangle" x="14.1714876" y="17.1549587" width="4.47520661" height="2.98347107"></rect>
                        <rect id="Rectangle" x="14.1714876" y="12.6797521" width="4.47520661" height="2.98347107"></rect>
                        <rect id="Rectangle" x="21.6301653" y="22.3760331" width="4.47520661" height="2.98347107"></rect>
                        <rect id="Rectangle" x="21.6301653" y="17.1549587" width="4.47520661" height="2.98347107"></rect>
                        <rect id="Rectangle" x="21.6301653" y="12.6797521" width="4.47520661" height="2.98347107"></rect>
                    </g>
                </g>
            </g>
        </g>
    </g>
</svg>