<?xml version="1.0" encoding="UTF-8"?>
<svg width="38px" height="33px" viewBox="0 0 38 33" version="1.1" xmlns="http://www.w3.org/2000/svg" xmlns:xlink="http://www.w3.org/1999/xlink">
    <title>728F05BC-1FBC-43DE-BDF6-1840FDD43169</title>
    <g id="Icones" stroke="none" stroke-width="1" fill="none" fill-rule="evenodd">
        <g transform="translate(-30.000000, -853.000000)" fill="#FFA46A" id="Warning-battery-very-low">
            <g transform="translate(30.000000, 853.000000)">
                <g id="icones/alerte/danger-high-triangle-copy-3" transform="translate(0.000000, -0.000000)">
                    <path d="M5.19563636,23.8950909 L32.6791364,23.8950909 L32.6791364,10.4595 L5.19563636,10.4595 L5.19563636,23.8950909 Z M33.9823636,7.85390909 L30.1193182,7.85390909 L30.1193182,5.18181818 L26.9929545,5.18181818 L26.9929545,7.85390909 L10.8403636,7.85390909 L10.8403636,5.18181818 L7.714,5.18181818 L7.714,7.85390909 L3.89327273,7.85390909 C3.17386364,7.85390909 2.59090909,8.43772727 2.59090909,9.15713636 L2.59090909,25.1983182 C2.59090909,25.9177273 3.17386364,26.5006818 3.89327273,26.5006818 L33.9823636,26.5006818 C34.7017727,26.5006818 35.2847273,25.9177273 35.2847273,25.1983182 L35.2847273,9.15713636 C35.2847273,8.43772727 34.7017727,7.85390909 33.9823636,7.85390909 L33.9823636,7.85390909 Z" id="Fill-54"></path>
                    <polygon id="Fill-55" points="7.36681818 14.2629614 11.1875455 14.2629614 11.1875455 12.6997795 7.36681818 12.6997795"></polygon>
                    <polyline id="Fill-56" points="27.7745455 15.3917341 29.3377273 15.3917341 29.3377273 14.2629614 30.4665 14.2629614 30.4665 12.6997795 29.3377273 12.6997795 29.3377273 11.5710068 27.7745455 11.5710068 27.7745455 12.6997795 26.6457727 12.6997795 26.6457727 14.2629614 27.7745455 14.2629614 27.7745455 15.3917341"></polyline>
                    <polyline id="Fill-83" stroke="#FFFFFF" points="20.7063208 14.8381364 21.2124117 1.72727273 17.5549117 1.72727273 18.0610026 14.8381364 20.7063208 14.8381364"></polyline>
                    <path d="M19.3840935,21.0001818 C20.6778208,21.0001818 21.5215935,20.0717727 21.5215935,18.8056818 C21.4939572,17.5110909 20.6778208,16.6111818 19.3840935,16.6111818 C18.145639,16.6111818 17.2733663,17.5110909 17.2733663,18.8056818 C17.2457299,20.0717727 18.117139,21.0001818 19.3840935,21.0001818" id="Fill-84" stroke="#FFFFFF"></path>
                </g>
            </g>
        </g>
    </g>
</svg>