<?xml version="1.0" encoding="UTF-8"?>
<svg width="32px" height="29px" viewBox="0 0 32 29" version="1.1" xmlns="http://www.w3.org/2000/svg" xmlns:xlink="http://www.w3.org/1999/xlink">
    <title>4CE0D0E0-5A3C-4892-97FD-1A96369DFF6A</title>
    <g id="Alert" stroke="none" stroke-width="1" fill="none" fill-rule="evenodd">
        <g id="Web-Flotte/Alert/Fleet2" transform="translate(-164.000000, -337.000000)" fill="#E9445A">
            <g id="Alertes/Mobile/Home-red" transform="translate(124.000000, 312.000000)">
                <g id="Alertes/Mobile/Home" transform="translate(0.000000, 0.500000)">
                    <g id="Bloc-Notif-Copy" transform="translate(27.000000, 0.000000)">
                        <g id="icones/alerte/danger-copy" transform="translate(13.000000, 25.000000)">
                            <path d="M4.37527273,20.1221818 L27.5192727,20.1221818 L27.5192727,8.808 L4.37527273,8.808 L4.37527273,20.1221818 Z M28.6167273,6.61381818 L25.3636364,6.61381818 L25.3636364,4.36363636 L22.7309091,4.36363636 L22.7309091,6.61381818 L9.12872727,6.61381818 L9.12872727,4.36363636 L6.496,4.36363636 L6.496,6.61381818 L3.27854545,6.61381818 C2.67272727,6.61381818 2.18181818,7.10545455 2.18181818,7.71127273 L2.18181818,21.2196364 C2.18181818,21.8254545 2.67272727,22.3163636 3.27854545,22.3163636 L28.6167273,22.3163636 C29.2225455,22.3163636 29.7134545,21.8254545 29.7134545,21.2196364 L29.7134545,7.71127273 C29.7134545,7.10545455 29.2225455,6.61381818 28.6167273,6.61381818 L28.6167273,6.61381818 Z" id="Fill-54"></path>
                            <polygon id="Fill-55" points="6.20363636 12.0109148 9.42109091 12.0109148 9.42109091 10.6945512 6.20363636 10.6945512"></polygon>
                            <polyline id="Fill-56" points="23.3890909 12.9614603 24.7054545 12.9614603 24.7054545 12.0109148 25.656 12.0109148 25.656 10.6945512 24.7054545 10.6945512 24.7054545 9.74400574 23.3890909 9.74400574 23.3890909 10.6945512 22.4385455 10.6945512 22.4385455 12.0109148 23.3890909 12.0109148 23.3890909 12.9614603"></polyline>
                            <path d="M6.95836807,0.937460285 C6.71109535,0.671278467 6.29509535,0.65600574 6.02891353,0.902551194 C5.76200444,1.15055119 5.74673171,1.56655119 5.99400444,1.83273301 L28.8092772,26.4029148 C28.9387317,26.5425512 29.1147317,26.6130966 29.291459,26.6130966 C29.4521863,26.6130966 29.6129135,26.5549148 29.739459,26.4378239 C30.0056408,26.1898239 30.0209135,25.7738239 29.7736408,25.5076421 L6.95836807,0.937460285" id="Fill-72" stroke="#FFFFFF" stroke-width="0.5"></path>
                        </g>
                    </g>
                </g>
            </g>
        </g>
    </g>
</svg>