<?xml version="1.0" encoding="UTF-8"?>
<svg width="38px" height="33px" viewBox="0 0 38 33" version="1.1" xmlns="http://www.w3.org/2000/svg" xmlns:xlink="http://www.w3.org/1999/xlink">
    <title>0DB24BB3-E06C-4EA6-A156-5D17436F9DFE</title>
    <g id="Icones" stroke="none" stroke-width="1" fill="none" fill-rule="evenodd">
        <g transform="translate(-30.000000, -621.000000)" fill="#68D15C" id="Notice-default">
            <g transform="translate(30.000000, 621.000000)">
                <g id="danger" transform="translate(0.000000, -0.000000)">
                    <path d="M37.5104287,27.6192708 L21.923445,1.65810885 C21.3093588,0.635366142 20.1891747,0 18.9999672,0 C17.8107596,0 16.6905755,0.635366142 16.076415,1.65818339 L0.489505621,27.6192708 C-0.145139199,28.6763757 -0.163916551,30.0007757 0.440447005,31.0756209 C1.044959,32.150466 2.18392045,32.8181818 3.41298351,32.8181818 L34.5869508,32.8181818 C35.8160139,32.8181818 36.9550495,32.150466 37.5595615,31.0755463 C38.1639251,30.0006267 38.1451477,28.6762267 37.5104287,27.6192708 Z M35.4052871,29.8537858 C35.2388886,30.1496291 34.9253142,30.3335156 34.5869508,30.3335156 L3.41298351,30.3335156 C3.07462008,30.3335156 2.76104572,30.1497037 2.59472142,29.8538604 C2.42832291,29.5579425 2.43351822,29.1933002 2.60815502,28.9023765 L18.1952129,2.94121452 C18.3642833,2.65968262 18.6726623,2.48474077 19.0000414,2.48474077 C19.3273462,2.48474077 19.6357253,2.65968262 19.8047956,2.94121452 L35.3917051,28.9023765 C35.5664903,29.1933747 35.5716856,29.5579425 35.4052871,29.8537858 Z" id="Shape" fill-rule="nonzero"></path>
                    <path d="M19.8755385,9.5 C18.8987163,9.5 18.1363636,10.0175233 18.1363636,10.9349787 C18.1363636,13.7341989 18.4698544,17.7566422 18.4698544,20.5559385 C18.4699315,21.2851413 19.1132628,21.5909091 19.8756155,21.5909091 C20.4473801,21.5909091 21.2574183,21.2851413 21.2574183,20.5559385 C21.2574183,17.7567183 21.5909091,13.734275 21.5909091,10.9349787 C21.5909091,10.0175994 20.8047521,9.5 19.8755385,9.5 Z" id="Path"></path>
                    <path d="M19.8749157,23.3181818 C18.8815304,23.3181818 18.1363636,24.1032662 18.1363636,25.0454545 C18.1363636,25.965158 18.8814574,26.7727273 19.8749157,26.7727273 C20.800625,26.7727273 21.5909091,25.965158 21.5909091,25.0454545 C21.5909091,24.1032662 20.800552,23.3181818 19.8749157,23.3181818 Z" id="Path"></path>
                </g>
            </g>
        </g>
    </g>
</svg>