<?xml version="1.0" encoding="UTF-8"?>
<svg width="46px" height="46px" viewBox="0 0 46 46" version="1.1" xmlns="http://www.w3.org/2000/svg" xmlns:xlink="http://www.w3.org/1999/xlink">
    <title>79B7225A-BB5D-45AB-97C8-A614C3AAEA49</title>
    <defs>
        <filter id="filter-1">
            <feColorMatrix in="SourceGraphic" type="matrix" values="0 0 0 0 0.407843 0 0 0 0 0.819608 0 0 0 0 0.360784 0 0 0 1.000000 0"></feColorMatrix>
        </filter>
    </defs>
    <g id="Icones" stroke="none" stroke-width="1" fill="none" fill-rule="evenodd">
        <g transform="translate(-26.000000, -1029.000000)" id="Notice-device-connected">
            <g transform="translate(26.000000, 1029.000000)">
                <g id="icon-nodevice" transform="translate(0.681818, 0.363636)">
                    <g filter="url(#filter-1)" id="icones/icon-boitier">
                        <g id="icon-Boitier" stroke="#8B8B8B" stroke-width="1.056">
                            <g transform="translate(0.719697, 0.040204)">
                                <path d="M19.826096,23.2434321 C21.8673404,23.2434321 23.522096,24.8981877 23.522096,26.9394321 L23.522096,31.2237958 C23.522096,33.2650402 21.8673404,34.9197958 19.826096,34.9197958 L5.76957071,34.9197958 L5.76957071,23.2434321 L19.826096,23.2434321 Z M36.8364899,14.1717958 L36.8364899,17.225614 L33.8185606,17.225614 L33.8185606,14.1717958 L36.8364899,14.1717958 Z M12.8705808,23.2434321 L12.8705808,34.9197958" id="Combined-Shape"></path>
                                <path d="M29.5676678,15.6782463 C29.5676678,17.3164069 30.248969,18.0899157 31.6115715,17.9987728 L34.3782766,17.9987728 L34.3782766,13.4727273 L31.6115715,13.4727273 C30.248969,13.4727273 29.5676678,14.2079003 29.5676678,15.6782463 C29.5676678,15.6782463 27.4933021,15.6782463 23.3445707,15.6782463 C21.5948782,15.6449457 20.7200319,16.4184545 20.7200319,17.9987728 C20.7200319,19.5790912 21.6540533,20.3692503 23.522096,20.3692503 L32.8421717,20.3692503 C35.4278325,20.8227337 36.7206629,22.232115 36.7206629,24.5973941 C36.7206629,26.9626731 35.4278325,28.4574131 32.8421717,29.081614 L23.522096,29.081614" id="Line-Copy-3" transform="translate(28.720347, 21.277171) rotate(-0.000000) translate(-28.720347, -21.277171) "></path>
                            </g>
                        </g>
                    </g>
                    <g id="icones/tick-copy" transform="translate(26.772727, 22.454545)">
                        <g id="tick-copy" fill="#68D15C" fill-rule="nonzero" stroke="#FFFFFF" stroke-width="1.32">
                            <path d="M6.84,0 C3.07014614,0 0,3.07014614 0,6.84 C0,10.6098539 3.07014614,13.68 6.84,13.68 C10.6098539,13.68 13.68,10.6098539 13.68,6.84 C13.68,3.07014614 10.6169937,0 6.84,0 Z" id="Path"></path>
                            <path d="M7.20327861,6.8399755 L9.82102302,4.22224342 C9.92108477,4.12185937 9.92124616,3.95934049 9.82102302,3.85911783 C9.72031571,3.75873377 9.55795746,3.75873377 9.45757293,3.85911783 L6.83998991,6.47668851 L4.22224549,3.85911783 C4.12234513,3.75873377 3.95934132,3.75873377 3.85911818,3.85911783 C3.75873366,3.95934049 3.75873366,4.12185937 3.85911818,4.22224342 L6.47670121,6.8399755 L3.85927957,9.4573848 C3.75889505,9.55776885 3.75889505,9.72028773 3.85927957,9.82083317 C3.90947184,9.87086381 3.97515753,9.89620191 4.04084323,9.89604052 C4.10669031,9.89620191 4.17237601,9.87086381 4.22240688,9.82083317 L6.83998991,7.20326249 L9.45757293,9.82083317 C9.5077652,9.87086381 9.57361228,9.89620191 9.63929798,9.89620191 C9.70482228,9.89620191 9.77066937,9.87086381 9.82102302,9.82083317 C9.92124616,9.72028773 9.92124616,9.55776885 9.82086163,9.4573848 L7.20327861,6.8399755 Z" id="Shape"></path>
                        </g>
                        <g id="Components/Radio/On">
                            <circle id="Oval" fill="#68D15C" cx="6.90909091" cy="6.90909091" r="6.90909091"></circle>
                            <polyline id="Path-3" stroke="#FFFFFF" stroke-width="1.05000004" stroke-linecap="round" stroke-linejoin="round" points="3.72027972 7.39967725 5.73426573 9.03496503 10.0979021 4.78321678"></polyline>
                        </g>
                    </g>
                </g>
            </g>
        </g>
    </g>
</svg>