<?xml version="1.0" encoding="UTF-8"?>
<svg width="38px" height="33px" viewBox="0 0 38 33" version="1.1" xmlns="http://www.w3.org/2000/svg" xmlns:xlink="http://www.w3.org/1999/xlink">
    <title>40413F17-F917-4B93-9949-718E0F2DD007</title>
    <defs>
        <polygon id="path-1" points="0 0 25.9090909 0 25.9090909 27.6363636 0 27.6363636"></polygon>
    </defs>
    <g id="Icones" stroke="none" stroke-width="1" fill="none" fill-rule="evenodd">
        <g transform="translate(-32.000000, -659.000000)" id="ALERTE-fuel">
            <g transform="translate(32.000000, 659.000000)">
                <g id="icones/alerte/danger-high-triangle" transform="translate(0.000000, -0.000000)">
                    <g id="Conso-totale" transform="translate(6.045455, 2.590909)">
                        <mask id="mask-2" fill="white">
                            <use xlink:href="#path-1"></use>
                        </mask>
                        <g id="Clip-2"></g>
                        <path d="M3.93164272,10.3580903 L13.9638934,10.3580903 L13.9638934,2.19984265 L3.93164272,2.19984265 L3.93164272,10.3580903 Z M23.7138999,10.1547951 C23.5889575,9.63242653 23.5943507,9.08270887 23.7282818,8.5639869 C23.7354727,8.53572613 23.7516523,8.48740932 23.7723263,8.42997613 C23.9727735,8.61139207 24.2316471,8.70802569 24.4941162,8.70802569 C24.7008555,8.70802569 24.9093926,8.64785759 25.0945591,8.5229632 C25.5925312,8.18565717 25.7273612,7.50284037 25.3956794,6.99688133 C24.3790613,5.45256671 23.207838,4.00853226 21.91347,2.70306677 C21.0325807,1.81421981 20.0824787,0.979159485 19.0901299,0.221588381 C18.611034,-0.143978421 17.9314908,-0.0473448028 17.5719441,0.438558204 C17.2105997,0.923549572 17.3067785,1.61274783 17.7849755,1.97831464 C18.698224,2.67662927 19.5728213,3.44514003 20.3844979,4.26287924 C21.1889835,5.07423698 21.9377394,5.94940937 22.6298668,6.86742875 C22.6199792,6.89204297 22.6100917,6.91756884 22.601103,6.94035978 C22.3611056,7.54204081 22.2118938,7.92219381 22.1534674,8.14736838 C21.9530202,8.92864207 21.9449304,9.75640929 22.1318946,10.5422412 L24.1992879,19.2255923 C24.4518695,20.2894737 24.0932217,21.4025836 23.3058145,21.9951482 C22.9552565,22.2586116 22.5462722,22.4290879 22.122906,22.4883444 C22.0429068,22.499284 21.9629077,22.5065771 21.8838074,22.509312 C21.273477,22.5293681 20.6829216,22.3014586 20.2227019,21.8538444 C19.7202354,21.3642948 19.4316992,20.6760082 19.4316992,19.9658423 L19.4316992,12.0765278 C19.4316992,10.673517 18.3063182,9.533058 16.9238613,9.533058 L16.1328586,9.533058 L16.1328586,1.10040733 C16.1328586,0.49234484 15.6474706,0 15.0488254,0 L2.84671068,0 C2.24806549,0 1.7626775,0.49234484 1.7626775,1.10040733 L1.7626775,25.4365814 L1.08493205,25.4365814 C0.485387991,25.4365814 0,25.9288658 0,26.5360167 C0,27.1440792 0.485387991,27.6363636 1.08493205,27.6363636 L2.84671068,27.6363636 L15.0488254,27.6363636 L16.6299319,27.6363636 C17.2285771,27.6363636 17.7139651,27.1440792 17.7139651,26.5360167 C17.7139651,25.9288658 17.2285771,25.4365814 16.6299319,25.4365814 L16.1328586,25.4365814 L16.1328586,11.1831226 L16.9238613,11.1831226 C17.4092493,11.1831226 17.8047506,11.5833317 17.8047506,12.0765278 L17.8047506,19.9658423 C17.8047506,21.1227108 18.2757567,22.2440254 19.0955231,23.0435318 C19.8397847,23.768284 20.7916845,24.1611999 21.7912242,24.1611999 C21.8442573,24.1611999 21.8963916,24.1602883 21.9485258,24.158465 C22.0806592,24.1529952 22.2127926,24.1411439 22.3440272,24.1229111 C23.0370534,24.0262775 23.7049113,23.7491396 24.2756916,23.3197581 C25.5997222,22.3224263 26.1911764,20.5638767 25.7803944,18.8381462 L23.7138999,10.1547951 Z" id="Fill-1" fill="#E9445A" mask="url(#mask-2)"></path>
                    </g>
                    <rect id="Rectangle" stroke="#FFFFFF" stroke-width="0.5" fill="#E9445A" transform="translate(16.709057, 16.530285) rotate(44.000000) translate(-16.709057, -16.530285) " x="16.0954207" y="-2.21971491" width="1.22727273" height="37.5" rx="0.613636364"></rect>
                </g>
            </g>
        </g>
    </g>
</svg>