<?xml version="1.0" encoding="UTF-8"?>
<svg width="36px" height="16px" viewBox="0 0 36 16" version="1.1" xmlns="http://www.w3.org/2000/svg" xmlns:xlink="http://www.w3.org/1999/xlink">
    <title>F783A641-C16D-4259-B354-00690284A3FA</title>
    <g id="Icones" stroke="none" stroke-width="1" fill="none" fill-rule="evenodd">
        <g transform="translate(-31.000000, -959.000000)" id="Warning-impount-detail">
            <g transform="translate(31.000000, 949.000000)">
                <g id="icones/alert/impound-warning" transform="translate(0.000000, 5.000000)">
                    <g id="trailer" transform="translate(0.000000, 5.000000)">
                        <path d="M35.5201999,2.82261469 L32.7013744,2.29479363 L30.4298209,0.162396521 C30.3173678,0.0568323074 30.1599334,-0.00650622047 30.002499,0.000531393736 L24.0049979,0.000531393736 C23.8475635,0.000531393736 23.6901291,0.0568323074 23.577676,0.162396521 L21.3061224,2.29479363 L18.487297,2.82261469 C18.2099125,2.87187799 18,3.10411926 18,3.3715486 L18,6.74960342 C18,7.05925845 18.2698875,7.31261256 18.5997501,7.31261256 L19.881716,7.31261256 C20.2040816,8.50900697 21.5085381,9.23388124 22.7830071,8.93126383 C23.6301541,8.72717302 24.2898792,8.10786296 24.5072886,7.31261256 L29.4777176,7.31261256 C29.8000833,8.50900697 31.1045398,9.23388124 32.3790087,8.93126383 C33.2261558,8.72717302 33.8858809,8.10786296 34.1032903,7.31261256 L35.4002499,7.31261256 C35.7301125,7.31261256 36,7.05925845 36,6.74960342 L36,3.3715486 C36,3.10411926 35.7975843,2.87187799 35.5201999,2.82261469 Z M22.2057476,7.8756217 C21.5460225,7.8756217 21.0062474,7.36891347 21.0062474,6.74960342 C21.0062474,6.13029337 21.5460225,5.62358515 22.2057476,5.62358515 C22.8654727,5.62358515 23.4052478,6.13029337 23.4052478,6.74960342 C23.4052478,7.36891347 22.8654727,7.8756217 22.2057476,7.8756217 Z M31.8017493,7.8756217 C31.1420242,7.8756217 30.6022491,7.36891347 30.6022491,6.74960342 C30.6022491,6.13029337 31.1420242,5.62358515 31.8017493,5.62358515 C32.4614744,5.62358515 33.0012495,6.13029337 33.0012495,6.74960342 C33.0012495,7.36891347 32.4614744,7.8756217 31.8017493,7.8756217 Z" id="Shape" fill="#FFA46A" fill-rule="nonzero"></path>
                        <path d="M35.4,9.14391186 L22.2,9.14391186 L16.8,9.14391186 L16.8,0.571494491 C16.8,0.257172521 16.53,0 16.2,0 L10.2675,0 C9.645,0 9.0675,0.300034608 8.7375,0.807235969 L6.225,4.62910538 L2.415,5.35776086 C1.125,5.6077897 0.1575,6.6293361 0.03,7.8794803 C0.015,7.9151987 0,7.95806079 0,8.00092288 L0,12.5728788 C0,12.8872008 0.27,13.1443733 0.6,13.1443733 L3.6525,13.1443733 C3.9825,15.0088741 5.835,16.266162 7.7925,15.95184 C9.3075,15.7089548 10.485,14.5802532 10.74,13.1443733 L24.045,13.1443733 C24.375,15.0088741 26.2275,16.266162 28.185,15.95184 C29.7,15.7089548 30.8775,14.5802532 31.1325,13.1443733 L33.6,13.1443733 C33.72,13.1443733 33.8325,13.1086549 33.93,13.0515054 L35.73,11.9085165 C35.895,11.8013612 36,11.6227692 36,11.4298898 L36,9.71540635 C36,9.40108438 35.73,9.14391186 35.4,9.14391186 Z M1.2,8.57241737 L3.6,8.57241737 L3.6,9.71540635 L1.2,9.71540635 L1.2,8.57241737 Z M7.2,14.8588568 C5.8725,14.8588568 4.8,13.8373104 4.8,12.5728788 C4.8,11.3084472 5.8725,10.2869008 7.2,10.2869008 C8.5275,10.2869008 9.6,11.3084472 9.6,12.5728788 C9.6,13.8373104 8.5275,14.8588568 7.2,14.8588568 Z M27.6,14.8588568 C26.2725,14.8588568 25.2,13.8373104 25.2,12.5728788 C25.2,11.3084472 26.2725,10.2869008 27.6,10.2869008 C28.9275,10.2869008 30,11.3084472 30,12.5728788 C30,13.8373104 28.9275,14.8588568 27.6,14.8588568 Z" id="Shape" fill="#FFA46A" fill-rule="nonzero"></path>
                        <path d="M13.4449149,2 L10.6694895,2 C10.4613326,2 10.2670528,2.10647182 10.1699129,2.27557411 L9.05974279,4.27974948 C8.92097152,4.5302714 9.03198853,4.8308977 9.30953107,4.94989562 C9.38585527,4.9874739 9.46911803,5 9.55931936,5 L13.4449149,5 C13.7502117,5 14,4.77453027 14,4.49895616 L14,2.49478079 C14,2.22546973 13.7502117,2 13.4449149,2 Z" id="Path" fill="#FFFFFF"></path>
                    </g>
                </g>
            </g>
        </g>
    </g>
</svg>