<?xml version="1.0" encoding="UTF-8"?>
<svg width="38px" height="33px" viewBox="0 0 38 33" version="1.1" xmlns="http://www.w3.org/2000/svg" xmlns:xlink="http://www.w3.org/1999/xlink">
    <title>E25643A6-114A-48C8-B8E7-CC24B433F73B</title>
    <g id="Icones" stroke="none" stroke-width="1" fill="none" fill-rule="evenodd">
        <g transform="translate(-31.000000, -1124.000000)" fill="#68D15C" id="Notice-quote-">
            <g transform="translate(31.000000, 1119.000000)">
                <g id="icones/alert/impound-warning-copy-2" transform="translate(0.000000, 5.000000)">
                    <g id="devis" transform="translate(2.590909, 0.000000)">
                        <path d="M31.1149396,20.7017693 C30.6511885,20.7017693 30.2753338,21.0663019 30.2753338,21.5160828 L30.2753338,28.7462962 C30.2736939,30.0950029 29.1471134,31.1879644 27.7565163,31.1892367 L4.19802919,31.1892367 C2.80743202,31.1879644 1.68085151,30.0950029 1.67921167,28.7462962 L1.67921167,7.52611302 C1.68085151,6.17772434 2.80743202,5.08476292 4.19802919,5.08317248 L11.6528107,5.08317248 C12.1165617,5.08317248 12.4924165,4.71863991 12.4924165,4.26885897 C12.4924165,3.8193961 12.1165617,3.45454545 11.6528107,3.45454545 L4.19802919,3.45454545 C1.88058593,3.45709018 0.00262376824,5.27848045 0,7.52611302 L0,28.7466142 C0.00262376824,30.9942468 1.88058593,32.8156371 4.19802919,32.8181818 L27.7565163,32.8181818 C30.0739595,32.8156371 31.9519217,30.9942468 31.9545455,28.7466142 L31.9545455,21.5160828 C31.9545455,21.0663019 31.5786906,20.7017693 31.1149396,20.7017693 Z" id="Path"></path>
                        <path d="M30.6926335,1.12529333 C29.1921093,-0.375097778 26.7593854,-0.375097778 25.258861,1.12529333 L10.0261542,16.3566483 C9.9217612,16.461032 9.84638474,16.5904279 9.80702895,16.7324964 L7.80388402,23.9636549 C7.72150358,24.2601314 7.80521803,24.577618 8.02267575,24.7953898 C8.24046688,25.0128281 8.5579817,25.0965353 8.85448449,25.0144956 L16.0862848,23.011195 C16.228366,22.9718426 16.3577733,22.8964729 16.4621663,22.7920891 L31.6945396,7.56040072 C33.1927292,6.0590091 33.1927292,3.62850213 31.6945396,2.12711042 L30.6926335,1.12529333 Z M11.8865509,16.9115829 L24.3533434,4.44556329 L28.3739749,8.46583796 L15.9068488,20.9318575 L11.8865509,16.9115829 Z M11.0834252,18.5230277 L14.2955946,21.7352455 L9.85238821,22.9661732 L11.0834252,18.5230277 Z M30.4871828,6.3531511 L29.5816653,7.25858833 L25.5607003,3.2379802 L26.4665513,2.33254296 C27.3000277,1.4991405 28.6514668,1.4991405 29.4849433,2.33254296 L30.4871828,3.33436005 C31.3193251,4.16876301 31.3193251,5.51908169 30.4871828,6.3531511 L30.4871828,6.3531511 Z" id="Shape" fill-rule="nonzero"></path>
                    </g>
                </g>
            </g>
        </g>
    </g>
</svg>