<?xml version="1.0" encoding="UTF-8"?>
<svg width="32px" height="15px" viewBox="0 0 32 15" version="1.1" xmlns="http://www.w3.org/2000/svg" xmlns:xlink="http://www.w3.org/1999/xlink">
    <title>509F2976-9C5C-4258-AA52-C930FFB79257</title>
    <g id="Icones" stroke="none" stroke-width="1" fill="none" fill-rule="evenodd">
        <g transform="translate(-33.000000, -780.000000)" id="ALERTE-Vol">
            <g transform="translate(33.000000, 780.000000)">
                <g id="Group-7-Copy" transform="translate(0.247136, 0.500000)">
                    <path d="M29.4528636,4.8 L28.4528636,4.8 C27.9528636,4.8 27.4528636,4.6 27.0528636,4.2 L23.3528636,0.7 C22.9528636,0.3 22.3528636,2.66453526e-15 21.7528636,2.66453526e-15 L14.0528636,2.66453526e-15 C13.4528636,2.66453526e-15 12.8528636,0.2 12.3528636,0.6 L6.15286364,5.3 C5.85286364,5.5 5.45286364,5.7 5.05286364,5.8 L1.45286364,6.4 C1.05286364,6.5 0.652863644,6.7 0.352863644,7 C0.252863644,7.2 -0.247136356,8.2 0.152863644,9.4 C0.252863644,10.5 0.552863644,10.9 0.752863644,11 C0.852863644,11 1.45286364,11.1 1.55286364,11.1 L1.55286364,11.2 C1.55286364,12.7 2.75286364,13.9 4.25286364,13.9 L4.75286364,13.9 C6.25286364,13.9 7.45286364,12.7 7.45286364,11.2 L7.45286364,11.1 L22.0528636,11.1 L22.0528636,11.2 C22.0528636,12.7 23.2528636,13.9 24.7528636,13.9 L25.2528636,13.9 C26.7528636,13.9 27.9528636,12.7 27.9528636,11.2 L27.9528636,11.1 L29.4528636,11.1 C30.2528636,11.1 30.9528636,10.4 30.9528636,9.6 L30.9528636,6.3 C30.9528636,5.5 30.2528636,4.8 29.4528636,4.8 Z" id="Path" fill="#E9445A"></path>
                    <circle id="Oval" fill="#FFFFFF" cx="16.1528636" cy="5.6" r="4.78001552"></circle>
                    <path d="M15.1968605,5.19028438 L15.1968605,5.19028438 C16.4260074,5.05371251 16.835723,4.78056877 16.835723,4.23428128 L16.835723,4.23428128 C16.835723,3.82456566 16.5625793,3.55142192 16.0162918,3.55142192 C15.4700043,3.55142192 15.0602887,3.82456566 14.6505731,4.23428128 L13.8311418,3.27827817 C14.3774293,2.73199069 15.0602887,2.32227507 16.1528636,2.32227507 C17.5185824,2.32227507 18.4745855,3.00513443 18.4745855,4.23428128 L18.4745855,4.23428128 C18.4745855,5.46342813 17.6551542,5.87314374 16.5625793,6.14628749 L16.4260074,6.69257498 L15.4700043,6.69257498 L15.1968605,5.19028438 Z M15.1968605,7.51200621 L16.6991511,7.51200621 L16.6991511,9.0142968 L15.1968605,9.0142968 L15.1968605,7.51200621 L15.1968605,7.51200621 Z" id="Shape" fill="#E9445A" fill-rule="nonzero"></path>
                </g>
            </g>
        </g>
    </g>
</svg>