<?xml version="1.0" encoding="utf-8" ?>
<svg xmlns="http://www.w3.org/2000/svg" xmlns:xlink="http://www.w3.org/1999/xlink" width="28" height="28">
	<path fill="#01426A" transform="translate(2.79261 6)" d="M5.9935136 8.8409958C6.2472072 8.8409958 6.4652252 8.7455301 6.6475677 8.5545979C6.8299098 8.3636656 6.9210811 8.1353769 6.9210811 7.8697319C6.9210811 7.6040869 6.8299098 7.3757982 6.6475677 7.184866C6.4652252 6.9939337 6.2472072 6.8984675 5.9935136 6.8984675C5.73982 6.8984675 5.5257659 6.9939337 5.3513513 7.184866C5.1769371 7.3757982 5.0897298 7.6040869 5.0897298 7.8697319C5.0897298 8.1353769 5.1769371 8.3636656 5.3513513 8.5545979C5.5257659 8.7455301 5.73982 8.8409958 5.9935136 8.8409958ZM16.03027 8.8409958C16.283964 8.8409958 16.498018 8.7455301 16.672432 8.5545979C16.846848 8.3636656 16.934053 8.1353769 16.934053 7.8697319C16.934053 7.6040869 16.846848 7.3757982 16.672432 7.184866C16.498018 6.9939337 16.283964 6.8984675 16.03027 6.8984675C15.776577 6.8984675 15.558558 6.9939337 15.376216 7.184866C15.193873 7.3757982 15.102703 7.6040869 15.102703 7.8697319C15.102703 8.1353769 15.193873 8.3636656 15.376216 8.5545979C15.558558 8.7455301 15.776577 8.8409958 16.03027 8.8409958ZM16.41081 3.8103449C18.107388 4.7234993 19.463062 5.9977651 20.477839 7.633142C21.492613 9.2685184 22 11.057471 22 13L0 13C0 11.057471 0.5073874 9.2685184 1.5221622 7.633142C2.536937 5.9977651 3.9005406 4.7234993 5.6129727 3.8103449L3.9243243 0.54789275C3.8133333 0.33205619 3.852973 0.1660281 4.0432434 0.049808428C4.2493691 -0.049808428 4.407928 0 4.518919 0.19923371L6.2313514 3.4865901C7.7376575 2.7892721 9.331171 2.440613 11.011892 2.440613C12.692613 2.440613 14.286126 2.7892721 15.792433 3.4865901L17.504866 0.19923371C17.615856 0 17.774414 -0.049808428 17.980541 0.049808428C18.170811 0.1660281 18.210451 0.33205619 18.099459 0.54789275L16.41081 3.8103449Z"/>
</svg>
