<?xml version="1.0" encoding="UTF-8"?>
<svg width="37px" height="37px" viewBox="0 0 26 23" version="1.1" xmlns="http://www.w3.org/2000/svg" xmlns:xlink="http://www.w3.org/1999/xlink">
    <title>Group</title>
    <defs>
        <filter color-interpolation-filters="auto" id="filter-1">
            <feColorMatrix in="SourceGraphic" type="matrix" values="0 0 0 0 0.223529 0 0 0 0 0.631373 0 0 0 0 0.847059 0 0 0 1.000000 0"></feColorMatrix>
        </filter>
        <path d="M0.179310345,15.647541 C0.179310345,16.9672131 1.07586207,18.0983607 2.15172414,18.2868852 L2.15172414,21.4918033 C2.15172414,22.2459016 2.51034483,23 3.22758621,23 L5.02068966,23 C5.55862069,23 6.09655172,22.2459016 6.09655172,21.4918033 L6.09655172,18.2868852 L19.5448276,18.2868852 L19.5448276,21.4918033 C19.5448276,22.2459016 19.9034483,23 20.6206897,23 L22.4137931,23 C22.9517241,23 23.4896552,22.2459016 23.4896552,21.4918033 L23.4896552,18.2868852 C24.5655172,18.0983607 25.462069,16.9672131 25.462069,15.4590164 L25.462069,12.442623 C25.462069,11.5 25.2827586,10.557377 24.7448276,9.6147541 L24.3862069,8.67213115 L25.1034483,8.67213115 C25.6413793,8.67213115 26,8.10655738 26,7.54098361 C26,6.97540984 25.6413793,6.40983607 25.1034483,6.40983607 L23.3103448,6.40983607 L21.5172414,2.82786885 C20.6206897,1.13114754 19.0068966,0 17.2137931,0 L8.7862069,0 C6.99310345,0 5.37931034,1.13114754 4.48275862,2.82786885 L2.68965517,6.40983607 L0.896551724,6.40983607 C0.35862069,6.40983607 0,6.97540984 0,7.54098361 C0,8.10655738 0.35862069,8.67213115 0.896551724,8.67213115 L1.6137931,8.67213115 L0.896551724,9.6147541 C0.537931034,10.1803279 0.35862069,10.9344262 0.35862069,11.6885246 L0.179310345,15.647541 Z M5,6 L6.2173913,3.63636364 C6.73913043,2.54545455 7.7826087,2 8.82608696,2 L17.173913,2 C18.2173913,2 19.2608696,2.72727273 19.7826087,3.63636364 L21,6 L5,6 Z M19.5,15 C18.1538462,15 17,13.8461538 17,12.5 C17,11.1538462 18.1538462,10 19.5,10 C20.8461538,10 22,11.1538462 22,12.5 C22,13.8461538 20.8461538,15 19.5,15 Z M6.5,15 C5.15384615,15 4,13.8461538 4,12.5 C4,11.1538462 5.15384615,10 6.5,10 C7.84615385,10 9,11.1538462 9,12.5 C9,13.8461538 7.84615385,15 6.5,15 Z" id="path-2"></path>
    </defs>
    <g id="Symbols" stroke="none" stroke-width="1" fill="none" fill-rule="evenodd">
        <g id="Group" transform="translate(-5.000000, -6.000000)" filter="url(#filter-1)">
            <g transform="translate(5.000000, 6.000000)" id="Color">
                <mask id="mask-3" fill="white">
                    <use xlink:href="#path-2"></use>
                </mask>
                <use id="Mask" fill="#3AA1D8" fill-rule="nonzero" xlink:href="#path-2"></use>
                <g id="Group" mask="url(#mask-3)">
                    <g transform="translate(-5.000000, -6.000000)" id="Color">
                        <rect id="color#1" fill="#3AA1D8" x="0" y="0" width="36" height="36"></rect>
                    </g>
                </g>
            </g>
        </g>
    </g>
</svg>