<?xml version="1.0" encoding="utf-8" ?>
<svg xmlns="http://www.w3.org/2000/svg" xmlns:xlink="http://www.w3.org/1999/xlink" width="28" height="28">
	<path fill="#01426A" transform="translate(3 1)" d="M11.432314 18.890667L6.3046284 15.892L6.3006859 9.8873329L11.424429 6.882L16.552114 9.8806667L16.556057 15.885333L11.432314 18.890667ZM22.854115 18.572001L19.162943 16.437334L21.427458 15.489333L20.822886 14.002L18.141087 15.124666L18.138456 10.501333L20.788057 11.533334L21.355829 10.031333L19.078829 9.1446667L22.710857 6.9206667L21.891399 5.5433335L18.253458 7.7706666L18.543257 5.3026667L16.968086 5.1126666L16.621771 8.0646667L12.841228 5.8533335L15.1202 4.0539999L14.146315 2.7846668L12.221543 4.3039999L12.221543 0L10.6352 0L10.6352 4.3113332L8.7018862 2.7846668L7.7280002 4.0539999L10.008286 5.8546667L6.2238002 8.0740004L5.8860288 5.1933331L4.3115144 5.3839998L4.600657 7.8520002L0.96271431 5.6246667L0.14325714 7.0019999L3.7759428 9.2259998L1.4989429 10.112667L2.0667143 11.614667L4.7150002 10.583333L4.7182856 15.208L2.0318856 14.083333L1.4266572 15.570666L3.6918285 16.518667L0 18.653334L0.78528571 20.051332L4.4712 17.92L4.1229143 20.369333L5.6921716 20.599333L6.1134 17.637333L10.001715 19.911333L7.7076287 21.711334L8.6775713 22.983999L10.606943 21.469999L10.5938 25.774L12.179485 25.778667L12.192629 21.468L14.122 23.000668L15.099829 21.733999L12.828743 19.93L16.751228 17.629333L17.1626 20.518L18.731857 20.288L18.383572 17.838667L22.069487 19.969999L22.854115 18.572001L22.854115 18.572001Z" fill-rule="evenodd"/>
</svg>
