<?xml version="1.0" encoding="utf-8" ?>
<svg xmlns="http://www.w3.org/2000/svg" xmlns:xlink="http://www.w3.org/1999/xlink" width="28" height="28">
	<path fill="#01426A" transform="translate(6 1)" d="M7.6497464 0C7.3358374 0 7.0475979 0.17681359 6.9000602 0.45932221L0.10018523 13.459874C-0.040464073 13.728458 -0.032563183 14.052597 0.12099794 14.313726C0.27455905 14.574856 0.55125302 14.73467 0.84987146 14.73471L4.9595461 14.73471L3.4100244 25.002728C3.3524153 25.388128 3.554287 25.765316 3.9033363 25.924456C4.2523856 26.083595 4.6626911 25.985516 4.9059968 25.684778L16.806629 10.950068C17.015253 10.69129 17.058929 10.333095 16.9188 10.030108C16.778671 9.7271233 16.479834 9.5336084 16.151291 9.533102L10.78194 9.533102L15.195909 1.2817689C15.339557 1.0133584 15.333851 0.68762934 15.180893 0.42462012C15.027935 0.16161093 14.750364 0 14.450472 0L7.6497464 0Z"/>
</svg>
