<?xml version="1.0" encoding="utf-8" ?>
<svg xmlns="http://www.w3.org/2000/svg" xmlns:xlink="http://www.w3.org/1999/xlink" width="36" height="36">
	<path fill="#4D4D4D" d="M18 0C27.941126 0 36 8.0588741 36 18C36 27.941126 27.941126 36 18 36C8.0588741 36 0 27.941126 0 18C0 8.0588741 8.0588741 0 18 0ZM18.094736 2.4631579C9.4616537 2.4631579 2.4631579 9.4616537 2.4631579 18.094736C2.4631579 26.727819 9.4616537 33.726315 18.094736 33.726315C26.727819 33.726315 33.726315 26.727819 33.726315 18.094736C33.726315 9.4616537 26.727819 2.4631579 18.094736 2.4631579ZM17.602383 23.833496C18.798376 23.833496 19.639999 24.683746 19.639999 25.885826C19.639999 27.073246 18.798376 27.923496 17.602383 27.923496C16.406389 27.923496 15.55 27.073246 15.55 25.885826C15.55 24.683746 16.406389 23.833496 17.602383 23.833496ZM17.719618 7.3600001C21.219618 7.3600001 23.608507 9.5266666 23.608507 12.387777C23.608507 14.568334 22.483507 16.110001 20.705729 17.179445C18.941841 18.221111 18.441841 18.998888 18.441841 20.457222L18.441841 21.360001L16.011284 21.360001L16.011284 20.082222C15.997396 18.248888 16.886284 16.998888 18.789062 15.86C20.400173 14.873889 21.025173 13.998889 21.025173 12.512777C21.025173 10.790556 19.691841 9.5266666 17.622396 9.5266666C15.525173 9.5266666 14.19184 10.762777 14.039062 12.748889L11.664062 12.748889C11.81684 9.748889 13.81684 7.3600001 17.719618 7.3600001Z" fill-rule="evenodd"/>
</svg>
