<?xml version="1.0" encoding="utf-8" ?>
<svg xmlns="http://www.w3.org/2000/svg" xmlns:xlink="http://www.w3.org/1999/xlink" width="13" height="16">
	<path fill="#01426A" transform="translate(6.96182e-05 0.142787)" d="M3.6620648 12.454682L8.0565424 12.454682L8.0565424 13.919508L3.6620648 13.919508C1.640605 13.919508 0 12.278903 0 10.257443L0 3.6657267L1.4648259 3.6657267L1.4648259 10.257443C1.4648259 11.473248 2.4462593 12.454682 3.6620648 12.454682M4.7020912 2.5011902C5.2733731 1.929908 5.2733731 0.99974364 4.7020912 0.42846158C4.1308088 -0.14282052 3.2006445 -0.14282052 2.6293623 0.42846158C2.0580804 0.99974364 2.0580804 1.929908 2.6293623 2.5011902C3.2006445 3.0797963 4.1234846 3.0797963 4.7020912 2.5011902M5.4930968 5.1305528C5.4930968 4.3248982 4.8339252 3.6657267 4.0282712 3.6657267L3.6620648 3.6657267C2.8564105 3.6657267 2.1972389 4.3248982 2.1972389 5.1305528L2.1972389 9.5250301C2.1972389 10.740836 3.1786721 11.722269 4.3944778 11.722269L8.107811 11.722269L10.671256 14.285714L11.718607 13.238364L8.0052738 9.5250301L5.4930968 9.5250301L5.4930968 5.1305528Z" fill-rule="evenodd"/>
</svg>
