<?xml version="1.0" encoding="utf-8" ?>
<svg xmlns="http://www.w3.org/2000/svg" xmlns:xlink="http://www.w3.org/1999/xlink" width="28" height="28">
	<path fill="#01426A" transform="translate(4 4)" d="M17.846561 16.646273L16.678452 15.4782L15.477991 16.677917L16.646805 17.846695C15.316242 18.94585 13.660774 19.663151 11.84848 19.835443L11.84848 18.181435L10.15152 18.181435L10.15152 19.835443C8.3392258 19.663151 6.6837578 18.94585 5.3531952 17.846695L6.5213056 16.677917L5.3215485 15.4782L4.1527348 16.646273C3.0535436 15.316456 2.3369243 13.660337 2.1639228 11.848804L3.8179841 11.848804L3.8179841 10.151196L2.1639228 10.151196C2.3369243 8.3396626 3.0535436 6.6835442 4.1527348 5.353024L5.3215485 6.5218005L6.5213056 5.3220816L5.3531952 4.1533051C6.6837578 3.0541492 8.3392258 2.3368495 10.15152 2.164557L10.15152 3.8185654L11.84848 3.8185654L11.84848 2.164557C13.660774 2.3368495 15.316242 3.0541492 16.646805 4.1533051L15.477991 5.3220816L16.678452 6.5218005L17.846561 5.353024C18.945753 6.6835442 19.663076 8.3396626 19.836077 10.151196L18.182016 10.151196L18.182016 11.848804L19.836077 11.848804C19.663076 13.660337 18.945753 15.316456 17.846561 16.646273ZM10.999648 0C4.9340534 0 0 4.9345989 0 11C0 17.065401 4.9340534 22 10.999648 22C17.065243 22 22 17.065401 22 11C22 4.9345989 17.065243 0 10.999648 0L10.999648 0Z" fill-rule="evenodd"/>
	<path fill="#01426A" transform="translate(1 1)" d="M4.9953279 5L5 1.8087234L4.350554 2.4556489L3.9801095 2.084167L1.8996129 0L0 1.8927571L2.0804965 3.9769242L2.4502738 4.3484058L1.8014951 4.9953313L4.9953279 5" fill-rule="evenodd"/>
	<path fill="#01426A" transform="translate(10 10)" d="M4.7014208 3.4078903C4.5756187 3.4078903 4.4566913 3.4312179 4.341888 3.4648371L0.88130158 0L0 0.87684393L3.4612741 4.341681C3.4269018 4.4569468 3.4028413 4.5770154 3.4028413 4.7039452C3.4028413 5.4195542 3.9844179 6 4.7014208 6C5.4184237 6 6 5.4195542 6 4.7039452C6 3.9883361 5.4184237 3.4078903 4.7014208 3.4078903" fill-rule="evenodd"/>
</svg>
