<?xml version="1.0" encoding="utf-8" ?>
<svg xmlns="http://www.w3.org/2000/svg" xmlns:xlink="http://www.w3.org/1999/xlink" width="37" height="37">
	<path fill="none" stroke="#4D4D4D" stroke-width="2.509804" stroke-miterlimit="10" transform="translate(1.25488 1.25488)" d="M26.352942 13.176471Q26.35294 13.499935 26.337069 13.823009Q26.321198 14.146084 26.289494 14.467991Q26.257786 14.789897 26.210325 15.109859Q26.162861 15.429823 26.099758 15.747071Q26.036652 16.06432 25.958057 16.37809Q25.879461 16.69186 25.785564 17.001398Q25.691666 17.310932 25.582693 17.615488Q25.473721 17.920044 25.349937 18.218885Q25.226154 18.517727 25.087854 18.810135Q24.949556 19.102543 24.797077 19.387815Q24.644596 19.673084 24.478302 19.950529Q24.312008 20.227974 24.132301 20.496923Q23.952595 20.765875 23.759907 21.025684Q23.567221 21.285492 23.362019 21.535534Q23.156815 21.785576 22.939589 22.025246Q22.722364 22.264917 22.493641 22.493641Q22.264917 22.722364 22.025248 22.93959Q21.785576 23.156815 21.535536 23.362019Q21.285494 23.567223 21.025684 23.759909Q20.765875 23.952595 20.496923 24.132303Q20.227974 24.31201 19.950529 24.478306Q19.673084 24.6446 19.387814 24.797081Q19.102543 24.949558 18.810135 25.087856Q18.517727 25.226154 18.218885 25.349939Q17.920044 25.473724 17.615488 25.582695Q17.310932 25.691669 17.001398 25.785566Q16.69186 25.879463 16.37809 25.958057Q16.06432 26.036652 15.747071 26.099758Q15.429823 26.162861 15.109859 26.210325Q14.789897 26.257786 14.467991 26.289492Q14.146084 26.321198 13.823009 26.337069Q13.499935 26.35294 13.176471 26.352942Q12.853006 26.35294 12.529931 26.337069Q12.206857 26.321198 11.884951 26.289494Q11.563044 26.257786 11.24308 26.210325Q10.923118 26.162861 10.605868 26.099758Q10.28862 26.036652 9.9748497 25.958057Q9.6610794 25.879461 9.3515434 25.785564Q9.0420074 25.691666 8.7374506 25.582693Q8.4328957 25.473721 8.1340532 25.349937Q7.8352113 25.226154 7.5428028 25.087854Q7.2503948 24.949556 6.9651251 24.797077Q6.6798549 24.644596 6.4024105 24.478302Q6.1249657 24.312008 5.8560152 24.132301Q5.5870647 23.952595 5.3272557 23.759907Q5.0674472 23.567221 4.8174062 23.362019Q4.5673647 23.156815 4.3276935 22.939589Q4.0880222 22.722364 3.8592987 22.493641Q3.6305749 22.264917 3.4133496 22.025248Q3.1961246 21.785576 2.990921 21.535536Q2.7857175 21.285494 2.59303 21.025684Q2.4003425 20.765875 2.2206354 20.496923Q2.0409284 20.227974 1.8746346 19.950529Q1.7083406 19.673084 1.5558608 19.387814Q1.4033809 19.102543 1.2650821 18.810135Q1.1267834 18.517727 1.0029989 18.218885Q0.87921453 17.920044 0.77024281 17.615488Q0.66127098 17.310932 0.56737435 17.001398Q0.47347763 16.69186 0.39488226 16.37809Q0.31628686 16.06432 0.25318214 15.747071Q0.19007742 15.429823 0.14261536 15.109859Q0.095153332 14.789897 0.063448302 14.467991Q0.031743269 14.146084 0.015871635 13.823009Q0 13.499935 0 13.176471Q0 12.853006 0.015871635 12.529931Q0.031743269 12.206857 0.063448302 11.884951Q0.095153332 11.563044 0.14261538 11.24308Q0.19007742 10.923118 0.25318214 10.605868Q0.31628686 10.28862 0.39488223 9.9748497Q0.47347763 9.6610794 0.56737435 9.3515434Q0.66127098 9.0420074 0.77024281 8.7374506Q0.87921453 8.4328957 1.0029989 8.1340532Q1.1267834 7.8352113 1.2650821 7.5428028Q1.4033809 7.2503948 1.5558608 6.9651251Q1.7083406 6.6798549 1.8746345 6.4024105Q2.0409284 6.1249657 2.2206354 5.8560152Q2.4003425 5.5870647 2.59303 5.3272557Q2.7857175 5.0674472 2.990921 4.8174062Q3.1961246 4.5673647 3.4133496 4.3276935Q3.6305749 4.0880222 3.8592987 3.8592987Q4.0880222 3.6305749 4.3276935 3.4133496Q4.5673647 3.1961246 4.8174062 2.990921Q5.0674472 2.7857175 5.3272562 2.59303Q5.5870647 2.4003425 5.8560152 2.2206354Q6.1249657 2.0409284 6.4024105 1.8746346Q6.6798549 1.7083406 6.9651251 1.5558608Q7.2503948 1.4033809 7.5428028 1.2650821Q7.8352108 1.1267834 8.1340523 1.0029989Q8.4328947 0.87921453 8.7374506 0.77024281Q9.0420065 0.66127098 9.3515425 0.56737435Q9.6610785 0.47347763 9.9748487 0.39488226Q10.28862 0.31628686 10.605868 0.25318214Q10.923118 0.19007742 11.243081 0.14261536Q11.563044 0.095153332 11.884951 0.063448302Q12.206857 0.031743269 12.529931 0.015871635Q12.853006 0 13.176471 0Q13.499935 0 13.823009 0.015871635Q14.146084 0.031743269 14.467991 0.063448302Q14.789897 0.095153332 15.109859 0.14261538Q15.429823 0.19007742 15.747071 0.25318214Q16.06432 0.31628686 16.37809 0.39488223Q16.69186 0.47347763 17.001398 0.56737435Q17.310932 0.66127098 17.615488 0.77024281Q17.920044 0.87921453 18.218885 1.0029989Q18.517727 1.1267834 18.810135 1.2650821Q19.102543 1.4033809 19.387815 1.5558608Q19.673084 1.7083406 19.950529 1.8746345Q20.227974 2.0409284 20.496923 2.2206354Q20.765875 2.4003425 21.025684 2.59303Q21.285492 2.7857175 21.535534 2.990921Q21.785576 3.1961246 22.025246 3.4133496Q22.264917 3.6305749 22.493641 3.8592987Q22.722364 4.0880222 22.93959 4.3276935Q23.156815 4.5673647 23.362019 4.8174062Q23.567223 5.0674472 23.759909 5.3272562Q23.952595 5.5870647 24.132303 5.8560152Q24.31201 6.1249657 24.478306 6.4024105Q24.6446 6.6798549 24.797081 6.9651251Q24.949558 7.2503948 25.087856 7.5428028Q25.226154 7.8352108 25.349939 8.1340523Q25.473724 8.4328947 25.582695 8.7374506Q25.691669 9.0420065 25.785566 9.3515425Q25.879463 9.6610785 25.958057 9.9748487Q26.036652 10.28862 26.099758 10.605868Q26.162861 10.923118 26.210325 11.243081Q26.257786 11.563044 26.289492 11.884951Q26.321198 12.206857 26.337069 12.529931Q26.35294 12.853006 26.352942 13.176471Z"/>
	<path fill="none" stroke="#4D4D4D" stroke-width="3.7647059" stroke-linecap="round" stroke-miterlimit="10" transform="translate(24.3238 24.3094)" d="M0 0L8.9310436 8.9454994" fill-rule="evenodd"/>
</svg>
