<?xml version="1.0" encoding="utf-8" ?>
<svg xmlns="http://www.w3.org/2000/svg" xmlns:xlink="http://www.w3.org/1999/xlink" width="36" height="36">
	<path fill="#39A1D8" d="M18 0C27.941126 0 36 8.0588741 36 18C36 27.941126 27.941126 36 18 36C8.0588741 36 0 27.941126 0 18C0 8.0588741 8.0588741 0 18 0ZM18 1.6666666C8.9793491 1.6666666 1.6666666 8.9793491 1.6666666 18C1.6666666 23.117546 4.0202231 27.68539 7.7039833 30.68018C8.5167847 30.151772 9.2182255 29.361349 10.132967 28.802677C10.520986 28.565697 11.638905 28.20327 12.064001 28.08613C12.754573 27.896196 13.770267 27.807505 14.066827 27.032711C14.066827 27.032711 14.46336 25.489494 14.300378 23.396044C14.300378 23.396044 12.752243 23.210295 12.916065 19.628338C12.916065 19.628338 11.934815 20.442457 11.701264 18.418453C11.701264 18.418453 11.44419 17.02282 11.257685 16.766787C11.257685 16.766787 10.743537 15.394582 11.677741 15.580332C11.677741 15.580332 11.513919 12.88194 11.397984 12.276999C11.297171 11.756564 11.355978 11.147439 11.447551 10.632025C11.528201 10.181875 11.67018 9.730051 11.928094 9.346838C12.223813 8.9084015 12.749723 8.7042437 13.163898 8.3996811C13.694009 8.0097742 14.200596 7.5788684 14.770191 7.2450209C14.994501 7.1144938 15.223851 6.9914975 15.459083 6.8818884C15.590981 6.819972 16.164776 6.712873 16.231985 6.6250186C16.231985 6.6250186 16.442013 6.3455572 16.886433 6.3455572C17.361095 6.3179455 17.843319 6.3397002 18.316301 6.3848825C18.7456 6.4267182 19.173216 6.4936547 19.589071 6.608284C20.099018 6.7480149 20.614006 7.0082316 21.111353 7.2006755C21.476801 7.3420792 21.826288 7.5253191 22.14805 7.7487206C23.098217 8.4080486 23.624966 9.3518581 23.776186 10.486438C23.776186 10.486438 24.079468 12.765637 23.378815 15.417172C23.378815 15.417172 24.640661 14.766212 23.776186 17.488031C23.776186 17.488031 23.542635 18.302151 23.496429 18.743935C23.496429 18.743935 23.425859 19.906961 22.538702 19.348875C22.538702 19.348875 22.539013 19.366037 22.539217 19.398121L22.539103 19.5369C22.53364 20.312841 22.440298 23.23205 21.347424 23.373453C21.347424 23.373453 21.340982 23.534742 21.338902 23.791851L21.338675 24.078476C21.345436 25.124193 21.440676 26.992107 22.024553 27.257463C22.024553 27.257463 22.794937 27.839815 25.341314 28.327616L25.377943 28.343075C25.674084 28.468153 27.701925 29.326487 29.112093 29.971504C32.323627 26.988535 34.333332 22.728964 34.333332 18C34.333332 8.9793491 27.020651 1.6666666 18 1.6666666Z" fill-rule="evenodd"/>
</svg>
