<?xml version="1.0" encoding="utf-8" ?>
<svg xmlns="http://www.w3.org/2000/svg" xmlns:xlink="http://www.w3.org/1999/xlink" width="26" height="26">
	<path fill="#E9445A" transform="translate(0 4.37145)" d="M2.0538168 14.61051L23.724445 14.61051L23.724445 4.1205845L2.0538168 4.1205845L2.0538168 14.61051ZM24.752033 2.0862525L21.706038 2.0862525L21.706038 0L19.240913 0L19.240913 2.0862525L6.5046611 2.0862525L6.5046611 0L4.0395365 0L4.0395365 2.0862525L1.0269084 2.0862525C0.45965728 2.0862525 0 2.5420723 0 3.1037557L0 15.628014C0 16.189697 0.45965728 16.644842 1.0269084 16.644842L24.752033 16.644842C25.319284 16.644842 25.778942 16.189697 25.778942 15.628014L25.778942 3.1037557C25.778942 2.5420723 25.319284 2.0862525 24.752033 2.0862525L24.752033 2.0862525Z" fill-rule="evenodd"/>
	<path fill="#E9445A" transform="translate(3.76578 10.2411)" d="M0 0L3.0126278 0L3.0126278 1.2204645L0 1.2204645L0 0Z"/>
	<path fill="#E9445A" transform="translate(18.9672 9.35985)" d="M0.89003271 2.9830577L2.1225951 2.9830577L2.1225951 2.1017611L3.0126278 2.1017611L3.0126278 0.88129669L2.1225951 0.88129669L2.1225951 0L0.89003271 0L0.89003271 0.88129669L0 0.88129669L0 2.1017611L0.89003271 2.1017611L0.89003271 2.9830577" fill-rule="evenodd"/>
	<path fill="#E9445A" transform="translate(3.40487 1)" d="M1.0676007 0.19487506C0.8360697 -0.05191499 0.44655269 -0.066075072 0.1973163 0.16250914C-0.052601065 0.39244196 -0.066901512 0.77813566 0.16462956 1.0249257L20.527456 23.80513C20.64867 23.934593 20.813467 24 20.978943 24C21.129438 24 21.279934 23.946056 21.398422 23.837496C21.647659 23.607563 21.661959 23.22187 21.430428 22.97508L1.0676007 0.19487506" fill-rule="evenodd"/>
	<path fill="none" stroke="white" stroke-width="0.5" stroke-miterlimit="10" transform="translate(3.40487 1)" d="M1.0676007 0.19487506C0.8360697 -0.05191499 0.44655269 -0.066075072 0.1973163 0.16250914C-0.052601065 0.39244196 -0.066901512 0.77813566 0.16462956 1.0249257L20.527456 23.80513C20.64867 23.934593 20.813467 24 20.978943 24C21.129438 24 21.279934 23.946056 21.398422 23.837496C21.647659 23.607563 21.661959 23.22187 21.430428 22.97508L1.0676007 0.19487506" fill-rule="evenodd"/>
</svg>
