<?xml version="1.0" encoding="utf-8" ?>
<svg xmlns="http://www.w3.org/2000/svg" xmlns:xlink="http://www.w3.org/1999/xlink" width="26" height="26">
	<path fill="#68D15C" d="M26 13Q26 13.319132 25.984341 13.637879Q25.968683 13.956628 25.937403 14.274223Q25.90612 14.591818 25.859293 14.907496Q25.812466 15.223173 25.750206 15.536173Q25.687946 15.849173 25.610405 16.158741Q25.532864 16.468309 25.440224 16.773701Q25.347584 17.07909 25.240072 17.379566Q25.132557 17.680042 25.010431 17.974882Q24.888306 18.269722 24.75186 18.558214Q24.615414 18.846706 24.464977 19.128157Q24.314537 19.409605 24.150471 19.683334Q23.986404 19.957062 23.809105 20.222412Q23.631805 20.487761 23.441698 20.744091Q23.251591 21.00042 23.049137 21.247112Q22.84668 21.493805 22.632364 21.730265Q22.418047 21.966726 22.192387 22.192387Q21.966726 22.418047 21.730267 22.632364Q21.493805 22.84668 21.247112 23.049137Q21.00042 23.251591 20.744089 23.441696Q20.487761 23.631802 20.222412 23.809103Q19.957062 23.986403 19.683334 24.150471Q19.409605 24.314537 19.128157 24.464975Q18.846706 24.615414 18.558214 24.75186Q18.269722 24.888306 17.974882 25.010431Q17.680042 25.132557 17.379566 25.24007Q17.07909 25.347584 16.773701 25.440224Q16.468309 25.532864 16.158741 25.610405Q15.849173 25.687946 15.536173 25.750206Q15.223173 25.812466 14.907495 25.859293Q14.591818 25.90612 14.274223 25.937403Q13.956628 25.968681 13.63788 25.984341Q13.319132 26 13 26Q12.680868 26 12.36212 25.984341Q12.043373 25.968681 11.725778 25.937403Q11.408182 25.90612 11.092505 25.859293Q10.776826 25.812466 10.463825 25.750206Q10.150826 25.687946 9.8412571 25.610405Q9.5316887 25.532864 9.2262993 25.440224Q8.9209089 25.347584 8.6204319 25.240072Q8.3199549 25.132557 8.025115 25.010431Q7.7302752 24.888306 7.4417839 24.75186Q7.1532917 24.615414 6.8718424 24.464977Q6.5903931 24.314537 6.3166637 24.150471Q6.0429354 23.986404 5.7775865 23.809105Q5.5122375 23.631805 5.2559085 23.441698Q4.9995794 23.251591 4.7528872 23.049137Q4.5061946 22.84668 4.2697334 22.632364Q4.0332723 22.418047 3.8076117 22.192387Q3.5819511 21.966726 3.3676353 21.730267Q3.1533189 21.493805 2.9508638 21.247112Q2.7484083 21.00042 2.5583017 20.744089Q2.3681951 20.487761 2.1908948 20.222412Q2.0135946 19.957062 1.849528 19.683334Q1.6854613 19.409605 1.5350236 19.128157Q1.3845857 18.846706 1.2481391 18.558214Q1.1116925 18.269722 0.98956597 17.974882Q0.86743945 17.680042 0.75992709 17.379566Q0.65241474 17.07909 0.55977559 16.773701Q0.46713644 16.468309 0.38959366 16.158741Q0.31205091 15.849173 0.24979132 15.536173Q0.18753175 15.223173 0.14070535 14.907495Q0.093878962 14.591818 0.062598549 14.274223Q0.031318136 13.956628 0.015659068 13.63788Q0 13.319132 0 13Q0 12.680868 0.015659068 12.36212Q0.031318136 12.043373 0.062598549 11.725778Q0.093878962 11.408182 0.14070535 11.092505Q0.18753175 10.776826 0.24979132 10.463825Q0.31205091 10.150826 0.38959366 9.8412571Q0.46713644 9.5316887 0.55977559 9.2262993Q0.65241474 8.9209089 0.75992709 8.6204319Q0.86743945 8.3199549 0.98956597 8.025115Q1.1116925 7.7302752 1.2481391 7.4417839Q1.3845856 7.1532917 1.5350235 6.8718424Q1.6854613 6.5903931 1.8495278 6.3166637Q2.0135946 6.0429354 2.1908948 5.7775865Q2.3681951 5.5122375 2.5583017 5.2559085Q2.7484083 4.9995794 2.9508638 4.7528872Q3.1533189 4.5061946 3.367635 4.2697334Q3.5819511 4.0332723 3.8076117 3.8076117Q4.0332723 3.5819511 4.2697334 3.3676353Q4.5061941 3.1533189 4.7528868 2.9508638Q4.999579 2.7484083 5.255908 2.5583017Q5.5122375 2.3681951 5.777586 2.1908948Q6.0429344 2.0135946 6.3166633 1.849528Q6.5903921 1.6854613 6.8718419 1.5350236Q7.1532907 1.3845857 7.441783 1.2481391Q7.7302747 1.1116925 8.0251141 0.98956597Q8.3199539 0.86743945 8.6204309 0.75992709Q8.920908 0.65241474 9.2262983 0.55977559Q9.5316887 0.46713644 9.8412571 0.38959366Q10.150826 0.31205091 10.463825 0.24979132Q10.776826 0.18753175 11.092505 0.14070535Q11.408182 0.093878962 11.725778 0.062598549Q12.043373 0.031318136 12.36212 0.015659068Q12.680868 0 13 0Q13.319132 0 13.637879 0.015659068Q13.956628 0.031318136 14.274223 0.062598549Q14.591818 0.093878962 14.907496 0.14070535Q15.223173 0.18753175 15.536173 0.24979132Q15.849173 0.31205091 16.158741 0.38959366Q16.468309 0.46713644 16.773701 0.55977559Q17.07909 0.65241474 17.379566 0.75992709Q17.680042 0.86743945 17.974882 0.98956597Q18.269722 1.1116925 18.558214 1.2481391Q18.846706 1.3845856 19.128157 1.5350235Q19.409605 1.6854613 19.683334 1.8495278Q19.957062 2.0135946 20.222412 2.1908948Q20.487761 2.3681951 20.744091 2.5583017Q21.00042 2.7484083 21.247112 2.9508638Q21.493805 3.1533189 21.730265 3.367635Q21.966726 3.5819511 22.192387 3.8076117Q22.418047 4.0332723 22.632364 4.2697334Q22.84668 4.5061941 23.049137 4.7528868Q23.251591 4.999579 23.441696 5.255908Q23.631802 5.5122375 23.809103 5.777586Q23.986403 6.0429344 24.150471 6.3166633Q24.314537 6.5903921 24.464975 6.8718419Q24.615414 7.1532907 24.75186 7.441783Q24.888306 7.7302747 25.010431 8.0251141Q25.132557 8.3199539 25.24007 8.6204309Q25.347584 8.920908 25.440224 9.2262983Q25.532864 9.5316887 25.610405 9.8412571Q25.687946 10.150826 25.750206 10.463825Q25.812466 10.776826 25.859293 11.092505Q25.90612 11.408182 25.937403 11.725778Q25.968683 12.043373 25.984341 12.36212Q26 12.680868 26 13Z"/>
	<path fill="white" transform="translate(5 5)" d="M15.111111 1.7777778L15.111111 0.8888889C15.111111 0.40000001 14.711111 0 14.222222 0L12.444445 0C11.955556 0 11.555555 0.40000001 11.555555 0.8888889L11.555555 1.7777778L11.555555 1.7777778C11.066667 1.7777778 10.666667 2.1777778 10.666667 2.6666667L10.666667 5.3333335C10.666667 5.8222222 11.066667 6.2222223 11.555555 6.2222223L12.444445 6.2222223L12.444445 12.364445C12.444445 13.288889 11.768888 14.124444 10.853333 14.213333C9.7866669 14.32 8.8888893 13.484445 8.8888893 12.444445L8.8888893 3.6800001C8.8888893 1.7866666 7.457778 0.13333334 5.5644445 0.0088888891C3.4933333 -0.12444445 1.7777778 1.5111111 1.7777778 3.5555556L1.7777778 9.7777777L0.8888889 9.7777777C0.40000001 9.7777777 0 10.177778 0 10.666667L0 13.333333C0 13.822222 0.40000001 14.222222 0.8888889 14.222222L0.8888889 14.222222L0.8888889 15.111111C0.8888889 15.6 1.2888889 16 1.7777778 16L3.5555556 16C4.0444446 16 4.4444447 15.6 4.4444447 15.111111L4.4444447 14.222222L4.4444447 14.222222C4.9333334 14.222222 5.3333335 13.822222 5.3333335 13.333333L5.3333335 10.666667C5.3333335 10.177778 4.9333334 9.7777777 4.4444447 9.7777777L3.5555556 9.7777777L3.5555556 3.6355555C3.5555556 2.7111111 4.231111 1.8755555 5.1466665 1.7866666C6.2133331 1.6799999 7.1111112 2.5155556 7.1111112 3.5555556L7.1111112 12.32C7.1111112 14.213333 8.542222 15.866667 10.435555 15.991111C12.506667 16.124445 14.222222 14.488889 14.222222 12.444445L14.222222 6.2222223L15.111111 6.2222223C15.6 6.2222223 16 5.8222222 16 5.3333335L16 2.6666667C16 2.1777778 15.6 1.7777778 15.111111 1.7777778L15.111111 1.7777778Z"/>
</svg>
