<?xml version="1.0" encoding="utf-8" ?>
<svg xmlns="http://www.w3.org/2000/svg" xmlns:xlink="http://www.w3.org/1999/xlink" width="26" height="27">
	<path fill="none" stroke="#01426A" stroke-width="1.8666667" stroke-linecap="round" stroke-linejoin="round" transform="translate(5.57143 2.2734)" d="M7.8928571 0C3.5353422 0 0 3.2889132 0 7.3396502C0 12.000596 5.2619047 19.386854 7.1940103 21.938053C7.3566852 22.156494 7.6164351 22.285715 7.8928571 22.285715C8.1692791 22.285715 8.4290295 22.156494 8.5917034 21.938053C10.523809 19.387926 15.785714 12.004346 15.785714 7.3396502C15.785714 3.2889132 12.250372 0 7.8928571 0Z" fill-rule="evenodd"/>
	<path fill="none" stroke="#01426A" stroke-width="1.8666667" stroke-linecap="round" stroke-linejoin="round" transform="translate(10.8333 7.41651)" d="M5.2619047 2.5715561Q5.2619047 2.6978889 5.2492361 2.8236129Q5.2365675 2.949337 5.2113514 3.0732417Q5.1861362 3.1971469 5.1486163 3.3180394Q5.1110973 3.4389322 5.061635 3.5556479Q5.0121732 3.6723638 4.9512453 3.7837791Q4.890317 3.8951941 4.8185091 4.0002356Q4.7467017 4.1052771 4.6647062 4.2029338Q4.5827103 4.3005905 4.4913163 4.3899207Q4.3999228 4.4792514 4.3000107 4.5593958Q4.200099 4.6395397 4.0926304 4.7097263Q3.9851627 4.7799129 3.8711741 4.8394661Q3.7571855 4.8990188 3.6377735 4.9473639Q3.518362 4.9957094 3.3946772 5.032382Q3.2709923 5.0690546 3.1442254 5.0937004Q3.0174589 5.1183472 2.8888309 5.1307297Q2.7602029 5.1431122 2.6309524 5.1431122Q2.5017021 5.1431122 2.3730741 5.1307297Q2.2444458 5.1183472 2.1176789 5.0937004Q1.990912 5.0690546 1.8672272 5.032382Q1.7435422 4.9957094 1.6241304 4.9473639Q1.5047185 4.8990188 1.3907299 4.8394661Q1.2767413 4.7799129 1.1692735 4.7097263Q1.0618057 4.6395397 0.96189386 4.5593958Q0.86198193 4.4792514 0.77058804 4.3899207Q0.67919427 4.3005905 0.59719867 4.2029338Q0.51520306 4.1052771 0.44339535 4.0002356Q0.37158769 3.8951941 0.3106595 3.7837789Q0.24973129 3.6723638 0.2002693 3.5556476Q0.15080732 3.4389319 0.11328792 3.3180394Q0.075768508 3.1971467 0.050553005 3.0732415Q0.025337508 2.9493368 0.012668754 2.8236127Q0 2.6978889 0 2.5715561Q0 2.4452238 0.012668754 2.3194995Q0.025337508 2.1937752 0.050553005 2.0698702Q0.075768508 1.9459653 0.11328792 1.8250728Q0.15080732 1.7041801 0.2002693 1.587464Q0.24973129 1.4707481 0.3106595 1.3593328Q0.37158772 1.2479175 0.44339538 1.1428759Q0.51520312 1.0378344 0.59719867 0.94017816Q0.67919427 0.84252179 0.77058804 0.75319129Q0.86198193 0.6638608 0.9618938 0.58371633Q1.0618057 0.50357187 1.1692734 0.43338528Q1.2767413 0.36319876 1.3907299 0.30364603Q1.5047185 0.24409336 1.6241302 0.19574802Q1.7435422 0.1474027 1.8672271 0.11073033Q1.990912 0.074057952 2.1176789 0.049411718Q2.2444458 0.024765486 2.3730741 0.012382743Q2.5017021 0 2.6309524 0Q2.7602029 0 2.8888309 0.012382743Q3.0174589 0.024765486 3.1442256 0.049411718Q3.2709925 0.074057952 3.3946772 0.11073032Q3.518362 0.1474027 3.6377735 0.19574802Q3.7571855 0.24409336 3.8711743 0.30364606Q3.9851627 0.36319876 4.0926304 0.43338528Q4.2000985 0.50357187 4.3000102 0.58371633Q4.3999224 0.6638608 4.4913158 0.75319129Q4.5827103 0.84252179 4.6647053 0.94017816Q4.7467012 1.0378344 4.8185086 1.1428759Q4.890317 1.2479177 4.9512448 1.3593328Q5.0121732 1.4707482 5.061635 1.5874641Q5.1110973 1.7041802 5.1486163 1.8250728Q5.1861362 1.9459653 5.2113514 2.0698702Q5.2365675 2.1937752 5.2492361 2.3194995Q5.2619047 2.4452238 5.2619047 2.5715561Z"/>
	<path fill="none" stroke="#E9445A" stroke-width="1.5" stroke-linecap="round" stroke-miterlimit="10" transform="matrix(-1 0 0 1 20.9409 3.8147e-06)" d="M0.048029557 25.023399L15.833744 0.88054186"/>
</svg>
