<?xml version="1.0" encoding="utf-8" ?>
<svg xmlns="http://www.w3.org/2000/svg" xmlns:xlink="http://www.w3.org/1999/xlink" width="26" height="26">
	<path fill="none" stroke="#01426A" stroke-width="0.93913043" stroke-linejoin="round" transform="translate(1 1)" d="M3.7037036 24L20.296297 24C22.370371 24 24 22.370371 24 20.296297L24 3.7037036C24 1.6296296 22.370371 0 20.296297 0L3.7037036 0C1.6296296 0 0 1.6296296 0 3.7037036L0 20.296297C0 22.222221 1.6296296 24 3.7037036 24Z" fill-rule="evenodd"/>
	<path fill="#01426A" transform="translate(7 4)" d="M3.9355469 18.560547L3.9355469 11.958984L5.6240234 11.958984C7.9261069 11.958984 9.701335 11.430013 10.949707 10.37207C12.198079 9.3141279 12.822266 7.7864585 12.822266 5.7890625C12.822266 3.8678386 12.236165 2.4226887 11.063965 1.4536133C9.8917646 0.48453775 8.1800127 0 5.9287109 0L5.9287109 0L0 0L0 18.560547L3.9355469 18.560547ZM5.2304688 8.734375L3.9355469 8.734375L3.9355469 3.2246094L5.7255859 3.2246094C6.8004556 3.2246094 7.5896811 3.4446614 8.0932617 3.8847656C8.5968428 4.3248696 8.8486328 5.0061851 8.8486328 5.9287109C8.8486328 6.8427734 8.5481768 7.5388999 7.9472656 8.0170898C7.346354 8.4952803 6.4407554 8.734375 5.2304688 8.734375L5.2304688 8.734375Z" fill-rule="evenodd"/>
</svg>
