<?xml version="1.0" encoding="utf-8" ?>
<svg xmlns="http://www.w3.org/2000/svg" xmlns:xlink="http://www.w3.org/1999/xlink" width="28" height="26">
	<path fill="#01426A" transform="translate(0.15332 9)" d="M18.402439 2.7625899L17.781843 2.7625899C17.471546 2.7625899 17.161249 2.6474819 16.91301 2.4172661L14.616806 0.40287769C14.368567 0.17266187 13.99621 0 13.623853 0L8.8452663 0C8.472909 0 8.1005507 0.11510792 7.7902532 0.34532374L3.8184407 3.0503597C3.632262 3.1654677 3.3840237 3.2805755 3.1357856 3.3381295L0.90164095 3.6258993C0.65340263 3.6834533 0.40516436 3.7985611 0.21898566 3.9712231C0.1569261 4.0863309 -0.15337177 4.6618705 0.094866522 5.3525181C0.28104523 5.9856114 0.46722394 6.2733812 0.5913431 6.3309355C0.65340263 6.3309355 1.0257601 6.3884892 1.0878197 6.3884892C1.0878197 6.3884892 1.0878197 6.446043 1.0878197 6.446043C1.0878197 7.3093524 1.8325344 8 2.763428 8L3.0737259 8C4.0046196 8 4.7493343 7.3093524 4.7493343 6.446043C4.7493343 6.446043 4.7493343 6.3884892 4.7493343 6.3884892L13.810032 6.3884892C13.810032 6.3884892 13.810032 6.446043 13.810032 6.446043C13.810032 7.3093524 14.554747 8 15.48564 8L15.795938 8C16.726831 8 17.471546 7.3093524 17.471546 6.446043C17.471546 6.446043 17.471546 6.3884892 17.471546 6.3884892L18.402439 6.3884892C18.898916 6.3884892 19.333334 5.9856114 19.333334 5.5251799L19.333334 3.6258993C19.333334 3.1654677 18.898916 2.7625899 18.402439 2.7625899ZM12.506781 2.9352517L6.114645 2.9352517C5.9284663 2.9352517 5.804347 2.7050359 5.9905257 2.5899282L8.162611 0.69064748C8.2246704 0.63309354 8.2246704 0.63309354 8.2867298 0.63309354L11.700006 0.63309354C11.762066 0.63309354 11.886185 0.69064748 11.886185 0.74820143L12.692959 2.6474819C12.755019 2.7625899 12.692959 2.9352517 12.506781 2.9352517Z" fill-rule="evenodd"/>
	<path fill="#01426A" transform="translate(20.2922 11.4)" d="M5.746479 0.80000001L0.21126761 0.80000001C0.084507041 0.80000001 0 0.63999999 0 0.40000001C0 0.16 0.084507041 0 0.21126761 0L5.7887325 0C5.915493 0 6 0.16 6 0.40000001C6 0.63999999 5.8732395 0.80000001 5.746479 0.80000001Z" fill-rule="evenodd"/>
	<path fill="#01426A" transform="translate(23.2133 13)" d="M2.8514853 0.80000001L0.14851485 0.80000001C0.059405942 0.80000001 0 0.63999999 0 0.40000001C0 0.16 0.059405942 0 0.14851485 0L2.8514853 0C2.940594 0 3 0.16 3 0.40000001C3 0.63999999 2.9108911 0.80000001 2.8514853 0.80000001Z" fill-rule="evenodd"/>
	<path fill="#01426A" transform="translate(20.2922 14.6)" d="M5.7692308 0.80000001L0.23076923 0.80000001C0.092307694 0.80000001 0 0.63999999 0 0.40000001C0 0.16 0.092307694 0 0.23076923 0L5.7692308 0C5.9076924 0 6 0.16 6 0.40000001C6 0.63999999 5.8615384 0.80000001 5.7692308 0.80000001Z" fill-rule="evenodd"/>
</svg>
