<?xml version="1.0" encoding="UTF-8"?>
<svg width="24px" height="24px" viewBox="0 0 24 24" version="1.1" xmlns="http://www.w3.org/2000/svg" xmlns:xlink="http://www.w3.org/1999/xlink">
    <title>icones/content/Alert-ionic</title>
    <g id="Symbols" stroke="none" stroke-width="1" fill="none" fill-rule="evenodd">
        <g id="icones/status-icons/Alert-unread" transform="translate(-2, -2)">
            <g id="icones/content/Alert-ionic" transform="translate(5, 2.8571)">
                <g id="unread" transform="translate(0, -0)">
                    <g id="notifications-outline" transform="translate(0, 0.8571)" stroke="#01426A" stroke-linecap="round" stroke-linejoin="round" stroke-width="1.55076923">
                        <path d="M17.7722626,15.0047802 C16.4601935,13.4505495 15.5338767,12.6593407 15.5338767,8.37445055 C15.5338767,4.45054945 13.4635869,3.05258242 11.7596341,2.37362637 C11.533292,2.28362637 11.320234,2.07692308 11.2512584,1.85192308 C10.9523642,0.867362637 10.1144384,0 9.00061017,0 C7.88678197,0 7.04834525,0.867857143 6.75251657,1.85291209 C6.68354097,2.08038462 6.47048301,2.28362637 6.24414086,2.37362637 C4.53814438,3.05357143 2.46989827,4.44659341 2.46989827,8.37445055 C2.46734362,12.6593407 1.54102687,13.4505495 0.228957697,15.0047802 C-0.314672209,15.6486264 0.161514889,16.6153846 1.11235629,16.6153846 L16.8939733,16.6153846 C17.8397054,16.6153846 18.312827,15.6456593 17.7722626,15.0047802 Z M12.2705645,16.6153846 L12.2705645,17.4065934 C12.2705645,19.1544836 10.8065561,20.5714286 9.00061017,20.5714286 C7.19466426,20.5714286 5.73065584,19.1544836 5.73065584,17.4065934 L5.73065584,16.6153846" id="Shape"></path>
                    </g>
                    <path d="M14.5714286,0 C12.2057143,0 10.2857143,1.92 10.2857143,4.28571429 C10.2857143,6.65142857 12.2057143,8.57142857 14.5714286,8.57142857 C16.9371429,8.57142857 18.8571429,6.65142857 18.8571429,4.28571429 C18.8571429,1.92 16.9371429,0 14.5714286,0 Z" id="Path-Copy" fill="#E9445A"></path>
                </g>
            </g>
        </g>
    </g>
</svg>