<?xml version="1.0" encoding="utf-8" ?>
<svg xmlns="http://www.w3.org/2000/svg" xmlns:xlink="http://www.w3.org/1999/xlink" width="20" height="17">
	<path fill="white" d="M0.13103448 10.885246C0.13103448 11.803279 0.7862069 12.590164 1.5724138 12.721312L1.5724138 12.721312L1.5724138 14.95082C1.5724138 15.47541 1.8344828 16 2.3586206 16L3.6689656 16C4.0620689 16 4.4551725 15.47541 4.4551725 14.95082L4.4551725 12.721312L4.4551725 12.721312L14.282759 12.721312L14.282759 12.721312L14.282759 14.95082C14.282759 15.47541 14.544827 16 15.068966 16L16.379311 16C16.772413 16 17.165518 15.47541 17.165518 14.95082L17.165518 12.721312L17.165518 12.721312C17.951725 12.590164 18.606897 11.803279 18.606897 10.754098L18.606897 8.6557379C18.606897 8 18.475863 7.3442621 18.082758 6.6885247L17.82069 6.0327868L18.344828 6.0327868C18.73793 6.0327868 19 5.6393442 19 5.2459016C19 4.852459 18.73793 4.4590163 18.344828 4.4590163L17.034483 4.4590163L15.724138 1.9672132C15.068966 0.78688526 13.889655 0 12.57931 0L6.4206896 0C5.1103449 0 3.9310346 0.78688526 3.275862 1.9672132L1.9655173 4.4590163L0.65517241 4.4590163C0.26206896 4.4590163 0 4.852459 0 5.2459016C0 5.6393442 0.26206896 6.0327868 0.65517241 6.0327868L1.1793103 6.0327868L0.65517241 6.6885247C0.39310345 7.0819674 0.26206896 7.6065574 0.26206896 8.1311474L0.13103448 10.885246ZM3.4068966 4.5901637L4.3241382 2.8852458C4.7172413 2.0983605 5.5034485 1.704918 6.2896552 1.704918L12.57931 1.704918C13.365518 1.704918 14.151724 2.2295082 14.544827 2.8852458L15.462069 4.5901637L3.4068966 4.5901637ZM14.413794 10.360656C13.496552 10.360656 12.710345 9.5737705 12.710345 8.6557379C12.710345 7.7377048 13.496552 6.9508195 14.413794 6.9508195C15.331035 6.9508195 16.117241 7.7377048 16.117241 8.6557379C16.117241 9.5737705 15.331035 10.360656 14.413794 10.360656ZM4.3241382 10.360656C3.4068966 10.360656 2.6206896 9.5737705 2.6206896 8.6557379C2.6206896 7.7377048 3.4068966 6.9508195 4.3241382 6.9508195C5.2413793 6.9508195 6.027586 7.7377048 6.027586 8.6557379C6.027586 9.5737705 5.2413793 10.360656 4.3241382 10.360656Z" fill-rule="evenodd"/>
</svg>
