<?xml version="1.0" encoding="utf-8" ?>
<svg xmlns="http://www.w3.org/2000/svg" xmlns:xlink="http://www.w3.org/1999/xlink" width="24" height="24">
	<path fill="white" transform="translate(7 1)" d="M0.10344828 8.8442621C0.10344828 9.5901642 0.62068963 10.229508 1.2413793 10.336065L1.2413793 10.336065L1.2413793 12.147541C1.2413793 12.573771 1.4482758 13 1.862069 13L2.8965516 13C3.2068965 13 3.5172415 12.573771 3.5172415 12.147541L3.5172415 10.336065L3.5172415 10.336065L11.275862 10.336065L11.275862 10.336065L11.275862 12.147541C11.275862 12.573771 11.482759 13 11.896552 13L12.931034 13C13.24138 13 13.551724 12.573771 13.551724 12.147541L13.551724 10.336065L13.551724 10.336065C14.172414 10.229508 14.689655 9.5901642 14.689655 8.7377052L14.689655 7.0327868C14.689655 6.5 14.586206 5.9672132 14.275862 5.4344263L14.068966 4.9016395L14.482759 4.9016395C14.793103 4.9016395 15 4.5819674 15 4.2622952C15 3.9426229 14.793103 3.6229508 14.482759 3.6229508L13.448276 3.6229508L12.413794 1.5983607C11.896552 0.63934427 10.965517 0 9.9310341 0L5.0689654 0C4.034483 0 3.1034484 0.63934427 2.5862069 1.5983607L1.5517242 3.6229508L0.51724136 3.6229508C0.20689656 3.6229508 0 3.9426229 0 4.2622952C0 4.5819674 0.20689656 4.9016395 0.51724136 4.9016395L0.93103451 4.9016395L0.51724136 5.4344263C0.31034482 5.7540984 0.20689656 6.1803279 0.20689656 6.6065574L0.10344828 8.8442621ZM2.6896551 3.7295082L3.4137931 2.3442624C3.724138 1.704918 4.3448277 1.3852459 4.965517 1.3852459L9.9310341 1.3852459C10.551724 1.3852459 11.172414 1.8114754 11.482759 2.3442624L12.206897 3.7295082L2.6896551 3.7295082ZM11.379311 8.4180326C10.655172 8.4180326 10.034483 7.7786884 10.034483 7.0327868C10.034483 6.2868853 10.655172 5.647541 11.379311 5.647541C12.103448 5.647541 12.724138 6.2868853 12.724138 7.0327868C12.724138 7.7786884 12.103448 8.4180326 11.379311 8.4180326ZM3.4137931 8.4180326C2.6896551 8.4180326 2.0689654 7.7786884 2.0689654 7.0327868C2.0689654 6.2868853 2.6896551 5.647541 3.4137931 5.647541C4.1379309 5.647541 4.7586207 6.2868853 4.7586207 7.0327868C4.7586207 7.7786884 4.1379309 8.4180326 3.4137931 8.4180326Z" fill-rule="evenodd"/>
	<path fill="white" transform="translate(1 9)" d="M0.10344828 8.8442621C0.10344828 9.5901642 0.62068963 10.229508 1.2413793 10.336065L1.2413793 10.336065L1.2413793 12.147541C1.2413793 12.573771 1.4482758 13 1.862069 13L2.8965516 13C3.2068965 13 3.5172415 12.573771 3.5172415 12.147541L3.5172415 10.336065L3.5172415 10.336065L11.275862 10.336065L11.275862 10.336065L11.275862 12.147541C11.275862 12.573771 11.482759 13 11.896552 13L12.931034 13C13.24138 13 13.551724 12.573771 13.551724 12.147541L13.551724 10.336065L13.551724 10.336065C14.172414 10.229508 14.689655 9.5901642 14.689655 8.7377052L14.689655 7.0327868C14.689655 6.5 14.586206 5.9672132 14.275862 5.4344263L14.068966 4.9016395L14.482759 4.9016395C14.793103 4.9016395 15 4.5819674 15 4.2622952C15 3.9426229 14.793103 3.6229508 14.482759 3.6229508L13.448276 3.6229508L12.413794 1.5983607C11.896552 0.63934427 10.965517 0 9.9310341 0L5.0689654 0C4.034483 0 3.1034484 0.63934427 2.5862069 1.5983607L1.5517242 3.6229508L0.51724136 3.6229508C0.20689656 3.6229508 0 3.9426229 0 4.2622952C0 4.5819674 0.20689656 4.9016395 0.51724136 4.9016395L0.93103451 4.9016395L0.51724136 5.4344263C0.31034482 5.7540984 0.20689656 6.1803279 0.20689656 6.6065574L0.10344828 8.8442621ZM2.6896551 3.7295082L3.4137931 2.3442624C3.724138 1.704918 4.3448277 1.3852459 4.965517 1.3852459L9.9310341 1.3852459C10.551724 1.3852459 11.172414 1.8114754 11.482759 2.3442624L12.206897 3.7295082L2.6896551 3.7295082ZM11.379311 8.4180326C10.655172 8.4180326 10.034483 7.7786884 10.034483 7.0327868C10.034483 6.2868853 10.655172 5.647541 11.379311 5.647541C12.103448 5.647541 12.724138 6.2868853 12.724138 7.0327868C12.724138 7.7786884 12.103448 8.4180326 11.379311 8.4180326ZM3.4137931 8.4180326C2.6896551 8.4180326 2.0689654 7.7786884 2.0689654 7.0327868C2.0689654 6.2868853 2.6896551 5.647541 3.4137931 5.647541C4.1379309 5.647541 4.7586207 6.2868853 4.7586207 7.0327868C4.7586207 7.7786884 4.1379309 8.4180326 3.4137931 8.4180326Z" fill-rule="evenodd"/>
</svg>
