<?xml version="1.0" encoding="utf-8" ?>
<svg xmlns="http://www.w3.org/2000/svg" xmlns:xlink="http://www.w3.org/1999/xlink" width="17" height="17">
	<path fill="#3AA1D8" transform="translate(0 1.72618)" d="M15.077032 8.4883966C14.852317 8.4883966 14.670194 8.6678057 14.670194 8.8891697L14.670194 12.447593C14.669398 13.111373 14.123504 13.649284 13.449677 13.649911L2.034194 13.649911C1.3603672 13.649284 0.81447214 13.111373 0.81367755 12.447593L0.81367755 2.0038636C0.81447214 1.3402402 1.3603672 0.80232811 2.034194 0.80154538L5.6464772 0.80154538C5.871192 0.80154538 6.0533161 0.62213695 6.0533161 0.40077269C6.0533161 0.17956497 5.871192 0 5.6464772 0L2.034194 0C0.91125536 0.0012524147 0.0012713711 0.89766818 0 2.0038636L0 12.447749C0.0012713711 13.553945 0.91125536 14.45036 2.034194 14.451612L13.449677 14.451612C14.572616 14.45036 15.482599 13.553945 15.483871 12.447749L15.483871 8.8891697C15.483871 8.6678057 15.301747 8.4883966 15.077032 8.4883966Z" fill-rule="evenodd"/>
	<path fill="#3AA1D8" transform="translate(4.12903 0.177795)" d="M10.863507 0.5333631C10.152293 -0.17778769 8.999238 -0.17778769 8.2880239 0.5333631L1.0680723 7.7526741C1.0185925 7.8021493 0.98286581 7.8634801 0.96421206 7.9308171L0.014767581 11.35822C-0.024278849 11.498743 0.015399871 11.649224 0.11846981 11.752442C0.22169778 11.855504 0.37219247 11.895179 0.51272798 11.856294L3.9404345 10.906775C4.0077777 10.888124 4.0691137 10.8524 4.1185937 10.802924L11.338387 3.5834556C12.048494 2.8718305 12.048494 1.7198263 11.338387 1.0082012L10.863507 0.5333631ZM1.9498575 8.0157003L7.8588295 2.1070945L9.7645159 4.0126119L3.855386 9.9212179L1.9498575 8.0157003ZM1.5691944 8.7794876L3.0916886 10.302005L0.98571134 10.885436L1.5691944 8.7794876ZM10.766128 3.0112472L10.336933 3.4404035L8.4310884 1.5347279L8.8604412 1.1055715C9.2554903 0.710558 9.8960409 0.710558 10.29109 1.1055715L10.766128 1.5804098C11.160544 1.9758976 11.160544 2.6159174 10.766128 3.0112472L10.766128 3.0112472Z"/>
</svg>
