<?xml version="1.0" encoding="UTF-8"?>
<svg width="22px" height="17px" viewBox="0 0 22 17" version="1.1" xmlns="http://www.w3.org/2000/svg" xmlns:xlink="http://www.w3.org/1999/xlink">
    <title>692A779F-E155-40D4-A9E3-A12A67A17356</title>
    <g id="Vehicles" stroke="none" stroke-width="1" fill="none" fill-rule="evenodd">
        <g id="Web-Flotte/Vehicles/Info" transform="translate(-444.000000, -1367.000000)" fill-rule="nonzero">
            <g id="Trajets" transform="translate(124.000000, 1197.000000)">
                <g id="Cards" transform="translate(0.000000, 157.350158)">
                    <g id="Loc" transform="translate(320.000000, 13.500000)">
                        <g id="location-off" transform="translate(3.055556, 0.000000)">
                            <path d="M8.25,0 C5.38578333,0 3.05555556,2.523375 3.05555556,5.625 C3.05555556,6.6729375 3.32361775,7.695625 3.83094182,8.582875 L7.95432068,15.7784062 C8.03330509,15.91625 8.17245849,16 8.3221162,16 C8.32327052,16 8.32439599,16 8.32555031,16 C8.47650664,15.9987188 8.61594861,15.912375 8.69349012,15.772125 L12.7117681,8.506875 C13.1910998,7.638375 13.4444444,6.64184375 13.4444444,5.625 C13.4444444,2.523375 11.1142167,0 8.25,0 Z M11.7187749,7.90847445 L8.31247863,14.08 L4.81709243,7.96768802 C4.42335866,7.27768058 4.20987654,6.48162596 4.20987654,5.66554151 C4.20987654,3.25057388 6.02584679,1.28 8.25134536,1.28 C10.4768439,1.28 12.2901235,3.25057388 12.2901235,5.66554151 C12.2901235,6.45742081 12.0907138,7.23312442 11.7187749,7.90847445 Z" id="Shape" fill="#3AA1D8"></path>
                            <path d="M8.25,2.46153846 C6.73365,2.46153846 5.5,3.70381538 5.5,5.23076923 C5.5,6.74796923 6.713575,8 8.25,8 C9.80536944,8 11,6.73129231 11,5.23076923 C11,3.70381538 9.76635,2.46153846 8.25,2.46153846 Z M8.25152397,7.07692308 C7.23787199,7.07692308 6.41666667,6.24790187 6.41666667,5.23076923 C6.41666667,4.21618196 7.24314492,3.38461538 8.25152397,3.38461538 C9.25990302,3.38461538 10.0833333,4.21618196 10.0833333,5.23076923 C10.0833333,6.23305903 9.28123857,7.07692308 8.25152397,7.07692308 Z" id="Shape" fill="#3AA1D8"></path>
                            <line x1="0.351061333" y1="15.6464837" x2="15.6149425" y2="0.275862069" id="Path-2" stroke="#FF6A6A" stroke-width="0.923076923" stroke-linecap="round" transform="translate(7.944444, 8.000000) scale(-1, 1) translate(-7.944444, -8.000000) "></line>
                        </g>
                    </g>
                </g>
            </g>
        </g>
    </g>
</svg>