<?xml version="1.0" encoding="utf-8" ?>
<svg xmlns="http://www.w3.org/2000/svg" xmlns:xlink="http://www.w3.org/1999/xlink" width="12" height="13">
	<path fill="#E9445A" d="M12 6Q12 6.1472917 11.992772 6.2944064Q11.985545 6.4415207 11.971108 6.5881033Q11.956671 6.7346859 11.935059 6.8803825Q11.913446 7.0260801 11.88471 7.1705418Q11.855975 7.3150034 11.820187 7.4578815Q11.784397 7.6007586 11.741642 7.7417083Q11.698885 7.8826571 11.649263 8.0213385Q11.599642 8.1600199 11.543276 8.2960997Q11.48691 8.4321795 11.423935 8.5653305Q11.36096 8.6984806 11.291527 8.8283806Q11.222094 8.9582806 11.14637 9.0846167Q11.070647 9.2109528 10.988816 9.3334208Q10.906985 9.4558897 10.819244 9.5741949Q10.731503 9.6925011 10.638062 9.8063593Q10.544622 9.9202166 10.445707 10.029352Q10.346792 10.138489 10.24264 10.24264Q10.13849 10.34679 10.029354 10.445706Q9.9202185 10.544621 9.8063612 10.638062Q9.692503 10.731503 9.5741968 10.819243Q9.4558907 10.906985 9.3334217 10.988816Q9.2109528 11.070647 9.0846167 11.146371Q8.9582806 11.222094 8.8283815 11.291527Q8.6984806 11.36096 8.5653305 11.423935Q8.4321804 11.48691 8.2961006 11.543276Q8.1600208 11.599642 8.0213394 11.649263Q7.8826575 11.698885 7.7417088 11.741642Q7.600759 11.784397 7.457881 11.820187Q7.3150034 11.855975 7.1705418 11.88471Q7.0260801 11.913446 6.880383 11.935058Q6.7346859 11.956671 6.5881033 11.971108Q6.4415207 11.985545 6.2944059 11.992773Q6.1472917 12 6 12Q5.8527079 12 5.7055931 11.992772Q5.5584793 11.985545 5.4118967 11.971108Q5.2653141 11.956671 5.1196165 11.935059Q4.9739189 11.913446 4.8294573 11.88471Q4.6849957 11.855975 4.5421181 11.820187Q4.399241 11.784397 4.2582917 11.741642Q4.117342 11.698885 3.9786606 11.649263Q3.8399789 11.599642 3.7038991 11.543276Q3.5678196 11.48691 3.4346693 11.423935Q3.3015192 11.36096 3.1716194 11.291527Q3.0417197 11.222094 2.9153833 11.14637Q2.789047 11.070647 2.6665783 10.988816Q2.5441098 10.906985 2.4258039 10.819244Q2.307498 10.731503 2.1936402 10.638062Q2.079782 10.544622 1.9706461 10.445707Q1.8615103 10.346792 1.7573593 10.24264Q1.6532083 10.13849 1.5542933 10.029354Q1.4553782 9.9202185 1.3619373 9.8063612Q1.2684963 9.692503 1.1807548 9.5741968Q1.093013 9.4558907 1.0111822 9.3334217Q0.92935133 9.2109528 0.85362822 9.0846167Q0.77790523 8.9582806 0.70847237 8.8283815Q0.63903952 8.6984806 0.57606423 8.5653305Q0.51308888 8.4321804 0.45672277 8.2961006Q0.40035665 8.1600208 0.3507356 8.0213394Q0.3011145 7.8826575 0.25835797 7.7417088Q0.21560144 7.600759 0.17981246 7.457881Q0.14402349 7.3150034 0.1152883 7.1705418Q0.086553112 7.0260801 0.064940937 6.880383Q0.043328751 6.7346859 0.028891638 6.5881033Q0.014454524 6.4415207 0.007227262 6.2944059Q0 6.1472917 0 6Q0 5.8527079 0.007227262 5.7055931Q0.014454524 5.5584793 0.028891638 5.4118967Q0.043328751 5.2653141 0.064940929 5.1196165Q0.086553112 4.9739189 0.1152883 4.8294573Q0.14402349 4.6849957 0.17981246 4.5421181Q0.21560144 4.399241 0.25835797 4.2582917Q0.3011145 4.117342 0.35073557 3.9786606Q0.40035665 3.8399789 0.45672277 3.7038991Q0.51308888 3.5678196 0.57606423 3.4346693Q0.63903958 3.3015192 0.70847243 3.1716194Q0.77790529 3.0417197 0.8536284 2.9153833Q0.92935145 2.789047 1.0111823 2.6665783Q1.0930133 2.5441098 1.1807548 2.4258039Q1.2684964 2.307498 1.3619373 2.1936402Q1.4553782 2.079782 1.5542932 1.9706461Q1.6532083 1.8615103 1.7573593 1.7573593Q1.8615103 1.6532083 1.9706461 1.5542933Q2.079782 1.4553782 2.1936402 1.3619373Q2.307498 1.2684963 2.4258039 1.1807548Q2.5441098 1.093013 2.6665783 1.0111822Q2.789047 0.92935133 2.9153833 0.85362822Q3.0417199 0.77790523 3.1716199 0.70847237Q3.3015194 0.63903952 3.4346695 0.57606423Q3.5678196 0.51308888 3.7038991 0.45672277Q3.8399789 0.40035665 3.9786606 0.3507356Q4.117342 0.3011145 4.2582917 0.25835797Q4.399241 0.21560144 4.5421185 0.17981246Q4.6849961 0.14402349 4.8294578 0.1152883Q4.9739189 0.086553112 5.1196165 0.064940937Q5.2653141 0.043328751 5.4118967 0.028891638Q5.5584793 0.014454524 5.7055931 0.007227262Q5.8527079 0 6 0Q6.1472917 0 6.2944064 0.007227262Q6.4415207 0.014454524 6.5881033 0.028891638Q6.7346859 0.043328751 6.8803825 0.064940929Q7.0260801 0.086553112 7.1705418 0.1152883Q7.3150034 0.14402349 7.4578815 0.17981246Q7.6007586 0.21560144 7.7417083 0.25835797Q7.8826571 0.3011145 8.0213385 0.35073557Q8.1600199 0.40035665 8.2960997 0.45672277Q8.4321795 0.51308888 8.5653305 0.57606423Q8.6984806 0.63903958 8.8283806 0.70847243Q8.9582806 0.77790529 9.0846167 0.8536284Q9.2109528 0.92935145 9.3334208 1.0111823Q9.4558897 1.0930133 9.5741949 1.1807548Q9.6925011 1.2684964 9.8063593 1.3619373Q9.9202166 1.4553782 10.029352 1.5542932Q10.138489 1.6532083 10.24264 1.7573593Q10.34679 1.8615103 10.445706 1.9706461Q10.544621 2.079782 10.638062 2.1936402Q10.731503 2.307498 10.819243 2.4258039Q10.906985 2.5441098 10.988816 2.6665783Q11.070647 2.789047 11.146371 2.9153833Q11.222094 3.0417199 11.291527 3.1716199Q11.36096 3.3015194 11.423935 3.4346695Q11.48691 3.5678196 11.543276 3.7038991Q11.599642 3.8399789 11.649263 3.9786606Q11.698885 4.117342 11.741642 4.2582917Q11.784397 4.399241 11.820187 4.5421185Q11.855975 4.6849961 11.88471 4.8294578Q11.913446 4.9739189 11.935058 5.1196165Q11.956671 5.2653141 11.971108 5.4118967Q11.985545 5.5584793 11.992773 5.7055931Q12 5.8527079 12 6Z"/>
</svg>
