<?xml version="1.0" encoding="utf-8" ?>
<svg xmlns="http://www.w3.org/2000/svg" xmlns:xlink="http://www.w3.org/1999/xlink" width="15" height="10">
	<path fill="white" transform="translate(3.8147e-06 0)" d="M0 2.8295627C1.8767533 1.0744126 4.3981242 0 7.1704373 0C9.9427509 0 12.464121 1.0744126 14.340875 2.8295627L12.925675 4.2447615C11.411694 2.8510792 9.3904552 2 7.1704373 2C4.9504189 2 2.9291809 2.8510792 1.4151988 4.2447615L0 2.8295627L0 2.8295627ZM2.4769681 5.306531C3.7185597 4.183774 5.3646464 3.5 7.1704373 3.5C8.9762278 3.5 10.622314 4.183774 11.863906 5.306531L10.447176 6.7232614C9.5696363 5.9612427 8.4239016 5.5 7.1704373 5.5C5.9169731 5.5 4.7712379 5.9612427 3.8936987 6.7232614L2.4769681 5.306531ZM4.9581461 7.7877088C5.5610914 7.2953238 6.3312759 7 7.1704373 7C8.0095987 7 8.7797832 7.2953238 9.3827286 7.7877088L7.1704373 10L4.9581461 7.7877088L4.9581461 7.7877088Z" fill-rule="evenodd"/>
</svg>
