<?xml version="1.0" encoding="utf-8" ?>
<svg xmlns="http://www.w3.org/2000/svg" xmlns:xlink="http://www.w3.org/1999/xlink" width="38" height="30">
	<path fill="white" transform="translate(17.9948 4.40265)" d="M10.099741 5.4386296L4.5907912 0L0 0L0 21.504467L4.5907912 21.504467L10.099741 16.056908L19.128298 16.056908L19.128298 5.4386296L10.099741 5.4386296" fill-rule="evenodd"/>
	<path fill="white" transform="translate(0.123047 0.12207)" d="M0.50958478 1.6550336L10.609325 6.307786C10.72865 6.3613687 10.857082 6.3881598 10.985516 6.3881598C11.151294 6.3881598 11.316162 6.3435078 11.460991 6.2542033C11.716034 6.0934558 11.871794 5.8166122 11.871794 5.5219083L11.871794 3.1732061L14.961469 5.0218043C15.379559 5.2718563 15.92426 5.1378999 16.179304 4.7271004C16.434347 4.3163009 16.302271 3.7894056 15.885093 3.5393536L11.447328 0.87808645C11.174066 0.7173388 10.831578 0.70840836 10.551941 0.86022562C10.273214 1.0209733 10.100149 1.306747 10.100149 1.6193118L10.100149 4.1555529L1.2628753 0.083278477C0.82019192 -0.12212133 0.29188654 0.065417625 0.084207885 0.50300854C-0.12347078 0.94059944 0.065990455 1.4496337 0.50958478 1.6550336" fill-rule="evenodd"/>
	<path fill="white" transform="translate(0.123047 6.72553)" d="M15.885093 3.5354834L11.447328 0.8742162C11.174066 0.71346855 10.831578 0.70453811 10.551941 0.86528581C10.273214 1.0171031 10.100149 1.3028767 10.100149 1.6154417L10.100149 4.1516829L1.2628753 0.079408243C0.82019192 -0.11706114 0.29188654 0.061547391 0.084207885 0.4991383C-0.12347078 0.93672919 0.065990455 1.4546939 0.50958478 1.6511633L10.609325 6.3039155C10.72865 6.3574982 10.857082 6.3932199 10.985516 6.3932199C11.151294 6.3932199 11.316162 6.3396373 11.460991 6.2503328C11.716034 6.098516 11.871794 5.8216724 11.871794 5.5180383L11.871794 3.1693358L14.961469 5.0179343C15.379559 5.2679863 15.92426 5.1340299 16.179304 4.7321606C16.434347 4.3213611 16.302271 3.7855353 15.885093 3.5354834" fill-rule="evenodd"/>
	<path fill="white" transform="translate(0.123197 22.7351)" d="M14.961319 1.3680297L11.871644 3.2255585L11.871644 0.86792582C11.871644 0.57322174 11.715884 0.29637852 11.460841 0.13563086C11.204885 -0.025116825 10.883348 -0.04297768 10.609176 0.082048297L0.50943506 4.7348008C0.066751607 4.9402003 -0.1236205 5.4581652 0.084058158 5.8868256C0.23435192 6.1993904 0.55315685 6.3869295 0.88653576 6.3869295C1.012236 6.3869295 1.1406689 6.3601384 1.2627256 6.3065557L10.099999 2.2342811L10.099999 4.7705221C10.099999 5.0830874 10.273065 5.3688607 10.551791 5.5296087C10.831429 5.681426 11.173916 5.6724954 11.447178 5.5117478L15.884943 2.8504806C16.302122 2.6004286 16.434198 2.0735335 16.179153 1.6627338C15.92411 1.2519342 15.378498 1.1179777 14.961319 1.3680297" fill-rule="evenodd"/>
	<path fill="white" transform="translate(0.123047 16.1356)" d="M14.961469 1.3680297L11.871794 3.2166281L11.871794 0.86792582C11.871794 0.57322174 11.716034 0.29637852 11.460991 0.13563086C11.204124 -0.025116825 10.883498 -0.04297768 10.609325 0.082048297L0.50958478 4.7348008C0.065990455 4.9312701 -0.12347078 5.4492345 0.084207885 5.8868256C0.23450164 6.1993904 0.55330658 6.3869295 0.88668549 6.3869295C1.0123857 6.3869295 1.1408186 6.3601384 1.2628753 6.3065557L10.100149 2.2342811L10.100149 4.7705221C10.100149 5.0830874 10.273214 5.3688607 10.551941 5.520678C10.831578 5.681426 11.174066 5.6724954 11.447328 5.5117478L15.885093 2.8504806C16.302271 2.6004286 16.434347 2.0646031 16.179304 1.6627338C15.92426 1.2519342 15.378648 1.1179777 14.961469 1.3680297" fill-rule="evenodd"/>
</svg>
