<?xml version="1.0" encoding="utf-8" ?>
<svg xmlns="http://www.w3.org/2000/svg" xmlns:xlink="http://www.w3.org/1999/xlink" width="35" height="25">
	<path fill="#E9445A" transform="translate(16.348 0)" d="M9.9540005 18.905001L10.339 20.794001L7.5050001 20.794001L7.8899999 18.905001L8.4499998 18.905001L8.4499998 17.405001C7.8520002 17.205999 7.4180002 16.648001 7.4180002 15.984C7.4180002 15.153 8.0909996 14.48 8.9219999 14.48C9.7519999 14.48 10.426 15.153 10.426 15.984C10.426 16.648001 9.9919996 17.205999 9.3940001 17.405001L9.3940001 18.905001L9.9540005 18.905001ZM16.563 5.0510001C16.563 2.8169999 14.746 0 12.512 0L5.3309999 0C3.76 0 2.398 0.90100002 1.726 2.2119999L3.2809999 2.2119999C3.832 2.2119999 3.9378121 2.2119999 4.1068077 2.4130001C4.2074747 2.3823333 7.0092053 2.3823333 12.512 2.4130001C13.416 2.4130001 14.15 4.1479998 14.15 5.0510001L14.15 11.696L3.6930001 11.696L3.6930001 6.057961C3.6659999 6.0679607 3.642 6.0689611 3.6129999 6.0799608C3.523 5.9999609 3.4059999 5.9489608 3.2809999 5.9489608L1.28 5.9489608L1.28 12.039C0.51899999 12.475 0 13.287 0 14.228L0 21.604C0 23.002001 1.133 24.136 2.5309999 24.136L15.312 24.136C16.711 24.136 17.844 23.002001 17.844 21.604L17.844 14.228C17.844 13.287 17.325001 12.475 16.563 12.039L16.563 5.0510001Z" fill-rule="evenodd"/>
	<path fill="white" d="M21.105957 4.9963584L21.105957 9.4965343C21.105957 9.9659348 21.487926 10.346529 21.959023 10.346529L24.733255 10.346529C25.204351 10.346529 25.586321 9.9659348 25.586321 9.4965343L25.586321 8.1496534L26.366529 8.1496534L27.293161 8.9763889L27.292999 10.357L29 10.357065L29 14.75C28.987474 14.98993 28.914576 15.18102 28.781307 15.323268C28.684881 15.42619 28.417889 15.666118 27.980326 16.043051C27.605165 16.380955 27.337959 16.617022 27.178707 16.751257C27.051044 16.858862 26.824389 16.904327 26.776472 16.904327L24.670143 16.904327C24.508574 16.904327 23.875494 16.714241 23.875494 16.016481L23.875494 14.178256L22.82 14.178256L22.82 17.15C22.82 17.619442 22.439442 18 21.969999 18L15.568933 18L15.568 16.299L11.754061 16.299307L8.5808821 13.533654C8.425972 13.397627 8.2257919 13.322918 8.0192451 13.322918L5.0674667 13.322918L5.0674667 4.9963584L21.105957 4.9963584ZM28.716352 7.9628801L27.26133 6.6660399C27.105005 6.5264888 26.902702 6.4489603 26.692619 6.4489603L24.733255 6.4489603C24.261452 6.4489603 23.879482 6.8302598 23.879482 7.2996593L23.879482 8.6458359L22.812796 8.6458359L22.812796 4.1456594C22.812796 3.6762598 22.430119 3.2956655 21.959023 3.2956655L12.71323 3.2956655L12.71323 1.700693L16.803137 1.700693L16.803137 0L6.4899507 0L6.4899507 1.700693L10.579858 1.700693L10.579858 3.2956655L4.2144008 3.2956655C3.7425971 3.2956655 3.3606274 3.6762598 3.3606274 4.1456594L3.3606274 7.5477505L2.1340797 7.5477505L2.1340797 3.402091L0 3.402091L0 14.244098L2.1340797 14.244098L2.1340797 10.098437L3.3606274 10.098437L3.3606274 14.173616C3.3606274 14.643017 3.7425971 15.023611 4.2144008 15.023611L7.6988144 15.023611L10.871286 17.789968C11.026904 17.925291 11.226377 18 11.433631 18L21.959023 18C22.430119 18 22.812796 17.619406 22.812796 17.150005L22.812796 14.173616L23.879482 14.173616L23.879482 16.051216C23.879482 16.52132 24.261452 16.901915 24.733255 16.901915L26.692619 16.901915C26.902702 16.901915 27.105005 16.824387 27.26133 16.684835L28.716352 15.387995C28.896727 15.2273 29 14.996828 29 14.754375L29 8.5964994C29 8.3547516 28.896727 8.1242809 28.716352 7.9628801L28.716352 7.9628801Z" fill-rule="evenodd"/>
</svg>
