<?xml version="1.0" encoding="utf-8" ?>
<svg xmlns="http://www.w3.org/2000/svg" xmlns:xlink="http://www.w3.org/1999/xlink" width="43" height="30">
	<path fill="white" transform="translate(17.5047 0)" d="M6.8477116 2.4765041C5.5779371 2.4765041 4.4260702 3.2289734 4.0360684 4.3073931C3.0202489 7.1466627 2.5032694 10.172703 2.5032694 13.301107C2.5032694 16.429512 3.0202489 19.455553 4.0360684 22.294823C4.4260702 23.373241 5.5779371 24.125711 6.8477116 24.125711C7.0744567 24.12212 7.2467833 24.106853 7.4463196 24.070936C16.751951 22.337025 23.001055 18.008081 23.001055 13.301107C23.001055 8.593236 16.751951 4.266088 7.4463196 2.5312781C7.2467833 2.4944627 7.0472474 2.4765041 6.8477116 2.4765041ZM6.8477116 26.602215L6.8477116 26.602215C4.507699 26.601316 2.4307108 25.205029 1.6869859 23.125412C0.56232864 20.018557 0 16.713259 0 13.301107C0 9.8889551 0.56232864 6.5836577 1.6869859 3.4759054C2.4307108 1.3971865 4.507699 0 6.8477116 0C7.2014341 0 7.5551572 0.033223584 7.9088798 0.097874887C18.593124 2.0903921 25.495255 7.2732716 25.495255 13.301107C25.495255 19.329842 18.593124 24.511824 7.9088798 26.504339C7.5551572 26.568991 7.2014341 26.602215 6.8477116 26.602215L6.8477116 26.602215Z" fill-rule="evenodd"/>
	<path fill="white" transform="translate(1.00675 1.29841)" d="M0.5986079 6.8395691L0 4.9485183L15.971947 0L16.561485 1.8910506L0.5986079 6.8395691" fill-rule="evenodd"/>
	<path fill="white" transform="translate(0.253954 7.31368)" d="M0.5986079 6.5190063L0 4.6288538L14.937987 0L15.536595 1.8901527L0.5986079 6.5190063" fill-rule="evenodd"/>
	<path fill="white" transform="translate(0 12.9482)" d="M0.5986079 6.4265189L0 4.5354686L14.629614 0L15.228222 1.8910506L0.5986079 6.4265189" fill-rule="evenodd"/>
	<path fill="white" transform="translate(0.235816 18.229)" d="M0.5986079 6.5333734L0 4.6432204L14.983336 0L15.581944 1.8901527L0.5986079 6.5333734" fill-rule="evenodd"/>
	<path fill="white" transform="translate(0.961401 23.1281)" d="M0.5986079 6.8718948L0 4.980844L16.071714 0L16.670322 1.8901527L0.5986079 6.8718948" fill-rule="evenodd"/>
</svg>
