<?xml version="1.0" encoding="utf-8" ?>
<svg xmlns="http://www.w3.org/2000/svg" xmlns:xlink="http://www.w3.org/1999/xlink" width="20" height="26">
	<path fill="white" transform="translate(0 1.90735e-06)" d="M11.088 19.950001L11.517 22.049999L8.3599997 22.049999L8.7889996 19.950001L9.4119997 19.950001L9.4119997 18.280001C8.7469997 18.049999 8.2629995 17.43 8.2629995 16.690001C8.2629995 15.77 9.0129995 15.02 9.9390001 15.02C10.864 15.02 11.614 15.77 11.614 16.690001C11.614 17.43 11.131 18.049999 10.465 18.280001L10.465 19.950001L11.088 19.950001ZM5.9390001 2.6900001L13.938 2.6900001C14.945 2.6900001 15.763 3.51 15.763 4.5100002L15.763 11.92L4.1139998 11.92L4.1139998 4.5100002C4.1139998 3.51 4.9330001 2.6900001 5.9390001 2.6900001ZM18.451 12.3L18.451 4.5100002C18.451 2.03 16.426001 0 13.938 0L5.9390001 0C3.451 0 1.426 2.03 1.426 4.5100002L1.426 12.3C0.57800001 12.79 0 13.69 0 14.74L0 22.950001C0 24.51 1.263 25.77 2.8199999 25.77L17.056999 25.77C18.615 25.77 19.877001 24.51 19.877001 22.950001L19.877001 14.74C19.877001 13.69 19.299 12.79 18.451 12.3L18.451 12.3Z" fill-rule="evenodd"/>
</svg>
