<?xml version="1.0" encoding="utf-8" ?>
<svg xmlns="http://www.w3.org/2000/svg" xmlns:xlink="http://www.w3.org/1999/xlink" width="37" height="28">
	<path fill="#68D15C" transform="translate(17.35 0.128208)" d="M9.6960926 21.653492L10.071239 23.489872L7.3105459 23.489872L7.6856923 21.653492L8.230485 21.653492L8.230485 20.19313C7.6489649 20.000748 7.2257228 19.458578 7.2257228 18.811474C7.2257228 17.998219 7.8824477 17.342367 8.69133 17.342367C9.5002117 17.342367 10.156062 17.998219 10.156062 18.811474C10.156062 19.458578 9.733695 20.000748 9.1512995 20.19313L9.1512995 21.653492L9.6960926 21.653492ZM9.230485 0.072893016C8.1977396 -0.12823445 7.1483788 0.09038236 6.2747865 0.68502009C5.4011936 1.2796577 4.8126769 1.9399954 4.615922 2.9718668L6.9245152 3.6494639C7.0040917 3.2297196 7.2428217 2.8711882 7.5969806 2.6263373C7.9511399 2.3902311 8.374382 2.3027844 8.7906284 2.3814864L15.662191 4.7691197C16.526165 4.9352684 16.624981 7.4651461 16.460581 8.3308687L14.217088 14.631519L2.4659975 14.631519C1.1044521 14.631519 0 15.733349 0 17.097517L0 24.285637C0 25.641062 1.1044521 26.751635 2.4659975 26.751635L14.915788 26.751635C16.278208 26.751635 17.381784 25.641062 17.381784 24.285637L17.381784 17.097517C17.381784 16.336731 17.033747 15.672135 16.497698 15.217413L18.770048 8.7681017C19.176676 6.6256576 18.239246 2.8715258 16.102049 2.4605262L9.230485 0.072893016Z" fill-rule="evenodd"/>
	<path fill="white" transform="translate(-1.90735e-06 3.07166)" d="M21.105957 4.9963584L21.105957 9.4965343C21.105957 9.9659348 21.487926 10.346529 21.959023 10.346529L24.733255 10.346529C25.204351 10.346529 25.586321 9.9659348 25.586321 9.4965343L25.586321 8.1496534L26.366529 8.1496534L27.293161 8.9763889L27.292999 10.357L29 10.357065L29 14.75C28.987474 14.98993 28.914576 15.18102 28.781307 15.323268C28.684881 15.42619 28.417889 15.666118 27.980326 16.043051C27.605165 16.380955 27.337959 16.617022 27.178707 16.751257C27.051044 16.858862 26.824389 16.904327 26.776472 16.904327L24.670143 16.904327C24.508574 16.904327 23.875494 16.714241 23.875494 16.016481L23.875494 14.178256L22.82 14.178256L22.82 17.15C22.82 17.619442 22.439442 18 21.969999 18L15.568933 18L15.568 16.299L11.754061 16.299307L8.5808821 13.533654C8.425972 13.397627 8.2257919 13.322918 8.0192451 13.322918L5.0674667 13.322918L5.0674667 4.9963584L21.105957 4.9963584ZM28.716352 7.9628801L27.26133 6.6660399C27.105005 6.5264888 26.902702 6.4489603 26.692619 6.4489603L24.733255 6.4489603C24.261452 6.4489603 23.879482 6.8302598 23.879482 7.2996593L23.879482 8.6458359L22.812796 8.6458359L22.812796 4.1456594C22.812796 3.6762598 22.430119 3.2956655 21.959023 3.2956655L12.71323 3.2956655L12.71323 1.700693L16.803137 1.700693L16.803137 0L6.4899507 0L6.4899507 1.700693L10.579858 1.700693L10.579858 3.2956655L4.2144008 3.2956655C3.7425971 3.2956655 3.3606274 3.6762598 3.3606274 4.1456594L3.3606274 7.5477505L2.1340797 7.5477505L2.1340797 3.402091L0 3.402091L0 14.244098L2.1340797 14.244098L2.1340797 10.098437L3.3606274 10.098437L3.3606274 14.173616C3.3606274 14.643017 3.7425971 15.023611 4.2144008 15.023611L7.6988144 15.023611L10.871286 17.789968C11.026904 17.925291 11.226377 18 11.433631 18L21.959023 18C22.430119 18 22.812796 17.619406 22.812796 17.150005L22.812796 14.173616L23.879482 14.173616L23.879482 16.051216C23.879482 16.52132 24.261452 16.901915 24.733255 16.901915L26.692619 16.901915C26.902702 16.901915 27.105005 16.824387 27.26133 16.684835L28.716352 15.387995C28.896727 15.2273 29 14.996828 29 14.754375L29 8.5964994C29 8.3547516 28.896727 8.1242809 28.716352 7.9628801L28.716352 7.9628801Z" fill-rule="evenodd"/>
</svg>
