<?xml version="1.0" encoding="utf-8" ?>
<svg xmlns="http://www.w3.org/2000/svg" xmlns:xlink="http://www.w3.org/1999/xlink" width="40" height="22">
	<path fill="white" transform="matrix(-1 0 0 1 40 0)" d="M25.454546 9.166667L5.4545455 9.166667C3.6363637 9.166667 1.8181819 7.3333335 1.8181819 7.3333335L0 7.3333335L0 14.666667L1.8181819 14.666667C1.8181819 14.666667 3.6363637 12.833333 5.4545455 12.833333L6 12.833333C5.6363635 13.383333 5.4545455 13.933333 5.4545455 14.666667L5.4545455 18.333334C5.4545455 20.35 7.090909 22 9.090909 22L10.909091 22L14.545455 22L16.363636 22L20 22L21.818182 22L25.454546 22L27.272728 22C29.272728 22 30.90909 20.35 30.90909 18.333334L30.90909 14.666667C30.90909 14.483334 30.90909 14.116667 30.727272 13.933333C33.81818 15.033334 37.090908 17.233334 38.18182 22L40 22L40 0L38.18182 0C36.363636 9.166667 25.454546 9.166667 25.454546 9.166667ZM8.181818 18.333334L8.181818 14.666667C8.181818 14.116667 8.545455 13.75 9.090909 13.75L18.181818 13.75L18.181818 19.25L9.090909 19.25C8.545455 19.25 8.181818 18.883333 8.181818 18.333334ZM27.272728 19.25L18.181818 19.25L18.181818 13.75L27.272728 13.75C27.818182 13.75 28.181818 14.116667 28.181818 14.666667L28.181818 18.333334C28.181818 18.883333 27.818182 19.25 27.272728 19.25Z"/>
</svg>
