<?xml version="1.0" encoding="utf-8" ?>
<svg xmlns="http://www.w3.org/2000/svg" xmlns:xlink="http://www.w3.org/1999/xlink" width="47" height="24">
	<path fill="white" transform="translate(-1.90735e-06 1.60989)" d="M43.134998 13.81C43.134998 14.23 42.791 14.58 42.368 14.58L39.129002 14.58L39.202 15.95C39.202 17.290001 38.119999 18.370001 36.789001 18.370001L36.186001 18.370001C34.855 18.370001 33.771999 17.290001 33.775002 15.93L33.846001 14.58L11.993 14.58L12.052 15.95C12.052 17.290001 10.97 18.370001 9.6389999 18.370001L9.0360003 18.370001C7.7049999 18.370001 6.6230001 17.290001 6.625 15.93L6.6960001 14.58L3.1789999 14.58C2.757 14.58 2.4130001 14.23 2.4130001 13.81C2.4130001 13.51 2.526 13.23 2.7309999 13.01L4.5019999 11.12C4.7059999 10.9 4.9819999 10.75 5.277 10.71L10.033 9.9700003C10.76 9.8500004 11.454 9.5600004 12.04 9.1099997L20.216 2.9400001C20.667 2.5999999 21.226999 2.4100001 21.792 2.4100001L32.02 2.4100001C32.525002 2.4100001 33.006001 2.5999999 33.374001 2.95L38.311001 7.5900002C39.039001 8.2700005 39.988998 8.6499996 40.987999 8.6499996L42.292999 8.6499996C42.757 8.6499996 43.134998 9.0200005 43.134998 9.4899998L43.134998 13.81ZM42.292999 6.23L40.987999 6.23C40.605 6.23 40.241001 6.0900002 39.963001 5.8299999L35.027 1.1900001C34.209999 0.41999999 33.140999 0 32.02 0L21.792 0C20.705999 0 19.629 0.36000001 18.761999 1.01L10.585 7.1900001C10.316 7.3899999 9.9960003 7.5300002 9.6599998 7.5799999L4.9050002 8.3199997C4.0809999 8.4499998 3.312 8.8599997 2.7420001 9.4700003L0.97100002 11.36C0.34400001 12.02 0 12.9 0 13.81C0 15.57 1.426 16.99 3.1789999 16.99L4.322 16.99C4.7979999 19.16 6.7309999 20.780001 9.0360003 20.780001L9.6389999 20.780001C11.945 20.780001 13.878 19.16 14.353 16.99L31.472 16.99C31.947001 19.16 33.880001 20.780001 36.186001 20.780001L36.789001 20.780001C39.094002 20.780001 41.027 19.16 41.502998 16.99L42.368 16.99C44.120998 16.99 45.548 15.57 45.548 13.81L45.548 9.4899998C45.548 7.6900001 44.087002 6.23 42.292999 6.23L42.292999 6.23Z" fill-rule="evenodd"/>
	<path fill="#68D15C" transform="translate(37.725 0.373535)" d="M4.4770002 2.8763585C5.2950001 2.2363584 6.4629998 2.2563584 7.2519999 2.9363585L8.8219995 1.1063584C7.165 -0.31364155 4.7129998 -0.37364155 2.9909999 0.96635848L0 3.3063586L1.78 4.9763584L4.4770002 2.8763585" fill-rule="evenodd"/>
</svg>
