<?xml version="1.0" encoding="utf-8" ?>
<svg xmlns="http://www.w3.org/2000/svg" xmlns:xlink="http://www.w3.org/1999/xlink" width="21" height="29">
	<path fill="white" transform="translate(0 0.146729)" d="M11.088 21.853357L11.517 23.953358L8.3599997 23.953358L8.7889996 21.853357L9.4119997 21.853357L9.4119997 20.183357C8.7469997 19.963358 8.2629995 19.343357 8.2629995 18.603357C8.2629995 17.673357 9.0139999 16.923357 9.9390001 16.923357C10.864 16.923357 11.614 17.673357 11.614 18.603357C11.614 19.343357 11.131 19.963358 10.465 20.183357L10.465 21.853357L11.088 21.853357ZM16.732 1.5733571L8.8739996 0.083357058C7.6929998 -0.14664294 6.493 0.10335705 5.494 0.78335708C4.4949999 1.4633571 3.822 2.483357 3.5969999 3.663357L2.984 6.883357L5.625 7.3933573L6.237 4.173357C6.3280001 3.693357 6.6009998 3.2833571 7.006 3.0033572C7.4109998 2.733357 7.895 2.633357 8.3710003 2.723357L16.229 4.213357C17.216999 4.403357 17.868 5.3633571 17.68 6.3533568L16.257999 13.823357L2.8199999 13.823357C1.263 13.823357 0 15.083357 0 16.643356L0 24.863358C0 26.413357 1.263 27.683357 2.8199999 27.683357L17.056999 27.683357C18.615 27.683357 19.877001 26.413357 19.877001 24.863358L19.877001 16.643356C19.877001 15.773357 19.479 15.013357 18.865999 14.493357L20.320999 6.8533568C20.785999 4.403357 19.176001 2.0433571 16.732 1.5733571L16.732 1.5733571Z" fill-rule="evenodd"/>
</svg>
