<?xml version="1.0" encoding="utf-8" ?>
<svg xmlns="http://www.w3.org/2000/svg" xmlns:xlink="http://www.w3.org/1999/xlink" width="36" height="32">
	<path fill="white" transform="translate(20.03 8.815)" d="M1.21 1.678L0 3.648L0 3.6760001L2.02 3.6760001L2.02 1.678C2.02 1.137 2.05 0.58200002 2.0899999 0L2.04 0C1.75 0.58200002 1.51 1.109 1.21 1.678" fill-rule="evenodd"/>
	<path fill="white" d="M32.880001 4.9770002L16.6 4.9770002L7.5799999 14.781L4.9000001 14.781L15.46 3.017L32.880001 3.017L32.880001 4.9770002ZM25.129999 12.491L25.129999 14.072L24.049999 14.072L24.049999 16.223L22.049999 16.223L22.049999 14.072L18.059999 14.072L18.059999 12.699L21.469999 7.2049999L24.049999 7.2049999L24.049999 12.491L25.129999 12.491ZM3.02 28.052999L32.880001 28.052999L32.880001 17.797001L3.02 17.797001L3.02 28.052999ZM34.389999 0L14.79 0C14.36 0 13.95 0.18700001 13.66 0.50099999L0.38999999 15.282C0.14 15.559 0 15.921 0 16.289L0 29.561001C0 30.393999 0.68000001 31.069 1.51 31.069L34.389999 31.069C35.220001 31.069 35.900002 30.393999 35.900002 29.561001L35.900002 1.508C35.900002 0.676 35.220001 0 34.389999 0L34.389999 0Z" fill-rule="evenodd"/>
	<path fill="#E9445A" transform="translate(17.29 17.8)" d="M9.6700001 2.6070001L7.6999998 2.6070001L7.6999998 0L1.96 0L1.96 2.6070001L0 2.6070001L4.8299999 7.4400001L9.6700001 2.6070001" fill-rule="evenodd"/>
</svg>
