<?xml version="1.0" encoding="utf-8" ?>
<svg xmlns="http://www.w3.org/2000/svg" xmlns:xlink="http://www.w3.org/1999/xlink" width="136" height="40">
	<path fill="#01426A" transform="translate(-0.000457764 0)" d="M121.36715 0L9.5525866 0C9.1851978 0 8.8222179 0 8.455801 0.0021299932C8.1490755 0.0041299867 7.8447952 0.0099399677 7.5351248 0.014829951C6.8623776 0.022731729 6.1912122 0.081805997 5.5274615 0.19153938C4.8646431 0.30366164 4.2225881 0.51504409 3.6230114 0.81853735C3.0241683 1.124598 2.4769883 1.5222926 2.0013216 1.9971935C1.5231577 2.4707589 1.1245712 3.0181365 0.82088876 3.6182783C0.51636821 4.2172256 0.30521262 4.8590527 0.19471499 5.5215921C0.083166838 6.1832948 0.02314176 6.8526282 0.015178452 7.5235853C0.0058810241 7.8301845 0.0048991838 8.1378031 0 8.4444427L0 31.558628C0.0048991838 31.869127 0.0058810241 32.169926 0.015178452 32.480526C0.023144202 33.151447 0.083169281 33.820747 0.19471499 34.482418C0.3049075 35.145344 0.51607555 35.78754 0.82088876 36.386711C1.1244334 36.984913 1.5230758 37.530075 2.0013216 38.001007C2.4751847 38.47802 3.0227184 38.875984 3.6230114 39.179703C4.2225833 39.484009 4.8645692 39.696648 5.5274615 39.810501C6.1913247 39.919353 6.862421 39.978455 7.5351248 39.987301C7.8447952 39.994099 8.1490755 39.998001 8.455801 39.998001C8.8222075 40 9.1852179 40 9.5525866 40L125.32793 40C125.68801 40 126.05389 40 126.41397 39.998001C126.71924 39.998001 127.03233 39.994099 127.3376 39.987301C128.00903 39.978924 128.67886 39.919823 129.34135 39.810501C130.00639 39.695847 130.65068 39.483265 131.25314 39.179703C131.85289 38.875809 132.39992 38.477856 132.87338 38.001007C133.35039 37.528229 133.74988 36.983467 134.05719 36.386711C134.35973 35.787106 134.56888 35.144958 134.67746 34.482418C134.78918 33.820656 134.85133 33.151508 134.8634 32.480526C134.86731 32.169926 134.86731 31.869127 134.86731 31.558628C134.87512 31.195328 134.87512 30.83403 134.87512 30.46483L134.87512 9.5362291C134.87512 9.1700201 134.87512 8.8067417 134.86731 8.4444427C134.86731 8.1378031 134.86731 7.8301845 134.8634 7.5235457C134.85133 6.85253 134.78918 6.1833458 134.67746 5.5215521C134.56857 4.859396 134.35944 4.2176194 134.05719 3.6182382C133.43877 2.4153183 132.4581 1.4361508 131.25314 0.81844735C130.65067 0.51569557 130.00632 0.30436927 129.34135 0.19144937C128.67899 0.081232518 128.00908 0.022137692 127.3376 0.014689952C127.03233 0.0098099681 126.71924 0.0039499872 126.41397 0.0019999936C126.05389 0 125.68801 0 125.32793 0L121.36715 0Z" fill-rule="evenodd"/>
	<path fill="white" transform="translate(1.08266 0.875128)" d="M7.5860305 38.249874C7.2807879 38.249874 6.9828997 38.245975 6.6800518 38.239174C6.0526576 38.231018 5.4267297 38.176502 4.8074017 38.076077C4.2299094 37.976807 3.6704748 37.792141 3.1475501 37.528179C2.6294208 37.266403 2.1568449 36.923153 1.7479266 36.511581C1.3330892 36.104858 0.98771822 35.633129 0.72549999 35.115086C0.46039227 34.593678 0.27692199 34.03479 0.18148018 33.45789C0.078411341 32.838009 0.022646826 32.211208 0.014667495 31.582897C0.0083155874 31.371998 0 30.6698 0 30.6698L0 7.5693154C0 7.5693154 0.008856602 6.8779078 0.014717588 6.6747785C0.022358254 6.0474629 0.077795126 5.4216361 0.18054844 4.8027143C0.27617371 4.224237 0.45978922 3.663738 0.72503912 3.1406198C0.98629302 2.6229374 1.3297429 2.1508558 1.7420756 1.7426744C2.1539555 1.3306186 2.628046 0.98560274 3.1470592 0.72020763C3.668782 0.45709211 4.2271595 0.27373165 4.8034844 0.17626943C5.4248462 0.074835524 6.052947 0.019995645 6.6825166 0.01220996L7.5865312 0L124.90903 0L125.82384 0.012699959C126.44769 0.020099133 127.07008 0.074449763 127.68574 0.17528944C128.2679 0.27397418 128.83209 0.45861405 129.35977 0.72313768C130.39954 1.2579825 131.24557 2.1041565 131.77931 3.1430597C132.04033 3.6625657 132.22112 4.218493 132.31552 4.7919745C132.41949 5.4159737 132.47769 6.0467186 132.48964 6.6791782C132.49255 6.9623775 132.49255 7.2665763 132.49255 7.5693154C132.50046 7.944314 132.50046 8.3012428 132.50046 8.6611023L132.50046 29.589705C132.50046 29.953003 132.50046 30.307501 132.49255 30.6649C132.49255 30.990099 132.49255 31.287998 132.48865 31.594597C132.47696 32.215771 132.41972 32.835258 132.31741 33.44809C132.22394 34.029152 132.04146 34.5924 131.77641 35.118088C131.51233 35.630505 131.16895 36.098148 130.7589 36.50378C130.34961 36.917564 129.87621 37.262821 129.35687 37.526279C128.83064 37.792271 128.26729 37.977615 127.68574 38.076077C127.06646 38.177036 126.44047 38.231556 125.81303 38.239174C125.51958 38.245975 125.2123 38.249874 124.91394 38.249874L123.8279 38.251877L7.5860305 38.249874Z" fill-rule="evenodd"/>
	<path fill="#01426A" transform="translate(49.7476 6.2766)" d="M0.46125001 6L0.46125001 1.413125L1.8642187 1.413125Q2.9148438 1.413125 3.5522656 2.0473437Q4.1896877 2.6815624 4.1896877 3.7065625Q4.1896877 4.7379689 3.5522656 5.3689842Q2.9148438 6 1.8642187 6L0.46125001 6ZM1.050625 1.9768749L1.050625 5.4362502L1.8642187 5.4362502Q2.665 5.4362502 3.12625 4.9782033Q3.5875001 4.5201564 3.5875001 3.7065625Q3.5875001 2.899375 3.12625 2.4381249Q2.665 1.9768749 1.8642187 1.9768749L1.050625 1.9768749ZM5.8613939 6L5.2720189 6L5.2720189 1.413125L5.8613939 1.413125L5.8613939 6ZM9.999506 4.7764063Q9.999506 5.3785939 9.5574751 5.7437501Q9.1090374 6.1025 8.4684124 6.1025Q7.8982563 6.1025 7.4626312 5.7693748Q7.0270061 5.4362502 6.8604436 4.8596873L7.4241939 4.6290627Q7.4818501 4.8340626 7.5843501 5.0006251Q7.6868501 5.1671877 7.8245845 5.2857032Q7.9623189 5.4042187 8.1288815 5.4714842Q8.2954435 5.5387502 8.481225 5.5387502Q8.884819 5.5387502 9.1410685 5.3305469Q9.3973188 5.1223435 9.3973188 4.7764063Q9.3973188 4.4881248 9.1859121 4.2831249Q8.987319 4.0845313 8.4427872 3.8987501Q7.89185 3.7001562 7.757319 3.6296875Q7.0270061 3.2581251 7.0270061 2.5342188Q7.0270061 2.028125 7.4306002 1.6693749Q7.8406 1.310625 8.4363813 1.310625Q8.9616938 1.310625 9.3460684 1.5796875Q9.730444 1.8423438 9.8585691 2.2395313L9.3076315 2.4701562Q9.2307558 2.2139063 9.003334 2.0441406Q8.7759123 1.874375 8.449194 1.874375Q8.1032562 1.874375 7.8662252 2.0665624Q7.6291938 2.2459376 7.6291938 2.5342188Q7.6291938 2.77125 7.8149748 2.9442186Q8.0199747 3.1171875 8.7054434 3.3542187Q9.4037247 3.5912499 9.7016153 3.9339843Q9.999506 4.2767186 9.999506 4.7764063ZM11.684025 4.1421876L11.684025 6L11.09465 6L11.09465 1.413125L12.657775 1.413125Q13.253556 1.413125 13.669963 1.8103125Q14.092775 2.2075 14.092775 2.7776563Q14.092775 3.360625 13.669963 3.7514062Q13.259962 4.1421876 12.657775 4.1421876L11.684025 4.1421876ZM11.684025 1.9768749L11.684025 3.5784376L12.670588 3.5784376Q13.022931 3.5784376 13.253556 3.3414063Q13.490587 3.1043749 13.490587 2.7776563Q13.490587 2.4573438 13.253556 2.2203126Q13.022931 1.9768749 12.670588 1.9768749L11.684025 1.9768749ZM19.518543 3.7065625Q19.518543 4.7251563 18.839481 5.410625Q18.154013 6.1025 17.161043 6.1025Q16.161669 6.1025 15.482606 5.410625Q14.803544 4.7251563 14.803544 3.7065625Q14.803544 2.6879687 15.482606 2.0025001Q16.161669 1.310625 17.161043 1.310625Q18.160419 1.310625 18.839481 2.0089064Q19.518543 2.694375 19.518543 3.7065625ZM15.405731 3.7065625Q15.405731 4.5009375 15.905418 5.0198436Q16.411512 5.5387502 17.161043 5.5387502Q17.910576 5.5387502 18.410263 5.0198436Q18.916357 4.5073438 18.916357 3.7065625Q18.916357 2.9057813 18.410263 2.3932812Q17.910576 1.874375 17.161043 1.874375Q16.411512 1.874375 15.905418 2.3932812Q15.405731 2.9121876 15.405731 3.7065625ZM21.19025 6L20.600876 6L20.600876 1.413125L21.318375 1.413125L23.54775 4.9814062L23.573376 4.9814062L23.54775 4.0973439L23.54775 1.413125L24.137125 1.413125L24.137125 6L23.522125 6L21.19025 2.25875L21.164625 2.25875L21.19025 3.1428125L21.19025 6ZM26.033051 6L25.443676 6L25.443676 1.413125L26.033051 1.413125L26.033051 6ZM27.3396 6L27.3396 1.413125L28.998819 1.413125Q29.54335 1.413125 29.934132 1.771875Q30.324913 2.1242187 30.324913 2.6623437Q30.324913 3.3414063 29.703506 3.6168749L29.703506 3.6424999Q30.055851 3.7578125 30.267256 4.0428905Q30.478662 4.3279686 30.478662 4.6931248Q30.478662 5.256875 30.068663 5.6284375Q29.671474 6 29.088507 6L27.3396 6ZM27.928974 1.9768749L27.928974 3.3798437L28.998819 3.3798437Q29.312725 3.3798437 29.524132 3.1684375Q29.735538 2.9506249 29.735538 2.6751564Q29.735538 2.4060938 29.530537 2.1882813Q29.325537 1.9768749 29.024445 1.9768749L27.928974 1.9768749ZM27.928974 3.9307814L27.928974 5.4362502L29.114132 5.4362502Q29.434444 5.4362502 29.658663 5.2120314Q29.876474 4.9878125 29.876474 4.6803126Q29.876474 4.3792186 29.652256 4.1550002Q29.428038 3.9307814 29.088507 3.9307814L27.928974 3.9307814ZM34.104275 6L31.528963 6L31.528963 1.413125L32.118336 1.413125L32.118336 5.4362502L34.104275 5.4362502L34.104275 6ZM37.781139 1.413125L37.781139 1.9768749L35.692699 1.9768749L35.692699 3.4310937L37.576138 3.4310937L37.576138 3.9820313L35.692699 3.9820313L35.692699 5.4362502L37.781139 5.4362502L37.781139 6L35.103325 6L35.103325 1.413125L37.781139 1.413125ZM43.392365 4.7764063Q43.392365 5.3785939 42.950333 5.7437501Q42.501892 6.1025 41.861267 6.1025Q41.291111 6.1025 40.855488 5.7693748Q40.419861 5.4362502 40.2533 4.8596873L40.817051 4.6290627Q40.874706 4.8340626 40.977207 5.0006251Q41.079708 5.1671877 41.217442 5.2857032Q41.355175 5.4042187 41.521736 5.4714842Q41.688301 5.5387502 41.874081 5.5387502Q42.277676 5.5387502 42.533924 5.3305469Q42.790176 5.1223435 42.790176 4.7764063Q42.790176 4.4881248 42.57877 4.2831249Q42.380177 4.0845313 41.835644 3.8987501Q41.284706 3.7001562 41.150177 3.6296875Q40.419861 3.2581251 40.419861 2.5342188Q40.419861 2.028125 40.823456 1.6693749Q41.233456 1.310625 41.829239 1.310625Q42.354549 1.310625 42.738926 1.5796875Q43.123299 1.8423438 43.251427 2.2395313L42.700489 2.4701562Q42.623611 2.2139063 42.396191 2.0441406Q42.16877 1.874375 41.842049 1.874375Q41.496113 1.874375 41.259083 2.0665624Q41.022049 2.2459376 41.022049 2.5342188Q41.022049 2.77125 41.207832 2.9442186Q41.41283 3.1171875 42.098301 3.3542187Q42.796581 3.5912499 43.094471 3.9339843Q43.392365 4.2767186 43.392365 4.7764063ZM46.082664 6.1025Q45.32032 6.1025 44.852661 5.6028123Q44.385006 5.1095314 44.385006 4.2959375L44.385006 1.413125L44.97438 1.413125L44.97438 4.3215623Q44.97438 4.8853126 45.26907 5.2120314Q45.563755 5.5387502 46.082664 5.5387502Q46.60157 5.5387502 46.896255 5.2120314Q47.190945 4.8853126 47.190945 4.3215623L47.190945 1.413125L47.780319 1.413125L47.780319 4.2959375Q47.780319 5.1287498 47.319069 5.6156249Q46.857819 6.1025 46.082664 6.1025ZM49.573746 1.9768749L49.573746 3.5912499L50.52187 3.5912499Q50.880619 3.5912499 51.130463 3.3574219Q51.380306 3.1235938 51.380306 2.7776563Q51.380306 2.4573438 51.146477 2.2171094Q50.912651 1.9768749 50.560307 1.9768749L49.573746 1.9768749ZM49.573746 6L48.984367 6L48.984367 1.413125L50.547493 1.413125Q51.143276 1.413125 51.562885 1.8071094Q51.982494 2.2010937 51.982494 2.7776563Q51.982494 3.2517188 51.671791 3.6200781Q51.361088 3.9884374 50.887024 4.0909376L50.874214 4.1101561L52.161869 5.9743748L52.161869 6L51.463589 6L50.22718 4.1421876L49.573746 4.1421876L49.573746 6Z"/>
	<path fill="#01426A" transform="translate(51.5855 16.6099)" d="M5.1374998 7.1500001L9.5 7.1500001Q9.5249996 7.3125 9.5500002 7.4937501Q9.5749998 7.6750002 9.5749998 7.875Q9.5749998 8.6750002 9.3249998 9.4624996Q9.0749998 10.25 8.4750004 10.8625Q7.8625002 11.5 7.0374999 11.85Q6.2125001 12.2 5.1500001 12.2Q4.1875 12.2 3.33125 11.85Q2.4749999 11.5 1.8375 10.875Q1.2 10.25 0.83125001 9.3937502Q0.46250001 8.5375004 0.46250001 7.5250001Q0.46250001 6.5124998 0.83125001 5.65625Q1.2 4.8000002 1.8375 4.1750002Q2.4749999 3.55 3.33125 3.2Q4.1875 2.8499999 5.1500001 2.8499999Q6.1750002 2.8499999 7.0437498 3.2125001Q7.9124999 3.575 8.5 4.2249999L7.5124998 5.2125001Q7.0749998 4.7249999 6.4812498 4.4625001Q5.8874998 4.1999998 5.1374998 4.1999998Q4.5 4.1999998 3.9124999 4.4375Q3.325 4.6750002 2.875 5.1062498Q2.425 5.5374999 2.1624999 6.1500001Q1.9 6.7624998 1.9 7.5250001Q1.9 8.2875004 2.1624999 8.8999996Q2.425 9.5124998 2.875 9.9437504Q3.325 10.375 3.9124999 10.6125Q4.5 10.85 5.1500001 10.85Q6.0124998 10.85 6.5437498 10.5875Q7.0749998 10.325 7.4375 9.9750004Q7.6999998 9.7250004 7.9000001 9.3187504Q8.1000004 8.9125004 8.1625004 8.4250002L5.1374998 8.4250002L5.1374998 7.1500001ZM13.26799 5.6750002Q13.96799 5.6750002 14.55549 5.9187498Q15.14299 6.1624999 15.56799 6.5999999Q15.99299 7.0374999 16.23049 7.6374998Q16.467989 8.2375002 16.467989 8.9375Q16.467989 9.6374998 16.23049 10.2375Q15.99299 10.8375 15.56799 11.275Q15.14299 11.7125 14.55549 11.95625Q13.96799 12.2 13.26799 12.2Q12.56799 12.2 11.98049 11.95625Q11.39299 11.7125 10.96799 11.275Q10.54299 10.8375 10.30549 10.2375Q10.06799 9.6374998 10.06799 8.9375Q10.06799 8.2375002 10.30549 7.6374998Q10.54299 7.0374999 10.96799 6.5999999Q11.39299 6.1624999 11.98049 5.9187498Q12.56799 5.6750002 13.26799 5.6750002ZM13.26799 10.9125Q13.61799 10.9125 13.94299 10.775Q14.26799 10.6375 14.52424 10.3875Q14.78049 10.1375 14.93049 9.7687502Q15.08049 9.3999996 15.08049 8.9375Q15.08049 8.4750004 14.93049 8.1062498Q14.78049 7.7375002 14.52424 7.4875002Q14.26799 7.2375002 13.94299 7.0999999Q13.61799 6.9625001 13.26799 6.9625001Q12.91799 6.9625001 12.59299 7.0999999Q12.26799 7.2375002 12.01174 7.4875002Q11.75549 7.7375002 11.60549 8.1062498Q11.45549 8.4750004 11.45549 8.9375Q11.45549 9.3999996 11.60549 9.7687502Q11.75549 10.1375 12.01174 10.3875Q12.26799 10.6375 12.59299 10.775Q12.91799 10.9125 13.26799 10.9125ZM20.073481 5.6750002Q20.773479 5.6750002 21.360979 5.9187498Q21.948481 6.1624999 22.37348 6.5999999Q22.798479 7.0374999 23.03598 7.6374998Q23.273479 8.2375002 23.273479 8.9375Q23.273479 9.6374998 23.03598 10.2375Q22.798479 10.8375 22.37348 11.275Q21.948481 11.7125 21.360979 11.95625Q20.773479 12.2 20.073481 12.2Q19.37348 12.2 18.78598 11.95625Q18.198481 11.7125 17.773479 11.275Q17.34848 10.8375 17.110979 10.2375Q16.87348 9.6374998 16.87348 8.9375Q16.87348 8.2375002 17.110979 7.6374998Q17.34848 7.0374999 17.773479 6.5999999Q18.198481 6.1624999 18.78598 5.9187498Q19.37348 5.6750002 20.073481 5.6750002ZM20.073481 10.9125Q20.423479 10.9125 20.74848 10.775Q21.073481 10.6375 21.329729 10.3875Q21.585979 10.1375 21.735979 9.7687502Q21.885981 9.3999996 21.885981 8.9375Q21.885981 8.4750004 21.735979 8.1062498Q21.585979 7.7375002 21.329729 7.4875002Q21.073481 7.2375002 20.74848 7.0999999Q20.423479 6.9625001 20.073481 6.9625001Q19.72348 6.9625001 19.398479 7.0999999Q19.073481 7.2375002 18.81723 7.4875002Q18.56098 7.7375002 18.41098 8.1062498Q18.260981 8.4750004 18.260981 8.9375Q18.260981 9.3999996 18.41098 9.7687502Q18.56098 10.1375 18.81723 10.3875Q19.073481 10.6375 19.398479 10.775Q19.72348 10.9125 20.073481 10.9125ZM26.80397 14.9Q26.16647 14.9 25.67272 14.73125Q25.17897 14.5625 24.816469 14.3Q24.45397 14.0375 24.222719 13.7125Q23.99147 13.3875 23.878969 13.0875L25.20397 12.55Q25.378969 13.0375 25.80397 13.34375Q26.22897 13.65 26.80397 13.65Q27.66647 13.65 28.14772 13.125Q28.628969 12.6 28.628969 11.675L28.628969 11.175L28.55397 11.175Q28.26647 11.5875 27.76022 11.8625Q27.253969 12.1375 26.57897 12.1375Q26.01647 12.1375 25.49147 11.9Q24.966469 11.6625 24.560219 11.2375Q24.153969 10.8125 23.91647 10.2125Q23.67897 9.6125002 23.67897 8.8999996Q23.67897 8.1875 23.91647 7.59375Q24.153969 7 24.560219 6.5749998Q24.966469 6.1500001 25.49147 5.9124999Q26.01647 5.6750002 26.57897 5.6750002Q27.253969 5.6750002 27.76022 5.9499998Q28.26647 6.2249999 28.55397 6.6374998L28.628969 6.6374998L28.628969 5.875L29.966469 5.875L29.966469 11.65Q29.966469 12.4375 29.722719 13.04375Q29.47897 13.65 29.060219 14.0625Q28.64147 14.475 28.060219 14.6875Q27.47897 14.9 26.80397 14.9ZM26.85397 10.85Q27.191469 10.85 27.51647 10.725Q27.841469 10.6 28.08522 10.35Q28.32897 10.1 28.47897 9.7375002Q28.628969 9.375 28.628969 8.8999996Q28.628969 8.4375 28.47897 8.0687504Q28.32897 7.6999998 28.08522 7.4562502Q27.841469 7.2125001 27.51647 7.0812502Q27.191469 6.9499998 26.85397 6.9499998Q26.503969 6.9499998 26.185219 7.0812502Q25.86647 7.2125001 25.61647 7.4625001Q25.36647 7.7125001 25.216469 8.0749998Q25.066469 8.4375 25.066469 8.8999996Q25.066469 9.3625002 25.216469 9.7250004Q25.36647 10.0875 25.61647 10.3375Q25.86647 10.5875 26.185219 10.71875Q26.503969 10.85 26.85397 10.85ZM31.071959 12L31.071959 3.05L32.459461 3.05L32.459461 12L31.071959 12ZM39.177448 10.5375Q38.789948 11.25 38.07745 11.725Q37.364948 12.2 36.32745 12.2Q35.63995 12.2 35.058701 11.95625Q34.477448 11.7125 34.052448 11.275Q33.627449 10.8375 33.38995 10.24375Q33.152451 9.6499996 33.152451 8.9375Q33.152451 8.2749996 33.377449 7.6812501Q33.602448 7.0875001 34.008698 6.6437502Q34.414948 6.1999998 34.989948 5.9375Q35.564949 5.6750002 36.26495 5.6750002Q36.977448 5.6750002 37.533699 5.9124999Q38.089951 6.1500001 38.477448 6.5749998Q38.864948 7 39.071198 7.5999999Q39.277451 8.1999998 39.277451 8.9125004Q39.277451 8.9750004 39.277451 9.0249996Q39.26495 9.0874996 39.26495 9.1374998Q39.252449 9.1875 39.252449 9.2375002L34.539948 9.2375002Q34.57745 9.6750002 34.752449 10Q34.927448 10.325 35.183701 10.5375Q35.439949 10.75 35.752449 10.85Q36.064949 10.95 36.364948 10.95Q36.964951 10.95 37.352448 10.6625Q37.739948 10.375 37.989948 9.9499998L39.177448 10.5375ZM37.88995 8.1750002Q37.864948 7.9875002 37.771198 7.7562499Q37.677448 7.5250001 37.4837 7.3312502Q37.289948 7.1374998 36.9837 7Q36.677448 6.8625002 36.239948 6.8625002Q35.63995 6.8625002 35.208698 7.21875Q34.777451 7.5749998 34.627449 8.1750002L37.88995 8.1750002ZM42.688427 12L42.688427 3.05L45.788429 3.05Q46.388428 3.05 46.919678 3.25Q47.450928 3.45 47.850929 3.8125Q48.250927 4.1750002 48.482178 4.6812501Q48.713428 5.1875 48.713428 5.8000002Q48.713428 6.4000001 48.482178 6.90625Q48.250927 7.4124999 47.850929 7.7750001Q47.450928 8.1374998 46.919678 8.3374996Q46.388428 8.5375004 45.788429 8.5375004L44.100929 8.5375004L44.100929 12L42.688427 12ZM45.825928 7.1875Q46.17593 7.1875 46.450928 7.0687499Q46.725929 6.9499998 46.913429 6.75Q47.100929 6.5500002 47.200928 6.3000002Q47.30093 6.0500002 47.30093 5.8000002Q47.30093 5.5374999 47.200928 5.2874999Q47.100929 5.0374999 46.913429 4.84375Q46.725929 4.6500001 46.450928 4.5250001Q46.17593 4.4000001 45.825928 4.4000001L44.100929 4.4000001L44.100929 7.1875L45.825928 7.1875ZM49.481419 12L49.481419 3.05L50.868919 3.05L50.868919 12L49.481419 12ZM55.786907 11.25L55.71191 11.25Q55.436909 11.6125 54.999409 11.90625Q54.561909 12.2 53.886909 12.2Q53.39941 12.2 52.974407 12.04375Q52.549408 11.8875 52.236908 11.60625Q51.924408 11.325 51.74316 10.94375Q51.561909 10.5625 51.561909 10.1Q51.561909 9.6125002 51.755657 9.2250004Q51.949409 8.8374996 52.293159 8.5749998Q52.636909 8.3125 53.111908 8.1687498Q53.58691 8.0249996 54.136909 8.0249996Q54.749409 8.0249996 55.161907 8.1437502Q55.574409 8.2624998 55.786907 8.3625002L55.786907 8.125Q55.786907 7.8499999 55.668159 7.6125002Q55.549408 7.375 55.343159 7.2062502Q55.136909 7.0374999 54.874409 6.9437499Q54.611908 6.8499999 54.324409 6.8499999Q53.861908 6.8499999 53.49316 7.03125Q53.124409 7.2125001 52.83691 7.6125002L51.736908 6.8874998Q52.174408 6.2874999 52.824409 5.9812498Q53.474407 5.6750002 54.299408 5.6750002Q55.661907 5.6750002 56.405659 6.3499999Q57.14941 7.0250001 57.14941 8.2749996L57.14941 12L55.786907 12L55.786907 11.25ZM55.786907 9.4499998Q55.511909 9.2875004 55.174408 9.1875Q54.83691 9.0874996 54.39941 9.0874996Q53.749409 9.0874996 53.361908 9.3874998Q52.974407 9.6875 52.974407 10.1125Q52.974407 10.3375 53.074409 10.50625Q53.174408 10.675 53.330658 10.8Q53.486908 10.925 53.693157 10.9875Q53.89941 11.05 54.111908 11.05Q54.449409 11.05 54.755657 10.91875Q55.061909 10.7875 55.286907 10.56875Q55.511909 10.35 55.64941 10.0625Q55.786907 9.7749996 55.786907 9.4499998ZM59.929897 11.65L57.379898 5.875L58.929897 5.875L60.617397 9.9375L60.679897 9.9375L62.317398 5.875L63.854897 5.875L60.017399 14.7L58.542397 14.7L59.929897 11.65Z"/>
</svg>
