<?xml version="1.0" encoding="utf-8" ?>
<svg xmlns="http://www.w3.org/2000/svg" xmlns:xlink="http://www.w3.org/1999/xlink" width="20" height="23">
	<path fill="#01426A" transform="translate(1.01758 5.25277)" d="M14.825103 6.3276529C14.847001 4.6311874 15.738057 3.0641694 17.186089 2.1756063C16.26844 0.86750329 14.786543 0.067871496 13.187433 0.017933307C11.505039 -0.15832612 9.874032 1.02276 9.016715 1.02276C8.142807 1.02276 6.8228321 0.035433251 5.4014378 0.064623155C3.5312533 0.12493137 1.8300002 1.1605151 0.92011738 2.7924843C-1.0175148 6.1408935 0.42778444 11.061928 2.2838738 13.768529C3.2125146 15.093874 4.2978292 16.57432 5.7179408 16.52182C7.1076059 16.464291 7.6266189 15.637342 9.3040638 15.637342C10.965939 15.637342 11.452882 16.52182 12.901808 16.48844C14.392982 16.464279 15.332494 15.157204 16.228554 13.819308C16.895767 12.874949 17.409184 11.831228 17.749784 10.726809C15.978738 9.9791298 14.827163 8.2469912 14.825103 6.3276529Z"/>
	<path fill="#01426A" transform="translate(9.85326 5.05447e-05)" d="M3.2526624 3.4906087C4.0657129 2.5164037 4.4662724 1.2642283 4.3692756 0C3.127115 0.13022007 1.9797064 0.72277731 1.1556716 1.6596045C0.34197497 2.5839107 -0.070241846 3.7931504 0.0098135881 5.0209837C1.2686301 5.0339203 2.4638498 4.4698687 3.2526624 3.4906087Z"/>
</svg>
