<?xml version="1.0" encoding="utf-8" ?>
<svg xmlns="http://www.w3.org/2000/svg" xmlns:xlink="http://www.w3.org/1999/xlink" width="135" height="40">
	<path fill="#01426A" transform="translate(3.96078 0)" d="M117.1979 0L9.5525866 0C9.1851978 0 8.8222179 0 8.455801 0.0021299932C8.1490755 0.0041299867 7.8447952 0.0099399677 7.5351248 0.014829951C6.8623776 0.022731729 6.1912122 0.081805997 5.5274615 0.19153938C4.8646431 0.30366164 4.2225881 0.51504409 3.6230114 0.81853735C3.0241683 1.124598 2.4769883 1.5222926 2.0013216 1.9971935C1.5231577 2.4707589 1.1245712 3.0181365 0.82088876 3.6182783C0.51636821 4.2172256 0.30521262 4.8590527 0.19471499 5.5215921C0.083166838 6.1832948 0.02314176 6.8526282 0.015178452 7.5235853C0.0058810241 7.8301845 0.0048991838 8.1378031 0 8.4444427L0 31.558628C0.0048991838 31.869127 0.0058810241 32.169926 0.015178452 32.480526C0.023144202 33.151447 0.083169281 33.820747 0.19471499 34.482418C0.3049075 35.145344 0.51607555 35.78754 0.82088876 36.386711C1.1244334 36.984913 1.5230758 37.530075 2.0013216 38.001007C2.4751847 38.47802 3.0227184 38.875984 3.6230114 39.179703C4.2225833 39.484009 4.8645692 39.696648 5.5274615 39.810501C6.1913247 39.919353 6.862421 39.978455 7.5351248 39.987301C7.8447952 39.994099 8.1490755 39.998001 8.455801 39.998001C8.8222075 40 9.1852179 40 9.5525866 40L117.1979 40C117.55798 40 117.92386 40 118.28394 39.998001C118.58921 39.998001 118.9023 39.994099 119.20757 39.987301C119.879 39.978924 120.54884 39.919823 121.21133 39.810501C121.87636 39.695847 122.52065 39.483265 123.12311 39.179703C123.72286 38.875809 124.26989 38.477856 124.74335 38.001007C125.22036 37.528229 125.61985 36.983467 125.92716 36.386711C126.22969 35.787106 126.43885 35.144958 126.54742 34.482418C126.65915 33.820656 126.72131 33.151508 126.73338 32.480526C126.73728 32.169926 126.73728 31.869127 126.73728 31.558628C126.74509 31.195328 126.74509 30.83403 126.74509 30.46483L126.74509 9.5362291C126.74509 9.1700201 126.74509 8.8067417 126.73728 8.4444427C126.73728 8.1378031 126.73728 7.8301845 126.73338 7.5235457C126.72131 6.85253 126.65916 6.1833458 126.54742 5.5215521C126.43855 4.859396 126.2294 4.2176194 125.92716 3.6182382C125.30873 2.4153183 124.32807 1.4361508 123.12311 0.81844735C122.52064 0.51569557 121.87628 0.30436927 121.21133 0.19144937C120.54895 0.081232518 119.87904 0.022137692 119.20757 0.014689952C118.9023 0.0098099681 118.58921 0.0039499872 118.28394 0.0019999936C117.92386 0 117.55798 0 117.1979 0L117.1979 0Z" fill-rule="evenodd"/>
	<path fill="white" transform="translate(4.83543 0.875128)" d="M7.5860305 38.249874C7.2807879 38.249874 6.9828997 38.245975 6.6800518 38.239174C6.0526576 38.231018 5.4267297 38.176502 4.8074017 38.076077C4.2299094 37.976807 3.6704748 37.792141 3.1475501 37.528179C2.6294208 37.266403 2.1568449 36.923153 1.7479266 36.511581C1.3330892 36.104858 0.98771822 35.633129 0.72549999 35.115086C0.46039227 34.593678 0.27692199 34.03479 0.18148018 33.45789C0.078411341 32.838009 0.022646826 32.211208 0.014667495 31.582897C0.0083155874 31.371998 0 30.6698 0 30.6698L0 7.5693154C0 7.5693154 0.008856602 6.8779078 0.014717588 6.6747785C0.022358254 6.0474629 0.077795126 5.4216361 0.18054844 4.8027143C0.27617371 4.224237 0.45978922 3.663738 0.72503912 3.1406198C0.98629302 2.6229374 1.3297429 2.1508558 1.7420756 1.7426744C2.1539555 1.3306186 2.628046 0.98560274 3.1470592 0.72020763C3.668782 0.45709211 4.2271595 0.27373165 4.8034844 0.17626943C5.4248462 0.074835524 6.052947 0.019995645 6.6825166 0.01220996L7.5865312 0L117.40439 0L118.31921 0.012699959C118.94305 0.020099133 119.56544 0.074449763 120.18109 0.17528944C120.76325 0.27397418 121.32745 0.45861405 121.85513 0.72313768C122.8949 1.2579825 123.74094 2.1041565 124.27467 3.1430597C124.53568 3.6625657 124.71646 4.218493 124.81087 4.7919745C124.91486 5.4159737 124.97305 6.0467186 124.985 6.6791782C124.98791 6.9623775 124.98791 7.2665763 124.98791 7.5693154C124.99582 7.944314 124.99582 8.3012428 124.99582 8.6611023L124.99582 29.589705C124.99582 29.953003 124.99582 30.307501 124.98791 30.6649C124.98791 30.990099 124.98791 31.287998 124.98399 31.594597C124.97231 32.215771 124.91508 32.835258 124.81277 33.44809C124.71929 34.029152 124.53682 34.5924 124.27176 35.118088C124.00769 35.630505 123.6643 36.098148 123.25426 36.50378C122.84497 36.917564 122.37156 37.262821 121.85223 37.526279C121.326 37.792271 120.76264 37.977615 120.18109 38.076077C119.56181 38.177036 118.93582 38.231556 118.30838 38.239174C118.01493 38.245975 117.70766 38.249874 117.40929 38.249874L116.32327 38.251877L7.5860305 38.249874Z" fill-rule="evenodd"/>
	<path fill="#01426A" transform="translate(13.954 13.9731)" d="M14.825103 6.3276529C14.847001 4.6311874 15.738057 3.0641694 17.186089 2.1756063C16.26844 0.86750329 14.786543 0.067871496 13.187433 0.017933307C11.505039 -0.15832612 9.874032 1.02276 9.016715 1.02276C8.142807 1.02276 6.8228321 0.035433251 5.4014378 0.064623155C3.5312533 0.12493137 1.8300002 1.1605151 0.92011738 2.7924843C-1.0175148 6.1408935 0.42778444 11.061928 2.2838738 13.768529C3.2125146 15.093874 4.2978292 16.57432 5.7179408 16.52182C7.1076059 16.464291 7.6266189 15.637342 9.3040638 15.637342C10.965939 15.637342 11.452882 16.52182 12.901808 16.48844C14.392982 16.464279 15.332494 15.157204 16.228554 13.819308C16.895767 12.874949 17.409184 11.831228 17.749784 10.726809C15.978738 9.9791298 14.827163 8.2469912 14.825103 6.3276529Z"/>
	<path fill="#01426A" transform="translate(22.7897 8.72037)" d="M3.2526624 3.4906087C4.0657129 2.5164037 4.4662724 1.2642283 4.3692756 0C3.127115 0.13022007 1.9797064 0.72277731 1.1556716 1.6596045C0.34197497 2.5839107 -0.070241846 3.7931504 0.0098135881 5.0209837C1.2686301 5.0339203 2.4638498 4.4698687 3.2526624 3.4906087Z"/>
	<path fill="#01426A" transform="translate(37.8025 8.73496)" d="M1.8805251 5.9667807L1.8805251 0.84326726L0 0.84326726L0 0L4.6855431 0L4.6855431 0.84325725L2.8089855 0.84325725L2.8089855 5.9667807L1.8805251 5.9667807Z"/>
	<path fill="#01426A" transform="translate(42.7477 8.02354)" d="M4.0580754 5.4623823C3.8084142 6.311759 2.9849124 6.8605509 2.103241 6.7651081C1.5016751 6.7809587 0.92353696 6.5320787 0.52222115 6.0845022C0.12090531 5.6369257 -0.063016675 5.0359011 0.01925437 4.4408956C-0.060828358 3.844238 0.12240595 3.2422533 0.52148664 2.7908978C0.92056733 2.3395426 1.496225 2.08323 2.0993235 2.0883632C3.3546066 2.0883632 4.111886 2.9443605 4.111886 4.358356L4.111886 4.6684146L0.92622453 4.6684146L0.92622453 4.7182145C0.89803368 5.0523539 1.0123668 5.3828602 1.2411056 5.6284523C1.4698443 5.8740444 1.7917649 6.0119343 2.1276968 6.0082107C2.5632851 6.0604048 2.9873006 5.8447442 3.2009985 5.4623122L4.0580754 5.4623823ZM0.9262045 4.0112171L3.204916 4.0112171C3.2276115 3.7056184 3.1199553 3.404664 2.9084773 3.1825187C2.6969993 2.9603734 2.4013672 2.837697 2.0944343 2.8447208C1.7833381 2.8408115 1.4838448 2.9624698 1.2638943 3.1820977C1.0439438 3.4017255 0.92217988 3.7007065 0.92622453 4.0112171L0.9262045 4.0112171ZM1.5641403 1.4223554L2.6041799 0L3.6481369 0L2.4838343 1.4223554L1.5641403 1.4223554Z"/>
	<path fill="#01426A" transform="translate(48.0405 8.44102)" d="M0.05576954 0L0.94610852 0L0.94610852 6.2607198L0.05576954 6.2607198L0.05576954 0Z"/>
	<path fill="#01426A" transform="translate(50.205 8.02354)" d="M4.0580754 5.4623823C3.8084142 6.311759 2.9849124 6.8605509 2.103241 6.7651081C1.5016751 6.7809587 0.92353696 6.5320787 0.52222115 6.0845022C0.12090531 5.6369257 -0.063016675 5.0359011 0.01925437 4.4408956C-0.060828358 3.844238 0.12240595 3.2422533 0.52148664 2.7908978C0.92056733 2.3395426 1.496225 2.08323 2.0993235 2.0883632C3.3546066 2.0883632 4.111886 2.9443605 4.111886 4.358356L4.111886 4.6684146L0.9262045 4.6684146L0.9262045 4.7182145C0.89801365 5.0523539 1.0123467 5.3828602 1.2410855 5.6284523C1.4698243 5.8740444 1.7917448 6.0119343 2.1276767 6.0082107C2.5632651 6.0604048 2.9872806 5.8447442 3.2009785 5.4623122L4.0580754 5.4623823ZM0.9262045 4.0112171L3.204886 4.0112171C3.2275815 3.7056184 3.119925 3.404664 2.9084473 3.1825187C2.6969693 2.9603734 2.4013371 2.837697 2.0944042 2.8447208C1.7833097 2.8408144 1.483819 2.9624739 1.2638707 3.1821012C1.0439224 3.4017289 0.92215991 3.7007082 0.9262045 4.0112171L0.9262045 4.0112171ZM1.5641203 1.4223554L2.6041598 0L3.6481168 0L2.4838543 1.4223554L1.5641203 1.4223554Z"/>
	<path fill="#01426A" transform="translate(55.2685 10.1043)" d="M3.1977687 1.5661547C3.0804713 1.0836581 2.6278844 0.75885576 2.1322913 0.80150723C1.3867538 0.80150723 0.93081915 1.3718154 0.93081915 2.3312924C0.93081915 3.3073592 1.3906811 3.8903673 2.1322913 3.8903673C2.6236718 3.9471924 3.0805135 3.629807 3.1977687 3.1501396L4.0636516 3.1501396C3.9445682 4.098351 3.0899119 4.7789731 2.1371906 4.6843147C1.526595 4.7035575 0.9386158 4.4528475 0.53041726 3.9991982C0.12221875 3.5455492 -0.064583614 2.9352102 0.019941658 2.3313222C-0.06032889 1.7318975 0.12826203 1.1276398 0.53539819 0.67976552C0.94253439 0.23189129 1.526796 -0.014035055 2.1323013 0.0075998376C3.0927444 -0.080699697 3.9490225 0.61031038 4.0636516 1.5661848L3.1977687 1.5661547Z"/>
	<path fill="#01426A" transform="translate(60.514 8.44102)" d="M5.0093902e-05 0L0.88256443 0L0.88256443 2.481442L0.95300645 2.481442C1.1954888 1.9501622 1.7455924 1.6275823 2.3285849 1.6748046C2.7707105 1.6507919 3.2005379 1.8247977 3.5009921 2.1494269C3.8014462 2.474056 3.9412329 2.9154961 3.8822775 3.3535092L3.8822775 6.2607298L2.9909565 6.2607298L2.9909565 3.5727384C2.9909565 2.8535008 2.6553276 2.4892418 2.0262582 2.4892418C1.7165066 2.4638855 1.4113346 2.5762825 1.1923274 2.7963843C0.97332007 3.0164862 0.8628093 3.3218496 0.89033896 3.6308382L0.89033896 6.2607298L0 6.2607298L5.0093902e-05 0Z"/>
	<path fill="#01426A" transform="translate(65.5156 10.1119)" d="M0 3.3163893C0 2.505842 0.60465342 2.0385635 1.6779454 1.9721535L2.899966 1.9018438L2.899966 1.5131751C2.899966 1.0375866 2.5849254 0.76903749 1.9763547 0.76903749C1.479333 0.76903749 1.1349375 0.95116693 1.0361122 1.2695259L0.17414644 1.2695259C0.26513702 0.49608839 0.99404335 0 2.0174417 0C3.1484718 0 3.7858968 0.56199819 3.7858968 1.5131751L3.7858968 4.5898252L2.929291 4.5898252L2.929291 3.9570172L2.8588991 3.9570172C2.567802 4.4191418 2.0501368 4.6892281 1.503819 4.6640148C1.1208339 4.7037826 0.73886746 4.5799847 0.45235047 4.3232265C0.16583347 4.0664682 0.0015083381 3.7007151 0 3.3163893ZM2.899976 2.9316204L2.899976 2.5551717L1.798291 2.6254814C1.1770064 2.6669812 0.89522815 2.8779206 0.89522815 3.2748895C0.89522815 3.6801581 1.2474484 3.9159973 1.7317963 3.9159973C2.0185215 3.9449699 2.3047509 3.8565567 2.52496 3.6709976C2.7451692 3.4854383 2.8805013 3.2186224 2.899976 2.9316304L2.899976 2.9316204Z"/>
	<path fill="#01426A" transform="translate(70.6957 10.1213)" d="M0 0.077488877L0.85707664 0.077488877L0.85707664 0.76791662L0.92361134 0.76791662C1.1204543 0.27620649 1.6124083 -0.032808684 2.1417148 0.0027791215C2.2750692 0.00098962907 2.4082336 0.013430231 2.5389392 0.039889L2.5389392 0.91688615C2.375546 0.882038 2.2089972 0.8640402 2.0419176 0.86317635C1.7449751 0.83656013 1.450579 0.93634307 1.2312771 1.1379358C1.0119753 1.3395286 0.8881622 1.6241832 0.89034897 1.9217529L0.89034897 4.5804343L0 4.5804343L0 0.077488877Z"/>
	<path fill="#01426A" transform="translate(73.8755 10.1232)" d="M0.17807381 5.029253L1.0889612 5.029253C1.1643025 5.3559122 1.5409787 5.5668511 2.1417148 5.5668511C2.8833349 5.5668511 3.3226385 5.2152925 3.3226385 4.6200743L3.3226385 3.7558172L3.2561038 3.7558172C2.9713547 4.2491074 2.433476 4.5413108 1.8638438 4.5121646C0.71227521 4.5121646 0 3.6234977 0 2.275352C0 0.90235651 0.72009987 0.0009494304 1.8726504 0.0009494304C2.4564047 -0.019340346 3.0028033 0.28686923 3.289366 0.79489684L3.359808 0.79489684L3.359808 0.075659186L4.2129674 0.075659186L4.2129674 4.6156445C4.2129674 5.645431 3.4048123 6.298749 2.1289809 6.298749C1.001878 6.298749 0.27297169 5.7943907 0.17807381 5.029253ZM3.3392696 2.270962C3.3392696 1.373965 2.8745284 0.79928684 2.116277 0.79928684C1.350191 0.79928684 0.91969401 1.3739949 0.91969401 2.270962C0.91969401 3.1684191 1.350191 3.7431273 2.116277 3.7431273C2.8794277 3.7431273 3.3392696 3.1728191 3.3392696 2.2709219L3.3392696 2.270962Z"/>
	<path fill="#01426A" transform="translate(79.2639 10.1118)" d="M4.0580754 3.3740947C3.8084142 4.2234716 2.9849124 4.7722631 2.103241 4.6768203C1.5016751 4.6926708 0.92353696 4.4437909 0.52222115 3.9962146C0.12090531 3.5486381 -0.063016675 2.9476137 0.01925437 2.352608C-0.060828358 1.7559505 0.12240595 1.1539656 0.52148664 0.70261031C0.92056733 0.25125501 1.496225 -0.0050575794 2.0993235 7.565241e-05C3.3546066 7.565241e-05 4.111886 0.85607284 4.111886 2.2700682L4.111886 2.5801272L0.92623454 2.5801272L0.92623454 2.6299272C0.89804369 2.9640663 1.0123768 3.2945726 1.2411156 3.5401649C1.4698545 3.7857571 1.7917749 3.9236469 2.1277068 3.9199228C2.5632951 3.9721174 2.9873106 3.7564564 3.2010088 3.3740246L4.0580754 3.3740947ZM0.9262045 1.9229294L3.204886 1.9229294C3.2275815 1.6173308 3.119925 1.3163764 2.9084473 1.0942312C2.6969693 0.87208593 2.4013371 0.74940944 2.0944042 0.75643319C1.7833149 0.75253487 1.4838321 0.87419796 1.2638904 1.0938246C1.0439487 1.3134512 0.92219013 1.6124259 0.92623454 1.9229294L0.9262045 1.9229294Z"/>
	<path fill="#01426A" transform="translate(84.5714 10.1213)" d="M0 0.077488877L0.85712671 0.077488877L0.85712671 0.76791662L0.92366141 0.76791662C1.1205044 0.27620649 1.6124583 -0.032808684 2.1417649 0.0027791215C2.2751195 0.00098962907 2.4082837 0.013430231 2.5389893 0.039889L2.5389893 0.91688615C2.375596 0.882038 2.2090476 0.8640402 2.0419676 0.86317635C1.7450153 0.83654219 1.4506029 0.93631703 1.2312874 1.1379118C1.0119717 1.3395066 0.88815057 1.6241717 0.89033896 1.9217529L0.89033896 4.5804343L0 4.5804343L0 0.077488877Z"/>
	<path fill="#01426A" transform="translate(90.3185 8.44102)" d="M0 4.0073071C0 2.5844617 0.73282373 1.6830945 1.8726504 1.6830945C2.4482059 1.6566248 2.9872673 1.9644464 3.2561038 2.4730921L3.3226385 2.4730921L3.3226385 0L4.2129774 0L4.2129774 6.2607198L3.359818 6.2607198L3.359818 5.5492921L3.289356 5.5492921C3.0001981 6.0537171 2.4544957 6.3563356 1.8726404 6.3349295C0.724989 6.3349395 0 5.4335723 0 4.0073071ZM0.91972405 4.0073071C0.91972405 4.9623837 1.3707695 5.5370922 2.1251135 5.5370922C2.8755202 5.5370922 3.3392997 4.9540939 3.3392997 4.0112171C3.3392997 3.0727401 2.8706512 2.481432 2.1251135 2.481432C1.3756287 2.481432 0.91969401 3.06007 0.91969401 4.0073071L0.91972405 4.0073071Z"/>
	<path fill="#01426A" transform="translate(95.7349 10.1119)" d="M0 3.3163893C0 2.505842 0.60465342 2.0385635 1.6779454 1.9721535L2.899966 1.9018438L2.899966 1.5131751C2.899966 1.0375866 2.5849254 0.76903749 1.9763647 0.76903749C1.4793431 0.76903749 1.1349475 0.95116693 1.0361222 1.2695259L0.17415646 1.2695259C0.26514703 0.49608839 0.99405336 0 2.0174518 0C3.1484818 0 3.7863977 0.56199819 3.7863977 1.5131751L3.7863977 4.5898252L2.9293211 4.5898252L2.9293211 3.9570172L2.8588791 3.9570172C2.5677819 4.4191418 2.0501165 4.6892281 1.503799 4.6640148C1.1208172 4.7037764 0.73885614 4.5799756 0.45234373 4.3232183C0.16583133 4.0664611 0.0015089116 3.7007113 0 3.3163893L0 3.3163893ZM2.899966 2.9316204L2.899966 2.5551717L1.798311 2.6254714C1.1770264 2.6669714 0.89524817 2.8779106 0.89524817 3.2748795C0.89524817 3.6801481 1.2474685 3.9159873 1.7318163 3.9159873C2.0185349 3.9449513 2.3047552 3.8565354 2.5249572 3.6709793C2.7451591 3.4854233 2.8804884 3.2186151 2.899966 2.9316304L2.899966 2.9316204Z"/>
	<path fill="#01426A" transform="translate(100.916 10.1075)" d="M0 0.091377176L0.85707664 0.091377176L0.85707664 0.80670488L0.92361134 0.80670488C1.1549799 0.28003451 1.6956214 -0.042134918 2.2698851 0.0044574598C2.7145352 -0.028910661 3.1502612 0.14134692 3.4540355 0.46715802C3.7578099 0.79296911 3.8966675 1.2389772 3.8314021 1.679252L3.8314021 4.5942426L2.9410632 4.5942426L2.9410632 1.9024113C2.9410632 1.1787837 2.6260226 0.81891483 1.9675583 0.81891483C1.6659588 0.80489397 1.3732644 0.92303705 1.1662107 1.1423706C0.95915699 1.361704 0.85839415 1.6603531 0.89033896 1.9600211L0.89033896 4.5942926L0 4.5942926L0 0.091377176Z"/>
	<path fill="#01426A" transform="translate(105.904 10.1119)" d="M1.868733 0C2.8833349 0 3.5466783 0.47118846 3.6337616 1.2651359L2.7796204 1.2651359C2.6974666 0.93456697 2.3735893 0.72363764 1.868733 0.72363764C1.3717114 0.72363764 0.99409348 0.95898688 0.99409348 1.3105457C0.99409348 1.5795449 1.2220608 1.7490243 1.7112578 1.860834L2.4606626 2.0341735C3.3187211 2.2329028 3.7208347 2.6010616 3.7208347 3.2626894C3.7208347 4.1103468 2.9293511 4.6767449 1.8521018 4.6767449C0.77879989 4.6767449 0.079248555 4.1928563 0 3.395009L0.89132082 3.395009C1.0493991 3.7858438 1.4548243 4.0180273 1.8726504 3.9570072C2.4274004 3.9570072 2.8216994 3.709008 2.8216994 3.3490992C2.8216994 3.08055 2.6103632 2.9067206 2.1583459 2.7993009L1.3717114 2.6171715C0.51365286 2.4145322 0.11642825 2.0302634 0.11642825 1.3603356C0.11641823 0.5620082 0.84924191 0 1.868733 0Z"/>
	<path fill="#01426A" transform="translate(39.2251 18.067)" d="M0 0L1.862872 0L1.862872 12.41842L0 12.41842L0 0Z"/>
	<path fill="#01426A" transform="translate(43.3325 18.067)" d="M0 4.5439353L1.0175374 0L2.8275704 0L1.5947895 4.5439353L0 4.5439353Z"/>
	<path fill="#01426A" transform="translate(45.3098 18.067)" d="M7.8897896 9.0619802L3.1475101 9.0619802L2.0086553 12.41842L0 12.41842L4.4918199 0L6.578732 0L11.070552 12.41842L9.0276728 12.41842L7.8897896 9.0619802ZM3.6386609 7.5131555L7.3977075 7.5131555L5.5446234 2.0654233L5.4927664 2.0654233L3.6386609 7.5131555Z"/>
	<path fill="#01426A" transform="translate(57.5358 21.3348)" d="M8.5443668 4.6242509C8.5443668 7.4377217 7.0356784 9.245326 4.7589507 9.245326C3.5821302 9.3067703 2.4736292 8.6915379 1.9049709 7.6613312L1.8618902 7.6613312L1.8618902 12.145697L0 12.145697L0 0.096415527L1.8022083 0.096415527L1.8022083 1.6022606L1.8364525 1.6022606C2.4303741 0.57851189 3.5400703 -0.036455207 4.7246766 0.0016758348C7.0268722 0.0016958348 8.5443668 1.81809 8.5443668 4.6242509ZM6.6306195 4.6242509C6.6306195 2.7907567 5.6815705 1.5856907 4.2335458 1.5856907C2.8109593 1.5856907 1.8540856 2.8161566 1.8540856 4.6242509C1.8540856 6.4484649 2.8109593 7.6701407 4.2335458 7.6701407C5.6815805 7.6701407 6.6306195 6.473835 6.6306195 4.6242509L6.6306195 4.6242509Z"/>
	<path fill="#01426A" transform="translate(67.5194 21.3348)" d="M8.5438557 4.6242509C8.5438557 7.4377217 7.0351677 9.245326 4.75844 9.245326C3.581619 9.3067703 2.4731183 8.6915379 1.90446 7.6613312L1.8613793 7.6613312L1.8613793 12.145697L0 12.145697L0 0.096415527L1.8017174 0.096415527L1.8017174 1.6022606L1.8359816 1.6022606C2.4299033 0.57851189 3.5395994 -0.036455207 4.7242055 0.0016758348C7.026361 0.0016958348 8.5438557 1.81809 8.5438557 4.6242509ZM6.6301084 4.6242509C6.6301084 2.7907567 5.6810594 1.5856907 4.2330351 1.5856907C2.8104482 1.5856907 1.8535746 2.8161566 1.8535746 4.6242509C1.8535746 6.4484649 2.8104482 7.6701407 4.2330351 7.6701407C5.6810594 7.6701407 6.6301084 6.473835 6.6301084 4.6242509L6.6301084 4.6242509Z"/>
	<path fill="#01426A" transform="translate(80.7556 17.8599)" d="M1.9059328 9.1655006C2.0438914 10.396946 3.2424381 11.205494 4.8802581 11.205494C6.4496102 11.205494 7.5786767 10.396906 7.5786767 9.2865496C7.5786767 8.3226833 6.8977098 7.7455549 5.2853174 7.3500361L3.672925 6.9618573C1.3883625 6.411119 0.32774436 5.3447127 0.32774436 3.6142483C0.32774436 1.4716752 2.198441 0 4.8547807 0C7.4837084 0 9.2859364 1.4716752 9.3466005 3.6142483L7.4671273 3.6142483C7.3546166 2.3749924 6.3282723 1.6269547 4.8283911 1.6269547C3.3285093 1.6269547 2.3021755 2.3837922 2.3021755 3.4853487C2.3021755 4.363276 2.9577043 4.8798742 4.5612903 5.2753429L5.9320197 5.6112819C8.4846544 6.21382 9.5452433 7.2377367 9.5452433 9.054141C9.5452433 11.377373 7.6911774 12.832448 4.7422895 12.832448C1.9832076 12.832448 0.12034559 11.411553 0 9.1654606L1.9059328 9.1655006Z"/>
	<path fill="#01426A" transform="translate(91.1305 19.2886)" d="M3.1896191 0L3.1896191 2.1425731L4.9145327 2.1425731L4.9145327 3.6142483L3.1896191 3.6142483L3.1896191 8.6059322C3.1896191 9.381319 3.5349965 9.7426481 4.2932477 9.7426481C4.498023 9.7390842 4.702467 9.7247314 4.905726 9.6996489L4.905726 11.162534C4.564815 11.226113 4.218308 11.254908 3.8715575 11.248473C2.035115 11.248473 1.3189224 10.559996 1.3189224 8.804141L1.3189224 3.6142483L0 3.6142483L0 2.1425731L1.3188823 2.1425731L1.3188823 0L3.1896191 0Z"/>
	<path fill="#01426A" transform="translate(97.043 21.3199)" d="M0 4.6391449C0 1.7900342 1.6808809 0 4.3020144 0C6.9319444 0 8.6050005 1.7899942 8.6050005 4.6391449C8.6050005 7.4955854 6.9407506 9.2777996 4.3020144 9.2777996C1.6642497 9.2777996 0 7.4955654 0 4.6391449ZM6.7078843 4.6391449C6.7078843 2.6845613 5.8106923 1.531245 4.3020043 1.531245C2.7933161 1.531245 1.8971062 2.6933513 1.8971062 4.6391449C1.8971062 6.6010485 2.7933161 7.745585 4.3020043 7.745585C5.8106923 7.745585 6.7078843 6.6010385 6.7078843 4.6391449L6.7078843 4.6391449Z"/>
	<path fill="#01426A" transform="translate(107.183 21.3349)" d="M0 0.096329153L1.7757988 0.096329153L1.7757988 1.6373241L1.8188796 1.6373241C2.0665197 0.64531577 2.9771833 -0.037418857 4.0006995 0.0015894588C4.2152658 0.00084169226 4.4292397 0.024100132 4.6386151 0.070929237L4.6386151 1.8091736C4.3677382 1.7265571 4.0851674 1.6886252 3.802047 1.6968739C3.2545879 1.674744 2.7247882 1.8925654 2.351773 2.2931383C1.978758 2.6937113 1.7997988 3.237011 1.8618902 3.7803671L1.8618902 9.1504698L0 9.1504698L0 0.096329153Z"/>
	<path fill="#01426A" transform="translate(112.223 21.3199)" d="M8.1823282 6.5063291C7.9318585 8.1498737 6.3282623 9.2777996 4.2765665 9.2777996C1.6378301 9.2777996 0 7.5131555 0 4.6821146C0 1.841794 1.6466367 0 4.1982999 0C6.7078843 0 8.2860422 1.7206944 8.2860422 4.4662957L8.2860422 5.1030135L1.8795033 5.1030135L1.8795033 5.215313C1.8196884 5.8893423 2.0528698 6.5565381 2.5197332 7.0471869C2.9865968 7.5378361 3.6421449 7.8046479 4.3196273 7.7797546C5.2231631 7.864254 6.0750208 7.3463936 6.4143739 6.506319L8.1823282 6.5063291ZM1.8883011 3.8041677L6.4231806 3.8041677C6.4570684 3.1984358 6.2362342 2.6060567 5.8138895 2.1697667C5.3915443 1.7334765 4.8059874 1.4928384 4.1983099 1.5058351C3.5858314 1.5022242 2.9972858 1.7429737 2.5635016 2.1745667C2.1297176 2.6061599 1.8866423 3.192831 1.8883011 3.8041677Z"/>
</svg>
