<?xml version="1.0" encoding="utf-8" ?>
<svg xmlns="http://www.w3.org/2000/svg" xmlns:xlink="http://www.w3.org/1999/xlink" width="28" height="28">
	<path fill="#E9445A" transform="translate(3 3)" d="M11 0C4.9373693 0 0 4.9373693 0 11C0 17.06263 4.9373693 22 11 22C17.06263 22 22 17.06263 22 11C22 4.9373693 17.074112 0 11 0Z"/>
	<path fill="white" transform="translate(9.08511 9.08511)" d="M5.4991136 4.914854L9.7089367 0.70505118C9.8698549 0.5436148 9.8701143 0.28225407 9.7089367 0.12107725C9.5469799 -0.040359087 9.2858782 -0.040359087 9.1244411 0.12107725L4.9148774 4.3306208L0.70505452 0.12107725C0.54439604 -0.040359087 0.28225538 -0.040359087 0.12107783 0.12107725C-0.040359277 0.28225407 -0.040359277 0.5436148 0.12107783 0.70505118L4.3306413 4.914854L0.12133738 9.1241379C-0.040099733 9.2855749 -0.040099733 9.5469351 0.12133738 9.7086315C0.20205593 9.7890902 0.30769083 9.8298378 0.4133257 9.8295784C0.51922011 9.8298378 0.62485504 9.7890902 0.70531404 9.7086315L4.9148774 5.4990878L9.1244411 9.7086315C9.2051592 9.7890902 9.3110533 9.8298378 9.4166889 9.8298378C9.5220642 9.8298378 9.6279583 9.7890902 9.7089367 9.7086315C9.8701143 9.5469351 9.8701143 9.2855749 9.7086773 9.1241379L5.4991136 4.914854Z"/>
	<path fill="none" stroke="white" stroke-width="1.4042553" stroke-miterlimit="10" transform="translate(9.08511 9.08511)" d="M5.4991136 4.914854L9.7089367 0.70505118C9.8698549 0.5436148 9.8701143 0.28225407 9.7089367 0.12107725C9.5469799 -0.040359087 9.2858782 -0.040359087 9.1244411 0.12107725L4.9148774 4.3306208L0.70505452 0.12107725C0.54439604 -0.040359087 0.28225538 -0.040359087 0.12107783 0.12107725C-0.040359277 0.28225407 -0.040359277 0.5436148 0.12107783 0.70505118L4.3306413 4.914854L0.12133738 9.1241379C-0.040099733 9.2855749 -0.040099733 9.5469351 0.12133738 9.7086315C0.20205593 9.7890902 0.30769083 9.8298378 0.4133257 9.8295784C0.51922011 9.8298378 0.62485504 9.7890902 0.70531404 9.7086315L4.9148774 5.4990878L9.1244411 9.7086315C9.2051592 9.7890902 9.3110533 9.8298378 9.4166889 9.8298378C9.5220642 9.8298378 9.6279583 9.7890902 9.7089367 9.7086315C9.8701143 9.5469351 9.8701143 9.2855749 9.7086773 9.1241379L5.4991136 4.914854Z"/>
</svg>
