<?xml version="1.0" encoding="utf-8" ?>
<svg xmlns="http://www.w3.org/2000/svg" xmlns:xlink="http://www.w3.org/1999/xlink" width="28" height="28">
	<path fill="#68D15C" transform="translate(3 3)" d="M22 11Q22 11.270035 21.98675 11.539743Q21.973499 11.809454 21.947033 12.078188Q21.920563 12.346922 21.880941 12.614035Q21.841316 12.881145 21.788635 13.145992Q21.735954 13.410839 21.670343 13.672781Q21.604731 13.934723 21.526344 14.19313Q21.447956 14.451536 21.356983 14.705786Q21.26601 14.960035 21.162672 15.209515Q21.059334 15.458994 20.94388 15.703102Q20.828426 15.947212 20.701134 16.185362Q20.573839 16.423512 20.435013 16.655127Q20.296188 16.886742 20.146164 17.111269Q19.99614 17.335794 19.835281 17.552689Q19.674419 17.769583 19.503113 17.978323Q19.331804 18.187061 19.150459 18.387144Q18.969116 18.587227 18.778173 18.778172Q18.587231 18.969116 18.387146 19.150459Q18.187065 19.331804 17.978325 19.503113Q17.769585 19.674419 17.552689 19.835279Q17.335796 19.99614 17.111271 20.146164Q16.886745 20.296188 16.655128 20.435013Q16.423512 20.573837 16.185364 20.701132Q15.947214 20.828424 15.703104 20.943878Q15.458996 21.059334 15.209516 21.162672Q14.960036 21.26601 14.705787 21.356983Q14.451537 21.447956 14.19313 21.526342Q13.934723 21.604729 13.672781 21.670343Q13.410839 21.735954 13.145992 21.788635Q12.881145 21.841316 12.614035 21.880941Q12.346922 21.920563 12.078188 21.947033Q11.809454 21.973499 11.539744 21.986752Q11.270035 22 11 22Q10.729965 22 10.460255 21.98675Q10.190545 21.973499 9.9218111 21.947033Q9.6530762 21.920563 9.3859644 21.880941Q9.1188526 21.841316 8.8540058 21.788635Q8.58916 21.735954 8.3272181 21.670343Q8.0652752 21.604731 7.8068686 21.526344Q7.548461 21.447956 7.2942109 21.356983Q7.0399613 21.26601 6.7904816 21.162672Q6.5410018 21.059334 6.2968936 20.94388Q6.0527849 20.828426 5.8146358 20.701134Q5.5764861 20.573839 5.3448696 20.435013Q5.1132526 20.296188 4.8887272 20.146164Q4.6642013 19.99614 4.4473071 19.835281Q4.2304134 19.674419 4.0216737 19.503113Q3.8129337 19.331804 3.6128511 19.150459Q3.4127684 18.969116 3.2218251 18.778173Q3.0308816 18.587231 2.8495374 18.387146Q2.6681931 18.187065 2.4968848 17.978325Q2.3255763 17.769585 2.1647167 17.552689Q2.0038571 17.335796 1.8538339 17.111271Q1.7038107 16.886745 1.564985 16.655128Q1.4261594 16.423512 1.2988659 16.185364Q1.1715723 15.947214 1.0561175 15.703104Q0.94066274 15.458996 0.83732498 15.209516Q0.73398709 14.960036 0.64301515 14.705787Q0.5520432 14.451537 0.47365624 14.19313Q0.39526927 13.934723 0.32965615 13.672781Q0.26404303 13.410839 0.21136187 13.145992Q0.15868069 12.881145 0.11905836 12.614035Q0.079436034 12.346922 0.052967999 12.078188Q0.026499959 11.809454 0.013249979 11.539744Q0 11.270035 0 11Q0 10.729965 0.013249979 10.460255Q0.026499959 10.190545 0.052967999 9.9218111Q0.079436034 9.6530762 0.11905836 9.3859644Q0.15868069 9.1188526 0.21136187 8.8540058Q0.26404303 8.58916 0.32965615 8.3272181Q0.39526927 8.0652752 0.47365624 7.8068686Q0.5520432 7.548461 0.64301515 7.2942109Q0.73398709 7.0399613 0.83732498 6.7904816Q0.94066274 6.5410018 1.0561175 6.2968936Q1.1715723 6.0527849 1.2988659 5.8146358Q1.4261594 5.5764861 1.564985 5.3448696Q1.7038107 5.1132526 1.8538339 4.8887272Q2.0038571 4.6642013 2.1647167 4.4473071Q2.3255763 4.2304134 2.4968848 4.0216737Q2.6681931 3.8129337 2.8495374 3.6128511Q3.0308816 3.4127684 3.2218251 3.2218251Q3.4127684 3.0308816 3.6128511 2.8495374Q3.8129337 2.6681931 4.0216737 2.4968848Q4.2304134 2.3255763 4.4473076 2.1647167Q4.6642013 2.0038571 4.8887272 1.8538339Q5.1132526 1.7038107 5.3448696 1.564985Q5.5764856 1.4261594 5.8146353 1.2988659Q6.0527849 1.1715723 6.2968931 1.0561175Q6.5410018 0.94066274 6.7904816 0.83732498Q7.0399613 0.73398709 7.2942114 0.64301515Q7.548461 0.5520432 7.8068686 0.47365624Q8.0652752 0.39526927 8.3272181 0.32965615Q8.58916 0.26404303 8.8540058 0.21136187Q9.1188526 0.15868069 9.3859644 0.11905836Q9.6530762 0.079436034 9.9218121 0.052967999Q10.190546 0.026499959 10.460256 0.013249979Q10.729965 0 11 0Q11.270035 0 11.539743 0.013249979Q11.809454 0.026499959 12.078188 0.052967999Q12.346922 0.079436034 12.614035 0.11905836Q12.881145 0.15868069 13.145992 0.21136187Q13.410839 0.26404303 13.672781 0.32965615Q13.934723 0.39526927 14.19313 0.47365624Q14.451536 0.5520432 14.705786 0.64301515Q14.960035 0.73398709 15.209515 0.83732498Q15.458994 0.94066274 15.703102 1.0561175Q15.947212 1.1715723 16.185362 1.2988659Q16.423512 1.4261594 16.655127 1.564985Q16.886742 1.7038107 17.111269 1.8538339Q17.335794 2.0038571 17.552689 2.1647167Q17.769583 2.3255763 17.978323 2.4968848Q18.187061 2.6681931 18.387144 2.8495374Q18.587227 3.0308816 18.778172 3.2218251Q18.969116 3.4127684 19.150459 3.6128511Q19.331804 3.8129337 19.503113 4.0216737Q19.674419 4.2304134 19.835279 4.4473076Q19.99614 4.6642013 20.146164 4.8887272Q20.296188 5.1132526 20.435013 5.3448696Q20.573837 5.5764856 20.701132 5.8146353Q20.828424 6.0527849 20.943878 6.2968931Q21.059334 6.5410018 21.162672 6.7904816Q21.26601 7.0399613 21.356983 7.2942114Q21.447956 7.548461 21.526342 7.8068686Q21.604729 8.0652752 21.670343 8.3272181Q21.735954 8.58916 21.788635 8.8540058Q21.841316 9.1188526 21.880941 9.3859644Q21.920563 9.6530762 21.947033 9.9218121Q21.973499 10.190546 21.986752 10.460256Q22 10.729965 22 11Z"/>
	<path fill="none" stroke="white" stroke-width="2.2916667" stroke-linecap="round" stroke-linejoin="round" transform="translate(9 11)" d="M0 3.6923077L2.8421052 6L9 0" fill-rule="evenodd"/>
</svg>
