<?xml version="1.0" encoding="utf-8" ?>
<svg xmlns="http://www.w3.org/2000/svg" xmlns:xlink="http://www.w3.org/1999/xlink" width="24" height="23">
	<path fill="none" stroke="#39A1D8" stroke-width="1" stroke-linejoin="round" transform="translate(1.5 0.5)" d="M21 10.5Q21 10.757761 20.987352 11.015211Q20.974705 11.272661 20.94944 11.529181Q20.924175 11.7857 20.886353 12.04067Q20.848532 12.29564 20.798244 12.548448Q20.747959 12.801255 20.685328 13.051291Q20.622698 13.301327 20.547874 13.547989Q20.473049 13.794651 20.386211 14.037343Q20.299374 14.280036 20.200733 14.518175Q20.102093 14.756315 19.991886 14.989328Q19.88168 15.22234 19.760174 15.449665Q19.638664 15.676989 19.506149 15.898076Q19.373634 16.119164 19.230429 16.333485Q19.087223 16.547806 18.933678 16.754841Q18.780128 16.961876 18.616608 17.161129Q18.453087 17.36038 18.279984 17.551369Q18.106884 17.742355 17.92462 17.92462Q17.742355 18.106884 17.551369 18.279984Q17.36038 18.453087 17.161129 18.616608Q16.961876 18.780128 16.754841 18.933676Q16.547806 19.087223 16.333485 19.230429Q16.119164 19.373634 15.898077 19.506149Q15.676989 19.638664 15.449665 19.760174Q15.22234 19.88168 14.989326 19.991886Q14.756313 20.102093 14.518174 20.200733Q14.280035 20.299374 14.037342 20.386211Q13.79465 20.473049 13.547989 20.547874Q13.301327 20.622698 13.051291 20.685328Q12.801255 20.747959 12.548448 20.798244Q12.29564 20.848532 12.040668 20.886354Q11.785699 20.924175 11.52918 20.94944Q11.27266 20.974705 11.01521 20.987352Q10.757761 21 10.5 21Q10.24224 21 9.9847889 20.987352Q9.7273388 20.974705 9.4708195 20.94944Q9.2143002 20.924175 8.9593287 20.886353Q8.7043581 20.848532 8.4515505 20.798244Q8.1987429 20.747959 7.9487076 20.685328Q7.6986713 20.622698 7.4520102 20.547874Q7.2053485 20.473049 6.9626555 20.386211Q6.7199631 20.299374 6.4818234 20.200733Q6.2436838 20.102093 6.0106711 19.991886Q5.7776585 19.88168 5.550334 19.760174Q5.3230095 19.638664 5.1019211 19.506149Q4.8808322 19.373634 4.666512 19.230429Q4.4521918 19.087223 4.2451568 18.933678Q4.0381217 18.780128 3.8388703 18.616608Q3.6396186 18.453087 3.4486308 18.279984Q3.2576427 18.106884 3.0753787 17.92462Q2.8931143 17.742355 2.7200131 17.551369Q2.5469117 17.36038 2.3833902 17.161129Q2.2198687 16.961876 2.0663209 16.754841Q1.9127731 16.547806 1.7695689 16.333485Q1.6263648 16.119164 1.4938495 15.898077Q1.3613341 15.676989 1.2398267 15.449665Q1.1183192 15.22234 1.0081123 14.989326Q0.89790547 14.756313 0.79926479 14.518174Q0.70062411 14.280035 0.61378729 14.037342Q0.52695036 13.79465 0.45212644 13.547989Q0.3773025 13.301327 0.31467181 13.051291Q0.2520411 12.801255 0.20175453 12.548448Q0.15146795 12.29564 0.11364663 12.040668Q0.075825319 11.785699 0.050560366 11.52918Q0.025295418 11.27266 0.012647709 11.01521Q0 10.757761 0 10.5Q0 10.24224 0.012647709 9.9847889Q0.025295418 9.7273388 0.050560366 9.4708195Q0.075825319 9.2143002 0.11364663 8.9593287Q0.15146795 8.7043581 0.20175453 8.4515505Q0.2520411 8.1987429 0.31467181 7.9487076Q0.3773025 7.6986713 0.45212644 7.4520102Q0.52695036 7.2053485 0.61378723 6.9626555Q0.70062411 6.7199631 0.79926479 6.4818234Q0.89790547 6.2436838 1.0081123 6.0106711Q1.1183192 5.7776585 1.2398267 5.550334Q1.3613341 5.3230095 1.4938494 5.1019211Q1.6263648 4.8808322 1.7695689 4.666512Q1.9127731 4.4521918 2.0663209 4.2451568Q2.2198687 4.0381217 2.3833902 3.8388703Q2.5469117 3.6396186 2.7200131 3.4486308Q2.8931143 3.2576427 3.0753787 3.0753787Q3.2576427 2.8931143 3.4486306 2.7200131Q3.6396189 2.5469117 3.8388705 2.3833902Q4.0381217 2.2198687 4.2451568 2.0663209Q4.4521918 1.9127731 4.666512 1.7695689Q4.8808322 1.6263648 5.1019211 1.4938495Q5.3230095 1.3613341 5.550334 1.2398267Q5.7776585 1.1183192 6.0106711 1.0081123Q6.2436838 0.89790547 6.4818234 0.79926479Q6.7199631 0.70062411 6.962656 0.61378729Q7.205349 0.52695036 7.4520106 0.45212644Q7.6986718 0.3773025 7.9487076 0.31467181Q8.1987429 0.2520411 8.4515505 0.20175453Q8.7043581 0.15146795 8.9593296 0.11364663Q9.2143002 0.075825319 9.4708204 0.050560366Q9.7273397 0.025295418 9.9847898 0.012647709Q10.24224 0 10.5 0Q10.757761 0 11.015211 0.012647709Q11.272661 0.025295418 11.529181 0.050560366Q11.7857 0.075825319 12.04067 0.11364663Q12.29564 0.15146795 12.548448 0.20175453Q12.801255 0.2520411 13.051291 0.31467181Q13.301327 0.3773025 13.547989 0.45212644Q13.794651 0.52695036 14.037343 0.61378723Q14.280036 0.70062411 14.518175 0.79926479Q14.756315 0.89790547 14.989328 1.0081123Q15.22234 1.1183192 15.449665 1.2398267Q15.676989 1.3613341 15.898076 1.4938494Q16.119164 1.6263648 16.333485 1.7695689Q16.547806 1.9127731 16.754841 2.0663209Q16.961876 2.2198687 17.161129 2.3833902Q17.36038 2.5469117 17.551369 2.7200131Q17.742355 2.8931143 17.92462 3.0753787Q18.106884 3.2576427 18.279984 3.4486306Q18.453087 3.6396189 18.616608 3.8388705Q18.780128 4.0381217 18.933676 4.2451568Q19.087223 4.4521918 19.230429 4.666512Q19.373634 4.8808322 19.506149 5.1019211Q19.638664 5.3230095 19.760174 5.550334Q19.88168 5.7776585 19.991886 6.0106711Q20.102093 6.2436838 20.200733 6.4818234Q20.299374 6.7199631 20.386211 6.962656Q20.473049 7.205349 20.547874 7.4520106Q20.622698 7.6986718 20.685328 7.9487076Q20.747959 8.1987429 20.798244 8.4515505Q20.848532 8.7043581 20.886354 8.9593296Q20.924175 9.2143002 20.94944 9.4708204Q20.974705 9.7273397 20.987352 9.9847898Q21 10.24224 21 10.5Z"/>
	<path fill="#39A1D8" transform="translate(3.92308 2.92308)" d="M7.1637821 8.9641352L0.88721192 8.9641352C0.39721832 8.9641352 3.0003455e-17 8.5669165 0 8.0769234C-6.0006911e-17 7.5869293 0.39721832 7.1897111 0.88721192 7.1897111L7.1637821 7.1897111L7.1637821 7.1897111L7.1637821 0.91314101C7.1637821 0.40882716 7.5726094 6.7805712e-15 8.0769234 0C8.5812368 -9.2640953e-17 8.9900637 0.40882716 8.9900637 0.91314101L8.9900637 7.1897111L8.9900637 7.1897111L15.266634 7.1897111C15.756628 7.1897111 16.153847 7.5869293 16.153847 8.0769234C16.153847 8.5669165 15.756628 8.9641352 15.266634 8.9641352L8.9900637 8.9641352L8.9900637 8.9641352L8.9900637 15.240705C8.9900637 15.745019 8.5812368 16.153847 8.0769234 16.153847C7.5726094 16.153847 7.1637821 15.745019 7.1637821 15.240705L7.1637821 8.9641352L7.1637821 8.9641352Z" fill-rule="evenodd"/>
</svg>
