<?xml version="1.0" encoding="UTF-8"?>
<svg width="44px" height="39px" viewBox="0 0 44 39" version="1.1" xmlns="http://www.w3.org/2000/svg" xmlns:xlink="http://www.w3.org/1999/xlink">
    <title>danger</title>
    <defs>
        <filter color-interpolation-filters="auto" id="filter-1">
            <feColorMatrix in="SourceGraphic" type="matrix" values="0 0 0 0 1.000000 0 0 0 0 1.000000 0 0 0 0 1.000000 0 0 0 1.000000 0"></feColorMatrix>
        </filter>
    </defs>
    <g id="Symbols" stroke="none" stroke-width="1" fill="none" fill-rule="evenodd">
        <g id="danger" transform="translate(0.000000, 1.000000)" filter="url(#filter-1)">
            <g transform="translate(0.653604, -0.160158)">
                <g id="Group-3" transform="translate(6.000000, 6.000000)">
                    <path d="M28,26 C28.2761424,26 28.5261424,26.1119288 28.7071068,26.2928932 C28.8880712,26.4738576 29,26.7238576 29,27 L29,27 L29,30 C29,30.2761424 28.8880712,30.5261424 28.7071068,30.7071068 C28.5261424,30.8880712 28.2761424,31 28,31 L28,31 L2,31 C1.72385763,31 1.47385763,30.8880712 1.29289322,30.7071068 C1.11192881,30.5261424 1,30.2761424 1,30 L1,30 L1,27 C1,26.7238576 1.11192881,26.4738576 1.29289322,26.2928932 C1.47385763,26.1119288 1.72385763,26 2,26 L2,26 Z" id="Rectangle" stroke="#E9445A" stroke-width="2"></path>
                    <path d="M21.634365,1 C22.0968208,1 22.5291145,1.15854947 22.8727549,1.42952539 C23.2163953,1.70050132 23.4713824,2.0839037 23.5792249,2.53360951 L23.5792249,2.53360951 L26.7462865,15.7403346 L28.0195414,20.4812478 C28.1627908,21.0146314 28.0762825,21.5555829 27.8206158,21.9990009 C27.5649492,22.4424189 27.1401243,22.7883033 26.6067408,22.9315528 C26.437567,22.9769874 26.2631573,23 26.0879886,23 L26.0879886,23 L3.84232922,23 C3.29004447,23 2.79004447,22.7761424 2.42811566,22.4142136 C2.06618684,22.0522847 1.84232922,21.5522847 1.84232922,21 L1.84232922,21 L6.40204422,2.51492875 C6.51333597,2.06976175 6.7689734,1.69102956 7.1115048,1.42358912 C7.4540362,1.15614869 7.88346158,1 8.34232922,1 L8.34232922,1 Z" id="Rectangle-Copy-2" stroke="#E9445A" stroke-width="2"></path>
                    <g id="Group-2" transform="translate(13.696396, 5.000000)" fill="#E9445A">
                        <path d="M1.51033606,0 C0.662043128,0 0,0.513632189 0,1.42418943 C0,4.20236283 0.289610419,5.19456222 0.289610419,7.97281111 C0.289677319,8.69653125 0.848359833,9 1.51040296,9 C2.00693531,9 2.71038958,8.69653125 2.71038958,7.97281111 C2.71038958,5.19463771 3,4.20243832 3,1.42418943 C3,0.513707679 2.31728475,0 1.51033606,0 Z" id="Path"></path>
                        <path d="M1.50979522,11 C0.647118494,11 0,11.6817838 0,12.5 C0,13.2986898 0.647055094,14 1.50979522,14 C2.31370063,14 3,13.2986898 3,12.5 C3,11.6817838 2.31363723,11 1.50979522,11 Z" id="Path"></path>
                    </g>
                </g>
                <g id="Group" fill="#E9445A">
                    <rect id="Rectangle" transform="translate(8.346396, 3.160158) rotate(36.000000) translate(-8.346396, -3.160158) " x="4.34639572" y="2.160158" width="8" height="2" rx="1"></rect>
                    <rect id="Rectangle-Copy" transform="translate(35.346396, 3.160158) scale(-1, 1) rotate(36.000000) translate(-35.346396, -3.160158) " x="31.3463957" y="2.160158" width="8" height="2" rx="1"></rect>
                    <rect id="Rectangle-Copy-6" transform="translate(4.346396, 13.160158) rotate(36.000000) translate(-4.346396, -13.160158) " x="0.346395716" y="12.160158" width="8" height="2" rx="1"></rect>
                    <rect id="Rectangle-Copy-5" transform="translate(38.346396, 13.160158) scale(-1, 1) rotate(36.000000) translate(-38.346396, -13.160158) " x="34.3463957" y="12.160158" width="8" height="2" rx="1"></rect>
                    <rect id="Rectangle-Copy-4" transform="translate(4.632870, 7.278480) rotate(36.000000) translate(-4.632870, -7.278480) " x="-0.367129776" y="6.27848013" width="10" height="2" rx="1"></rect>
                    <rect id="Rectangle-Copy-3" transform="translate(38.059921, 7.278480) scale(-1, 1) rotate(36.000000) translate(-38.059921, -7.278480) " x="33.0599212" y="6.27848013" width="10" height="2" rx="1"></rect>
                </g>
            </g>
        </g>
    </g>
</svg>