<?xml version="1.0" encoding="UTF-8"?>
<svg width="23px" height="20px" viewBox="0 0 23 20" version="1.1" xmlns="http://www.w3.org/2000/svg" xmlns:xlink="http://www.w3.org/1999/xlink">
    <title>4A9FAD87-AD52-4D66-825A-EA9189E0DF91</title>
    <defs>
        <path d="M9.65240642,1.57391304 C14.3060057,1.57391304 18.0784934,5.34640067 18.0784934,10 C18.0784934,14.6535993 14.3060057,18.426087 9.65240642,18.426087 C4.99880709,18.426087 1.22631946,14.6535993 1.22631946,10 C1.22631946,5.34640067 4.99880709,1.57391304 9.65240642,1.57391304 Z M9.69675424,2.72695652 C5.65547062,2.72695652 2.37936294,6.0030642 2.37936294,10.0443478 C2.37936294,14.0856315 5.65547062,17.3617391 9.69675424,17.3617391 C13.7380379,17.3617391 17.0141455,14.0856315 17.0141455,10.0443478 C17.0141455,6.0030642 13.7380379,2.72695652 9.69675424,2.72695652 Z M10.4184143,8.08498024 L10.4184143,14.2130435 L11.1844222,14.2130435 L11.1844222,14.5960474 L8.12039061,14.5960474 L8.12039061,14.2130435 L8.88639851,14.2130435 L8.88639851,8.46798419 L8.12039061,8.46798419 L8.12039061,8.08498024 L10.4184143,8.08498024 Z M9.46090444,5.02094862 C9.98972255,5.02094862 10.4184143,5.44964039 10.4184143,5.9784585 C10.4184143,6.5072766 9.98972255,6.93596838 9.46090444,6.93596838 C8.93208634,6.93596838 8.50339456,6.5072766 8.50339456,5.9784585 C8.50339456,5.44964039 8.93208634,5.02094862 9.46090444,5.02094862 Z" id="path-1"></path>
    </defs>
    <g id="Home" stroke="none" stroke-width="1" fill="none" fill-rule="evenodd">
        <g id="Web-Flotte/Home/Fleet" transform="translate(-516.000000, -374.000000)">
            <g id="Alertes/Bloc-Notif-3-Copy-4" transform="translate(124.000000, 326.000000)">
                <g id="Group" transform="translate(392.000000, 48.000000)">
                    <g id="Icon/Detail" transform="translate(1.524064, 0.000023)">
                        <mask id="mask-2" fill="white">
                            <use xlink:href="#path-1"></use>
                        </mask>
                        <use id="Detail" fill="#FFFFFF" xlink:href="#path-1"></use>
                        <g id="Group" mask="url(#mask-2)" fill="#FFFFFF">
                            <g id="Color">
                                <rect id="White" x="0" y="0" width="19.3048128" height="20"></rect>
                            </g>
                        </g>
                    </g>
                </g>
            </g>
        </g>
    </g>
</svg>