<?xml version="1.0" encoding="UTF-8"?>
<svg width="23px" height="20px" viewBox="0 0 23 20" version="1.1" xmlns="http://www.w3.org/2000/svg" xmlns:xlink="http://www.w3.org/1999/xlink">
    <title>61AFBF93-5EBA-48DB-BDBA-1F49B168C4F8</title>
    <defs>
        <filter color-interpolation-filters="auto" id="filter-1">
            <feColorMatrix in="SourceGraphic" type="matrix" values="0 0 0 0 1.000000 0 0 0 0 1.000000 0 0 0 0 1.000000 0 0 0 1.000000 0"></feColorMatrix>
        </filter>
    </defs>
    <g id="Home" stroke="none" stroke-width="1" fill="none" fill-rule="evenodd">
        <g id="Web-Flotte/Home/Fleet" transform="translate(-328.000000, -374.000000)">
            <g id="Alertes/Bloc-Notif-3-Copy-4" transform="translate(124.000000, 326.000000)">
                <g id="Orange" transform="translate(198.000000, 43.000000)">
                    <g id="danger" transform="translate(6.000000, 5.000000)" filter="url(#filter-1)">
                        <g>
                            <path d="M22.0649581,16.8316886 L12.8961441,1.01048185 C12.534917,0.387203743 11.8759851,0 11.1764513,0 C10.4769174,0 9.81798558,0.387203743 9.45671473,1.01052727 L0.287944483,16.8316886 C-0.0853759993,17.4759077 -0.0964215006,18.2830212 0.259086473,18.9380515 C0.614681764,19.5930818 1.28465909,20 2.00763736,20 L20.3452652,20 C21.0682434,20 21.7382644,19.5930818 22.0938597,18.9380061 C22.4493677,18.2829304 22.4383222,17.4758168 22.0649581,16.8316886 Z M20.8266395,18.1934429 C20.728758,18.3737352 20.5443025,18.485799 20.3452652,18.485799 L2.00763736,18.485799 C1.80860005,18.485799 1.62414454,18.3737806 1.52630672,18.1934883 C1.42842524,18.0131506 1.43148131,17.7909309 1.53420884,17.6136366 L10.7030664,1.7924299 C10.8025196,1.62085922 10.983919,1.51424645 11.1764949,1.51424645 C11.3690272,1.51424645 11.5504266,1.62085922 11.6498798,1.7924299 L20.81865,17.6136366 C20.9214649,17.7909763 20.924521,18.0131506 20.8266395,18.1934429 Z" id="Shape" fill="#E9445A" fill-rule="nonzero"></path>
                            <path d="M11.1834718,5.78947368 C10.6088706,5.78947368 10.1604278,6.10486187 10.1604278,6.66397597 C10.1604278,8.36987191 10.3565989,10.8212224 10.3565989,12.5271647 C10.3566442,12.9715543 10.7350744,13.1578947 11.1835172,13.1578947 C11.5198492,13.1578947 11.9963423,12.9715543 11.9963423,12.5271647 C11.9963423,10.8212688 12.1925134,8.36991827 12.1925134,6.66397597 C12.1925134,6.10490822 11.7300681,5.78947368 11.1834718,5.78947368 Z" id="Path" fill="#E9445A"></path>
                            <path d="M11.1831055,14.2105263 C10.5987612,14.2105263 10.1604278,14.6889711 10.1604278,15.2631579 C10.1604278,15.823642 10.5987182,16.3157895 11.1831055,16.3157895 C11.7276404,16.3157895 12.1925134,15.823642 12.1925134,15.2631579 C12.1925134,14.6889711 11.7275974,14.2105263 11.1831055,14.2105263 Z" id="Path" fill="#E9445A"></path>
                        </g>
                    </g>
                </g>
            </g>
        </g>
    </g>
</svg>