<?xml version="1.0" encoding="UTF-8"?>
<svg width="21px" height="21px" viewBox="0 0 21 21" version="1.1" xmlns="http://www.w3.org/2000/svg" xmlns:xlink="http://www.w3.org/1999/xlink">
    <title>F05C3B2B-9DA8-4BEB-961D-8635E3832A48</title>
    <defs>
        <filter color-interpolation-filters="auto" id="filter-1">
            <feColorMatrix in="SourceGraphic" type="matrix" values="0 0 0 0 1.000000 0 0 0 0 1.000000 0 0 0 0 1.000000 0 0 0 1.000000 0"></feColorMatrix>
        </filter>
    </defs>
    <g id="Home" stroke="none" stroke-width="1" fill="none" fill-rule="evenodd">
        <g id="Web-Flotte/Home/Fleet" transform="translate(-141.000000, -373.000000)">
            <g id="Alertes/Bloc-Notif-3-Copy-4" transform="translate(124.000000, 326.000000)">
                <g id="Red" transform="translate(10.000000, 43.000000)">
                    <g id="danger" transform="translate(7.000000, 5.000000)" filter="url(#filter-1)">
                        <g transform="translate(0.311947, -0.084294)">
                            <g id="Group-3" transform="translate(2.863636, 3.157895)">
                                <path d="M13.4781818,13.5778947 L13.8981818,16.0021053 L0.84,16.4221053 L0.42,13.9978947 L13.4781818,13.5778947 Z" id="Rectangle" stroke="#E9445A" stroke-width="0.84"></path>
                                <path d="M10.4390983,0.42 C10.6366664,0.42 10.8208794,0.488848052 10.9661959,0.605960127 C11.1115123,0.723072202 11.2179324,0.888448301 11.2599145,1.08150439 L11.2599145,1.08150439 L12.818581,8.24906867 L13.5306352,11.1728135 C13.5855227,11.3981857 13.543864,11.6244695 13.4321403,11.8081321 C13.3276622,11.9798836 13.1619125,12.1143629 12.9565471,12.1759696 L12.9565471,12.1759696 L1.57762088,12.2115789 C1.34566128,12.2115789 1.13566128,12.1175587 0.983651183,11.9655486 C0.840829761,11.8227272 0.749199403,11.6287147 0.738643553,11.4133946 L0.738643553,11.4133946 L3.05074972,1.0742809 C3.09412451,0.882953495 3.20083631,0.71938327 3.34575002,0.603644896 C3.49066373,0.487906523 3.67377935,0.42 3.86996179,0.42 L3.86996179,0.42 L10.4390983,0.42 Z" id="Rectangle-Copy-2" stroke="#E9445A" stroke-width="0.84"></path>
                                <g id="Group-2" transform="translate(6.536916, 2.631579)" fill="#E9445A">
                                    <path d="M0.720842211,0 C0.315975129,0 0,0.270332731 0,0.749573384 C0,2.21176991 0.138223154,2.73398012 0.138223154,4.19621637 C0.138255084,4.57712171 0.404899011,4.73684211 0.720874141,4.73684211 C0.957855488,4.73684211 1.29359503,4.57712171 1.29359503,4.19621637 C1.29359503,2.73401985 1.43181818,2.21180964 1.43181818,0.749573384 C1.43181818,0.270372462 1.10597681,0 0.720842211,0 Z" id="Path"></path>
                                    <path d="M0.720584082,5.78947368 C0.308852008,5.78947368 0,6.14830728 0,6.57894737 C0,6.99931045 0.308821749,7.36842105 0.720584082,7.36842105 C1.10426621,7.36842105 1.43181818,6.99931045 1.43181818,6.57894737 C1.43181818,6.14830728 1.10423595,5.78947368 0.720584082,5.78947368 Z" id="Path"></path>
                                </g>
                            </g>
                            <g id="Group" fill="#E9445A">
                                <path d="M2.44375898,1.08231127 L5.55479188,1.22911636 C5.77141446,1.23933846 5.94463659,1.41280344 5.95455521,1.62944013 L5.96261275,1.80542829 C5.9732218,2.03714515 5.79397851,2.23358911 5.56226165,2.24419816 C5.54926606,2.24479316 5.53624985,2.24478404 5.52325511,2.24417084 L2.41222221,2.09736575 C2.19559963,2.08714365 2.0223775,1.91367867 2.01245888,1.69704198 L2.00440135,1.52105382 C1.99379229,1.28933696 2.17303558,1.092893 2.40475244,1.08228395 C2.41774803,1.08168895 2.43076424,1.08169807 2.44375898,1.08231127 Z" id="Rectangle" transform="translate(3.983507, 1.663241) rotate(36.000000) translate(-3.983507, -1.663241) "></path>
                                <path d="M15.3301226,1.08231127 L18.4411555,1.22911636 C18.6577781,1.23933846 18.8310002,1.41280344 18.8409188,1.62944013 L18.8489764,1.80542829 C18.8595854,2.03714515 18.6803421,2.23358911 18.4486253,2.24419816 C18.4356297,2.24479316 18.4226135,2.24478404 18.4096187,2.24417084 L15.2985858,2.09736575 C15.0819633,2.08714365 14.9087411,1.91367867 14.8988225,1.69704198 L14.890765,1.52105382 C14.8801559,1.28933696 15.0593992,1.092893 15.2911161,1.08228395 C15.3041117,1.08168895 15.3171279,1.08169807 15.3301226,1.08231127 Z" id="Rectangle-Copy" transform="translate(16.869871, 1.663241) scale(-1, 1) rotate(36.000000) translate(-16.869871, -1.663241) "></path>
                                <path d="M0.534668076,6.34546917 L3.64570097,6.49227425 C3.86232355,6.50249636 4.03554568,6.67596134 4.0454643,6.89259802 L4.05352184,7.06858618 C4.06413089,7.30030304 3.8848876,7.496747 3.65317074,7.50735606 C3.64017516,7.50795105 3.62715894,7.50794194 3.6141642,7.50732873 L0.503131304,7.36052365 C0.286508725,7.35030154 0.11328659,7.17683656 0.103367976,6.96019988 L0.0953104364,6.78421172 C0.0847013835,6.55249486 0.263944674,6.3560509 0.49566153,6.34544184 C0.508657118,6.34484684 0.521673334,6.34485596 0.534668076,6.34546917 Z" id="Rectangle-Copy-6" transform="translate(2.074416, 6.926399) rotate(36.000000) translate(-2.074416, -6.926399) "></path>
                                <path d="M16.7619408,6.34546917 L19.8729737,6.49227425 C20.0895963,6.50249636 20.2628184,6.67596134 20.272737,6.89259802 L20.2807946,7.06858618 C20.2914036,7.30030304 20.1121603,7.496747 19.8804435,7.50735606 C19.8674479,7.50795105 19.8544317,7.50794194 19.8414369,7.50732873 L16.730404,7.36052365 C16.5137815,7.35030154 16.3405593,7.17683656 16.3306407,6.96019988 L16.3225832,6.78421172 C16.3119741,6.55249486 16.4912174,6.3560509 16.7229343,6.34544184 C16.7359298,6.34484684 16.7489461,6.34485596 16.7619408,6.34546917 Z" id="Rectangle-Copy-5" transform="translate(18.301689, 6.926399) scale(-1, 1) rotate(36.000000) translate(-18.301689, -6.926399) "></path>
                                <path d="M0.177177857,3.22652787 L4.27664413,3.41997568 C4.49326671,3.43019778 4.66648884,3.60366276 4.67640746,3.82029945 L4.684465,3.99628761 C4.69507405,4.22800447 4.51583076,4.42444843 4.2841139,4.43505748 C4.27111831,4.43565248 4.2581021,4.43564336 4.24510736,4.43503016 L0.145641085,4.24158235 C-0.0709814935,4.23136025 -0.244203629,4.05789526 -0.254122243,3.84125858 L-0.262179782,3.66527042 C-0.272788835,3.43355356 -0.0935455449,3.2371096 0.138171312,3.22650054 C0.1511669,3.22590555 0.164183115,3.22591466 0.177177857,3.22652787 Z" id="Rectangle-Copy-4" transform="translate(2.211143, 3.830779) rotate(36.000000) translate(-2.211143, -3.830779) "></path>
                                <path d="M16.1309976,3.22652787 L20.2304639,3.41997568 C20.4470865,3.43019778 20.6203086,3.60366276 20.6302272,3.82029945 L20.6382848,3.99628761 C20.6488938,4.22800447 20.4696505,4.42444843 20.2379337,4.43505748 C20.2249381,4.43565248 20.2119219,4.43564336 20.1989271,4.43503016 L16.0994609,4.24158235 C15.8828383,4.23136025 15.7096162,4.05789526 15.6996975,3.84125858 L15.69164,3.66527042 C15.681031,3.43355356 15.8602742,3.2371096 16.0919911,3.22650054 C16.1049867,3.22590555 16.1180029,3.22591466 16.1309976,3.22652787 Z" id="Rectangle-Copy-3" transform="translate(18.164962, 3.830779) scale(-1, 1) rotate(36.000000) translate(-18.164962, -3.830779) "></path>
                            </g>
                        </g>
                    </g>
                </g>
            </g>
        </g>
    </g>
</svg>