<?xml version="1.0" encoding="UTF-8"?>
<svg width="44px" height="38px" viewBox="0 0 44 38" version="1.1" xmlns="http://www.w3.org/2000/svg" xmlns:xlink="http://www.w3.org/1999/xlink">
    <title>danger</title>
    <defs>
        <filter color-interpolation-filters="auto" id="filter-1">
            <feColorMatrix in="SourceGraphic" type="matrix" values="0 0 0 0 1.000000 0 0 0 0 1.000000 0 0 0 0 1.000000 0 0 0 1.000000 0"></feColorMatrix>
        </filter>
    </defs>
    <g id="Symbols" stroke="none" stroke-width="1" fill="none" fill-rule="evenodd">
        <g id="danger" filter="url(#filter-1)">
            <g>
                <path d="M43.433128,31.9802083 L25.3850416,1.91991551 C24.6739944,0.735687112 23.3769392,0 21.999962,0 C20.6229848,0 19.3259295,0.735687112 18.6147964,1.92000182 L0.566795982,31.9802083 C-0.168055914,33.2042245 -0.189798112,34.7377403 0.509991269,35.9822978 C1.20995252,37.2268553 2.52875,38 3.95187565,38 L40.0480483,38 C41.4711739,38 42.7900574,37.2268553 43.4900186,35.9822115 C44.189808,34.7375677 44.1680658,33.2040519 43.433128,31.9802083 Z M40.9955956,34.5675415 C40.8029236,34.9100969 40.4398375,35.123018 40.0480483,35.123018 L3.95187565,35.123018 C3.5600864,35.123018 3.1970003,34.9101832 3.00441428,34.5676278 C2.81174231,34.2249861 2.81775794,33.8027687 3.01996897,33.4659096 L21.0681412,3.40561682 C21.263907,3.07963251 21.6209774,2.87706826 22.0000479,2.87706826 C22.3790325,2.87706826 22.7361029,3.07963251 22.9318686,3.40561682 L40.979869,33.4659096 C41.1822519,33.802855 41.1882676,34.2249861 40.9955956,34.5675415 Z" id="Shape" fill="#E9445A" fill-rule="nonzero"></path>
                <path d="M22.0137814,11 C20.8827242,11 20,11.5992376 20,12.6615543 C20,15.9027566 20.3861472,20.5603226 20.3861472,23.801613 C20.3862364,24.6459531 21.1311464,25 22.0138706,25 C22.6759137,25 23.6138528,24.6459531 23.6138528,23.801613 C23.6138528,20.5604107 24,15.9028447 24,12.6615543 C24,11.5993256 23.089713,11 22.0137814,11 Z" id="Path" fill="#E9445A"></path>
                <path d="M22.0130603,27 C20.8628247,27 20,27.9090451 20,29 C20,30.0649198 20.8627401,31 22.0130603,31 C23.0849342,31 24,30.0649198 24,29 C24,27.9090451 23.0848496,27 22.0130603,27 Z" id="Path" fill="#E9445A"></path>
            </g>
        </g>
    </g>
</svg>