<?xml version="1.0" encoding="UTF-8"?>
<svg width="41px" height="42px" viewBox="0 0 41 42" version="1.1" xmlns="http://www.w3.org/2000/svg" xmlns:xlink="http://www.w3.org/1999/xlink">
    <title>D83BFB55-94E7-476F-B06B-FAD971C58671</title>
    <defs>
        <filter color-interpolation-filters="auto" id="filter-1">
            <feColorMatrix in="SourceGraphic" type="matrix" values="0 0 0 0 0.223958 0 0 0 0 0.630892 0 0 0 0 0.846813 0 0 0 1.000000 0"></feColorMatrix>
        </filter>
    </defs>
    <g id="Home" stroke="none" stroke-width="1" fill="none" fill-rule="evenodd">
        <g id="Web-Flotte/Home/Fleet" transform="translate(-1271.000000, -90.000000)">
            <g id="Components/Nav/filter-circle-outline" transform="translate(1271.222222, 90.000000)">
                <g id="small-calendar" transform="translate(0.000000, 3.903226)" filter="url(#filter-1)">
                    <g transform="translate(2.750000, 0.000000)" fill="#68D15C">
                        <path d="M31.9312812,3.52916667 L27.2135417,3.52916667 L27.2135417,1.17638889 C27.2135417,0.525845833 26.7269635,0 26.125,0 C25.5230365,0 25.0364583,0.525845833 25.0364583,1.17638889 L25.0364583,3.52916667 L18.5052083,3.52916667 L18.5052083,1.17638889 C18.5052083,0.525845833 18.0175417,0 17.4166667,0 C16.8157917,0 16.328125,0.525845833 16.328125,1.17638889 L16.328125,3.52916667 L9.796875,3.52916667 L9.796875,1.17638889 C9.796875,0.525845833 9.30920833,0 8.70833333,0 C8.10745833,0 7.61979167,0.525845833 7.61979167,1.17638889 L7.61979167,3.52916667 L2.90314062,3.52916667 C1.29971875,3.52916667 0,4.93259861 0,6.66541944 L0,34.5070153 C0,36.2398361 1.29971875,37.6444444 2.90314062,37.6444444 L31.9312812,37.6444444 C33.5347031,37.6444444 34.8333333,36.2398361 34.8333333,34.5070153 L34.8333333,6.66541944 C34.8333333,4.93259861 33.5347031,3.52916667 31.9312812,3.52916667 Z M32.65625,34.5070153 C32.65625,34.9399264 32.330776,35.2916667 31.9312812,35.2916667 L2.90314063,35.2916667 C2.50255729,35.2916667 2.17708333,34.9399264 2.17708333,34.5070153 L2.17708333,6.66541944 C2.17708333,6.23368472 2.50255729,5.88194444 2.90314063,5.88194444 L7.61979167,5.88194444 L7.61979167,8.23472222 C7.61979167,8.88526528 8.10745833,9.41111111 8.70833333,9.41111111 C9.30920833,9.41111111 9.796875,8.88526528 9.796875,8.23472222 L9.796875,5.88194444 L16.328125,5.88194444 L16.328125,8.23472222 C16.328125,8.88526528 16.8157917,9.41111111 17.4166667,9.41111111 C18.0175417,9.41111111 18.5052083,8.88526528 18.5052083,8.23472222 L18.5052083,5.88194444 L25.0364583,5.88194444 L25.0364583,8.23472222 C25.0364583,8.88526528 25.5230365,9.41111111 26.125,9.41111111 C26.7269635,9.41111111 27.2135417,8.88526528 27.2135417,8.23472222 L27.2135417,5.88194444 L31.9312812,5.88194444 C32.330776,5.88194444 32.65625,6.23368472 32.65625,6.66541944 L32.65625,34.5070153 Z" id="Shape" fill-rule="nonzero"></path>
                        <rect id="Rectangle" x="7.125" y="14.5444444" width="4.75" height="3.42222222"></rect>
                        <rect id="Rectangle" x="7.125" y="19.6777778" width="4.75" height="3.42222222"></rect>
                        <rect id="Rectangle" x="7.125" y="25.6666667" width="4.75" height="3.42222222"></rect>
                        <rect id="Rectangle" x="15.0416667" y="25.6666667" width="4.75" height="3.42222222"></rect>
                        <rect id="Rectangle" x="15.0416667" y="19.6777778" width="4.75" height="3.42222222"></rect>
                        <rect id="Rectangle" x="15.0416667" y="14.5444444" width="4.75" height="3.42222222"></rect>
                        <rect id="Rectangle" x="22.9583333" y="25.6666667" width="4.75" height="3.42222222"></rect>
                        <rect id="Rectangle" x="22.9583333" y="19.6777778" width="4.75" height="3.42222222"></rect>
                        <rect id="Rectangle" x="22.9583333" y="14.5444444" width="4.75" height="3.42222222"></rect>
                    </g>
                </g>
            </g>
        </g>
    </g>
</svg>