<?xml version="1.0" encoding="UTF-8"?>
<svg width="32px" height="32px" viewBox="0 0 32 32" version="1.1" xmlns="http://www.w3.org/2000/svg" xmlns:xlink="http://www.w3.org/1999/xlink">
    <title>A4252495-BCAA-4D0B-B9F1-73AD573E2675</title>
    <g id="Localisation" stroke="none" stroke-width="1" fill="none" fill-rule="evenodd">
        <g id="Web-Flotte/Home/Select-vehicle" transform="translate(-343.000000, -43.000000)" stroke-width="2">
            <g id="-System/Navigation/Top/Mobile" transform="translate(9.000000, 43.000000)">
                <g id="Filter" transform="translate(334.000000, 0.000000)">
                    <path d="M16,1 C20.140625,1 23.8905688,2.67978237 26.6053932,5.39460678 C29.3202176,8.1094312 31,11.859375 31,16 C31,20.140625 29.3202176,23.8905688 26.6053932,26.6053932 C23.8905688,29.3202176 20.140625,31 16,31 C11.859375,31 8.1094312,29.3202176 5.39460678,26.6053932 C2.67978237,23.8905688 1,20.140625 1,16 C1,11.859375 2.67978237,8.1094312 5.39460678,5.39460678 C8.1094312,2.67978237 11.859375,1 16,1 Z" id="Path" stroke="#3AA1D8"></path>
                    <path d="M16.7132036,15.9999208 L21.8524679,10.8607074 C22.0489133,10.6636302 22.0492301,10.3445681 21.8524679,10.1478078 C21.6547552,9.95073072 21.3360067,9.95073072 21.1389276,10.1478078 L15.9999802,15.2867044 L10.8607159,10.1478078 C10.6645874,9.95073072 10.3445715,9.95073072 10.1478093,10.1478078 C9.95073023,10.3445681 9.95073023,10.6636302 10.1478093,10.8607074 L15.2867568,15.9999208 L10.1481261,21.1385005 C9.95104708,21.3355776 9.95104708,21.6546398 10.1481261,21.8520337 C10.2466657,21.9502555 10.3756226,22 10.5045794,21.9996832 C10.6338532,22 10.76281,21.9502555 10.8610327,21.8520337 L15.9999802,16.7131372 L21.1389276,21.8520337 C21.2374672,21.9502555 21.3667409,22 21.4956978,22 C21.6243378,22 21.7536115,21.9502555 21.8524679,21.8520337 C22.0492301,21.6546398 22.0492301,21.3355776 21.8521511,21.1385005 L16.7132036,15.9999208 Z" id="Shape" stroke="#39A1D8" stroke-linejoin="round"></path>
                </g>
            </g>
        </g>
    </g>
</svg>