<?xml version="1.0" encoding="utf-8" ?>
<svg xmlns="http://www.w3.org/2000/svg" xmlns:xlink="http://www.w3.org/1999/xlink" width="21" height="21">
	<path fill="none" stroke="white" stroke-width="1.6799999" stroke-miterlimit="5" transform="translate(3.03844 16.3157)" d="M0.83999997 0L13.478182 0C13.942101 -9.093066e-16 14.318182 0.37608081 14.318182 0.83999997L14.318182 2.8442106C14.318182 3.3081298 13.942101 3.6842105 13.478182 3.6842105L0.83999997 3.6842105C0.37608081 3.6842105 -8.2615445e-17 3.3081298 -1.110223e-16 2.8442106L0 0.83999997C-5.6813716e-17 0.37608081 0.37608081 -5.4208587e-17 0.83999997 -1.110223e-16L0.83999997 0Z" fill-rule="evenodd"/>
	<path fill="none" stroke="white" stroke-width="1.6799999" stroke-miterlimit="5" transform="translate(3.03844 3.15783)" d="M3.8699617 0L10.439098 0C11.031802 -1.0887802e-16 11.544376 0.41308832 11.670322 0.99225658L13.227884 8.1547394L13.227884 8.1547394L13.938707 11.073431C14.103371 11.749547 13.688755 12.431133 13.012638 12.595797C12.915037 12.619566 12.814944 12.631579 12.71449 12.631579L1.5776209 12.631579C0.88174212 12.631579 0.31762087 12.067458 0.31762087 11.371579C0.31762087 11.277848 0.32807955 11.184411 0.34880278 11.093L2.6411438 0.98142135C2.7712681 0.40743914 3.2814145 1.0811439e-16 3.8699617 0Z" fill-rule="evenodd"/>
	<path fill="white" transform="translate(9.57536 5.78941)" d="M0.72084218 0C0.31597513 0 0 0.27033272 0 0.74957341C0 2.2117698 0.13822316 2.7339802 0.13822316 4.1962166C0.13825509 4.5771217 0.404899 4.7368422 0.72087413 4.7368422C0.95785546 4.7368422 1.2935951 4.5771217 1.2935951 4.1962166C1.2935951 2.7340198 1.4318181 2.2118096 1.4318181 0.74957341C1.4318181 0.27037245 1.1059768 0 0.72084218 0Z" fill-rule="evenodd"/>
	<path fill="white" transform="translate(9.57536 11.5789)" d="M0.72058409 0C0.30885202 0 0 0.35883358 0 0.78947371C0 1.2098367 0.30882174 1.5789474 0.72058409 1.5789474C1.1042662 1.5789474 1.4318181 1.2098367 1.4318181 0.78947371C1.4318181 0.35883358 1.104236 0 0.72058409 0Z" fill-rule="evenodd"/>
	<path fill="white" transform="matrix(0.809017 0.587785 -0.587785 0.809017 2.89436 -6.48499e-05)" d="M0.46044007 0.021727491L3.5714729 0.16853258C3.7880955 0.17875469 3.9613178 0.35221967 3.9712362 0.56885636L3.9792938 0.7448445C3.989903 0.97656137 3.8106596 1.1730053 3.5789428 1.1836144C3.5659471 1.1842093 3.5529308 1.1842003 3.5399361 1.1835871L0.42890328 1.036782C0.21228071 1.0265598 0.03905857 0.85309488 0.029139955 0.63645822L0.021082416 0.46047005C0.010473362 0.22875318 0.18971665 0.032309223 0.42143351 0.021700168C0.43442911 0.021105172 0.4474453 0.02111429 0.46044007 0.021727491Z" fill-rule="evenodd"/>
	<path fill="white" transform="matrix(-0.809017 0.587785 0.587785 0.809017 18.3086 -6.48499e-05)" d="M0.46044007 0.021727491L3.5714729 0.16853258C3.7880955 0.17875469 3.9613178 0.35221967 3.9712362 0.56885636L3.9792938 0.7448445C3.989903 0.97656137 3.8106596 1.1730053 3.5789428 1.1836144C3.5659471 1.1842093 3.5529308 1.1842003 3.5399361 1.1835871L0.42890328 1.036782C0.21228071 1.0265598 0.03905857 0.85309488 0.029139955 0.63645822L0.021082416 0.46047005C0.010473362 0.22875318 0.18971665 0.032309223 0.42143351 0.021700168C0.43442911 0.021105172 0.4474453 0.02111429 0.46044007 0.021727491Z" fill-rule="evenodd"/>
	<path fill="white" transform="matrix(0.809017 0.587785 -0.587785 0.809017 0.985265 5.26309)" d="M0.46044007 0.021727491L3.5714729 0.16853258C3.7880955 0.17875469 3.9613178 0.35221967 3.9712362 0.56885636L3.9792938 0.7448445C3.989903 0.97656137 3.8106596 1.1730053 3.5789428 1.1836144C3.5659471 1.1842093 3.5529308 1.1842003 3.5399361 1.1835871L0.42890328 1.036782C0.21228071 1.0265598 0.03905857 0.85309488 0.029139955 0.63645822L0.021082416 0.46047005C0.010473362 0.22875318 0.18971665 0.032309223 0.42143351 0.021700168C0.43442911 0.021105172 0.4474453 0.02111429 0.46044007 0.021727491Z" fill-rule="evenodd"/>
	<path fill="white" transform="matrix(-0.809017 0.587785 0.587785 0.809017 19.7404 5.26309)" d="M0.46044007 0.021727491L3.5714729 0.16853258C3.7880955 0.17875469 3.9613178 0.35221967 3.9712362 0.56885636L3.9792938 0.7448445C3.989903 0.97656137 3.8106596 1.1730053 3.5789428 1.1836144C3.5659471 1.1842093 3.5529308 1.1842003 3.5399361 1.1835871L0.42890328 1.036782C0.21228071 1.0265598 0.03905857 0.85309488 0.029139955 0.63645822L0.021082416 0.46047005C0.010473362 0.22875318 0.18971665 0.032309223 0.42143351 0.021700168C0.43442911 0.021105172 0.4474453 0.02111429 0.46044007 0.021727491Z" fill-rule="evenodd"/>
	<path fill="white" transform="matrix(0.809017 0.587785 -0.587785 0.809017 0.73587 1.85811)" d="M0.46044007 0.021727491L4.5599065 0.2151753C4.7765288 0.22539741 4.9497509 0.39886239 4.9596696 0.61549908L4.9677272 0.79148722C4.9783363 1.0232041 4.7990928 1.219648 4.5673761 1.2302572C4.5543804 1.2308521 4.5413642 1.2308429 4.5283694 1.2302297L0.42890328 1.036782C0.21228071 1.0265598 0.03905857 0.85309488 0.029139955 0.63645822L0.021082416 0.46047005C0.010473362 0.22875318 0.18971665 0.032309223 0.42143351 0.021700168C0.43442911 0.021105172 0.4474453 0.02111429 0.46044007 0.021727491Z" fill-rule="evenodd"/>
	<path fill="white" transform="matrix(-0.809017 0.587785 0.587785 0.809017 19.9898 1.85811)" d="M0.46044007 0.021727491L4.5599065 0.2151753C4.7765288 0.22539741 4.9497509 0.39886239 4.9596696 0.61549908L4.9677272 0.79148722C4.9783363 1.0232041 4.7990928 1.219648 4.5673761 1.2302572C4.5543804 1.2308521 4.5413642 1.2308429 4.5283694 1.2302297L0.42890328 1.036782C0.21228071 1.0265598 0.03905857 0.85309488 0.029139955 0.63645822L0.021082416 0.46047005C0.010473362 0.22875318 0.18971665 0.032309223 0.42143351 0.021700168C0.43442911 0.021105172 0.4474453 0.02111429 0.46044007 0.021727491Z" fill-rule="evenodd"/>
</svg>
