<?xml version="1.0" encoding="utf-8" ?>
<svg xmlns="http://www.w3.org/2000/svg" xmlns:xlink="http://www.w3.org/1999/xlink" width="19" height="18">
	<path fill="#39A1D8" transform="translate(0.00011158 5.14984e-05)" d="M8.5263157 0C13.23527 0 17.052631 3.8173616 17.052631 8.5263157C17.052631 13.23527 13.23527 17.052631 8.5263157 17.052631C3.8173616 17.052631 0 13.23527 0 8.5263157C0 3.8173616 3.8173616 0 8.5263157 0ZM8.5711908 1.166759C4.4818363 1.166759 1.166759 4.4818363 1.166759 8.5711908C1.166759 12.660546 4.4818363 15.975623 8.5711908 15.975623C12.660546 15.975623 15.975623 12.660546 15.975623 8.5711908C15.975623 4.4818363 12.660546 1.166759 8.5711908 1.166759ZM9.3014355 6.5885167L9.3014355 12.789474L10.076555 12.789474L10.076555 13.177033L6.9760766 13.177033L6.9760766 12.789474L7.7511964 12.789474L7.7511964 6.9760766L6.9760766 6.9760766L6.9760766 6.5885167L9.3014355 6.5885167ZM8.3325357 3.4880383C8.8676443 3.4880383 9.3014355 3.9218295 9.3014355 4.4569378C9.3014355 4.9920464 8.8676443 5.4258375 8.3325357 5.4258375C7.7974277 5.4258375 7.3636365 4.9920464 7.3636365 4.4569378C7.3636365 3.9218295 7.7974277 3.4880383 8.3325357 3.4880383Z" fill-rule="evenodd"/>
</svg>
