<?xml version="1.0" encoding="utf-8" ?>
<svg xmlns="http://www.w3.org/2000/svg" xmlns:xlink="http://www.w3.org/1999/xlink" width="20" height="21">
	<path fill="#39A1D8" d="M10 0C15.522847 0 20 4.4771523 20 10C20 15.522847 15.522847 20 10 20C4.4771523 20 0 15.522847 0 10C0 4.4771523 4.4771523 0 10 0ZM10 0.92592591C4.9885273 0.92592591 0.92592591 4.9885273 0.92592591 10C0.92592591 12.842725 2.2331288 15.380136 4.2792192 17.043917C4.7316232 16.750898 5.1212859 16.311831 5.629426 16.001488C5.8449922 15.869831 6.4660583 15.668483 6.7022228 15.603405C7.0858736 15.497887 7.6501489 15.448614 7.8149037 15.018173C7.8149037 15.018173 8.0352001 14.16083 7.9446545 12.997803C7.9446545 12.997803 7.0845799 12.894608 7.1755919 10.904632C7.1755919 10.904632 6.6304526 11.35692 6.5007024 10.232474C6.5007024 10.232474 6.3578835 9.4571228 6.2542696 9.3148813C6.2542696 9.3148813 5.9686317 8.5525455 6.4876337 8.6557398C6.4876337 8.6557398 6.3966217 7.1566334 6.3322134 6.8205547C6.2762055 6.5314245 6.308877 6.1930218 6.3597503 5.9066806C6.4045563 5.6565971 6.4834332 5.4055839 6.626719 5.1926875C6.7910075 4.9491119 7.0831795 4.835691 7.3132768 4.6664896L7.7512431 4.3340716C7.8979712 4.2239628 8.0474405 4.1177468 8.2056618 4.0250115C8.3302784 3.9524968 8.457695 3.8841653 8.5883789 3.8232715C8.6616554 3.7888734 8.9804316 3.7293739 9.0177698 3.6805658C9.0177698 3.6805658 9.1344519 3.5253096 9.3813515 3.5253096C9.6450529 3.5099697 9.9129553 3.5220556 10.175723 3.547157C10.414222 3.5703988 10.651787 3.6075861 10.882817 3.6712689C11.166121 3.7488971 11.452226 3.8934622 11.728529 4.0003753C11.931557 4.0789328 12.125715 4.1807327 12.304473 4.3048449C12.832342 4.6711383 13.124982 5.1954765 13.208993 5.8257985C13.208993 5.8257985 13.377481 7.0920205 12.98823 8.5650959C12.98823 8.5650959 13.689257 8.2034512 13.208993 9.7155733C13.208993 9.7155733 13.207391 9.7211571 13.204508 9.7314205L13.174403 9.8419228C13.134057 9.9941149 13.070685 10.249673 13.053572 10.413297C13.053572 10.413297 13.014367 11.059423 12.521502 10.749375L12.521605 10.868472C12.517482 11.320369 12.46016 12.907557 11.85968 12.985252C11.85968 12.985252 11.781736 14.936646 12.235864 15.143036C12.235864 15.143036 12.663854 15.466563 14.078508 15.737565C14.078508 15.737565 15.453384 16.316933 16.296297 16.707399L16.172556 16.651247C17.957315 14.994171 19.074074 12.627502 19.074074 10C19.074074 4.9885273 15.011473 0.92592591 10 0.92592591Z" fill-rule="evenodd"/>
</svg>
