<?xml version="1.0" encoding="utf-8" ?>
<svg xmlns="http://www.w3.org/2000/svg" xmlns:xlink="http://www.w3.org/1999/xlink" width="24" height="25">
	<path fill="#01426A" d="M4.8000002 0L19.200001 0C21.850967 -4.869747e-16 24 2.1490333 24 4.8000002L24 19.200001C24 21.850967 21.850967 24 19.200001 24L4.8000002 24C2.1490333 24 -7.258535e-16 21.850967 -8.8817842e-16 19.200001L0 4.8000002C-3.2464981e-16 2.1490333 2.1490333 -5.6352864e-16 4.8000002 -8.8817842e-16L4.8000002 0Z" fill-rule="evenodd"/>
	<path fill="#F5F5F5" transform="translate(7.2 4.2)" d="M4.589848 0C4.4015021 0 4.2285585 0.10608815 4.1400361 0.27559331L0.060111139 8.0759249C-0.024278443 8.2370749 -0.019537909 8.4315586 0.072598763 8.5882359C0.16473544 8.7449141 0.33075181 8.8408012 0.50992286 8.840826L2.9757276 8.840826L2.0460148 15.001637C2.0114493 15.232878 2.1325722 15.459189 2.3420017 15.554673C2.5514314 15.650157 2.7976148 15.59131 2.9435983 15.410867L10.083977 6.5700407C10.209152 6.4147739 10.235357 6.1998568 10.151279 6.0180655C10.067203 5.8362737 9.8879004 5.7201653 9.690774 5.7198615L6.4691634 5.7198615L9.1175451 0.76906139C9.2037344 0.608015 9.2003107 0.4125776 9.1085358 0.25477207C9.0167608 0.096966557 8.8502188 0 8.6702833 0L4.589848 0Z"/>
</svg>
