<?xml version="1.0" encoding="UTF-8"?>
<svg width="22px" height="23px" viewBox="0 0 22 23" version="1.1" xmlns="http://www.w3.org/2000/svg" xmlns:xlink="http://www.w3.org/1999/xlink">
    <title>883ACD7C-8CB4-48DB-A90E-1E3FAF0B1241</title>
    <defs>
        <filter color-interpolation-filters="auto" id="filter-1">
            <feColorMatrix in="SourceGraphic" type="matrix" values="0 0 0 0 0.223958 0 0 0 0 0.630892 0 0 0 0 0.846813 0 0 0 1.000000 0"></feColorMatrix>
        </filter>
    </defs>
    <g id="Localisation" stroke="none" stroke-width="1" fill="none" fill-rule="evenodd">
        <g id="Web-Flotte/tracking/fleet/bottom-panel" transform="translate(-548.000000, -144.000000)">
            <g id="Engine" transform="translate(493.000000, 141.500000)">
                <g id="icon" transform="translate(52.000000, 0.000000)" filter="url(#filter-1)">
                    <g transform="translate(3.000000, 3.000000)">
                        <path d="M9.28293128,10.2273793 L9.28293128,1.70456322 C9.28293128,0.764020903 10.0525574,0 11,0 C11.9474426,0 12.7170687,0.764020903 12.7170687,1.70456322 L12.7170687,10.2273793 C12.7170687,11.1679217 11.9474426,11.9319426 11,11.9319426 C10.0525574,11.9319426 9.28293128,11.1679217 9.28293128,10.2273793 Z M17.8062671,2.49936222 C17.2500207,2.06213225 16.4384481,2.15808748 15.9980104,2.71118792 C15.5575727,3.2651936 15.6533201,4.06904497 16.2113902,4.50718018 C18.2539998,6.10673579 19.4248529,8.50199564 19.4248529,11.0801136 C19.4248529,15.6913961 15.6451132,19.4436078 11.0009119,19.4436078 C6.35579872,19.4436078 2.57605902,15.6913961 2.57605902,11.0801136 C2.57605902,8.50290088 3.74600017,6.10854627 5.78678604,4.5098959 C6.34485617,4.07266593 6.4406035,3.26881455 6.0001658,2.71390363 C5.55972809,2.15989795 4.75089115,2.0657532 4.19099726,2.50207793 C1.52739783,4.58865161 0,7.71534378 0,11.0801136 C0,17.101757 4.93509077,22 11,22 C17.0649092,22 22,17.1008517 22,11.0801136 C22,7.71353331 20.4707784,4.58684113 17.8062671,2.49936222 Z" id="Shape" fill="#3AA1D8" fill-rule="nonzero"></path>
                    </g>
                </g>
            </g>
        </g>
    </g>
</svg>