<?xml version="1.0" encoding="UTF-8"?>
<svg width="44px" height="44px" viewBox="0 0 44 44" version="1.1" xmlns="http://www.w3.org/2000/svg" xmlns:xlink="http://www.w3.org/1999/xlink">
    <title>F1A752C0-B59B-4286-8AA0-7A6A9EC4BA5C</title>
    <defs>
        <filter color-interpolation-filters="auto" id="filter-1">
            <feColorMatrix in="SourceGraphic" type="matrix" values="0 0 0 0 0.223958 0 0 0 0 0.630892 0 0 0 0 0.846813 0 0 0 1.000000 0"></feColorMatrix>
        </filter>
        <path d="M5,8 C5.55228475,8 6,8.44771525 6,9 C6,9.55228475 5.55228475,10 5,10 L3.5638852,10 C2.90203328,10 2.70048072,10.0389216 2.49475316,10.1489459 C2.3430957,10.2300532 2.2300532,10.3430957 2.1489459,10.4947532 C2.0489238,10.6817782 2.00766428,10.8653529 2.00098918,11.3944435 L2,20.4361148 C2,21.0979667 2.03892159,21.2995193 2.1489459,21.5052468 C2.2300532,21.6569043 2.3430957,21.7699468 2.49475316,21.8510541 C2.70048072,21.9610784 2.90203328,22 3.5638852,22 L14.4361148,22 C15.0979667,22 15.2995193,21.9610784 15.5052468,21.8510541 C15.6569043,21.7699468 15.7699468,21.6569043 15.8510541,21.5052468 C15.9610784,21.2995193 16,21.0979667 16,20.4361148 L16,11.5638852 C16,10.9020333 15.9610784,10.7004807 15.8510541,10.4947532 C15.7699468,10.3430957 15.6569043,10.2300532 15.5052468,10.1489459 C15.3182218,10.0489238 15.1346471,10.0076643 14.6055565,10.0009892 L13,10 C12.4477153,10 12,9.55228475 12,9 C12,8.44771525 12.4477153,8 13,8 L14.4361148,8 C15.3998961,8 15.9133638,8.09915518 16.4484446,8.38531951 C16.948639,8.6528264 17.3471736,9.05136104 17.6146805,9.55155544 C17.9008448,10.0866362 18,10.6001039 18,11.5638852 L18,20.4361148 C18,21.3998961 17.9008448,21.9133638 17.6146805,22.4484446 C17.3471736,22.948639 16.948639,23.3471736 16.4484446,23.6146805 C15.9133638,23.9008448 15.3998961,24 14.4361148,24 L3.5638852,24 C2.60010387,24 2.08663621,23.9008448 1.55155544,23.6146805 C1.05136104,23.3471736 0.652826398,22.948639 0.385319506,22.4484446 C0.0991551791,21.9133638 0,21.3998961 0,20.4361148 L0,11.5638852 C0,10.6001039 0.0991551791,10.0866362 0.385319506,9.55155544 C0.652826398,9.05136104 1.05136104,8.6528264 1.55155544,8.38531951 C2.08663621,8.09915518 2.60010387,8 3.5638852,8 L5,8 Z M8.29396802,0.293824645 C8.57892226,0.00965287932 8.95504707,-0.0547642401 9.28160742,0.0422789341 C9.35511309,0.0637760316 9.42663601,0.0938789879 9.49458868,0.132587803 C9.59252811,0.187792918 9.68159493,0.259136576 9.75673346,0.344524656 L9.75673346,0.344524656 L13.7071068,4.29489797 C14.0976311,4.68542227 14.0976311,5.31858724 13.7071068,5.70911154 C13.3165825,6.09963583 12.6834175,6.09963583 12.2928932,5.70911154 L12.2928932,5.70911154 L10,3.41621832 L10,16.0020048 C10,16.5542895 9.55228475,17.0020048 9,17.0020048 C8.44771525,17.0020048 8,16.5542895 8,16.0020048 L8,16.0020048 L8,3.41621832 L5.70710678,5.70911154 C5.31658249,6.09963583 4.68341751,6.09963583 4.29289322,5.70911154 C3.90236893,5.31858724 3.90236893,4.68542227 4.29289322,4.29489797 L4.29289322,4.29489797 L8.17862309,0.408857083 C8.22504472,0.36243557 8.2642606,0.323531082 8.29396802,0.293824645 Z" id="path-2"></path>
    </defs>
    <g id="Localisation" stroke="none" stroke-width="1" fill="none" fill-rule="evenodd">
        <g id="Web-Flotte/tracking/fleet/bottom-panel" transform="translate(-521.000000, -284.000000)">
            <g id="CTA" transform="translate(473.000000, 284.000000)">
                <g id="icones/Share/btn-small" transform="translate(48.000000, 0.000000)">
                    <rect id="Rectangle" stroke="#3AA1D8" fill="#FFFFFF" fill-rule="nonzero" x="0.5" y="0.5" width="43" height="43" rx="10"></rect>
                    <g id="Icons-/-Share" transform="translate(8.000000, 8.000000)" filter="url(#filter-1)">
                        <g transform="translate(5.209302, 2.279070)">
                            <mask id="mask-3" fill="white">
                                <use xlink:href="#path-2"></use>
                            </mask>
                            <use id="Icon" fill="#39A1D8" xlink:href="#path-2"></use>
                        </g>
                    </g>
                </g>
            </g>
        </g>
    </g>
</svg>