<?xml version="1.0" encoding="UTF-8"?>
<svg width="44px" height="44px" viewBox="0 0 44 44" version="1.1" xmlns="http://www.w3.org/2000/svg" xmlns:xlink="http://www.w3.org/1999/xlink">
    <title>99C33BD1-987C-446C-B283-42F147E37CB3</title>
    <g id="Localisation" stroke="none" stroke-width="1" fill="none" fill-rule="evenodd">
        <g id="Web-Flotte/tracking/fleet/bottom-panel" transform="translate(-473.000000, -284.000000)">
            <g id="icones/Share/btn-small-Copy" transform="translate(473.000000, 284.000000)">
                <rect id="Rectangle" stroke="#3AA1D8" fill="#FFFFFF" fill-rule="nonzero" x="0.5" y="0.5" width="43" height="43" rx="10"></rect>
                <g id="Group" transform="translate(8.000000, 8.000000)" fill="#39A1D8">
                    <g id="Direction" transform="translate(0.945846, 1.358760)">
                        <path d="M8.72792206,5.97792206 L8.72792206,3.72792206 L18.1640369,3.72792206 C19.1278182,3.72792206 19.6412859,3.83947164 20.1763666,4.16140651 C20.676561,4.46235176 21.0750957,4.91070323 21.3426026,5.47342193 C21.6287669,6.07538779 21.7279221,6.65303891 21.7279221,7.73729291 L21.7279221,17.7185512 C21.7279221,18.8028052 21.6287669,19.3804563 21.3426026,19.9824222 C21.0750957,20.5451409 20.676561,20.9934924 20.1763666,21.2944376 C19.6412859,21.6163725 19.1278182,21.7279221 18.1640369,21.7279221 L7.29180726,21.7279221 C6.32802593,21.7279221 5.81455827,21.6163725 5.2794775,21.2944376 C4.7792831,20.9934924 4.38074846,20.5451409 4.11324157,19.9824222 C3.82707724,19.3804563 3.72792206,18.8028052 3.72792206,17.7185512 L3.72792206,7.73729291 C3.72792206,6.65303891 3.82707724,6.07538779 4.11324157,5.47342193 C4.38074846,4.91070323 4.7792831,4.46235176 5.2794775,4.16140651 C5.81455827,3.83947164 6.32802593,3.72792206 7.29180726,3.72792206 L8.72792206,3.72792206 L8.72792206,5.97792206 L7.29180726,5.97792206 C6.62995534,5.97792206 6.42840278,6.02170886 6.22267522,6.1454862 C6.07101776,6.23673191 5.95797526,6.36390473 5.87686796,6.53451936 C5.76684366,6.76596287 5.72792206,6.9927095 5.72792206,7.73729291 L5.72792206,17.7185512 C5.72792206,18.4631346 5.76684366,18.6898812 5.87686796,18.9213248 C5.95797526,19.0919394 6.07101776,19.2191122 6.22267522,19.3103579 C6.42840278,19.4341353 6.62995534,19.4779221 7.29180726,19.4779221 L18.1640369,19.4779221 C18.8258888,19.4779221 19.0274413,19.4341353 19.2331689,19.3103579 C19.3848264,19.2191122 19.4978689,19.0919394 19.5789762,18.9213248 C19.6890005,18.6898812 19.7279221,18.4631346 19.7279221,17.7185512 L19.7279221,7.73729291 C19.7279221,6.9927095 19.6890005,6.76596287 19.5789762,6.53451936 C19.4978689,6.36390473 19.3848264,6.23673191 19.2331689,6.1454862 C19.0274413,6.02170886 18.8258888,5.97792206 18.1640369,5.97792206 L8.72792206,5.97792206 Z" id="Path" transform="translate(12.727922, 12.727922) rotate(45.000000) translate(-12.727922, -12.727922) "></path>
                        <path d="M10.2884682,10.2748245 C9.97604878,10.6052172 9.97604878,11.1408896 10.2884682,11.4712823 C10.6008877,11.801675 11.1074196,11.801675 11.4198391,11.4712823 L13.2541536,9.53144101 L13.2541536,16.7952171 C13.2541536,17.2624629 13.6123258,17.6412404 14.0541536,17.6412404 C14.2903417,17.6412404 16.8399794,17.6412404 17.208204,17.6412404 C18.3121046,17.6412404 18.3121046,15.6708465 17.208204,15.6708465 C17.208204,15.6708465 16.4235205,15.6708465 14.8541536,15.6708465 L14.8541536,9.53144101 L16.6884682,11.4712823 C17.0008877,11.801675 17.5074196,11.801675 17.8198391,11.4712823 C18.1322585,11.1408896 18.1322585,10.6052172 17.8198391,10.2748245 L14.6595404,6.93271636 C14.5994296,6.86047605 14.5281761,6.80011765 14.4498246,6.75341283 C14.3954625,6.72066427 14.3382441,6.69519646 14.2794396,6.67700942 C14.0181913,6.59490862 13.7172915,6.64940701 13.4893281,6.88982297 C13.4536792,6.92752148 13.400915,6.98272896 13.337253,7.05064554 L10.2884682,10.2748245 Z" id="Combined-Shape" transform="translate(14.054154, 12.141240) rotate(90.000000) translate(-14.054154, -12.141240) "></path>
                    </g>
                </g>
            </g>
        </g>
    </g>
</svg>