<?xml version="1.0" encoding="UTF-8"?>
<svg width="16px" height="17px" viewBox="0 0 16 17" version="1.1" xmlns="http://www.w3.org/2000/svg" xmlns:xlink="http://www.w3.org/1999/xlink">
    <title>124DB794-27AC-4B3B-975F-79E211933509</title>
    <defs>
        <path d="M8,0 C12.418278,0 16,3.581722 16,8 C16,12.418278 12.418278,16 8,16 C3.581722,16 0,12.418278 0,8 C0,3.581722 3.581722,0 8,0 Z M8,0.740740741 C3.99082182,0.740740741 0.740740741,3.99082182 0.740740741,8 C0.740740741,10.2737109 1.7860721,12.3032717 3.42236382,13.6343111 C3.78478546,13.4012967 4.09669422,13.0496689 4.50354077,12.8011896 C4.6759937,12.6958649 5.17284658,12.5347864 5.36177832,12.4827244 C5.66869906,12.3983096 6.12011897,12.3588912 6.25192313,12.0145383 C6.25192313,12.0145383 6.42815986,11.3286642 6.35572358,10.3982421 C6.35572358,10.3982421 5.66766377,10.3156866 5.74047343,8.72370536 C5.74047343,8.72370536 5.30436222,9.08553619 5.20056177,8.18597938 C5.20056177,8.18597938 5.08630661,7.56569796 5.0034156,7.45190533 C5.0034156,7.45190533 4.77490528,6.8420363 5.19010705,6.92459174 C5.19010705,6.92459174 5.11729739,5.72530662 5.06577055,5.45644363 C5.0209646,5.22513965 5.0471014,4.9544173 5.08780014,4.72534455 C5.1236449,4.52527776 5.1867466,4.32446723 5.30137515,4.15415015 C5.43280593,3.95928956 5.66654362,3.86855294 5.85062139,3.73319177 C6.08622599,3.55989972 6.31137587,3.36838597 6.56452947,3.2200093 C6.66422271,3.16199737 6.76615624,3.10733228 6.87070344,3.05861713 C6.92932456,3.03109865 7.18434507,2.98349912 7.2142157,2.94445263 C7.2142157,2.94445263 7.30756143,2.82024759 7.50508098,2.82024759 C7.71604231,2.80797584 7.93036409,2.81764449 8.14057866,2.83772555 C8.33137732,2.85631912 8.52142921,2.88606882 8.70625374,2.9370152 C8.93289715,2.99911772 9.16178087,3.11476971 9.38282354,3.20030012 C9.5452451,3.26314638 9.70057238,3.34458621 9.84357803,3.44387586 C10.2658741,3.73691049 10.4999851,4.15638137 10.5671941,4.66063893 C10.5671941,4.66063893 10.7019853,5.6736165 10.390584,6.85207683 C10.390584,6.85207683 10.9514051,6.56276092 10.5671941,7.77245843 C10.5671941,7.77245843 10.4633936,8.13428926 10.4428576,8.33063734 C10.4428576,8.33063734 10.4114934,8.84753852 10.0172011,8.59950033 L10.0172011,8.59950033 L10.0174951,8.65845393 C10.0167862,8.96058282 9.98591988,10.3237438 9.48774413,10.3882015 C9.48774413,10.3882015 9.42538919,11.9493175 9.78869074,12.1144284 C9.78869074,12.1144284 10.1310829,12.3732508 11.2628064,12.5900518 C11.2628064,12.5900518 12.3627075,13.0535469 13.037037,13.3659188 L12.9384938,13.3205806 C14.3660391,11.9949398 15.2592593,10.1017813 15.2592593,8 C15.2592593,3.99082182 12.0091782,0.740740741 8,0.740740741 Z" id="path-1"></path>
    </defs>
    <g id="Localisation" stroke="none" stroke-width="1" fill="none" fill-rule="evenodd">
        <g id="Web-Flotte/tracking/fleet/bottom-panel" transform="translate(-12.000000, -124.000000)">
            <g id="Driver" transform="translate(12.000000, 106.000000)">
                <g id="icones/Menu/driver" transform="translate(0.000000, 18.500000)">
                    <mask id="mask-2" fill="white">
                        <use xlink:href="#path-1"></use>
                    </mask>
                    <use id="User" fill="#817E7E" xlink:href="#path-1"></use>
                </g>
            </g>
        </g>
    </g>
</svg>