<?xml version="1.0" encoding="UTF-8"?>
<svg width="18px" height="18px" viewBox="0 0 18 18" version="1.1" xmlns="http://www.w3.org/2000/svg" xmlns:xlink="http://www.w3.org/1999/xlink">
    <title>90E2BB68-10FC-4E75-879A-3BBD0F8AE138</title>
    <defs>
        <path d="M9,0 C13.9705627,0 18,4.02943725 18,9 C18,13.9705627 13.9705627,18 9,18 C4.02943725,18 0,13.9705627 0,9 C0,4.02943725 4.02943725,0 9,0 Z M9.04736842,1.23157895 C4.73082709,1.23157895 1.23157895,4.73082709 1.23157895,9.04736842 C1.23157895,13.3639098 4.73082709,16.8631579 9.04736842,16.8631579 C13.3639098,16.8631579 16.8631579,13.3639098 16.8631579,9.04736842 C16.8631579,4.73082709 13.3639098,1.23157895 9.04736842,1.23157895 Z M9.81818182,6.95454545 L9.81818182,13.5 L10.6363636,13.5 L10.6363636,13.9090909 L7.36363636,13.9090909 L7.36363636,13.5 L8.18181818,13.5 L8.18181818,7.36363636 L7.36363636,7.36363636 L7.36363636,6.95454545 L9.81818182,6.95454545 Z M8.79545455,3.68181818 C9.36029122,3.68181818 9.81818182,4.13970878 9.81818182,4.70454545 C9.81818182,5.26938213 9.36029122,5.72727273 8.79545455,5.72727273 C8.23061787,5.72727273 7.77272727,5.26938213 7.77272727,4.70454545 C7.77272727,4.13970878 8.23061787,3.68181818 8.79545455,3.68181818 Z" id="path-1"></path>
    </defs>
    <g id="Home" stroke="none" stroke-width="1" fill="none" fill-rule="evenodd">
        <g id="Web-Flotte/Home/Fleet" transform="translate(-273.000000, -269.000000)">
            <g id="Statistiques/Home-KPI-full-width-Copy" transform="translate(124.000000, 150.000000)">
                <g id="icones/menu/Detail-Copy-3" transform="translate(149.000000, 119.000000)">
                    <mask id="mask-2" fill="white">
                        <use xlink:href="#path-1"></use>
                    </mask>
                    <use id="Detail" fill="#39A1D8" xlink:href="#path-1"></use>
                </g>
            </g>
        </g>
    </g>
</svg>