<?xml version="1.0" encoding="utf-8" ?>
<svg xmlns="http://www.w3.org/2000/svg" xmlns:xlink="http://www.w3.org/1999/xlink" width="11" height="24">
	<path fill="none" d="M0 0L11 0L11 24L0 24L0 0Z"/>
	<path fill="#01426A" transform="translate(0 3)" d="M9.8735352 9.4169922Q9.8703613 9.1789551 9.7799072 8.9790039Q9.6894531 8.7790527 9.4958496 8.588623L4.7001953 3.8913574Q4.411377 3.6057129 3.9924316 3.6057129Q3.7163086 3.6057129 3.4830322 3.7421875Q3.2497559 3.8786621 3.1116943 4.1071777Q2.9736328 4.3356934 2.9736328 4.6149902Q2.9736328 5.0371094 3.3005371 5.357666L7.4836426 9.4138184L3.3005371 13.476318Q2.9736328 13.803223 2.9736328 14.222168Q2.9736328 14.501465 3.1116943 14.72998Q3.2497559 14.958496 3.4830322 15.094971Q3.7163086 15.231445 3.9924316 15.231445Q4.411377 15.231445 4.7001953 14.942627L9.4958496 10.245361Q9.692627 10.054932 9.7830811 9.8533936Q9.8735352 9.6518555 9.8735352 9.4169922Z"/>
</svg>
