<?xml version="1.0" encoding="UTF-8"?>
<svg width="24px" height="25px" viewBox="0 0 24 25" version="1.1" xmlns="http://www.w3.org/2000/svg" xmlns:xlink="http://www.w3.org/1999/xlink">
    <title>C2A6B7D6-84FD-4A8D-A50D-99020F4A6A59</title>
    <g id="Vehicles" stroke="none" stroke-width="1" fill="none" fill-rule="evenodd">
        <g id="Web-Flotte/Vehicles/Security-bis" transform="translate(-721.000000, -341.000000)" stroke="#E9445A" stroke-width="2">
            <g id="Info-generales" transform="translate(124.000000, 265.000000)">
                <g id="Form-right" transform="translate(596.499569, 43.850158)">
                    <g id="Désamorçage-pompe-carburant" transform="translate(0.000431, -0.000158)">
                        <g id="Radio-btn" transform="translate(0.499569, 25.000000)">
                            <g id="Filter" transform="translate(0.000000, 8.000000)">
                                <path d="M12,1 C15.0364583,1 17.7864021,2.2318657 19.7772682,4.22273178 C21.7681343,6.21359786 23,8.96354167 23,12 C23,15.0364583 21.7681343,17.7864021 19.7772682,19.7772682 C17.7864021,21.7681343 15.0364583,23 12,23 C8.96354167,23 6.21359786,21.7681343 4.22273178,19.7772682 C2.2318657,17.7864021 1,15.0364583 1,12 C1,8.96354167 2.2318657,6.21359786 4.22273178,4.22273178 C6.21359786,2.2318657 8.96354167,1 12,1 Z" id="Path"></path>
                                <path d="M12.5349027,11.9999406 L16.3893509,8.14553052 C16.536685,7.99772268 16.5369226,7.75842608 16.3893509,7.61085588 C16.2410664,7.46304804 16.002005,7.46304804 15.8541957,7.61085588 L11.9999851,11.4650283 L8.14553691,7.61085588 C7.99844052,7.46304804 7.75842863,7.46304804 7.61085697,7.61085588 C7.46304768,7.75842608 7.46304768,7.99772268 7.61085697,8.14553052 L11.4650676,11.9999406 L7.61109461,15.8538754 C7.46328531,16.0016832 7.46328531,16.2409798 7.61109461,16.3890253 C7.68499926,16.4626916 7.78171692,16.5 7.87843458,16.4997624 C7.97538987,16.5 8.07210753,16.4626916 8.14577454,16.3890253 L11.9999851,12.5348529 L15.8541957,16.3890253 C15.9281004,16.4626916 16.0250557,16.5 16.1217733,16.5 C16.2182534,16.5 16.3152087,16.4626916 16.3893509,16.3890253 C16.5369226,16.2409798 16.5369226,16.0016832 16.3891133,15.8538754 L12.5349027,11.9999406 Z" id="Shape" stroke-linejoin="round"></path>
                            </g>
                        </g>
                    </g>
                </g>
            </g>
        </g>
    </g>
</svg>