<?xml version="1.0" encoding="UTF-8"?>
<svg width="22px" height="16px" viewBox="0 0 22 16" version="1.1" xmlns="http://www.w3.org/2000/svg" xmlns:xlink="http://www.w3.org/1999/xlink">
    <title>6696DAB3-6A1F-47B8-B0C7-59DBA0B7A4E4</title>
    <g id="Localisation" stroke="none" stroke-width="1" fill="none" fill-rule="evenodd">
        <g id="Web-Flotte/tracking/Fleet" transform="translate(-496.000000, -984.000000)">
            <g id="map/map-copy" transform="translate(124.000000, 153.000000)">
                <g id="Group" transform="translate(368.000000, 770.000000)">
                    <g id="data-vehicle" transform="translate(4.000000, 32.000000)">
                        <g id="Group" transform="translate(0.000000, 29.000000)">
                            <g id="pin-copy" transform="translate(11.305556, 8.000000) scale(-1, 1) translate(-11.305556, -8.000000) translate(6.111111, 0.000000)">
                                <path d="M5.19444444,0 C2.33022778,0 0,2.523375 0,5.625 C0,6.6729375 0.268062191,7.695625 0.775386265,8.582875 L4.89876512,15.7784063 C4.97774954,15.91625 5.11690293,16 5.26656065,16 C5.26771497,16 5.26884043,16 5.26999475,16 C5.42095108,15.9987188 5.56039306,15.912375 5.63793457,15.772125 L9.6562125,8.506875 C10.1355443,7.638375 10.3888889,6.64184375 10.3888889,5.625 C10.3888889,2.523375 8.05866111,0 5.19444444,0 Z" id="Shape" fill="#817E7E"></path>
                                <path d="M5.19444444,2.46153846 C3.67809444,2.46153846 2.44444444,3.84184615 2.44444444,5.53846154 C2.44444444,7.22423932 3.65801944,8.61538462 5.19444444,8.61538462 C6.74981389,8.61538462 7.94444444,7.2057094 7.94444444,5.53846154 C7.94444444,3.84184615 6.71079444,2.46153846 5.19444444,2.46153846 Z M5.19444444,7.5965812 C4.17825833,7.5965812 3.355,6.67237607 3.355,5.53846154 C3.355,4.40738462 4.18354444,3.48034188 5.19444444,3.48034188 C6.20534444,3.48034188 7.03083333,4.40738462 7.03083333,5.53846154 C7.03083333,6.65582906 6.22673333,7.5965812 5.19444444,7.5965812 Z" id="Shape" fill="#FFFFFF"></path>
                            </g>
                        </g>
                    </g>
                </g>
            </g>
        </g>
    </g>
</svg>