<?xml version="1.0" encoding="UTF-8"?>
<svg width="16px" height="12px" viewBox="0 0 16 12" version="1.1" xmlns="http://www.w3.org/2000/svg" xmlns:xlink="http://www.w3.org/1999/xlink">
    <title>4DDA333E-F182-45F6-B9A4-E1032AD6DDF9</title>
    <defs>
        <path d="M14.6480118,1.24367748 L7.96173814,6.08013327 C7.58210468,6.36984871 7.08456199,6.36984871 6.72608787,6.09586775 L0.0186460395,1.24376651 C0.0450088831,0.977229396 0.0989525346,0.830074197 0.178088469,0.682102864 C0.294293198,0.464818914 0.464818914,0.294293198 0.682102864,0.178088469 C0.899386815,0.0618837408 1.11491097,0 1.7092568,0 L12.9574099,0 C13.5517557,0 13.7672799,0.0618837408 13.9845638,0.178088469 C14.2018478,0.294293198 14.3723735,0.464818914 14.4885782,0.682102864 C14.5677053,0.83005772 14.6216458,0.977196625 14.6480118,1.24367748 L14.6480118,1.24367748 Z M14.6666667,2.46437254 L14.6666667,8.95740987 C14.6666667,9.55175569 14.6047829,9.76727985 14.4885782,9.9845638 C14.3723735,10.2018478 14.2018478,10.3723735 13.9845638,10.4885782 C13.7672799,10.6047829 13.5517557,10.6666667 12.9574099,10.6666667 L1.7092568,10.6666667 C1.11491097,10.6666667 0.899386815,10.6047829 0.682102864,10.4885782 C0.464818914,10.3723735 0.294293198,10.2018478 0.178088469,9.9845638 C0.0618837408,9.76727985 0,9.55175569 0,8.95740987 L0,2.46437254 L6.1188424,6.89038203 C6.83579064,7.43834395 7.83087603,7.43834395 8.54782427,6.89038203 L14.6666667,2.46437254 Z" id="path-1"></path>
    </defs>
    <g id="Alert" stroke="none" stroke-width="1" fill="none" fill-rule="evenodd">
        <g id="Web-Flotte/Alert/Detail/fourriere" transform="translate(-139.000000, -126.000000)">
            <g id="icones/Menu/mobile-Copy" transform="translate(139.666667, 126.666667)">
                <mask id="mask-2" fill="white">
                    <use xlink:href="#path-1"></use>
                </mask>
                <use id="Icon" fill="#000000" xlink:href="#path-1"></use>
                <g id="Group" mask="url(#mask-2)">
                    <g transform="translate(-0.666667, -2.666667)" id="Color">
                        <rect fill="#817E7E" x="0" y="0" width="16" height="16"></rect>
                    </g>
                </g>
            </g>
        </g>
    </g>
</svg>