<?xml version="1.0" encoding="utf-8" ?>
<svg xmlns="http://www.w3.org/2000/svg" xmlns:xlink="http://www.w3.org/1999/xlink" width="23" height="23">
	<path fill="white" d="M23 11.5Q23 11.782309 22.986149 12.064278Q22.972298 12.346247 22.944626 12.627196Q22.916954 12.908146 22.87553 13.1874Q22.834106 13.466653 22.77903 13.743538Q22.723953 14.020422 22.655357 14.294271Q22.586763 14.568121 22.504814 14.838274Q22.422863 15.108426 22.327757 15.374231Q22.232651 15.640038 22.124615 15.900858Q22.016579 16.161678 21.895878 16.416882Q21.775173 16.672089 21.642094 16.921062Q21.509014 17.170036 21.363878 17.412182Q21.218742 17.654325 21.061899 17.889057Q20.905056 18.123787 20.736885 18.35054Q20.568714 18.577293 20.38962 18.795523Q20.210524 19.01375 20.020935 19.222927Q19.831348 19.432104 19.631725 19.631727Q19.432102 19.831348 19.222925 20.020937Q19.013748 20.210526 18.795521 20.38962Q18.577293 20.568714 18.35054 20.736887Q18.123787 20.905058 17.889057 21.061901Q17.654325 21.218742 17.412182 21.36388Q17.170036 21.509018 16.921062 21.642097Q16.672089 21.775177 16.416883 21.89588Q16.161678 22.016581 15.900858 22.124615Q15.640038 22.232651 15.374231 22.327757Q15.108425 22.422865 14.838273 22.504816Q14.56812 22.586765 14.294271 22.655361Q14.020422 22.723957 13.743538 22.779032Q13.466653 22.834108 13.1874 22.87553Q12.908146 22.916954 12.627197 22.944626Q12.346247 22.972296 12.064279 22.986149Q11.782309 23 11.5 23Q11.217691 23 10.935722 22.986147Q10.653752 22.972296 10.372803 22.944626Q10.091852 22.916954 9.8125992 22.87553Q9.5333462 22.834106 9.2564611 22.77903Q8.9795761 22.723953 8.7057276 22.655357Q8.431879 22.586763 8.161726 22.504814Q7.891573 22.422863 7.6257663 22.327757Q7.3599601 22.232651 7.0991402 22.124615Q6.8383207 22.016579 6.5831156 21.895878Q6.3279114 21.775173 6.0789375 21.642094Q5.8299627 21.509014 5.5878181 21.363878Q5.3456736 21.218742 5.1109419 21.061899Q4.8762102 20.905056 4.6494575 20.736885Q4.4227047 20.568714 4.2044773 20.38962Q3.9862492 20.210524 3.7770717 20.020935Q3.5678945 19.831348 3.3682718 19.631725Q3.1686492 19.432102 2.9790618 19.222925Q2.7894747 19.013748 2.6103797 18.795521Q2.4312847 18.577293 2.2631133 18.35054Q2.0949419 18.123787 1.9380991 17.889057Q1.7812567 17.654325 1.6361208 17.412182Q1.4909849 17.170036 1.3579054 16.921062Q1.2248256 16.672089 1.104123 16.416883Q0.98342025 16.161678 0.87538522 15.900858Q0.7673502 15.640038 0.67224318 15.374231Q0.5771361 15.108425 0.49518609 14.838273Q0.41323608 14.56812 0.34464052 14.294271Q0.27604502 14.020422 0.22096923 13.743538Q0.16589347 13.466653 0.12447011 13.1874Q0.083046764 12.908146 0.055375636 12.627197Q0.027704503 12.346247 0.013852252 12.064279Q0 11.782309 0 11.5Q0 11.217691 0.013852252 10.935722Q0.027704503 10.653752 0.055375636 10.372803Q0.083046764 10.091852 0.12447011 9.8125992Q0.16589347 9.5333462 0.22096923 9.2564611Q0.27604502 8.9795761 0.34464052 8.7057276Q0.41323608 8.431879 0.49518609 8.161726Q0.5771361 7.891573 0.67224312 7.6257663Q0.7673502 7.3599601 0.87538522 7.0991402Q0.98342025 6.8383207 1.1041229 6.5831156Q1.2248256 6.3279114 1.3579053 6.0789375Q1.4909849 5.8299627 1.6361208 5.5878181Q1.7812567 5.3456736 1.9380991 5.1109419Q2.0949419 4.8762102 2.2631133 4.6494575Q2.4312847 4.4227047 2.6103797 4.2044773Q2.7894747 3.9862492 2.9790618 3.7770717Q3.1686492 3.5678945 3.3682718 3.3682718Q3.5678945 3.1686492 3.777072 2.9790618Q3.9862492 2.7894747 4.2044773 2.6103797Q4.4227047 2.4312847 4.6494575 2.2631133Q4.8762102 2.0949419 5.1109419 1.9380991Q5.3456736 1.7812567 5.5878181 1.6361208Q5.8299627 1.4909849 6.0789375 1.3579054Q6.3279114 1.2248256 6.5831161 1.104123Q6.8383203 0.98342025 7.0991397 0.87538522Q7.3599596 0.7673502 7.6257658 0.67224318Q7.8915725 0.5771361 8.161726 0.49518609Q8.431879 0.41323608 8.7057276 0.34464052Q8.9795761 0.27604502 9.2564611 0.22096923Q9.5333462 0.16589347 9.8125992 0.12447011Q10.091853 0.083046764 10.372804 0.055375636Q10.653753 0.027704503 10.935722 0.013852252Q11.217691 0 11.5 0Q11.782309 0 12.064278 0.013852252Q12.346247 0.027704503 12.627196 0.055375636Q12.908146 0.083046764 13.1874 0.12447011Q13.466653 0.16589347 13.743538 0.22096923Q14.020422 0.27604502 14.294271 0.34464052Q14.568121 0.41323608 14.838274 0.49518609Q15.108426 0.5771361 15.374231 0.67224312Q15.640038 0.7673502 15.900858 0.87538522Q16.161678 0.98342025 16.416882 1.1041229Q16.672089 1.2248256 16.921062 1.3579053Q17.170036 1.4909849 17.412182 1.6361208Q17.654325 1.7812567 17.889057 1.9380991Q18.123787 2.0949419 18.35054 2.2631133Q18.577293 2.4312847 18.795523 2.6103797Q19.01375 2.7894747 19.222927 2.9790618Q19.432104 3.1686492 19.631727 3.3682718Q19.831348 3.5678945 20.020937 3.777072Q20.210526 3.9862492 20.38962 4.2044773Q20.568714 4.4227047 20.736887 4.6494575Q20.905058 4.8762102 21.061901 5.1109419Q21.218742 5.3456736 21.36388 5.5878181Q21.509018 5.8299627 21.642097 6.0789375Q21.775177 6.3279114 21.89588 6.5831161Q22.016581 6.8383203 22.124615 7.0991397Q22.232651 7.3599596 22.327757 7.6257658Q22.422865 7.8915725 22.504816 8.161726Q22.586765 8.431879 22.655361 8.7057276Q22.723957 8.9795761 22.779032 9.2564611Q22.834108 9.5333462 22.87553 9.8125992Q22.916954 10.091853 22.944626 10.372804Q22.972298 10.653753 22.986149 10.935722Q23 11.217691 23 11.5Z"/>
	<path fill="#39A1D8" transform="translate(2.65385 2.65385)" d="M7.8460469 9.8178625L0.9717083 9.8178625C0.43504864 9.8178625 3.2860928e-17 9.3828135 0 8.8461542C-6.5721855e-17 8.309494 0.43504864 7.8744454 0.9717083 7.8744454L7.8460469 7.8744454L7.8460469 7.8744454L7.8460469 1.0001068C7.8460469 0.44776309 8.2938099 7.4263393e-15 8.8461542 0C9.3984976 -1.014639e-16 9.846261 0.44776309 9.846261 1.0001068L9.846261 7.8744454L9.846261 7.8744454L16.7206 7.8744454C17.257259 7.8744454 17.692308 8.309494 17.692308 8.8461542C17.692308 9.3828135 17.257259 9.8178625 16.7206 9.8178625L9.846261 9.8178625L9.846261 9.8178625L9.846261 16.692202C9.846261 17.244545 9.3984976 17.692308 8.8461542 17.692308C8.2938099 17.692308 7.8460469 17.244545 7.8460469 16.692202L7.8460469 9.8178625L7.8460469 9.8178625Z" fill-rule="evenodd"/>
</svg>
