<?xml version="1.0" encoding="UTF-8"?>
<svg xmlns="http://www.w3.org/2000/svg" xmlns:xlink="http://www.w3.org/1999/xlink" width="48px" height="35px" viewBox="0 0 48 35" version="1.1">
<g id="surface1">
<path style=" stroke:none;fill-rule:evenodd;fill:rgb(22.352941%,63.137255%,84.705882%);fill-opacity:1;" d="M 24.667969 0 C 30.914062 0 36 5.519531 36 12.304688 C 36 14.597656 35.414062 16.835938 34.308594 18.773438 L 25.3125 34.515625 C 25.140625 34.816406 24.835938 35 24.507812 35 C 24.507812 35 24.503906 35 24.5 35 C 24.171875 34.996094 23.867188 34.808594 23.699219 34.5 L 14.933594 18.609375 C 13.886719 16.707031 13.332031 14.527344 13.332031 12.304688 C 13.332031 5.519531 18.417969 0 24.667969 0 Z M 24.667969 0 "/>
<path style=" stroke:none;fill-rule:evenodd;fill:rgb(100%,100%,100%);fill-opacity:1;" d="M 24.667969 5.382812 C 27.976562 5.382812 30.667969 8.402344 30.667969 12.117188 C 30.667969 15.804688 28.019531 18.847656 24.667969 18.847656 C 21.273438 18.847656 18.667969 15.761719 18.667969 12.117188 C 18.667969 8.402344 21.359375 5.382812 24.667969 5.382812 Z M 24.667969 16.617188 C 26.882812 16.617188 28.679688 14.597656 28.679688 12.117188 C 28.679688 9.640625 26.871094 7.613281 24.667969 7.613281 C 22.460938 7.613281 20.660156 9.640625 20.660156 12.117188 C 20.660156 14.558594 22.414062 16.617188 24.667969 16.617188 Z M 24.667969 16.617188 "/>
</g>
</svg>
