<?xml version="1.0" encoding="UTF-8"?>
<svg xmlns="http://www.w3.org/2000/svg" xmlns:xlink="http://www.w3.org/1999/xlink" width="48px" height="35px" viewBox="0 0 24 35" version="1.1">
<g id="surface1">
<path style=" stroke:none;fill-rule:evenodd;fill:rgb(40.784314%,81.960784%,36.078431%);fill-opacity:1;" d="M 11.574219 0 C 17.824219 0 22.910156 5.519531 22.910156 12.304688 C 22.910156 14.597656 22.324219 16.835938 21.21875 18.773438 L 12.222656 34.515625 C 12.046875 34.816406 11.746094 35 11.417969 35 C 11.414062 35 11.414062 35 11.410156 35 C 11.082031 34.996094 10.777344 34.808594 10.609375 34.5 L 1.839844 18.609375 C 0.796875 16.707031 0.242188 14.527344 0.242188 12.304688 C 0.242188 5.519531 5.328125 0 11.574219 0 Z M 11.574219 0 "/>
<path style=" stroke:none;fill-rule:evenodd;fill:rgb(100%,100%,100%);fill-opacity:1;" d="M 11.574219 5.382812 C 14.882812 5.382812 17.574219 8.402344 17.574219 12.117188 C 17.574219 15.804688 14.929688 18.847656 11.574219 18.847656 C 8.183594 18.847656 5.574219 15.761719 5.574219 12.117188 C 5.574219 8.402344 8.265625 5.382812 11.574219 5.382812 Z M 11.574219 16.617188 C 13.792969 16.617188 15.589844 14.597656 15.589844 12.117188 C 15.589844 9.640625 13.78125 7.613281 11.574219 7.613281 C 9.371094 7.613281 7.570312 9.640625 7.570312 12.117188 C 7.570312 14.558594 9.324219 16.617188 11.574219 16.617188 Z M 11.574219 16.617188 "/>
</g>
</svg>
