<?xml version="1.0" encoding="UTF-8"?>
<svg width="44px" height="44px" viewBox="0 0 44 44" version="1.1" xmlns="http://www.w3.org/2000/svg" xmlns:xlink="http://www.w3.org/1999/xlink">
    <title>0771B342-0E40-4B38-B00F-4FE2FCFCE43E</title>
    <g id="Statistics" stroke="none" stroke-width="1" fill="none" fill-rule="evenodd">
        <g id="Web-Flotte/Statistiques-KPI" transform="translate(-1356.000000, -90.000000)" stroke="#3AA1D8" stroke-width="2">
            <g id="Filter" transform="translate(1356.000000, 90.000000)">
                <path d="M22,1 C27.796875,1 33.0468188,3.35165737 36.8475807,7.15241928 C40.6483426,10.9531812 43,16.203125 43,22 C43,27.796875 40.6483426,33.0468188 36.8475807,36.8475807 C33.0468188,40.6483426 27.796875,43 22,43 C16.203125,43 10.9531812,40.6483426 7.15241928,36.8475807 C3.35165737,33.0468188 1,27.796875 1,22 C1,16.203125 3.35165737,10.9531812 7.15241928,7.15241928 C10.9531812,3.35165737 16.203125,1 22,1 Z" id="Path"></path>
                <path d="M9.16666667,16.5114583 L34.8333333,16.5114583 M12.8333333,23.8447917 L31.1666667,23.8447917 M18.3333333,31.178125 L25.6666667,31.178125" id="Shape" fill="#39A1D8" stroke-linecap="round"></path>
            </g>
        </g>
    </g>
</svg>