<?xml version="1.0" encoding="UTF-8"?>
<svg width="43px" height="38px" viewBox="0 0 43 38" version="1.1" xmlns="http://www.w3.org/2000/svg" xmlns:xlink="http://www.w3.org/1999/xlink">
    <title>2CA71F6D-6632-4D33-B5A9-37F9AAC6A76A</title>
    <g id="FMS" stroke="none" stroke-width="1" fill="none" fill-rule="evenodd">
        <g id="Web-Flotte/Vehicles/Diag" transform="translate(-1353.000000, -6.000000)" fill="#3AA1D8">
            <g id="Button/secondary/icon/active" transform="translate(1353.000000, 6.666667)">
                <g id="Group" transform="translate(0.000000, -0.000000)">
                    <path d="M20.3626134,35.9704615 C14.7973095,37.8307901 8.59597094,35.9704615 5.09777995,31.0095852 C4.77976258,30.544503 4.77976258,29.7693661 5.41579731,29.1492566 C6.05183203,28.529147 7.00588412,28.8392018 7.64191885,29.6143387 C10.1860577,33.3349959 15.1153269,34.8852698 19.56757,33.3349959 C23.0657609,32.2498042 25.6098998,29.3042839 26.4049433,25.8936815 L25.6098998,26.8238458 C24.9738651,27.2889279 24.019813,27.2889279 23.542787,26.8238458 C23.0657609,26.3587636 22.9067523,25.2735719 23.7017957,24.6534624 L27.3589953,21.3978873 C27.3589953,21.3978873 27.9950301,20.7777778 28.4720561,20.7777778 C28.9490822,20.7777778 29.4261082,21.5529147 29.4261082,21.5529147 L32.7652905,25.2735719 C33.0833079,25.5836267 33.2423165,26.513791 32.4472731,27.1339005 C31.8112384,27.5989827 30.6981776,27.4439553 30.3801603,26.9788732 L29.4261082,25.8936815 C28.3130474,30.3894756 24.9738651,34.2651602 20.3626134,35.9704615 Z" id="Path"></path>
                    <path d="M19.7172622,13.9081185 C19.7172622,15.0810924 20.5257955,16.0864985 21.4960354,16.2540662 L21.4960354,16.2540662 L21.4960354,19.102717 C21.4960354,19.7729878 21.8194487,20.4432585 22.4662753,20.4432585 L24.0833419,20.4432585 C24.5684619,20.4432585 25.0535818,19.7729878 25.0535818,19.102717 L25.0535818,16.2540662 L25.0535818,16.2540662 L37.181581,16.2540662 L37.181581,16.2540662 L37.181581,19.102717 C37.181581,19.7729878 37.5049943,20.4432585 38.1518209,20.4432585 L39.7688874,20.4432585 C40.2540074,20.4432585 40.7391274,19.7729878 40.7391274,19.102717 L40.7391274,16.2540662 L40.7391274,16.2540662 C41.7093673,16.0864985 42.5179006,15.0810924 42.5179006,13.7405508 L42.5179006,11.0594677 C42.5179006,10.2216293 42.3561939,9.3837908 41.871074,8.54595234 L41.5476606,7.70811387 L42.1944873,7.70811387 C42.6796072,7.70811387 43.0030205,7.20541079 43.0030205,6.70270772 C43.0030205,6.20000464 42.6796072,5.69730156 42.1944873,5.69730156 L40.5774207,5.69730156 L38.9603542,2.51351539 C38.1518209,1.00540616 36.696461,0 35.0793944,0 L27.4791817,0 C25.8621151,0 24.4067552,1.00540616 23.5982219,2.51351539 L21.9811554,5.69730156 L20.3640888,5.69730156 C19.8789689,5.69730156 19.5555556,6.20000464 19.5555556,6.70270772 C19.5555556,7.20541079 19.8789689,7.70811387 20.3640888,7.70811387 L21.0109155,7.70811387 L20.3640888,8.54595234 C20.0406755,9.04865542 19.8789689,9.71892619 19.8789689,10.389197 L19.7172622,13.9081185 Z M23.7599286,5.86486925 L24.8918752,3.68648924 C25.3769951,2.68108309 26.3472351,2.17838001 27.317475,2.17838001 L35.0793944,2.17838001 C36.0496344,2.17838001 37.0198743,2.84865078 37.5049943,3.68648924 L38.6369409,5.86486925 L23.7599286,5.86486925 Z M37.3432876,13.2378477 C36.211341,13.2378477 35.2411011,12.2324416 35.2411011,11.0594677 C35.2411011,9.88649388 36.211341,8.88108772 37.3432876,8.88108772 C38.4752342,8.88108772 39.4454741,9.88649388 39.4454741,11.0594677 C39.4454741,12.2324416 38.4752342,13.2378477 37.3432876,13.2378477 Z M24.8918752,13.2378477 C23.7599286,13.2378477 22.7896887,12.2324416 22.7896887,11.0594677 C22.7896887,9.88649388 23.7599286,8.88108772 24.8918752,8.88108772 C26.0238218,8.88108772 26.9940617,9.88649388 26.9940617,11.0594677 C26.9940617,12.2324416 26.0238218,13.2378477 24.8918752,13.2378477 Z" id="Shape" fill-rule="nonzero"></path>
                    <path d="M16.4132255,11.9389853 C16.4132255,12.2477292 16.1024826,12.5564731 15.7917398,12.5564731 C14.8595111,12.5564731 14.082654,12.865217 13.1504254,13.173961 C9.73225379,14.2545647 7.40168227,17.187632 6.46945366,20.5838152 L7.24631083,19.6575834 C7.86779657,19.1944675 8.80002518,19.1944675 9.26613949,19.6575834 C9.73225379,20.1206993 9.88762523,21.201303 9.11076805,21.8187909 L5.53722505,25.0606021 C5.53722505,25.0606021 4.91573931,25.67809 4.44962501,25.67809 C3.9835107,25.67809 3.5173964,24.9062302 3.5173964,24.9062302 L0.254596266,21.201303 C-0.0561466041,20.8925591 -0.211518039,19.9663273 0.565339135,19.3488395 C1.34219631,18.7313516 2.27442492,19.0400956 2.58516779,19.5032114 L3.5173964,20.5838152 C4.29425357,16.1070283 7.5570537,12.0933572 12.0628253,10.3952656 C13.1504254,10.0865217 14.3933968,9.77777778 15.4809969,9.77777778 C15.7917398,9.77777778 16.1024826,10.0865217 16.1024826,10.3952656 L16.4132255,11.9389853 Z" id="Path"></path>
                </g>
            </g>
        </g>
    </g>
</svg>