<?xml version="1.0" encoding="UTF-8"?>
<svg width="16px" height="16px" viewBox="0 0 16 16" version="1.1" xmlns="http://www.w3.org/2000/svg" xmlns:xlink="http://www.w3.org/1999/xlink">
    <title>3A61318E-DD76-4A12-AD59-0DE2995BA1B5</title>
    <g id="Alert" stroke="none" stroke-width="1" fill="none" fill-rule="evenodd">
        <g id="Web-Flotte/Alert/Detail/fourriere" transform="translate(-139.000000, -104.000000)" fill="#817E7E">
            <g id="icones/Menu/mobile" transform="translate(139.000000, 103.500000)">
                <g id="call_off-copy" transform="translate(0.888889, 0.888889)">
                    <path d="M14.2794642,11.3149574 L11.3121088,9.33551042 C10.9340288,9.08628917 10.4299221,9.16936292 10.1520906,9.52457482 L9.28708928,10.6360443 C9.17538382,10.7821395 8.97488684,10.8251087 8.81448925,10.7363057 L8.65122742,10.6446381 C8.10702132,10.3467185 7.42819582,9.97718352 6.05908785,8.61076357 C4.68997988,7.24434361 4.32049259,6.56543055 4.0254756,6.01828964 L3.93668408,5.85500675 C3.84502831,5.69458848 3.88799195,5.49120102 4.03406832,5.37948115 L5.14539446,4.5143683 C5.50056054,4.23650093 5.58362358,3.7294646 5.33443447,3.35420041 L3.34951434,0.386462308 C3.09459675,0.00260429057 2.58189732,-0.114844804 2.18949608,0.122917998 L0.949279028,0.867717136 C0.559742032,1.0968861 0.27331777,1.46928567 0.150155338,1.90470671 C-0.29666651,3.53467097 0.0384498758,6.34485542 4.1801447,10.4870845 C7.47402371,13.7813884 9.92581538,14.6666667 11.6128543,14.6666667 C11.999527,14.6694181 12.3861998,14.6178551 12.7614156,14.5175937 C13.1967805,14.3944153 13.569132,14.1079541 13.7982714,13.7183669 L14.5458387,12.4779899 C14.7807066,12.0826734 14.6632727,11.5727724 14.2794642,11.3149574 Z" id="Path"></path>
                    <path d="M8.24358473,2.26494725 C10.5390126,2.26781295 12.3988537,4.12765403 12.4017194,6.42308193 C12.4017194,6.55776996 12.5106161,6.66666667 12.6453042,6.66666667 C12.7799922,6.66666667 12.8888889,6.55776996 12.8888889,6.42308193 C12.8860232,3.85827797 10.8083887,1.78064348 8.24358473,1.77777778 C8.1088967,1.77777778 8,1.88667448 8,2.02136251 C8,2.15605054 8.106031,2.26494725 8.24358473,2.26494725 Z" id="Path"></path>
                    <path d="M8.25311744,3.61734599 C9.79564489,3.62032384 11.0463428,4.87102178 11.0493207,6.41354923 C11.0493207,6.55350828 11.1624791,6.66666667 11.3024381,6.66666667 C11.4423972,6.66666667 11.5555556,6.55350828 11.5555556,6.41354923 C11.5525777,4.59110367 10.075563,3.11111111 8.25311744,3.11111111 C8.11315838,3.11111111 8,3.2242695 8,3.36422855 C8,3.5041876 8.11018053,3.61734599 8.25311744,3.61734599 Z" id="Path"></path>
                    <path d="M8.27696318,4.9983708 C9.0459433,4.9983708 9.66503747,5.62072336 9.66829586,6.38970349 C9.66829586,6.54284783 9.7921147,6.66666667 9.94525904,6.66666667 C10.0984034,6.66666667 10.2222222,6.54284783 10.2222222,6.38970349 C10.2222222,5.31443467 9.34897361,4.44444444 8.27696318,4.44444444 C8.12381883,4.44444444 8,4.56826328 8,4.72140762 C8,4.87455197 8.12056044,4.9983708 8.27696318,4.9983708 Z" id="Path"></path>
                </g>
            </g>
        </g>
    </g>
</svg>