<?xml version="1.0" encoding="utf-8" ?>
<svg xmlns="http://www.w3.org/2000/svg" xmlns:xlink="http://www.w3.org/1999/xlink" width="16" height="16">
	<path fill="#817E7E" d="M8 0C12.418278 0 16 3.581722 16 8C16 12.418278 12.418278 16 8 16C3.581722 16 0 12.418278 0 8C0 3.581722 3.581722 0 8 0ZM8 0.74074072C3.9908218 0.74074072 0.74074072 3.9908218 0.74074072 8C0.74074072 10.273711 1.7860721 12.303271 3.4223638 13.634311C3.7847855 13.401297 4.096694 13.049669 4.503541 12.801189C4.6759939 12.695865 5.1728468 12.534786 5.3617783 12.482724C5.6686993 12.39831 6.1201191 12.358891 6.2519231 12.014539C6.2519231 12.014539 6.4281597 11.328664 6.3557234 10.398242C6.3557234 10.398242 5.6676636 10.315686 5.7404733 8.7237053C5.7404733 8.7237053 5.3043623 9.085536 5.200562 8.1859798C5.200562 8.1859798 5.0863066 7.5656981 5.0034156 7.4519053C5.0034156 7.4519053 4.7749052 6.8420362 5.1901069 6.9245915C5.1901069 6.9245915 5.1172972 5.7253065 5.0657706 5.4564438C5.0209646 5.2251396 5.0471015 4.9544172 5.0878 4.7253447C5.1236448 4.5252776 5.1867466 4.3244672 5.3013754 4.15415C5.432806 3.9592896 5.6665435 3.8685529 5.8506212 3.7331917C6.086226 3.5598998 6.3113761 3.368386 6.5645294 3.2200093C6.6642227 3.1619973 6.7661562 3.1073322 6.8707032 3.0586171C6.9293246 3.0310986 7.1843452 2.9834991 7.2142158 2.9444525C7.2142158 2.9444525 7.3075614 2.8202477 7.5050812 2.8202477C7.7160425 2.8079758 7.9303641 2.8176446 8.1405783 2.8377256C8.331377 2.8563192 8.5214291 2.8860688 8.706254 2.9370153C8.9328976 2.9991176 9.1617813 3.1147697 9.3828239 3.2003002C9.5452452 3.2631464 9.700572 3.3445861 9.8435783 3.4438758C10.265874 3.7369106 10.499985 4.1563816 10.567194 4.6606388C10.567194 4.6606388 10.701985 5.6736164 10.390584 6.852077C10.390584 6.852077 10.951406 6.5627608 10.567194 7.7724586C10.567194 7.7724586 10.463393 8.1342888 10.442858 8.330637C10.442858 8.330637 10.411493 8.8475389 10.017201 8.5995007L10.017495 8.6584539C10.016787 8.9605827 9.98592 10.323744 9.4877443 10.388202C9.4877443 10.388202 9.4253893 11.949318 9.7886906 12.114429C9.7886906 12.114429 10.131083 12.373251 11.262806 12.590052C11.262806 12.590052 12.362707 13.053547 13.037037 13.365919L12.938494 13.32058C14.366039 11.99494 15.259259 10.101781 15.259259 8C15.259259 3.9908218 12.009178 0.74074072 8 0.74074072Z" fill-rule="evenodd"/>
</svg>
