<?xml version="1.0" encoding="utf-8" ?>
<svg xmlns="http://www.w3.org/2000/svg" xmlns:xlink="http://www.w3.org/1999/xlink" width="24" height="20">
	<path fill="white" transform="translate(0.0964365 0)" d="M22.064959 16.831688L12.896144 1.0104818C12.534917 0.38720375 11.875985 0 11.176452 0C10.476917 0 9.8179855 0.38720375 9.4567146 1.0105273L0.2879445 16.831688C-0.085376002 17.475908 -0.096421503 18.283022 0.25908646 18.938051C0.61468178 19.593082 1.2846591 20 2.0076373 20L20.345264 20C21.068243 20 21.738264 19.593082 22.093861 18.938005C22.449368 18.28293 22.438322 17.475817 22.064959 16.831688ZM20.826639 18.193443C20.728758 18.373735 20.544302 18.4858 20.345264 18.4858L2.0076373 18.4858C1.8086001 18.4858 1.6241446 18.373781 1.5263067 18.193489C1.4284252 18.013151 1.4314814 17.790932 1.5342089 17.613636L10.703067 1.7924299C10.80252 1.6208593 10.983919 1.5142465 11.176495 1.5142465C11.369027 1.5142465 11.550426 1.6208593 11.649879 1.7924299L20.818649 17.613636C20.921465 17.790976 20.92452 18.013151 20.826639 18.193443Z"/>
	<path fill="white" transform="translate(10.2569 5.78947)" d="M1.023044 0C0.44844276 0 0 0.31538817 0 0.8745023C0 2.5803983 0.19617105 5.0317488 0.19617105 6.7376909C0.19621636 7.1820807 0.57464659 7.3684211 1.0230894 7.3684211C1.3594214 7.3684211 1.8359145 7.1820807 1.8359145 6.7376909C1.8359145 5.031795 2.0320857 2.5804446 2.0320857 0.8745023C2.0320857 0.31543455 1.5696403 0 1.023044 0Z" fill-rule="evenodd"/>
	<path fill="white" transform="translate(10.2569 14.2105)" d="M1.0226777 0C0.43833339 0 0 0.47844478 0 1.0526316C0 1.6131157 0.43829045 2.1052632 1.0226777 2.1052632C1.5672126 2.1052632 2.0320857 1.6131157 2.0320857 1.0526316C2.0320857 0.47844478 1.5671695 0 1.0226777 0Z" fill-rule="evenodd"/>
</svg>
