<?xml version="1.0" encoding="UTF-8"?>
<svg width="33px" height="30px" viewBox="0 0 33 30" version="1.1" xmlns="http://www.w3.org/2000/svg" xmlns:xlink="http://www.w3.org/1999/xlink">
    <title>7D6CC8B6-EBD8-4B8E-8030-BB7BBE31580B</title>
    <defs>
        <path d="M16.5,0 C25.6126984,0 33,6.71572875 33,15 C33,23.2842712 25.6126984,30 16.5,30 C7.38730163,30 0,23.2842712 0,15 C0,6.71572875 7.38730163,0 16.5,0 Z M16.5,1.38888889 C8.23107,1.38888889 1.52777778,7.48279091 1.52777778,15 C1.52777778,19.2652265 3.68581582,23.0722378 7.06341994,25.5678775 C7.80763464,25.1258797 8.45041947,24.4675808 9.28855284,24.0022305 C9.644237,23.8047467 10.6689961,23.5027244 11.0586678,23.4051082 C11.6916918,23.2468304 12.6227454,23.172921 12.8945915,22.5272594 C12.8945915,22.5272594 13.2580797,21.2412454 13.1086799,19.4967039 C13.1086799,19.4967039 11.6895565,19.3419124 11.8397265,16.3569476 C11.8397265,16.3569476 10.9402471,17.0353804 10.7261587,15.3487113 C10.7261587,15.3487113 10.4905074,14.1856837 10.3195447,13.9723225 C10.3195447,13.9723225 9.84824213,12.8288181 10.7045958,12.9836095 C10.7045958,12.9836095 10.6599171,12.3145868 10.6020536,11.6245741 L10.5721689,11.2808187 C10.5312464,10.8281463 10.4867969,10.4141475 10.4481518,10.2308318 C10.3557395,9.79713684 10.4096466,9.28953244 10.4935878,8.86002103 C10.5675176,8.4848958 10.6976649,8.10837605 10.9340863,7.78903152 C11.2051622,7.42366792 11.6872462,7.25353677 12.0669066,6.99973457 C12.5528411,6.67481197 13.0172127,6.3157237 13.539342,6.03751744 C13.7449593,5.92874507 13.9551972,5.82624803 14.1708259,5.73490712 C14.2917319,5.68330997 14.8177117,5.59406085 14.8793199,5.52084867 C14.8793199,5.52084867 15.0718454,5.28796424 15.4792295,5.28796424 C15.9143373,5.2649547 16.3563759,5.28308343 16.7899435,5.3207354 C17.1834657,5.35559834 17.5754477,5.41137904 17.9566483,5.5069035 C18.4241004,5.62334572 18.896173,5.8401932 19.3520735,6.00056272 C19.687068,6.11839946 20.0074305,6.27109913 20.3023797,6.45726723 C21.1733653,7.00670716 21.6562194,7.79321508 21.7948378,8.738698 C21.7948378,8.738698 22.0728447,10.6380309 21.4305794,12.8476441 C21.4305794,12.8476441 22.5872729,12.3051767 21.7948378,14.5733596 L21.7948378,14.5733596 L21.7787833,14.6253183 C21.7282453,14.7908849 21.5736901,15.3131511 21.5383937,15.619945 C21.5383937,15.619945 21.4737051,16.5891347 20.6604772,16.1240631 L20.6604772,16.1240631 L20.6609877,16.1710201 C20.6633847,16.568032 20.6418297,19.3516243 19.5684723,19.4778779 C19.5684723,19.4778779 19.4398652,22.4049703 20.1891747,22.7145532 C20.1891747,22.7145532 20.8953584,23.1998453 23.2295382,23.6063472 C23.2295382,23.6063472 25.2880129,24.3949246 26.6854232,24.9759779 C29.6297852,22.4908405 31.4722222,18.9410222 31.4722222,15 C31.4722222,7.48279091 24.76893,1.38888889 16.5,1.38888889 Z" id="path-1"></path>
    </defs>
    <g id="Menu" stroke="none" stroke-width="1" fill="none" fill-rule="evenodd">
        <g id="Web-Flotte/Menu-unactivated" transform="translate(-33.000000, -382.000000)">
            <g id="Menu-Copy" transform="translate(0.000000, -32.000000)">
                <g id="Items" transform="translate(32.000000, 125.000000)">
                    <g id="Icones/Menu/home-outline" transform="translate(1.000000, 289.000000)">
                        <mask id="mask-2" fill="white">
                            <use xlink:href="#path-1"></use>
                        </mask>
                        <g id="User"></g>
                        <g id="Group" mask="url(#mask-2)" fill="#4D4D4D">
                            <g id="Color">
                                <rect id="color#4" x="0" y="0" width="33" height="30"></rect>
                            </g>
                        </g>
                    </g>
                </g>
            </g>
        </g>
    </g>
</svg>