<?xml version="1.0" encoding="UTF-8"?>
<svg width="32px" height="29px" viewBox="0 0 32 29" version="1.1" xmlns="http://www.w3.org/2000/svg" xmlns:xlink="http://www.w3.org/1999/xlink">
    <title>A2D2685A-718A-40F5-BAF7-1E6C0B735918</title>
    <g id="Home" stroke="none" stroke-width="1" fill="none" fill-rule="evenodd">
        <g id="Web-Flotte/Home/Fleet" transform="translate(-9.000000, -335.000000)" fill="#4D4D4D">
            <g id="Items" transform="translate(7.000000, 93.000000)">
                <g id="Group" transform="translate(1.000000, 241.000000)">
                    <g id="devis-copy-4" transform="translate(1.833333, 1.666667)">
                        <path d="M28.505014,17.2507226 C28.0801624,17.2507226 27.7358344,17.5590809 27.7358344,17.9395507 L27.7358344,24.0555906 C27.734332,25.1964621 26.7022493,26.1209985 25.4282957,26.1220748 L3.84589789,26.1220748 C2.57194421,26.1209985 1.53986144,25.1964621 1.53835916,24.0555906 L1.53835916,6.10543067 C1.53986144,4.96482824 2.57194421,4.04029181 3.84589789,4.03894646 L10.6753712,4.03894646 C11.1002228,4.03894646 11.4445508,3.73058824 11.4445508,3.35011839 C11.4445508,2.9699176 11.1002228,2.66129032 10.6753712,2.66129032 L3.84589789,2.66129032 C1.72284211,2.66344291 0.00240368618,4.20415753 0,6.10543067 L0,24.0558597 C0.00240368618,25.9571328 1.72284211,27.4978474 3.84589789,27.5 L25.4282957,27.5 C27.5513514,27.4978474 29.2717899,25.9571328 29.2741935,24.0558597 L29.2741935,17.9395507 C29.2741935,17.5590809 28.9298655,17.2507226 28.505014,17.2507226 Z" id="Path"></path>
                        <path d="M28.3452693,0.9167178 C27.0006306,-0.3055726 24.8206359,-0.3055726 23.4759971,0.9167178 L9.82577595,13.3249084 C9.73222808,13.4099444 9.66468228,13.5153565 9.62941506,13.6310923 L7.83437157,19.52194 C7.76054942,19.763464 7.83556699,20.0221038 8.0304336,20.1995111 C8.22559899,20.3766468 8.51012803,20.4448386 8.77582793,20.3780052 L15.2563356,18.7460206 C15.3836563,18.7139623 15.4996198,18.6525625 15.5931678,18.5675265 L29.24309,6.15906422 C30.5856367,4.93595876 30.5856367,2.95595147 29.24309,1.73284594 L28.3452693,0.9167178 Z M11.492901,13.7769847 L22.6645513,3.6215686 L26.26749,6.89667673 L15.0955408,17.0520928 L11.492901,13.7769847 Z M10.7732099,15.0897448 L13.6516755,17.7065711 L9.67006207,18.7093437 L10.7732099,15.0897448 Z M28.1611623,5.17558091 L27.3497166,5.91319341 L23.746479,2.63781362 L24.5582236,1.90020112 C25.3051124,1.22127159 26.516154,1.22127159 27.2630428,1.90020112 L28.1611623,2.71632926 C28.9068556,3.39607384 28.9068556,4.49610806 28.1611623,5.17558091 L28.1611623,5.17558091 Z" id="Shape" fill-rule="nonzero"></path>
                    </g>
                </g>
            </g>
        </g>
    </g>
</svg>