<?xml version="1.0" encoding="UTF-8"?>
<svg width="45px" height="41px" viewBox="0 0 45 41" version="1.1" xmlns="http://www.w3.org/2000/svg" xmlns:xlink="http://www.w3.org/1999/xlink">
    <title>15D5EADF-82F4-4498-A2D0-C532811DEEA9</title>
    <g id="Home" stroke="none" stroke-width="1" fill="none" fill-rule="evenodd">
        <g id="Web-Flotte/Home/Fleet" transform="translate(-3.000000, -230.000000)">
            <g id="Items" transform="translate(7.000000, 93.000000)">
                <g id="Group" transform="translate(1.000000, 145.000000)">
                    <g id="Icon-team" transform="translate(-4.583333, -7.500000)">
                        <path d="M5.27971473,33.9691425 L21.7787988,33.7641382 C21.6987626,32.3039003 20.8793818,31.0160785 19.3206562,29.9006726 C17.3252716,28.8714748 14.9529849,28.3288942 14.6691385,27.7639612 C14.385292,27.1990283 14.0379086,25.953593 14.6691385,24.5708924 C15.5530762,23.7476723 15.5530762,23.3804328 15.9434776,23.3804328 C16.2617024,23.1300874 16.6240594,22.846339 16.7019614,22.2850061 C16.753896,21.9107841 16.607143,21.5115891 16.2617024,21.0874211 C16.7162407,18.7157625 16.6101657,17.1643495 15.9434776,16.4331819 C14.9434454,15.3364305 14.2031345,15.0544608 12.3077071,15.0544608 C10.4122797,15.0544608 9.77607225,15.4796506 8.81851799,16.4331819 C8.18014849,17.0688694 7.99541732,18.6202825 8.26432447,21.0874211 C7.85910227,21.4644321 7.70502963,21.8636271 7.80210655,22.2850061 C7.89918348,22.706385 8.23798729,23.0715273 8.81851799,23.3804328 C9.29645516,23.7463478 9.62925926,24.1431676 9.81693029,24.5708924 C10.0984368,25.2124796 10.5174568,27.3597991 9.81693029,27.7639612 C8.23372593,28.6823912 5.27971473,29.9006726 5.27971473,29.9006726 C5.27971473,29.9006726 5.27971473,31.2568293 5.27971473,33.9691425 Z" id="Path-9-Copy" stroke="#4D4D4D" stroke-width="1.5" fill="#FFFFFF"></path>
                        <path d="M20.063745,33.7641382 L36.5720867,33.9691425 C36.5720867,31.2568293 36.5720867,29.9006726 36.5720867,29.9006726 C34.576702,28.8714748 32.1035225,28.3288942 31.8196761,27.7639612 C31.5358297,27.1990283 31.1884463,25.953593 31.8196761,24.5708924 C32.7036139,23.7476723 32.7036139,23.3804328 33.0940152,23.3804328 C33.41224,23.1300874 33.774597,22.846339 33.852499,22.2850061 C33.9044336,21.9107841 33.7576806,21.5115891 33.41224,21.0874211 C33.8667783,18.7157625 33.7607034,17.1643495 33.0940152,16.4331819 C32.093983,15.3364305 31.3536721,15.0544608 29.4582447,15.0544608 C27.5628173,15.0544608 26.9266099,15.4796506 25.9690556,16.4331819 C25.3306861,17.0688694 25.145955,18.6202825 25.4148621,21.0874211 C25.0096399,21.4644321 24.8555673,21.8636271 24.9526442,22.2850061 C25.0497211,22.706385 25.3885249,23.0715273 25.9690556,23.3804328 C26.4469928,23.7463478 26.7797969,24.1431676 26.9674679,24.5708924 C27.2489745,25.2124796 27.6679945,27.3597991 26.9674679,27.7639612 C25.3842636,28.6823912 24.7445741,28.6823912 22.571178,29.9006726 C21.1222472,30.7128603 20.2864362,32.0006821 20.063745,33.7641382 Z" id="Path-9-Copy-2" stroke="#4D4D4D" stroke-width="1.5" fill="#FFFFFF"></path>
                        <path d="M8.6664752,33.9220686 L33.2759803,33.9220686 C33.1715759,32.039602 32.1027222,30.3794056 30.0694192,28.9414794 C27.4665096,27.6146884 24.3719445,26.9152202 24.0016767,26.1869366 C23.6314089,25.4586529 23.1782594,23.8530992 24.0016767,22.0705898 C25.1547426,21.0093351 25.1547426,20.5359081 25.6640076,20.5359081 C26.0791207,20.2131751 26.5518028,19.8473807 26.6534231,19.123738 C26.7211701,18.6413095 26.5297359,18.126687 26.0791207,17.5798706 C26.67205,14.5224454 26.533679,12.5224402 25.6640076,11.5798551 C24.3595005,10.1659773 23.3937908,9.80247587 20.9212719,9.80247587 C18.448753,9.80247587 17.6188427,10.3506096 16.3697466,11.5798551 C15.5370159,12.399352 15.2960405,14.3993572 15.6468205,17.5798706 C15.1182223,18.0658945 14.9172399,18.580517 15.0438734,19.123738 C15.1705069,19.6669589 15.6124646,20.1376823 16.3697466,20.5359081 C16.993199,21.0076276 17.4273303,21.5191881 17.6721406,22.0705898 C18.0393561,22.8976924 18.585953,25.6659107 17.6721406,26.1869366 C15.6069058,27.3709311 14.7724533,27.3709311 11.9373339,28.9414794 C10.0472543,29.9885117 8.95696806,31.6487081 8.6664752,33.9220686 Z" id="Path-9" stroke="#4D4D4D" stroke-width="1.5" fill="#FFFFFF"></path>
                        <g id="color/color#2"></g>
                    </g>
                </g>
            </g>
        </g>
    </g>
</svg>