<?xml version="1.0" encoding="UTF-8"?>
<svg width="33px" height="30px" viewBox="0 0 33 30" version="1.1" xmlns="http://www.w3.org/2000/svg" xmlns:xlink="http://www.w3.org/1999/xlink">
    <title>7967A94D-8B42-47C6-972C-98BE5407BCCE</title>
    <defs>
        <filter color-interpolation-filters="auto" id="filter-1">
            <feColorMatrix in="SourceGraphic" type="matrix" values="0 0 0 0 0.301961 0 0 0 0 0.301961 0 0 0 0 0.301961 0 0 0 1.000000 0"></feColorMatrix>
        </filter>
    </defs>
    <g id="Menu" stroke="none" stroke-width="1" fill="none" fill-rule="evenodd">
        <g id="Web-Flotte/Menu-unactivated" transform="translate(-33.000000, -478.000000)">
            <g id="Menu-Copy" transform="translate(0.000000, -32.000000)">
                <g id="Items" transform="translate(32.000000, 125.000000)">
                    <g id="icon" transform="translate(1.000000, 385.000000)" filter="url(#filter-1)">
                        <g>
                            <path d="M14.7631579,13.9464264 L14.7631579,2.32440439 C14.7631579,1.04184669 14.7631579,0 16.4921748,0 C18.2211918,0 18.2406721,1.04184669 18.2406721,2.32440439 L18.2406721,13.9464264 C18.2406721,15.2289841 18.2211918,16.2708308 16.4921748,16.2708308 C14.7631579,16.2708308 14.7631579,15.2289841 14.7631579,13.9464264 Z M26.7094006,3.40822121 C25.8750311,2.81199852 25.0407197,2.65769658 24.3800631,3.41192445 C23.7194066,4.16738674 24.2759763,4.90097227 25.1130815,5.49842937 C28.1769959,7.67964157 30.286522,11.5936304 30.286522,15.1092458 C30.286522,21.3973584 23.4663019,27.5077811 16.5,27.5077811 C9.53233027,27.5077811 2.69138628,21.3973584 2.69138628,15.1092458 C2.69138628,11.5948648 4.9465444,7.67840715 8.00772321,5.49842937 C8.84482841,4.90220668 9.40778177,4.16862116 8.74712522,3.41192445 C8.08646867,2.65646217 7.12633673,2.81693618 6.2864959,3.41192445 C2.29109674,6.25725219 0,10.5209233 0,15.1092458 C0,23.3205777 7.40263616,30 16.5,30 C25.5973638,30 33,23.3193433 33,15.1092458 C33,10.5184545 30.7061676,6.25478336 26.7094006,3.40822121 Z" id="Shape" fill="#3AA1D8" fill-rule="nonzero"></path>
                        </g>
                    </g>
                </g>
            </g>
        </g>
    </g>
</svg>