<?xml version="1.0" encoding="UTF-8"?>
<svg width="33px" height="30px" viewBox="0 0 33 30" version="1.1" xmlns="http://www.w3.org/2000/svg" xmlns:xlink="http://www.w3.org/1999/xlink">
    <title>D1B4369B-A901-42EE-BEC0-D6CB0B2215E9</title>
    <defs>
        <polygon id="path-1" points="0 0 33 0 33 30 0 30"></polygon>
    </defs>
    <g id="Home" stroke="none" stroke-width="1" fill="none" fill-rule="evenodd">
        <g id="Web-Flotte/Home/Fleet" transform="translate(-8.000000, -430.000000)">
            <g id="Items" transform="translate(7.000000, 93.000000)">
                <g id="Group" transform="translate(1.000000, 337.000000)">
                    <mask id="mask-2" fill="white">
                        <use xlink:href="#path-1"></use>
                    </mask>
                    <g id="Clip-2"></g>
                    <path d="M8.47586243,15.4162073 C8.47586243,13.3553271 9.35791122,11.4186549 10.960249,9.96146687 C12.5618237,8.50427887 14.6921699,7.70213157 16.9583333,7.70213157 C21.6356336,7.70213157 25.4408042,11.1626061 25.4408042,15.4162073 C25.4408042,19.6698084 21.6356336,23.130283 16.9583333,23.130283 C12.2810331,23.130283 8.47586243,19.6698084 8.47586243,15.4162073 Z M33.9166667,15.4162073 C33.9166667,14.3761485 33.8014826,13.3370085 33.5751559,12.3263506 L30.9511812,12.8123852 C30.7147507,11.7585447 30.3388867,10.7524807 29.8417764,9.80797501 L32.256601,8.75505329 C31.7594907,7.81330393 31.1532586,6.91198089 30.4540708,6.07772878 L28.3221545,7.55420801 C27.6158941,6.7107681 26.7974807,5.9490996 25.8881325,5.28574054 L27.5663851,3.38386623 C26.6671408,2.72785741 25.6931279,2.15361999 24.669606,1.6786108 L23.4480482,3.84968761 C22.4225056,3.37284087 21.3262358,3.0062477 20.1774259,2.76552738 L20.7786061,0.388643881 C19.6611182,0.154355017 18.5082668,0.0238882764 17.3554154,0 L17.2927714,2.43752297 C17.1816288,2.43568541 17.0704863,2.43017273 16.9583333,2.43017273 C15.8812609,2.43017273 14.8324793,2.54226387 13.8241132,2.74807056 L13.2380889,0.367511944 C12.1145386,0.596288129 11.0122066,0.931642778 9.9624146,1.36438809 L11.0697986,3.58599779 C10.0018197,4.02701213 9.00456784,4.58287394 8.09623004,5.2370452 L6.42909169,3.32690187 C5.5278266,3.97647924 4.69526781,4.7124219 3.95667501,5.51451672 L6.01079153,7.0801176 C5.2661364,7.88864388 4.62656151,8.77986035 4.11328497,9.73722896 L1.70452266,8.67052554 C1.19932922,9.6122749 0.801236793,10.6045571 0.518328468,11.6198089 L3.11502274,12.2179346 C2.83514558,13.2230798 2.68459793,14.2750827 2.679546,15.3583241 L0,15.3583241 L0,15.4162073 C0,16.4672914 0.117204878,17.5174568 0.348583472,18.5373025 L2.97053742,18.046674 C3.20999911,19.0995957 3.5878838,20.1056597 4.0880253,21.0483278 L1.67421105,22.1067622 C2.17334217,23.046674 2.78260546,23.9461595 3.48280356,24.7794928 L5.6126991,23.2984197 C6.32199069,24.1409408 7.14040406,24.9007718 8.05177302,25.5632121 L6.37756196,27.4678427 C7.27781667,28.1210952 8.25385039,28.693495 9.2773723,29.1675854 L10.4948885,26.9937523 C11.5204312,27.4687615 12.6177113,27.8335171 13.768542,28.0723999 L13.1724137,30.4511209 C14.2888912,30.6826534 15.4407322,30.8112826 16.5966148,30.8333333 L16.6521861,28.3948916 C16.7552456,28.3967291 16.8552739,28.4022418 16.9583333,28.4022418 C18.0455096,28.4022418 19.1023743,28.2873943 20.1208443,28.0788313 L20.7119206,30.4566336 C21.8364812,30.2260198 22.9378029,29.8879089 23.9855741,29.4542448 L22.8731381,27.2353914 C23.9401066,26.7925395 24.9363481,26.2348401 25.8436755,25.5779125 L27.513845,27.4852995 C28.4151101,26.8329658 29.2446378,26.0951856 29.9822202,25.2930908 L27.9250725,23.731165 C28.6687172,22.92172 29.305261,22.0295847 29.8165167,21.0712973 L32.2262894,22.1334068 C32.7294621,21.1907387 33.1265441,20.1975377 33.4064213,19.1822859 L30.8077062,18.5887541 C31.0855626,17.5808526 31.2361103,16.5270121 31.2381311,15.4410143 L33.9166667,15.4162073 Z" id="Fill-1" fill="#4D4D4D" mask="url(#mask-2)"></path>
                </g>
            </g>
        </g>
    </g>
</svg>