<?xml version="1.0" encoding="UTF-8"?>
<svg width="33px" height="18px" viewBox="0 0 33 18" version="1.1" xmlns="http://www.w3.org/2000/svg" xmlns:xlink="http://www.w3.org/1999/xlink">
    <title>57937033-0101-4D83-A93E-65200D3CAB33</title>
    <defs>
        <filter color-interpolation-filters="auto" id="filter-1">
            <feColorMatrix in="SourceGraphic" type="matrix" values="0 0 0 0 0.223958 0 0 0 0 0.630892 0 0 0 0 0.846813 0 0 0 1.000000 0"></feColorMatrix>
        </filter>
        <polygon id="path-2" points="0 0 31.5216579 0 31.5216579 16.6666667 0 16.6666667"></polygon>
        <filter color-interpolation-filters="auto" id="filter-4">
            <feColorMatrix in="SourceGraphic" type="matrix" values="0 0 0 0 0.454902 0 0 0 0 0.811765 0 0 0 0 1.000000 0 0 0 1.000000 0"></feColorMatrix>
        </filter>
        <polygon id="path-5" points="0 0 23.9962963 0 23.9962963 11.0837139 0 11.0837139"></polygon>
        <filter color-interpolation-filters="auto" id="filter-7">
            <feColorMatrix in="SourceGraphic" type="matrix" values="0 0 0 0 0.690196 0 0 0 0 0.894118 0 0 0 0 1.000000 0 0 0 1.000000 0"></feColorMatrix>
        </filter>
        <polygon id="path-8" points="0 0 22 0 22 8.3127854 0 8.3127854"></polygon>
    </defs>
    <g id="Menu" stroke="none" stroke-width="1" fill="none" fill-rule="evenodd">
        <g id="Web-Flotte/Menu-activated" transform="translate(-33.000000, -196.000000)">
            <g id="Menu-Copy" transform="translate(0.000000, -32.000000)">
                <g id="Items" transform="translate(32.000000, 125.000000)">
                    <g id="-System/Navigation/Item-Menu" transform="translate(1.000000, 97.000000)">
                        <g id="Group-9" transform="translate(0.916667, 6.666667)">
                            <g filter="url(#filter-1)" id="camion">
                                <g transform="translate(0.050174, 0.000000)">
                                    <mask id="mask-3" fill="white">
                                        <use xlink:href="#path-2"></use>
                                    </mask>
                                    <g id="Clip-2"></g>
                                    <path d="M9.24253867,3.65322579 L9.24253867,3.65322579 L9.24253867,7.16696903 C9.24253867,7.27087885 9.13585732,7.35466199 9.0035486,7.35466199 L3.20938037,7.35466199 C2.99601766,7.35466199 2.88933631,7.14684236 3.0466764,7.03123098 L7.7341001,3.51748774 C7.77999096,3.48565951 7.84078145,3.46600089 7.90157194,3.46600089 L9.0035486,3.46600089 C9.13585732,3.46600089 9.24253867,3.54978404 9.24253867,3.65322579 M0,8.33150789 L0,9.01581489 L0,9.20538009 L0,12.5155163 C0,13.1764201 0.681807083,13.7118834 1.5233382,13.7118834 L3.15335776,13.7118834 L4.18858407,13.7118834 C4.151037,13.8649397 4.13017752,14.0231447 4.13017752,14.1850943 C4.13017752,15.5555805 5.54504641,16.6667603 7.29009112,16.6667603 C9.03513582,16.6667603 10.4500047,15.5555805 10.4500047,14.1850943 C10.4500047,14.0231447 10.4297412,13.8649397 10.3921941,13.7118834 L11.4262285,13.7118834 L19.6883715,13.7118834 L20.7212139,13.7118834 C20.6836668,13.8649397 20.6634033,14.0231447 20.6634033,14.1850943 C20.6634033,15.5555805 22.0782722,16.6667603 23.8233169,16.6667603 C25.5683616,16.6667603 26.9832305,15.5555805 26.9832305,14.1850943 C26.9832305,14.0231447 26.962371,13.8649397 26.9248239,13.7118834 L27.9564743,13.7118834 L29.9977237,13.7118834 C30.8392548,13.7118834 31.5216579,13.1764201 31.5216579,12.5155163 L31.5216579,9.20538009 L31.5216579,9.01581489 L31.5216579,1.19636709 C31.5216579,0.535463204 30.8392548,-4.70133539e-14 29.9977237,-4.70133539e-14 L12.5586004,-4.70133539e-14 C11.7170693,-4.70133539e-14 11.0352622,0.535463204 11.0352622,1.19636709 L11.0352622,2.08568535 L8.01540512,2.08568535 C7.48080638,2.08568535 6.96766312,2.25137938 6.58682857,2.54719472 L0.60254105,7.19739308 C0.216938617,7.49695291 0,7.90510319 0,8.33150789" id="Fill-1" fill="#4D4D4D" mask="url(#mask-3)"></path>
                                </g>
                            </g>
                            <g filter="url(#filter-4)" id="utilitaire">
                                <g transform="translate(8.087037, 5.485891)">
                                    <mask id="mask-6" fill="white">
                                        <use xlink:href="#path-5"></use>
                                    </mask>
                                    <g id="Clip-2"></g>
                                    <path d="M14.04537,2.90827392 L7.8709562,2.90827392 C7.68356331,2.90827392 7.59259589,2.70800869 7.72859219,2.59493647 L9.82857513,0.856252028 C9.86723628,0.824400699 9.91817804,0.806484326 9.97093914,0.806484326 L13.2794243,0.806484326 C13.3649337,0.806484326 13.4418011,0.852668753 13.4727301,0.922741678 L14.2386758,2.66142612 C14.2914369,2.78047046 14.1909179,2.90827392 14.04537,2.90827392 M22.2628425,0.000143293148 C20.5583185,0.00127451065 19.630474,0.0018401194 19.4793089,0.0018401194 L9.72851096,0.0018401194 C9.49517953,0.0018401194 9.26776097,0.0735056103 9.08900999,0.20409606 C8.48953467,0.642051838 7.89096904,1.09195186 7.30923237,1.54185189 C6.60878322,2.08412077 5.90878891,2.64470417 5.22926226,3.2084727 C4.17585952,3.46646846 3.19113717,3.87854504 2.30193062,4.43275817 C1.4927754,4.93760174 0.783229505,5.54874912 0.192396098,6.24908022 C0.0664062182,6.39798519 0,6.57675077 0,6.7654699 L0,8.44682194 C0,8.92817516 0.447559717,9.31994651 0.997457784,9.31994651 L2.61212953,9.31994651 C2.85546738,10.3268467 3.8570187,11.0837139 5.05187579,11.0837139 C6.24673288,11.0837139 7.2482842,10.3268467 7.49116722,9.31994651 L16.0234566,9.31994651 C16.1226111,9.73441193 16.351849,10.1154335 16.692522,10.4231969 C17.1646429,10.8488103 17.7936826,11.0837139 18.4632028,11.0837139 C19.1331779,11.0837139 19.7617628,10.8488103 20.2338837,10.4231969 C20.5763761,10.1138409 20.8065236,9.73043051 20.9047685,9.31357624 C20.9434296,9.30959483 20.9811811,9.30322456 21.0189326,9.29526173 L23.2330796,8.82784347 C23.6824587,8.73268762 23.9962963,8.38351743 23.9962963,7.9786074 L23.9962963,6.67668432 C23.9962963,6.25345978 23.6524394,5.89553047 23.1844121,5.81868913 L23.1844121,0.921147346 C23.184458,0.412490741 22.7721103,0.000143090324 22.2634537,0.000143090324 C22.26325,0.000143090324 22.2630462,0.000143157932 22.2628425,0.000143293148 Z" id="Fill-1" fill="#AFAFAF" mask="url(#mask-6)"></path>
                                </g>
                            </g>
                            <g filter="url(#filter-7)" id="voiture">
                                <g transform="translate(0.000000, 8.256820)">
                                    <mask id="mask-9" fill="white">
                                        <use xlink:href="#path-8"></use>
                                    </mask>
                                    <g id="Clip-7"></g>
                                    <path d="M14.0231201,3.00324716 L6.88093187,3.00324716 C6.66416711,3.00324716 6.55841538,2.77560501 6.71625379,2.64707545 L9.14538697,0.670707097 C9.18958172,0.634501586 9.24903419,0.614135986 9.31006505,0.614135986 L13.1365943,0.614135986 C13.2360325,0.614135986 13.3249481,0.666633977 13.3607249,0.746286102 L14.2467245,2.72265445 C14.3077553,2.85797255 14.191481,3.00324716 14.0231201,3.00324716 M20.5965638,2.82131447 L19.9094406,2.82131447 C19.5479906,2.82131447 19.1996939,2.70274142 18.9355776,2.48958147 L16.3386096,0.391019522 C16.028194,0.139843788 15.6178142,0 15.1916504,0 L9.81041282,0 C9.37320041,0 8.94808895,0.12264617 8.59873993,0.349383184 L4.29711705,3.14354352 C4.07035586,3.29017584 3.80571345,3.38702558 3.5252872,3.4245888 L1.02354836,3.76084749 C0.727338268,3.80067355 0.45533007,3.92467743 0.250140133,4.11249352 C0.178586719,4.23106657 -0.157609101,4.81442787 0.0891449512,5.52903415 C0.319062906,6.19385785 0.500577081,6.45906322 0.644736165,6.53554736 C0.696822842,6.53554736 1.14718845,6.59800187 1.19927512,6.59800187 C1.19822287,6.6237983 1.1950661,6.64914216 1.1950661,6.67493858 C1.1950661,7.57600325 2.05160255,8.3127854 3.09912349,8.3127854 L3.4163787,8.3127854 C4.46389963,8.3127854 5.32096222,7.57600325 5.32096222,6.67493858 C5.32096222,6.64914216 5.31780545,6.6237983 5.31675319,6.59800187 L15.4836515,6.59800187 C15.4820731,6.6237983 15.4789164,6.64914216 15.4789164,6.67493858 C15.4789164,7.57600325 16.3359789,8.3127854 17.3834999,8.3127854 L17.7007551,8.3127854 C18.748276,8.3127854 19.6048125,7.57600325 19.6048125,6.67493858 C19.6048125,6.64914216 19.6021818,6.6237983 19.6006035,6.59800187 L20.6360234,6.59800187 C21.209503,6.59800187 21.6740741,6.19838354 21.6740741,5.70508345 L21.6740741,3.74817556 C21.6740741,3.23632014 21.1916147,2.82131447 20.5965638,2.82131447" id="Fill-6" fill="#D3D3D3" mask="url(#mask-9)"></path>
                                </g>
                            </g>
                        </g>
                    </g>
                </g>
            </g>
        </g>
    </g>
</svg>