<?xml version="1.0" encoding="UTF-8"?>
<svg width="36px" height="36px" viewBox="0 0 36 36" version="1.1" xmlns="http://www.w3.org/2000/svg" xmlns:xlink="http://www.w3.org/1999/xlink">
    <title>icones/Menu/User activated</title>
    <defs>
        <path d="M18,0 C27.9411255,0 36,8.0588745 36,18 C36,27.9411255 27.9411255,36 18,36 C8.0588745,36 0,27.9411255 0,18 C0,8.0588745 8.0588745,0 18,0 Z M18,1.66666667 C8.97934909,1.66666667 1.66666667,8.97934909 1.66666667,18 C1.66666667,23.1175468 4.02022301,27.685391 7.70398314,30.6801801 C8.51678448,30.1517712 9.21822533,29.3613499 10.1329667,28.8026766 C10.5209858,28.5656961 11.6389048,28.2032693 12.0640012,28.0861298 C12.7545729,27.8961965 13.7702677,27.8075052 14.0668271,27.0327113 C14.0668271,27.0327113 14.4633597,25.4894945 14.3003781,23.3960447 C14.3003781,23.3960447 12.7522435,23.2102949 12.9160652,19.6283371 C12.9160652,19.6283371 11.934815,20.4424564 11.701264,18.4184536 C11.701264,18.4184536 11.4441899,17.0228204 11.2576851,16.766787 C11.2576851,16.766787 10.7435369,15.3945817 11.6777409,15.5803314 C11.6777409,15.5803314 11.5139191,12.8819399 11.3979837,12.2769982 C11.2971704,11.7565642 11.3559782,11.1474389 11.4475503,10.6320252 C11.528201,10.181875 11.6701799,9.73005126 11.9280941,9.34683783 C12.2238133,8.9084015 12.7497231,8.70424413 13.1638981,8.39968149 C13.6940085,8.00977437 14.2005957,7.57886844 14.7701913,7.24502093 C14.9945011,7.11449408 15.2238515,6.99149763 15.4590828,6.88188855 C15.5909803,6.81997197 16.1647764,6.71287302 16.2319853,6.62501841 C16.2319853,6.62501841 16.4420132,6.34555709 16.8864322,6.34555709 C17.3610952,6.31794564 17.8433192,6.33970011 18.316302,6.38488248 C18.745599,6.42671801 19.1732157,6.49365485 19.5890709,6.6082842 C20.0990186,6.74801486 20.614007,7.00823184 21.111353,7.20067527 C21.4768015,7.34207935 21.8262879,7.52531896 22.1480506,7.74872068 C23.0982167,8.40804859 23.6249666,9.35185809 23.7761867,10.4864376 C23.7761867,10.4864376 24.0794669,12.7656371 23.3788139,15.4171729 C23.3788139,15.4171729 24.6406614,14.7662121 23.7761867,17.4880315 C23.7761867,17.4880315 23.5426357,18.3021508 23.4964295,18.743934 C23.4964295,18.743934 23.4258602,19.9069617 22.5387024,19.3488757 C22.5387024,19.3488757 22.5390123,19.3660376 22.5392172,19.3981214 L22.5391017,19.5368989 C22.5336393,20.3128407 22.4402973,23.2320494 21.3474243,23.3734535 C21.3474243,23.3734535 21.340982,23.5347422 21.3389016,23.7918514 L21.3386754,24.078476 C21.3454355,25.1241935 21.4406767,26.9921071 22.0245542,27.2574639 C22.0245542,27.2574639 22.7949364,27.8398144 25.3413144,28.3276166 L25.3413144,28.3276166 L25.3779428,28.3430749 C25.6740829,28.4681529 27.701926,29.3264868 29.1120933,29.9715039 C32.3236259,26.9885342 34.3333333,22.7289632 34.3333333,18 C34.3333333,8.97934909 27.0206509,1.66666667 18,1.66666667 Z" id="path-1"></path>
    </defs>
    <g id="icones/Menu/User-activated" stroke="none" stroke-width="1" fill="none" fill-rule="evenodd">
        <mask id="mask-2" fill="white">
            <use xlink:href="#path-1"></use>
        </mask>
        <use id="User" fill="#39A1D8" xlink:href="#path-1"></use>
    </g>
</svg>