<?xml version="1.0" encoding="UTF-8"?>
<svg width="36px" height="36px" viewBox="0 0 36 36" version="1.1" xmlns="http://www.w3.org/2000/svg" xmlns:xlink="http://www.w3.org/1999/xlink">
    <title>icones/Menu/Calendar activated</title>
    <defs>
        <filter color-interpolation-filters="auto" id="filter-1">
            <feColorMatrix in="SourceGraphic" type="matrix" values="0 0 0 0 0.223958 0 0 0 0 0.630892 0 0 0 0 0.846813 0 0 0 1.000000 0"></feColorMatrix>
        </filter>
        <filter color-interpolation-filters="auto" id="filter-2">
            <feColorMatrix in="SourceGraphic" type="matrix" values="0 0 0 0 0.301961 0 0 0 0 0.301961 0 0 0 0 0.301961 0 0 0 1.000000 0"></feColorMatrix>
        </filter>
    </defs>
    <g id="icones/Menu/Calendar-activated" stroke="none" stroke-width="1" fill="none" fill-rule="evenodd">
        <g filter="url(#filter-1)" id="devis-copy-3">
            <g transform="translate(1.000000, 0.000000)">
                <g id="small-calendar" transform="translate(0.000000, 3.193548)" filter="url(#filter-2)">
                    <g transform="translate(2.250000, 0.000000)" fill="#68D15C">
                        <path d="M26.1255938,2.8875 L22.265625,2.8875 L22.265625,0.9625 C22.265625,0.4302375 21.8675156,0 21.375,0 C20.8824844,0 20.484375,0.4302375 20.484375,0.9625 L20.484375,2.8875 L15.140625,2.8875 L15.140625,0.9625 C15.140625,0.4302375 14.741625,0 14.25,0 C13.758375,0 13.359375,0.4302375 13.359375,0.9625 L13.359375,2.8875 L8.015625,2.8875 L8.015625,0.9625 C8.015625,0.4302375 7.616625,0 7.125,0 C6.633375,0 6.234375,0.4302375 6.234375,0.9625 L6.234375,2.8875 L2.37529687,2.8875 C1.06340625,2.8875 0,4.0357625 0,5.453525 L0,28.2330125 C0,29.650775 1.06340625,30.8 2.37529687,30.8 L26.1255938,30.8 C27.4374844,30.8 28.5,29.650775 28.5,28.2330125 L28.5,5.453525 C28.5,4.0357625 27.4374844,2.8875 26.1255938,2.8875 Z M26.71875,28.2330125 C26.71875,28.5872125 26.4524531,28.875 26.1255938,28.875 L2.37529688,28.875 C2.04754688,28.875 1.78125,28.5872125 1.78125,28.2330125 L1.78125,5.453525 C1.78125,5.1002875 2.04754688,4.8125 2.37529688,4.8125 L6.234375,4.8125 L6.234375,6.7375 C6.234375,7.2697625 6.633375,7.7 7.125,7.7 C7.616625,7.7 8.015625,7.2697625 8.015625,6.7375 L8.015625,4.8125 L13.359375,4.8125 L13.359375,6.7375 C13.359375,7.2697625 13.758375,7.7 14.25,7.7 C14.741625,7.7 15.140625,7.2697625 15.140625,6.7375 L15.140625,4.8125 L20.484375,4.8125 L20.484375,6.7375 C20.484375,7.2697625 20.8824844,7.7 21.375,7.7 C21.8675156,7.7 22.265625,7.2697625 22.265625,6.7375 L22.265625,4.8125 L26.1255938,4.8125 C26.4524531,4.8125 26.71875,5.1002875 26.71875,5.453525 L26.71875,28.2330125 Z" id="Shape" fill-rule="nonzero"></path>
                        <rect id="Rectangle" x="5.82954545" y="11.9" width="3.88636364" height="2.8"></rect>
                        <rect id="Rectangle" x="5.82954545" y="16.1" width="3.88636364" height="2.8"></rect>
                        <rect id="Rectangle" x="5.82954545" y="21" width="3.88636364" height="2.8"></rect>
                        <rect id="Rectangle" x="12.3068182" y="21" width="3.88636364" height="2.8"></rect>
                        <rect id="Rectangle" x="12.3068182" y="16.1" width="3.88636364" height="2.8"></rect>
                        <rect id="Rectangle" x="12.3068182" y="11.9" width="3.88636364" height="2.8"></rect>
                        <rect id="Rectangle" x="18.7840909" y="21" width="3.88636364" height="2.8"></rect>
                        <rect id="Rectangle" x="18.7840909" y="16.1" width="3.88636364" height="2.8"></rect>
                        <rect id="Rectangle" x="18.7840909" y="11.9" width="3.88636364" height="2.8"></rect>
                    </g>
                </g>
            </g>
        </g>
    </g>
</svg>