<?xml version="1.0" encoding="UTF-8"?>
<svg width="36px" height="36px" viewBox="0 0 36 36" version="1.1" xmlns="http://www.w3.org/2000/svg" xmlns:xlink="http://www.w3.org/1999/xlink">
    <title>icones/Menu/Detail</title>
    <defs>
        <path d="M18,0 C27.9411255,0 36,8.0588745 36,18 C36,27.9411255 27.9411255,36 18,36 C8.0588745,36 0,27.9411255 0,18 C0,8.0588745 8.0588745,0 18,0 Z M18.0947368,2.46315789 C9.46165417,2.46315789 2.46315789,9.46165417 2.46315789,18.0947368 C2.46315789,26.7278195 9.46165417,33.7263158 18.0947368,33.7263158 C26.7278195,33.7263158 33.7263158,26.7278195 33.7263158,18.0947368 C33.7263158,9.46165417 26.7278195,2.46315789 18.0947368,2.46315789 Z M19.6363636,13.9090909 L19.6363636,27 L21.2727273,27 L21.2727273,27.8181818 L14.7272727,27.8181818 L14.7272727,27 L16.3636364,27 L16.3636364,14.7272727 L14.7272727,14.7272727 L14.7272727,13.9090909 L19.6363636,13.9090909 Z M17.5909091,7.36363636 C18.7205824,7.36363636 19.6363636,8.27941756 19.6363636,9.40909091 C19.6363636,10.5387643 18.7205824,11.4545455 17.5909091,11.4545455 C16.4612357,11.4545455 15.5454545,10.5387643 15.5454545,9.40909091 C15.5454545,8.27941756 16.4612357,7.36363636 17.5909091,7.36363636 Z" id="path-1"></path>
    </defs>
    <g id="icones/Menu/Detail" stroke="none" stroke-width="1" fill="none" fill-rule="evenodd">
        <mask id="mask-2" fill="white">
            <use xlink:href="#path-1"></use>
        </mask>
        <use id="Detail" fill="#4D4D4D" xlink:href="#path-1"></use>
    </g>
</svg>