<?xml version="1.0" encoding="UTF-8"?>
<svg width="36px" height="36px" viewBox="0 0 36 36" version="1.1" xmlns="http://www.w3.org/2000/svg" xmlns:xlink="http://www.w3.org/1999/xlink">
    <title>icones/Menu/Team activated</title>
    <g id="icones/Menu/Team-activated" stroke="none" stroke-width="1" fill="none" fill-rule="evenodd">
        <g id="Icon-team" transform="translate(-5.000000, -9.000000)" fill-rule="nonzero">
            <path d="M5.75968879,40.762971 L23.7586896,40.5169659 C23.6713774,38.7646804 22.7775074,37.2192942 21.0770795,35.8808072 C18.9002963,34.6457698 16.3123472,33.994673 16.0026965,33.3167535 C15.6930459,32.638834 15.3140821,31.1443116 16.0026965,29.4850709 C16.9669923,28.4972068 16.9669923,28.0565194 17.3928846,28.0565194 C17.740039,27.7561049 18.1353375,27.4156068 18.2203215,26.7420073 C18.2769774,26.2929409 18.1168833,25.813907 17.740039,25.3049054 C18.2358989,22.4589151 18.1201808,20.5972194 17.3928846,19.7198183 C16.3019404,18.4037167 15.4943285,18.065353 13.4265895,18.065353 C11.3588505,18.065353 10.6648061,18.5755808 9.62020145,19.7198183 C8.92379836,20.4826433 8.72227344,22.344339 9.0156267,25.3049054 C8.57356611,25.7573185 8.40548687,26.2363525 8.51138897,26.7420073 C8.61729107,27.2476621 8.98689523,27.6858328 9.62020145,28.0565194 C10.1415874,28.4956173 10.5046465,28.9718012 10.7093785,29.4850709 C11.0164766,30.2549755 11.4735893,32.8317589 10.7093785,33.3167535 C8.98224647,34.4188694 5.75968879,35.8808072 5.75968879,35.8808072 C5.75968879,35.8808072 5.75968879,37.5081951 5.75968879,40.762971 Z" id="Path-9-Copy" fill="#74CFFF"></path>
            <path d="M21.8877219,40.5169659 L39.8968218,40.762971 C39.8968218,37.5081951 39.8968218,35.8808072 39.8968218,35.8808072 C37.7200385,34.6457698 35.0220246,33.994673 34.7123739,33.3167535 C34.4027233,32.638834 34.0237596,31.1443116 34.7123739,29.4850709 C35.6766697,28.4972068 35.6766697,28.0565194 36.1025621,28.0565194 C36.4497164,27.7561049 36.845015,27.4156068 36.9299989,26.7420073 C36.9866548,26.2929409 36.8265607,25.813907 36.4497164,25.3049054 C36.9455763,22.4589151 36.8298582,20.5972194 36.1025621,19.7198183 C35.0116178,18.4037167 34.204006,18.065353 32.136267,18.065353 C30.068528,18.065353 29.3744835,18.5755808 28.3298789,19.7198183 C27.6334758,20.4826433 27.4319509,22.344339 27.7253041,25.3049054 C27.2832435,25.7573185 27.1151643,26.2363525 27.2210664,26.7420073 C27.3269685,27.2476621 27.6965726,27.6858328 28.3298789,28.0565194 C28.8512649,28.4956173 29.2143239,28.9718012 29.4190559,29.4850709 C29.726154,30.2549755 30.1832667,32.8317589 29.4190559,33.3167535 C27.6919239,34.4188694 26.9940809,34.4188694 24.6231032,35.8808072 C23.0424515,36.8554323 22.1306577,38.4008186 21.8877219,40.5169659 Z" id="Path-9-Copy-2" fill="#B0E4FF"></path>
            <path d="M9.45433658,40.7064823 L36.3010694,40.7064823 C36.1871737,38.4475224 35.0211515,36.4552867 32.8030027,34.7297753 C29.963465,33.1376261 26.5875758,32.2982642 26.1836473,31.4243239 C25.7797188,30.5503835 25.2853739,28.623719 26.1836473,26.4847078 C27.4415374,25.2112022 27.4415374,24.6430897 27.9970992,24.6430897 C28.4499499,24.2558102 28.965603,23.8168568 29.0764616,22.9484855 C29.1503673,22.3695714 28.9415301,21.7520244 28.4499499,21.0958447 C29.0967818,17.4269345 28.9458316,15.0269282 27.9970992,13.8958261 C26.5740005,12.1991728 25.520499,11.762971 22.8232057,11.762971 C20.1259124,11.762971 19.2205557,12.4207315 17.8579054,13.8958261 C16.9494719,14.8792224 16.6865897,17.2792286 17.0692588,21.0958447 C16.4926062,21.6790734 16.2733527,22.2966203 16.4114982,22.9484855 C16.5496438,23.6003507 17.0317796,24.1652188 17.8579054,24.6430897 C18.5380352,25.2091531 19.011633,25.8230258 19.2786988,26.4847078 C19.6792975,27.4772309 20.2755851,30.7990928 19.2786988,31.4243239 C17.0257154,32.8451173 16.1154036,32.8451173 13.0225461,34.7297753 C10.960641,35.986214 9.77123789,37.9784497 9.45433658,40.7064823 Z" id="Path-9" fill="#3AA1D8"></path>
        </g>
    </g>
</svg>