<?xml version="1.0" encoding="UTF-8"?>
<svg width="36px" height="36px" viewBox="0 0 36 36" version="1.1" xmlns="http://www.w3.org/2000/svg" xmlns:xlink="http://www.w3.org/1999/xlink">
    <title>icones/Menu/help activated</title>
    <defs>
        <path d="M18,0 C27.9411255,0 36,8.0588745 36,18 C36,27.9411255 27.9411255,36 18,36 C8.0588745,36 0,27.9411255 0,18 C0,8.0588745 8.0588745,0 18,0 Z M18.0947368,2.46315789 C9.46165417,2.46315789 2.46315789,9.46165417 2.46315789,18.0947368 C2.46315789,26.7278195 9.46165417,33.7263158 18.0947368,33.7263158 C26.7278195,33.7263158 33.7263158,26.7278195 33.7263158,18.0947368 C33.7263158,9.46165417 26.7278195,2.46315789 18.0947368,2.46315789 Z M17.6023827,23.8334961 C18.7983755,23.8334961 19.64,24.683747 19.64,25.8858258 C19.64,27.0732452 18.7983755,27.9234961 17.6023827,27.9234961 C16.4063899,27.9234961 15.55,27.0732452 15.55,25.8858258 C15.55,24.683747 16.4063899,23.8334961 17.6023827,23.8334961 Z M17.7196181,7.36 C21.2196181,7.36 23.6085069,9.52666667 23.6085069,12.3877778 C23.6085069,14.5683333 22.4835069,16.11 20.7057292,17.1794444 C18.9418403,18.2211111 18.4418403,18.9988889 18.4418403,20.4572222 L18.4418403,21.36 L16.0112847,21.36 L16.0112847,20.0822222 C15.9973958,18.2488889 16.8862847,16.9988889 18.7890625,15.86 C20.4001736,14.8738889 21.0251736,13.9988889 21.0251736,12.5127778 C21.0251736,10.7905556 19.6918403,9.52666667 17.6223958,9.52666667 C15.5251736,9.52666667 14.1918403,10.7627778 14.0390625,12.7488889 L11.6640625,12.7488889 C11.8168403,9.74888889 13.8168403,7.36 17.7196181,7.36 Z" id="path-1"></path>
    </defs>
    <g id="icones/Menu/help-activated" stroke="none" stroke-width="1" fill="none" fill-rule="evenodd">
        <g id="Group">
            <mask id="mask-2" fill="white">
                <use xlink:href="#path-1"></use>
            </mask>
            <use id="Detail" fill="#39A1D8" xlink:href="#path-1"></use>
        </g>
    </g>
</svg>