<?xml version="1.0" encoding="UTF-8"?>
<svg width="36px" height="36px" viewBox="0 0 36 36" version="1.1" xmlns="http://www.w3.org/2000/svg" xmlns:xlink="http://www.w3.org/1999/xlink">
    <title>icones/Menu/Home activated</title>
    <defs>
        <filter color-interpolation-filters="auto" id="filter-1">
            <feColorMatrix in="SourceGraphic" type="matrix" values="0 0 0 0 0.223958 0 0 0 0 0.630892 0 0 0 0 0.846813 0 0 0 1.000000 0"></feColorMatrix>
        </filter>
    </defs>
    <g id="icones/Menu/Home-activated" stroke="none" stroke-width="1" fill="none" fill-rule="evenodd">
        <g filter="url(#filter-1)" id="home_off-copy">
            <g transform="translate(1.000000, 2.000000)">
                <path d="M34.5227273,16.947205 C34.4166667,16.947205 34.3106061,16.947205 34.2045455,16.8416149 L17.5530303,1.21428571 L0.901515152,16.8416149 C0.689393939,17.052795 0.371212121,17.052795 0.159090909,16.8416149 C-0.053030303,16.6304348 -0.053030303,16.3136646 0.159090909,16.1024845 L17.1287879,0.158385093 C17.3409091,-0.0527950311 17.6590909,-0.0527950311 17.8712121,0.158385093 L34.8409091,16.1024845 C35.0530303,16.3136646 35.0530303,16.6304348 34.8409091,16.8416149 C34.8409091,16.8416149 34.6287879,16.947205 34.5227273,16.947205 Z" id="Path" stroke="#4D4D4D" stroke-width="1.1" fill="#FFFFFF"></path>
                <path d="M21.7372881,32 C21.4194915,32 21.2076271,31.7823834 21.2076271,31.4559585 L21.2076271,30.9119171 L21.2076271,20.2487047 L13.7923729,20.2487047 L13.7923729,30.9119171 L13.7923729,31.4559585 C13.7923729,31.7823834 13.5805085,32 13.2627119,32 L5.52966102,32 C5.21186441,32 5,31.7823834 5,31.4559585 L5,12 C5,11.6735751 5.21186441,11.4559585 5.52966102,11.4559585 C5.84745763,11.4559585 6.05932203,11.6735751 6.05932203,12 L6.05932203,30.9119171 C6.05932203,30.9119171 12.7330508,30.9119171 12.7330508,30.9119171 L12.7330508,19.7046632 C12.7330508,19.3782383 12.9449153,19.1606218 13.2627119,19.1606218 L21.7372881,19.1606218 C22.0550847,19.1606218 22.2669492,19.3782383 22.2669492,19.7046632 L22.2669492,30.9119171 L28.940678,30.9119171 L28.940678,12 C28.940678,11.6735751 29.1525424,11.4559585 29.470339,11.4559585 C29.7881356,11.4559585 30,11.6735751 30,12 L30,31.4559585 C30,31.7823834 29.7881356,32 29.470339,32 L21.7372881,32 Z" id="Path" stroke="#4D4D4D" stroke-width="1.1" fill="#FFFFFF"></path>
            </g>
        </g>
    </g>
</svg>