<?xml version="1.0" encoding="utf-8" ?>
<svg xmlns="http://www.w3.org/2000/svg" xmlns:xlink="http://www.w3.org/1999/xlink" width="36" height="36">
	<path fill="none" stroke="#4D4D4D" stroke-width="2" stroke-miterlimit="5" transform="translate(3.85714 8.94168)" d="M0 1.3440362L8.5069914 3.9154649L18.84495 0L28.285715 2.6297505L28.285715 23.20118L18.635347 20.600834L8.5409145 24.486893L0 21.915464L0 1.3440362Z" fill-rule="evenodd"/>
	<path fill="none" stroke="#4D4D4D" stroke-width="1" stroke-linejoin="round" transform="translate(11.5714 13.5)" d="M0.64285713 0L0.64285713 19.285715" fill-rule="evenodd"/>
	<path fill="none" stroke="#4D4D4D" stroke-width="1" stroke-miterlimit="10" transform="translate(21.8571 9)" d="M0.64285713 0.64285713L0.64285713 19.928572"/>
	<path fill="#4D4D4D" transform="translate(14.1429 3.85714)" d="M5.7857141 0C2.5915179 0 0 2.4666848 0 5.5047374C0 9.0004463 3.8571429 14.540141 5.2734375 16.453539C5.392683 16.617371 5.5830879 16.714285 5.7857141 16.714285C5.9883404 16.714285 6.1787453 16.617371 6.2979913 16.453539C7.7142859 14.540945 11.571428 9.0032597 11.571428 5.5047374C11.571428 2.4666848 8.9799109 0 5.7857141 0Z" fill-rule="evenodd"/>
	<path fill="none" stroke="#F1F1F4" stroke-width="1" stroke-miterlimit="10" transform="translate(14.1429 3.85714)" d="M5.7857141 0C2.5915179 0 0 2.4666848 0 5.5047374C0 9.0004463 3.8571429 14.540141 5.2734375 16.453539C5.392683 16.617371 5.5830879 16.714285 5.7857141 16.714285C5.9883404 16.714285 6.1787453 16.617371 6.2979913 16.453539C7.7142859 14.540945 11.571428 9.0032597 11.571428 5.5047374C11.571428 2.4666848 8.9799109 0 5.7857141 0Z" fill-rule="evenodd"/>
	<path fill="#F5F5F5" transform="translate(16.7143 6.42857)" d="M5.6571426 0.38571429C5.5821428 0.15194805 5.3785715 0 5.1374998 0L1.2857143 0C1.0392857 0 0.84107143 0.15194805 0.76071429 0.38571429L0 2.7876623L0 5.8499999C0 6.1714287 0.24107143 6.4285712 0.53571427 6.4285712C0.83035713 6.4285712 1.0714285 6.1655846 1.0714285 5.8441558L1.0714285 5.2597404L5.3571429 5.2597404L5.3571429 5.8441558C5.3571429 6.1655846 5.5982141 6.4285712 5.8928571 6.4285712C6.1875 6.4285712 6.4232144 6.1714287 6.4285712 5.8499999L6.4232144 2.7876623L5.6571426 0.38571429ZM1.4785714 0.58441556L4.9499998 0.58441556C5.0625 0.58441556 5.1642857 0.66623378 5.2017856 0.78311688L5.5714288 1.951948C5.6303573 2.1389611 5.5017858 2.3376622 5.319643 2.3376622L1.1142857 2.3376622C0.93214285 2.3376622 0.8035714 2.1389611 0.86250001 1.951948L1.2321428 0.78311688C1.2589285 0.66623378 1.3607143 0.58441556 1.4785714 0.58441556ZM1.0660714 4.090909C0.77142859 4.090909 0.53035712 3.8279221 0.53035712 3.5064936C0.53035712 3.185065 0.77142859 2.9220779 1.0660714 2.9220779C1.3607143 2.9220779 1.6017857 3.185065 1.6017857 3.5064936C1.6017857 3.8279221 1.3607143 4.090909 1.0660714 4.090909ZM5.3517857 4.090909C5.0571427 4.090909 4.8160715 3.8279221 4.8160715 3.5064936C4.8160715 3.185065 5.0571427 2.9220779 5.3517857 2.9220779C5.6464286 2.9220779 5.8874998 3.185065 5.8874998 3.5064936C5.8874998 3.8279221 5.6464286 4.090909 5.3517857 4.090909Z" fill-rule="evenodd"/>
</svg>
