<?xml version="1.0" encoding="UTF-8"?>
<svg width="36px" height="36px" viewBox="0 0 36 36" version="1.1" xmlns="http://www.w3.org/2000/svg" xmlns:xlink="http://www.w3.org/1999/xlink">
    <title>icones/Menu/Notification</title>
    <g id="icones/Menu/Notification" stroke="none" stroke-width="1" fill="none" fill-rule="evenodd">
        <g id="notification" transform="translate(4.000000, 0.000000)" fill="#4D4D4D">
            <path d="M27.900049,28.9617875 L25.4949293,25.0367661 C24.3861763,23.2251336 23.7995794,21.1515373 23.7995794,19.0381482 L23.7995794,15.5999614 C23.7995794,10.3076495 19.4023659,6 14.000017,6 C8.59766813,6 4.2004547,10.3076495 4.2004547,15.5999614 L4.2004547,19.0381482 C4.2004547,21.1515373 3.61385772,23.2251336 2.50510478,25.0367661 L0.0999849547,28.9617875 C-0.0302095207,29.1729658 -0.0330312761,29.4376939 0.0902072445,29.6516363 C0.214823832,29.8669288 0.448570164,30 0.700559471,30 L27.2994089,30 C27.5513983,30 27.7852101,29.8669931 27.9097611,29.6516363 C28.0329997,29.4376296 28.0302436,29.1729658 27.900049,28.9617875 Z M1.93675076,28.628531 L3.70487573,25.7416576 C4.94520124,23.7174326 5.60037342,21.399744 5.60037342,19.0381482 L5.60037342,15.5999614 C5.60037342,11.0619124 9.36761357,7.37140469 14.000017,7.37140469 C18.6324205,7.37140469 22.3996606,11.0619124 22.3996606,15.5999614 L22.3996606,19.0381482 C22.3996606,21.399744 23.0548327,23.7174326 24.2937801,25.7416576 L26.0632832,28.628531 L1.93675076,28.628531 Z" id="Shape-Copy"></path>
            <path d="M14,0 C12.6212412,0 11.5,1.39533333 11.5,3.11113542 L11.5,6.22227083 C11.5,6.65153125 11.7800173,7 12.1250147,7 C12.4700119,7 12.7500293,6.65153125 12.7500293,6.22219792 L12.7500293,3.11113542 C12.7500293,2.25246875 13.3100054,1.55560417 14,1.55560417 C14.6899946,1.55560417 15.2499707,2.25246875 15.2499707,3.11113542 L15.2499707,6.22227083 C15.2499707,6.65153125 15.5299881,7 15.8749853,7 C16.2199826,7 16.5,6.65153125 16.5,6.22219792 L16.5,3.11113542 C16.5,1.39533333 15.3787588,0 14,0 Z" id="Shape-Copy-2"></path>
            <path d="M17.4593946,29.4312581 C17.2338862,29.0147226 16.7460594,28.878202 16.3638646,29.1179336 C15.981595,29.3629978 15.853697,29.9003017 16.077556,30.3168372 C16.2854466,30.703673 16.3990254,31.1674657 16.3990254,31.6242846 C16.3990254,33.0717805 15.3226877,34.249681 14,34.249681 C12.6773123,34.249681 11.6009746,33.0717805 11.6009746,31.6242846 C11.6009746,31.1674657 11.7145535,30.703673 11.922444,30.3168372 C12.1447287,29.8984968 12.0168307,29.3629159 11.6361353,29.1179336 C11.2507169,28.8781199 10.7644644,29.0146405 10.5406054,29.4312581 C10.187124,30.0928581 10,30.8506952 10,31.6243667 C10,34.0379264 11.7928966,36 13.9984256,36 C16.2039547,36 17.9967763,34.0379264 18,31.6243667 C18,30.8506952 17.812876,30.0928581 17.4593946,29.4312581 Z" id="Shape-Copy-3"></path>
        </g>
    </g>
</svg>