<?xml version="1.0" encoding="UTF-8"?>
<svg width="33px" height="30px" viewBox="0 0 33 30" version="1.1" xmlns="http://www.w3.org/2000/svg" xmlns:xlink="http://www.w3.org/1999/xlink">
    <title>B0F1C898-EAC0-4588-A9AD-62884A731BD3</title>
    <defs>
        <filter color-interpolation-filters="auto" id="filter-1">
            <feColorMatrix in="SourceGraphic" type="matrix" values="0 0 0 0 0.301961 0 0 0 0 0.301961 0 0 0 0 0.301961 0 0 0 1.000000 0"></feColorMatrix>
        </filter>
    </defs>
    <g id="Home" stroke="none" stroke-width="1" fill="none" fill-rule="evenodd">
        <g id="Web-Flotte/Home/vehicle-electric" transform="translate(-8.000000, -286.000000)">
            <g id="Items" transform="translate(7.000000, 93.000000)">
                <g id="-System/Navigation/Item-Menu" transform="translate(1.000000, 193.000000)" filter="url(#filter-1)">
                    <g id="Group-2" fill="#4D4D4D" transform="translate(0.916667, 4.166667)">
                        <path d="M24.7430025,7.69888998 L9.27862595,16.4727583 C9.51653944,18.8050524 8.20801527,20.8041616 6.30470738,21.4705314 C4.52035623,22.0258395 2.97391858,21.2484081 2.61704835,21.0262849 C4.04452926,21.0262849 5.23409669,20.0267303 5.59096692,18.8050524 C5.94783715,17.3612513 4.99618321,16.0285118 3.80661578,15.4732037 C2.4980916,14.9178955 0.951653944,15.2510804 0,16.250635 C0.118956743,15.8063885 0.713740458,14.5847107 2.02226463,13.6962177 C3.68765903,12.6966631 5.82888041,12.6966631 7.7321883,13.6962177 C12.966285,10.9196771 18.2003817,8.03207485 23.4344784,5.25553424 C23.0776081,3.92279475 23.6723919,2.47899364 24.7430025,1.59050065 C26.0515267,0.590946028 27.8358779,0.479884404 29.2633588,1.25731577 C27.4790076,1.25731577 26.1704835,2.47899364 26.0515267,3.70067151 C25.93257,4.5891645 26.5273537,5.47765749 27.3600509,5.92190399 C28.5496183,6.58827373 30.2150127,6.25508886 31.1666667,5.14447262 C30.9287532,6.81039698 29.7391858,8.03207485 28.0737913,8.36525972 C26.2894402,8.80950622 24.980916,7.8099516 24.7430025,7.69888998 Z" id="Path"></path>
                        <path d="M8.09645792,4.35878982 L23.6747948,12.9310719 C25.696411,11.5951318 28.3126202,11.7064602 29.858562,13.0424002 C31.1666667,14.2670119 31.1666667,15.936937 31.1666667,16.270922 C30.4531551,15.0463103 29.0261318,14.4896686 27.7180272,14.8236536 C26.1720854,15.1576387 25.3396552,16.6049071 25.4585738,17.9408471 C25.5774924,19.2767872 26.5288412,20.3900706 27.9558644,20.8353839 C27.48019,20.9467123 26.0531668,21.0580406 24.6261436,20.3900706 C22.9612831,19.4994439 21.8910157,17.7181904 21.8910157,15.7142803 C16.7775158,12.7084152 11.664016,9.70255007 6.55051609,6.69668493 C5.36133008,7.58731163 3.81538825,7.80996831 2.38836503,7.25332662 C0.842423208,6.69668493 -0.108925607,5.24941653 0.00999299514,3.69081979 C0.842423208,5.13808819 2.62620223,5.69472988 3.81538825,5.13808819 C4.64781847,4.80410317 5.24241147,3.91347646 5.36133008,3.02284975 C5.48024868,1.79823803 4.40998126,0.573626308 2.86403944,0.239641292 C4.52889986,-0.3170004 6.31267889,0.128312954 7.38294631,1.24159634 C8.45321372,2.5775364 8.21537652,4.13613314 8.09645792,4.35878982 Z" id="Path"></path>
                    </g>
                </g>
            </g>
        </g>
    </g>
</svg>