<?xml version="1.0" encoding="UTF-8"?>
<svg width="36px" height="36px" viewBox="0 0 36 36" version="1.1" xmlns="http://www.w3.org/2000/svg" xmlns:xlink="http://www.w3.org/1999/xlink">
    <title>icones/Menu/Quote activated</title>
    <defs>
        <filter color-interpolation-filters="auto" id="filter-1">
            <feColorMatrix in="SourceGraphic" type="matrix" values="0 0 0 0 0.223958 0 0 0 0 0.630892 0 0 0 0 0.846813 0 0 0 1.000000 0"></feColorMatrix>
        </filter>
    </defs>
    <g id="icones/Menu/Quote-activated" stroke="none" stroke-width="1" fill="none" fill-rule="evenodd">
        <g filter="url(#filter-1)" id="devis-copy-4">
            <g transform="translate(2.000000, 2.000000)">
                <path d="M31.0963789,20.7008672 C30.6329044,20.7008672 30.2572739,21.070897 30.2572739,21.5274608 L30.2572739,28.8667087 C30.2556349,30.2357545 29.1297265,31.3451982 27.7399589,31.3464898 L4.19552497,31.3464898 C2.80575732,31.3451982 1.67984884,30.2357545 1.67820999,28.8667087 L1.67820999,7.32651681 C1.67984884,5.95779388 2.80575732,4.84835017 4.19552497,4.84673575 L11.6458595,4.84673575 C12.1093339,4.84673575 12.4849645,4.47670588 12.4849645,4.02014207 C12.4849645,3.56390112 12.1093339,3.19354839 11.6458595,3.19354839 L4.19552497,3.19354839 C1.87946412,3.19613149 0.00262220311,5.04498904 0,7.32651681 L0,28.8670316 C0.00262220311,31.1485593 1.87946412,32.9974169 4.19552497,33 L27.7399589,33 C30.0560198,32.9974169 31.9328617,31.1485593 31.9354839,28.8670316 L31.9354839,21.5274608 C31.9354839,21.070897 31.5598532,20.7008672 31.0963789,20.7008672 Z" id="Path" fill="#4D4D4D"></path>
                <path d="M30.922112,1.10006136 C29.4552333,-0.36668712 27.0770574,-0.36668712 25.6101786,1.10006136 L10.7190283,15.9898901 C10.6169761,16.0919332 10.5432898,16.2184278 10.5048164,16.3573108 L8.54658717,23.4263281 C8.46605391,23.7161568 8.54789127,24.0265245 8.76047302,24.2394133 C8.97338071,24.4519761 9.28377603,24.5338063 9.57363047,24.4536062 L16.6432752,22.4952247 C16.7821705,22.4567547 16.9086762,22.383075 17.0107285,22.2810318 L31.9015527,7.39087707 C33.3661491,5.92315052 33.3661491,3.54714177 31.9015527,2.07941513 L30.922112,1.10006136 Z M12.5377102,16.5323817 L24.7249651,4.34588232 L28.6554436,8.27601207 L16.4678627,20.4625114 L12.5377102,16.5323817 Z M11.7525926,18.1076937 L14.8927369,21.2478853 L10.5491586,22.4512125 L11.7525926,18.1076937 Z M30.721268,6.21069709 L29.8360545,7.09583209 L25.9052499,3.16537634 L26.7907894,2.28024134 C27.6055771,1.46552591 28.9267135,1.46552591 29.7415012,2.28024134 L30.721268,3.25959511 C31.5347515,4.07528861 31.5347515,5.39532967 30.721268,6.21069709 L30.721268,6.21069709 Z" id="Shape" fill="#4D4D4D"></path>
            </g>
        </g>
    </g>
</svg>