<?xml version="1.0" encoding="UTF-8"?>
<svg width="36px" height="36px" viewBox="0 0 36 36" version="1.1" xmlns="http://www.w3.org/2000/svg" xmlns:xlink="http://www.w3.org/1999/xlink">
    <title>icones/Menu/Services auto</title>
    <g id="icones/Menu/Services-auto" stroke="none" stroke-width="1" fill="none" fill-rule="evenodd">
        <g id="Group-2" transform="translate(1.000000, 5.000000)" fill="#4D4D4D">
            <path d="M26.9923664,9.23866797 L10.1221374,19.7673099 C10.3816794,22.5660629 8.95419847,24.964994 6.8778626,25.7646377 C4.93129771,26.4310074 3.24427481,25.4980898 2.85496183,25.2315419 C4.41221374,25.2315419 5.70992366,24.0320763 6.09923664,22.5660629 C6.48854962,20.8335015 5.45038168,19.2342142 4.15267176,18.5678444 C2.72519084,17.9014747 1.03816794,18.3012965 0,19.500762 C0.129770992,18.9676663 0.778625954,17.5016528 2.20610687,16.4354612 C4.02290076,15.2359957 6.35877863,15.2359957 8.4351145,16.4354612 C14.1450382,13.1036125 19.8549618,9.63848982 25.5648855,6.30664109 C25.1755725,4.7073537 25.8244275,2.97479237 26.9923664,1.90860077 C28.4198473,0.709135233 30.3664122,0.575861284 31.9236641,1.50877893 C29.9770992,1.50877893 28.5496183,2.97479237 28.4198473,4.44080581 C28.2900763,5.5069974 28.9389313,6.57318899 29.8473282,7.10628479 C31.1450382,7.90592848 32.9618321,7.50610663 34,6.17336714 C33.740458,8.17247638 32.4427481,9.63848982 30.6259542,10.0383117 C28.6793893,10.5714075 27.2519084,9.37194192 26.9923664,9.23866797 Z" id="Path"></path>
            <path d="M8.83249955,5.23054778 L25.8270488,15.5172863 C28.0324483,13.9141582 30.8864948,14.0477522 32.5729768,15.6508803 C34,17.1204143 34,19.1243244 34,19.5251064 C33.2216237,18.0555724 31.6648711,17.3876023 30.2378479,17.7883844 C28.5513659,18.1891664 27.6432602,19.9258885 27.7729896,21.5290165 C27.902719,23.1321446 28.940554,24.4680847 30.4973066,25.0024607 C29.9783891,25.1360547 28.4216365,25.2696487 26.8648839,24.4680847 C25.0486725,23.3993326 23.8811081,21.2618285 23.8811081,18.8571364 C18.3027446,15.2500982 12.7243811,11.6430601 7.14601756,8.03602191 C5.84872372,9.10477396 4.16224173,9.37196197 2.60548912,8.70399194 C0.919007136,8.03602191 -0.118827935,6.29929983 0.0109014492,4.42898374 C0.919007136,6.16570582 2.86494789,6.83367585 4.16224173,6.16570582 C5.07034742,5.76492381 5.71899434,4.69617176 5.84872372,3.62741971 C5.9784531,2.15788564 4.81088865,0.688351569 3.12440666,0.287569551 C4.94061803,-0.38040048 6.88655879,0.153975544 8.05412324,1.48991561 C9.2216877,3.09304368 8.96222893,4.96335977 8.83249955,5.23054778 Z" id="Path"></path>
        </g>
    </g>
</svg>