<?xml version="1.0" encoding="UTF-8"?>
<svg width="36px" height="36px" viewBox="0 0 36 36" version="1.1" xmlns="http://www.w3.org/2000/svg" xmlns:xlink="http://www.w3.org/1999/xlink">
    <title>icones/Menu/Parameters</title>
    <defs>
        <polygon id="path-1" points="0 0 36 0 36 36 0 36"></polygon>
    </defs>
    <g id="icones/Menu/Parameters" stroke="none" stroke-width="1" fill="none" fill-rule="evenodd">
        <g id="Group">
            <mask id="mask-2" fill="white">
                <use xlink:href="#path-1"></use>
            </mask>
            <g id="Clip-2"></g>
            <path d="M9.24639538,18.4994487 C9.24639538,16.0263925 10.2086304,13.7023858 11.9566352,11.9537602 C13.7038077,10.2051346 16.0278217,9.24255788 18.5,9.24255788 C23.6025093,9.24255788 27.7536046,13.3951273 27.7536046,18.4994487 C27.7536046,23.6037701 23.6025093,27.7563396 18.5,27.7563396 C13.3974907,27.7563396 9.24639538,23.6037701 9.24639538,18.4994487 Z M37,18.4994487 C37,17.2513782 36.8743446,16.0044101 36.6274428,14.7916207 L33.7649249,15.3748622 C33.5070007,14.1102536 33.0969673,12.9029768 32.5546652,11.76957 L35.1890193,10.5060639 C34.6467171,9.37596472 33.985373,8.29437707 33.2226227,7.29327453 L30.8968959,9.06504961 C30.1264299,8.05292172 29.2336153,7.13891951 28.2415991,6.34288864 L30.0724202,4.06063947 C29.0914264,3.27342889 28.0288668,2.58434399 26.9122974,2.01433297 L25.579689,4.61962514 C24.4609152,4.04740904 23.2649845,3.60749724 22.0117374,3.31863286 L22.6675703,0.466372657 C21.4484926,0.18522602 20.1908365,0.0286659316 18.9331804,0 L18.8648415,2.92502756 C18.7435951,2.92282249 18.6223487,2.91620728 18.5,2.91620728 C17.3250119,2.91620728 16.1808866,3.05071665 15.0808508,3.29768467 L14.4415515,0.441014333 C13.2158603,0.715545755 12.0133163,1.11797133 10.8680887,1.63726571 L12.0761439,4.30319735 C10.911076,4.83241455 9.82316492,5.49944873 8.83225095,6.28445424 L7.01355458,3.99228225 C6.03035629,4.77177508 5.12211034,5.65490628 4.31637274,6.61742007 L6.55722712,8.49614112 C5.74487607,9.46637266 5.04715801,10.5358324 4.48721997,11.6846748 L1.85947927,10.4046307 C1.30835915,11.5347299 0.874076501,12.7254686 0.565449237,13.9437707 L3.39820663,14.6615215 C3.09288608,15.8676957 2.92865229,17.1300992 2.92314109,18.429989 L0,18.429989 L0,18.4994487 C0,19.7607497 0.127859867,21.0209482 0.380272879,22.244763 L3.24058627,21.6560088 C3.50181721,22.9195149 3.91405505,24.1267916 4.45966397,25.2579934 L1.82641206,26.5281147 C2.37091873,27.6560088 3.03556959,28.7353914 3.79942207,29.7353914 L6.12294447,27.9581036 C6.89671711,28.969129 7.7895317,29.8809261 8.78375238,30.6758545 L6.95734032,32.9614112 C7.93943637,33.7453142 9.00420043,34.432194 10.1207698,35.0011025 L11.4489693,32.3925028 C12.5677431,32.9625138 13.764776,33.4002205 15.0202276,33.6868798 L14.3699059,36.5413451 C15.5878813,36.8191841 16.8444352,36.9735391 18.105398,37 L18.1660212,34.0738699 C18.2784497,34.076075 18.3875715,34.0826902 18.5,34.0826902 C19.6860105,34.0826902 20.8389538,33.9448732 21.9500119,33.6945976 L22.5948224,36.5479603 C23.8216158,36.2712238 25.0230577,35.8654906 26.1660808,35.3450937 L24.9525143,32.6824697 C26.11648,32.1510474 27.2032888,31.4818082 28.1931006,30.693495 L30.0151037,32.9823594 C30.998302,32.199559 31.9032412,31.3142227 32.7078765,30.3517089 L30.4637154,28.477398 C31.2749643,27.5060639 31.9693756,26.4355017 32.5271092,25.2855568 L35.1559521,26.5600882 C35.7048677,25.4288864 36.1380481,24.2370452 36.4433687,23.0187431 L33.6084068,22.306505 C33.9115229,21.0970232 34.0757567,19.8324146 34.0779612,18.5292172 L37,18.4994487 Z" id="Fill-1" fill="#4D4D4D" mask="url(#mask-2)"></path>
        </g>
    </g>
</svg>