<?xml version="1.0" encoding="UTF-8"?>
<svg width="36px" height="36px" viewBox="0 0 36 36" version="1.1" xmlns="http://www.w3.org/2000/svg" xmlns:xlink="http://www.w3.org/1999/xlink">
    <title>icones/Menu/SOS</title>
    <g id="icones/Menu/SOS" stroke="none" stroke-width="1" fill="none" fill-rule="evenodd">
        <g id="call_off-copy" transform="translate(2.000000, 2.000000)" fill="#E9445A">
            <path d="M32.1287944,25.4586541 L25.4522448,21.0048984 C24.6015648,20.4441506 23.4673247,20.6310666 22.8422037,21.4302933 L20.8959509,23.9310997 C20.6446136,24.2598139 20.1934954,24.3564946 19.8326008,24.1566879 L19.4652617,23.9504358 C18.240798,23.2801166 16.7134406,22.4486629 13.6329477,19.374218 C10.5524547,16.2997731 9.72110832,14.7722187 9.05732009,13.5411517 L8.85753917,13.1737652 C8.6513137,12.8128241 8.74798189,12.3552023 9.07665373,12.1038326 L11.5771375,10.1573287 C12.3762612,9.5321271 12.5631531,8.39129534 12.0024776,7.54695093 L7.53640726,0.869540193 C6.96284268,0.00585965378 5.80926897,-0.25840081 4.92636618,0.276565495 L2.13587781,1.95236356 C1.25941957,2.46799373 0.614964983,3.30589276 0.33784951,4.28559009 C-0.667499648,7.95300969 0.0865122205,14.2759247 9.40532557,23.5959401 C16.8165533,31.0081238 22.3330846,33 26.1289221,33 C26.9989358,33.0061907 27.8689495,32.8901739 28.713185,32.6645857 C29.692756,32.3874345 30.530547,31.7428968 31.0461107,30.8663255 L32.7281371,28.0754772 C33.2565899,27.1860151 32.9923635,26.038738 32.1287944,25.4586541 Z" id="Path"></path>
            <path d="M18.5480657,5.0961313 C23.7127784,5.10257913 27.8974209,9.28722157 27.9038687,14.4519343 C27.9038687,14.7549824 28.1488863,15 28.4519343,15 C28.7549824,15 29,14.7549824 29,14.4519343 C28.9935522,8.68112544 24.3188746,4.00644783 18.5480657,4 C18.2450176,4 18,4.24501758 18,4.54806565 C18,4.85111372 18.2385698,5.0961313 18.5480657,5.0961313 Z" id="Path"></path>
            <path d="M18.5695142,8.13902848 C22.040201,8.14572864 24.8542714,10.959799 24.8609715,14.4304858 C24.8609715,14.7453936 25.1155779,15 25.4304858,15 C25.7453936,15 26,14.7453936 26,14.4304858 C25.9932998,10.3299832 22.6700168,7 18.5695142,7 C18.2546064,7 18,7.25460637 18,7.56951424 C18,7.88442211 18.2479062,8.13902848 18.5695142,8.13902848 Z" id="Path"></path>
            <path d="M18.6231672,11.2463343 C20.3533724,11.2463343 21.7463343,12.6466276 21.7536657,14.3768328 C21.7536657,14.7214076 22.0322581,15 22.3768328,15 C22.7214076,15 23,14.7214076 23,14.3768328 C23,11.957478 21.0351906,10 18.6231672,10 C18.2785924,10 18,10.2785924 18,10.6231672 C18,10.9677419 18.271261,11.2463343 18.6231672,11.2463343 Z" id="Path"></path>
        </g>
    </g>
</svg>