<?xml version="1.0" encoding="UTF-8"?>
<svg width="36px" height="36px" viewBox="0 0 36 36" version="1.1" xmlns="http://www.w3.org/2000/svg" xmlns:xlink="http://www.w3.org/1999/xlink">
    <title>icones/Menu/My vehicles activated</title>
    <defs>
        <filter color-interpolation-filters="auto" id="filter-1">
            <feColorMatrix in="SourceGraphic" type="matrix" values="0 0 0 0 0.223958 0 0 0 0 0.630892 0 0 0 0 0.846813 0 0 0 1.000000 0"></feColorMatrix>
        </filter>
        <polygon id="path-2" points="0 0 34.3872631 0 34.3872631 20 0 20"></polygon>
        <filter color-interpolation-filters="auto" id="filter-4">
            <feColorMatrix in="SourceGraphic" type="matrix" values="0 0 0 0 0.454902 0 0 0 0 0.811765 0 0 0 0 1.000000 0 0 0 1.000000 0"></feColorMatrix>
        </filter>
        <polygon id="path-5" points="0 0 26.1777778 0 26.1777778 13.3004566 0 13.3004566"></polygon>
        <filter color-interpolation-filters="auto" id="filter-7">
            <feColorMatrix in="SourceGraphic" type="matrix" values="0 0 0 0 0.690196 0 0 0 0 0.894118 0 0 0 0 1.000000 0 0 0 1.000000 0"></feColorMatrix>
        </filter>
        <polygon id="path-8" points="0 0 24 0 24 9.97534248 0 9.97534248"></polygon>
    </defs>
    <g id="icones/Menu/My-vehicles-activated" stroke="none" stroke-width="1" fill="none" fill-rule="evenodd">
        <g id="Group-9" transform="translate(1.000000, 8.000000)">
            <g filter="url(#filter-1)" id="camion">
                <g transform="translate(0.054736, 0.000000)">
                    <mask id="mask-3" fill="white">
                        <use xlink:href="#path-2"></use>
                    </mask>
                    <g id="Clip-2"></g>
                    <path d="M10.0827695,4.38387095 L10.0827695,4.38387095 L10.0827695,8.60036284 C10.0827695,8.72505462 9.9663898,8.82559439 9.82205302,8.82559439 L3.50114222,8.82559439 C3.2683829,8.82559439 3.15200325,8.57621083 3.32364699,8.43747718 L8.43720011,4.22098529 C8.48726287,4.18279141 8.55357977,4.15920107 8.61989667,4.15920107 L9.82205302,4.15920107 C9.9663898,4.15920107 10.0827695,4.25974084 10.0827695,4.38387095 M0,9.99780947 L0,10.8189779 L0,11.0464561 L0,15.0186195 C0,15.8117042 0.743789545,16.45426 1.66182349,16.45426 L3.44002665,16.45426 L4.56936444,16.45426 C4.528404,16.6379276 4.5056482,16.8277737 4.5056482,17.0221131 C4.5056482,18.6666966 6.04914154,20.0001123 7.95282667,20.0001123 C9.8565118,20.0001123 11.4000051,18.6666966 11.4000051,17.0221131 C11.4000051,16.8277737 11.3778995,16.6379276 11.3369391,16.45426 L12.4649765,16.45426 L21.4782234,16.45426 L22.6049606,16.45426 C22.5640001,16.6379276 22.5418945,16.8277737 22.5418945,17.0221131 C22.5418945,18.6666966 24.0853878,20.0001123 25.989073,20.0001123 C27.8927581,20.0001123 29.4362514,18.6666966 29.4362514,17.0221131 C29.4362514,16.8277737 29.4134956,16.6379276 29.3725352,16.45426 L30.497972,16.45426 L32.7247895,16.45426 C33.6428234,16.45426 34.3872631,15.8117042 34.3872631,15.0186195 L34.3872631,11.0464561 L34.3872631,10.8189779 L34.3872631,1.43564051 C34.3872631,0.642555845 33.6428234,-5.64160247e-14 32.7247895,-5.64160247e-14 L13.7002913,-5.64160247e-14 C12.7822574,-5.64160247e-14 12.0384678,0.642555845 12.0384678,1.43564051 L12.0384678,2.50282242 L8.74407831,2.50282242 C8.16087969,2.50282242 7.60108704,2.70165526 7.18563116,3.05663366 L0.657317509,8.6368717 C0.23666031,8.9963435 0,9.48612383 0,9.99780947" id="Fill-1" fill="#4D4D4D" mask="url(#mask-3)"></path>
                </g>
            </g>
            <g filter="url(#filter-4)" id="utilitaire">
                <g transform="translate(8.822222, 6.583070)">
                    <mask id="mask-6" fill="white">
                        <use xlink:href="#path-5"></use>
                    </mask>
                    <g id="Clip-2"></g>
                    <path d="M15.3222218,3.4899287 L8.58649768,3.4899287 C8.38206907,3.4899287 8.28283188,3.24961042 8.43119148,3.11392376 L10.722082,1.02750243 C10.7642578,0.989280838 10.8198306,0.967781191 10.8773882,0.967781191 L14.4866447,0.967781191 C14.5799276,0.967781191 14.6637831,1.0232025 14.6975237,1.10729001 L15.5331008,3.19371134 C15.5906584,3.33656455 15.4810013,3.4899287 15.3222218,3.4899287 M24.3704543,0.000110796388 C22.4576203,0.00150902765 21.4175206,0.00220814328 21.2501552,0.00220814328 L10.6129211,0.00220814328 C10.3583777,0.00220814328 10.1102847,0.0882067324 9.91528362,0.244915273 C9.26131055,0.770462206 8.60832986,1.31034224 7.97370804,1.85022227 C7.2095817,2.50094493 6.44595154,3.173645 5.70464974,3.85016724 C4.55548311,4.15976216 3.48124055,4.65425404 2.51119704,5.3193098 C1.62848225,5.92512208 0.854432187,6.65849894 0.209886652,7.49889627 C0.0724431471,7.67758222 0,7.89210093 0,8.11856388 L0,10.1361863 C0,10.7138102 0.488246964,11.1839358 1.08813576,11.1839358 L2.84959585,11.1839358 C3.11505533,12.392216 4.20765676,13.3004566 5.51113723,13.3004566 C6.81461769,13.3004566 7.90721913,12.392216 8.17218242,11.1839358 L17.4801345,11.1839358 C17.588303,11.6812943 17.8383807,12.1385201 18.210024,12.5078363 C18.725065,13.0185724 19.4112901,13.3004566 20.1416758,13.3004566 C20.8725577,13.3004566 21.5582867,13.0185724 22.0733277,12.5078363 C22.4469557,12.1366091 22.6980258,11.6765166 22.8052019,11.1762915 C22.8473778,11.1715138 22.8885612,11.1638695 22.9297446,11.1543141 L25.3451778,10.5934122 C25.8354095,10.4792251 26.1777778,10.0602209 26.1777778,9.57432888 L26.1777778,8.01202118 C26.1777778,7.50415173 25.8026612,7.07463656 25.2920859,6.98242696 L25.2920859,0.921084419 C25.2921014,0.412444596 24.8797674,0.00011055034 24.3711276,0.00011055034 C24.3709032,0.00011055034 24.3706788,0.000110632356 24.3704543,0.000110796388 Z" id="Fill-1" fill="#AFAFAF" mask="url(#mask-6)"></path>
                </g>
            </g>
            <g filter="url(#filter-7)" id="voiture">
                <g transform="translate(0.000000, 9.908184)">
                    <mask id="mask-9" fill="white">
                        <use xlink:href="#path-8"></use>
                    </mask>
                    <g id="Clip-7"></g>
                    <path d="M15.2979492,3.6038966 L7.50647113,3.6038966 C7.27000049,3.6038966 7.15463496,3.33072601 7.32682232,3.17649054 L9.97678578,0.804848517 C10.0249982,0.761401903 10.0898555,0.736963183 10.1564346,0.736963183 L14.3308302,0.736963183 C14.4393082,0.736963183 14.5363071,0.799960773 14.5753362,0.895543323 L15.5418813,3.26718534 C15.6084604,3.42956706 15.4816157,3.6038966 15.2979492,3.6038966 M22.4689787,3.38557736 L21.7193898,3.38557736 C21.3250807,3.38557736 20.9451206,3.2432897 20.6569938,2.98749777 L17.8239377,0.469223427 C17.4853026,0.167812545 17.0376154,0 16.5727096,0 L10.7022685,0 C10.2253095,0 9.76155158,0.147175404 9.38044356,0.419259821 L4.68776405,3.77225223 C4.44038821,3.94821101 4.1516874,4.0644307 3.84576786,4.10950656 L1.11659821,4.51301699 C0.793459929,4.56080826 0.496723712,4.70961291 0.272880145,4.93499222 C0.194821875,5.07727988 -0.171937201,5.77731344 0.0972490377,6.63484098 C0.348068625,7.43262942 0.546084089,7.75087587 0.703348544,7.84265684 C0.760170373,7.84265684 1.25147831,7.91760224 1.30830013,7.91760224 C1.30715222,7.94855796 1.30370847,7.97897059 1.30370847,8.0099263 C1.30370847,9.09120389 2.23811188,9.97534248 3.38086199,9.97534248 L3.72695858,9.97534248 C4.86970869,9.97534248 5.80468606,9.09120389 5.80468606,8.0099263 C5.80468606,7.97897059 5.80124231,7.94855796 5.80009439,7.91760224 L16.8912562,7.91760224 C16.8895343,7.94855796 16.8860906,7.97897059 16.8860906,8.0099263 C16.8860906,9.09120389 17.8210679,9.97534248 18.963818,9.97534248 L19.3099146,9.97534248 C20.4526648,9.97534248 21.3870682,9.09120389 21.3870682,8.0099263 C21.3870682,7.97897059 21.3841984,7.94855796 21.3824765,7.91760224 L22.5120256,7.91760224 C23.1376396,7.91760224 23.6444444,7.43806025 23.6444444,6.84610014 L23.6444444,4.49781067 C23.6444444,3.88358417 23.1181251,3.38557736 22.4689787,3.38557736" id="Fill-6" fill="#D3D3D3" mask="url(#mask-9)"></path>
                </g>
            </g>
        </g>
    </g>
</svg>