<?xml version="1.0" encoding="UTF-8"?>
<svg width="36px" height="26px" viewBox="0 0 36 26" version="1.1" xmlns="http://www.w3.org/2000/svg" xmlns:xlink="http://www.w3.org/1999/xlink">
    <title>icones/statut/damaged</title>
    <g id="icones/statut/damaged" stroke="none" stroke-width="1" fill="none" fill-rule="evenodd">
        <g id="Group" transform="translate(3, 7)" fill="#E9445A">
            <path d="M28.885402,6.45323741 L28.1423367,6.45323741 C27.770804,6.45323741 27.3992713,6.30935252 27.1020452,6.02158273 L24.3527035,3.50359712 C24.0554773,3.21582734 23.6096381,3 23.1637989,3 L17.4421958,3 C16.9963566,3 16.5505174,3.14388489 16.1789848,3.43165468 L11.5719797,6.81294964 C11.3490601,6.95683453 11.051834,7.10071942 10.7546078,7.17266187 L8.07957261,7.60431655 C7.78234648,7.67625899 7.48512034,7.82014388 7.26220074,8.03597122 C7.18789421,8.17985612 6.81636154,8.89928058 7.11358768,9.76258993 C7.18789421,10.5539568 7.41081381,10.8417266 7.55942688,10.9136691 C7.63373341,10.9136691 8.07957261,10.9856115 8.15387914,10.9856115 C8.15387914,10.9856115 8.15387914,11.057554 8.15387914,11.057554 C8.15387914,12.1366906 9.04555755,13 10.1601555,13 L10.5316882,13 C11.6462862,13 12.5379646,12.1366906 12.5379646,11.057554 C12.5379646,11.057554 12.5379646,10.9856115 12.5379646,10.9856115 L23.3867185,10.9856115 C23.3867185,10.9856115 23.3867185,11.057554 23.3867185,11.057554 C23.3867185,12.1366906 24.2783969,13 25.3929949,13 L25.7645276,13 C26.8791256,13 27.770804,12.1366906 27.770804,11.057554 C27.770804,11.057554 27.770804,10.9856115 27.770804,10.9856115 L28.885402,10.9856115 C29.4798543,10.9856115 30,10.4820144 30,9.90647482 L30,7.5323741 C30,6.95683453 29.4798543,6.45323741 28.885402,6.45323741 Z M21.8262813,6.66906475 L14.2470149,6.66906475 C14.0240953,6.66906475 13.8754822,6.38129496 14.0984018,6.23741007 L16.6991305,3.86330935 C16.773437,3.79136691 16.773437,3.79136691 16.8477436,3.79136691 L20.9346029,3.79136691 C21.0089094,3.79136691 21.1575225,3.86330935 21.1575225,3.9352518 L22.1235074,6.30935252 C22.1235074,6.52517986 22.0492009,6.66906475 21.8262813,6.66906475 Z" id="Shape"></path>
            <path d="M3.30671844,3.18787689 L3.30671844,0 L5.41797753,1.59393845 L7.47012137,0 L6.54538989,3.18787689 L9.50115262,4.64543558 L5.57421071,5.6128795 L4.19766978,8.17 L3.69096759,5.2591445 C3.69096759,5.2591445 -0.210639213,4.0913928 0.00893173248,4.0913928 C0.228502678,4.0913928 3.30671844,3.18787689 3.30671844,3.18787689 Z" id="Path"></path>
        </g>
    </g>
</svg>