<?xml version="1.0" encoding="UTF-8"?>
<svg width="36px" height="26px" viewBox="0 0 36 26" version="1.1" xmlns="http://www.w3.org/2000/svg" xmlns:xlink="http://www.w3.org/1999/xlink">
    <title>icones/statut/charging</title>
    <g id="icones/statut/charging" stroke="none" stroke-width="1" fill="none" fill-rule="evenodd">
        <g id="icones/statut/parking" transform="translate(21.1944, 3.7692)" fill="#68D15C">
            <g id="icones/content/in-charge" transform="translate(-0, -0)">
                <path d="M13.3516474,1.72670118 L13.3516474,0.905710059 L11.2242457,0.905710059 L11.2242457,0 L8.44871581,0 C7.25394444,0 6.2690235,0.878491124 6.11215171,2.01760355 L3.83131838,2.01760355 C2.78688248,2.01760355 1.93681624,2.85798817 1.93681624,3.89094675 C1.93681624,4.49044379 2.34344444,5.0266568 2.92552137,5.19439349 L5.26311752,5.8687426 C5.74852564,6.00892012 6.0877265,6.45599112 6.0877265,6.95647929 C6.0877265,7.54406805 5.60438248,8.02244083 5.00992094,8.02244083 C4.61292521,8.02244083 4.22280983,7.91628698 3.88188889,7.71554734 L2.66888462,7.00173077 C1.98566667,6.60025148 1.17000214,6.53322485 0.430021368,6.81868343 L0,6.98471893 L0,7.86559172 L0.731380342,7.58387574 C1.2315812,7.3906213 1.7830406,7.43587278 2.24436752,7.70738166 L3.45737179,8.42119822 C3.92695513,8.69747041 4.46362179,8.84343195 5.00992094,8.84343195 C6.06192521,8.84343195 6.91783974,7.99692308 6.91783974,6.95647929 C6.91783974,6.09329882 6.33301068,5.32198225 5.49532906,5.0804142 L3.15773291,4.40606509 C2.92758547,4.33971893 2.7672735,4.12809172 2.7672735,3.89094675 C2.7672735,3.3108432 3.24442521,2.83859467 3.83131838,2.83859467 L6.11215171,2.83859467 C6.2690235,3.97736686 7.25394444,4.85585799 8.44871581,4.85585799 L11.2242457,4.85585799 L11.2242457,3.95014793 L13.3516474,3.95014793 L13.3516474,3.1291568 L11.2242457,3.1291568 L11.2242457,1.72670118 L13.3516474,1.72670118" id="Fill-88"></path>
            </g>
        </g>
        <g id="Group-2" transform="translate(3, 8)" fill="#39A1D8">
            <path d="M22.844408,3.45323741 L22.0740133,3.45323741 C21.688816,3.45323741 21.3036187,3.30935252 20.9954608,3.02158273 L18.1450005,0.503597122 C17.8368427,0.215827338 17.3746059,0 16.9123691,0 L10.9803301,0 C10.5180933,0 10.0558565,0.143884892 9.6706592,0.431654676 L4.74013334,3.81294964 C4.50901494,3.95683453 4.20085707,4.10071942 3.8926992,4.17266187 L1.1192784,4.5323741 C0.811120536,4.60431655 0.50296267,4.74820144 0.27184427,4.96402878 C0.194804803,5.10791367 -0.19039253,5.82733813 0.117765336,6.69064748 C0.348883736,7.48201439 0.580002136,7.84172662 0.73408107,7.91366906 C0.811120536,7.91366906 1.27335734,7.98561151 1.3503968,7.98561151 C1.3503968,7.98561151 1.3503968,8.05755396 1.3503968,8.05755396 C1.3503968,9.13669065 2.2748704,10 3.4304624,10 L3.81565974,10 C4.97125174,10 5.89572534,9.13669065 5.89572534,8.05755396 C5.89572534,8.05755396 5.89572534,7.98561151 5.89572534,7.98561151 L17.1434875,7.98561151 C17.1434875,7.98561151 17.1434875,8.05755396 17.1434875,8.05755396 C17.1434875,9.13669065 18.0679611,10 19.2235531,10 L19.6087504,10 C20.7643424,10 21.688816,9.13669065 21.688816,8.05755396 C21.688816,8.05755396 21.688816,7.98561151 21.688816,7.98561151 L22.844408,7.98561151 C23.4607237,7.98561151 24,7.48201439 24,6.90647482 L24,4.5323741 C24,3.95683453 23.4607237,3.45323741 22.844408,3.45323741 Z M15.5256587,3.66906475 L7.5905936,3.66906475 C7.3594752,3.66906475 7.20539627,3.38129496 7.43651467,3.23741007 L10.132896,0.863309353 C10.2099355,0.791366906 10.2099355,0.791366906 10.2869749,0.791366906 L14.5241456,0.791366906 C14.6011851,0.791366906 14.755264,0.863309353 14.755264,0.935251799 L15.7567771,3.30935252 C15.8338165,3.45323741 15.7567771,3.66906475 15.5256587,3.66906475 Z" id="Shape"></path>
        </g>
    </g>
</svg>