<?xml version="1.0" encoding="UTF-8"?>
<svg width="80px" height="54px" viewBox="0 0 80 54" version="1.1" xmlns="http://www.w3.org/2000/svg" xmlns:xlink="http://www.w3.org/1999/xlink">
    <title>980FAC74-59C3-4FDD-A017-19C7C2822E06</title>
    <g id="Home" stroke="none" stroke-width="1" fill="none" fill-rule="evenodd">
        <g id="Web-Flotte/Home/vehicle-electric" transform="translate(-138.000000, -253.000000)" fill="#4D4D4D">
            <g id="Statistiques/Home-KPI-full-width-Copy" transform="translate(124.000000, 204.000000)">
                <g id="Group" transform="translate(13.000000, 45.000000)">
                    <g id="icones/content/in-charge" transform="translate(1.152778, 4.615385)">
                        <path d="M79.1561955,10.3602071 L79.1561955,5.43426036 L66.5437425,5.43426036 L66.5437425,0 L50.0888152,0 C43.0055278,0 37.1663536,5.27094675 36.236328,12.1056213 L22.7142447,12.1056213 C16.5222318,12.1056213 11.4825534,17.147929 11.4825534,23.3456805 C11.4825534,26.9426627 13.8932778,30.1599408 17.3441624,31.1663609 L31.2027682,35.2124556 C34.0805449,36.0535207 36.0915214,38.7359467 36.0915214,41.7388757 C36.0915214,45.2644083 33.2259818,48.134645 29.7016741,48.134645 C27.3480566,48.134645 25.0352297,47.4977219 23.0140556,46.293284 L15.8226731,42.0103846 C11.7721667,39.6015089 6.93644124,39.1993491 2.54941239,40.9121006 L0,41.9083136 L0,47.1935503 L4.3360406,45.5032544 C7.30151709,44.3437278 10.5708835,44.6152367 13.3058932,46.2442899 L20.4972756,50.5271893 C23.281234,52.1848225 26.4629006,53.0605917 29.7016741,53.0605917 C35.9385566,53.0605917 41.0129071,47.9815385 41.0129071,41.7388757 C41.0129071,36.5597929 37.5457062,31.9318935 32.5794509,30.4824852 L18.7208451,26.4363905 C17.3563996,26.0383136 16.4059786,24.7685503 16.4059786,23.3456805 C16.4059786,19.8650592 19.2348066,17.031568 22.7142447,17.031568 L36.236328,17.031568 C37.1663536,23.8642012 43.0055278,29.1351479 50.0888152,29.1351479 L66.5437425,29.1351479 L66.5437425,23.7008876 L79.1561955,23.7008876 L79.1561955,18.7749408 L66.5437425,18.7749408 L66.5437425,10.3602071 L79.1561955,10.3602071" id="Fill-88"></path>
                    </g>
                </g>
            </g>
        </g>
    </g>
</svg>