<?xml version="1.0" encoding="UTF-8"?>
<svg width="36px" height="26px" viewBox="0 0 36 26" version="1.1" xmlns="http://www.w3.org/2000/svg" xmlns:xlink="http://www.w3.org/1999/xlink">
    <title>307B7012-E115-48D4-B8D0-0A869D200616</title>
    <g id="Home" stroke="none" stroke-width="1" fill="none" fill-rule="evenodd">
        <g id="Web-Flotte/Home/Fleet" transform="translate(-258.000000, -498.000000)" fill="#68D15C">
            <g id="Card/Status/Desktop" transform="translate(124.000000, 451.000000)">
                <g id="Group" transform="translate(127.000000, 43.000000)">
                    <g id="Group" transform="translate(7.000000, 4.000000)">
                        <g id="icones/content/in-charge" transform="translate(0.500000, 2.000000)">
                            <path d="M34.3328077,4.48942308 L34.3328077,2.35484615 L28.8623462,2.35484615 L28.8623462,0 L21.7252692,0 C18.653,0 16.1203462,2.28407692 15.7169615,5.24576923 L9.85196154,5.24576923 C7.16626923,5.24576923 4.98038462,7.43076923 4.98038462,10.1164615 C4.98038462,11.6751538 6.026,13.0693077 7.52276923,13.5054231 L13.5337308,15.2587308 C14.7819231,15.6231923 15.6541538,16.7855769 15.6541538,18.0868462 C15.6541538,19.6145769 14.4112692,20.8583462 12.8826538,20.8583462 C11.8618077,20.8583462 10.8586538,20.5823462 9.982,20.0604231 L6.86284615,18.2045 C5.106,17.1606538 3.00857692,16.9863846 1.10576923,17.7285769 L0,18.1602692 L0,20.4505385 L1.88069231,19.7180769 C3.16692308,19.2156154 4.58496154,19.3332692 5.77123077,20.0391923 L8.89038462,21.8951154 C10.0978846,22.6134231 11.4778846,22.9929231 12.8826538,22.9929231 C15.5878077,22.9929231 17.7887308,20.792 17.7887308,18.0868462 C17.7887308,15.8425769 16.2848846,13.8371538 14.1308462,13.2090769 L8.11988462,11.4557692 C7.52807692,11.2832692 7.11584615,10.7330385 7.11584615,10.1164615 C7.11584615,8.60819231 8.34280769,7.38034615 9.85196154,7.38034615 L15.7169615,7.38034615 C16.1203462,10.3411538 18.653,12.6252308 21.7252692,12.6252308 L28.8623462,12.6252308 L28.8623462,10.2703846 L34.3328077,10.2703846 L34.3328077,8.13580769 L28.8623462,8.13580769 L28.8623462,4.48942308 L34.3328077,4.48942308" id="Fill-88"></path>
                        </g>
                    </g>
                </g>
            </g>
        </g>
    </g>
</svg>