<?xml version="1.0" encoding="UTF-8"?>
<svg width="36px" height="26px" viewBox="0 0 36 26" version="1.1" xmlns="http://www.w3.org/2000/svg" xmlns:xlink="http://www.w3.org/1999/xlink">
    <title>744A7427-79FF-4B62-B32B-70B1E546E0FA</title>
    <g id="Home" stroke="none" stroke-width="1" fill="none" fill-rule="evenodd">
        <g id="Web-Flotte/Home/Fleet" transform="translate(-258.000000, -545.000000)" fill="#E9445A">
            <g id="Card/Status/Desktop" transform="translate(124.000000, 451.000000)">
                <g id="Group" transform="translate(127.000000, 90.000000)">
                    <g id="icones/statut/running" transform="translate(7.000000, 4.000000)">
                        <path d="M4.92218182,18.9307368 L30.9591818,18.9307368 L30.9591818,8.28647368 L4.92218182,8.28647368 L4.92218182,18.9307368 Z M32.1938182,6.22221053 L28.5340909,6.22221053 L28.5340909,4.10526316 L25.5722727,4.10526316 L25.5722727,6.22221053 L10.2698182,6.22221053 L10.2698182,4.10526316 L7.308,4.10526316 L7.308,6.22221053 L3.68836364,6.22221053 C3.00681818,6.22221053 2.45454545,6.68473684 2.45454545,7.25468421 L2.45454545,19.9632105 C2.45454545,20.5331579 3.00681818,20.995 3.68836364,20.995 L32.1938182,20.995 C32.8753636,20.995 33.4276364,20.5331579 33.4276364,19.9632105 L33.4276364,7.25468421 C33.4276364,6.68473684 32.8753636,6.22221053 32.1938182,6.22221053 L32.1938182,6.22221053 Z" id="Fill-54"></path>
                        <polygon id="Fill-55" points="6.97909091 11.2997422 10.5987273 11.2997422 10.5987273 10.0613212 6.97909091 10.0613212"></polygon>
                        <polyline id="Fill-56" points="26.3127273 12.1940054 27.7936364 12.1940054 27.7936364 11.2997422 28.863 11.2997422 28.863 10.0613212 27.7936364 10.0613212 27.7936364 9.16705803 26.3127273 9.16705803 26.3127273 10.0613212 25.2433636 10.0613212 25.2433636 11.2997422 26.3127273 11.2997422 26.3127273 12.1940054"></polyline>
                        <path d="M7.82816408,0.881952768 C7.54998227,0.631531716 7.08198227,0.617163295 6.78252772,0.849110663 C6.48225499,1.08242645 6.46507318,1.47379487 6.74325499,1.72421593 L32.4104368,24.8395843 C32.5560732,24.9709528 32.7540732,25.0373212 32.9528914,25.0373212 C33.1337095,25.0373212 33.3145277,24.9825843 33.4568914,24.8724265 C33.7563459,24.6391107 33.7735277,24.2477422 33.4953459,23.9973212 L7.82816408,0.881952768" id="Fill-72" stroke="#FFFFFF" stroke-width="0.5"></path>
                    </g>
                </g>
            </g>
        </g>
    </g>
</svg>