<?xml version="1.0" encoding="UTF-8"?>
<svg width="36px" height="26px" viewBox="0 0 36 26" version="1.1" xmlns="http://www.w3.org/2000/svg" xmlns:xlink="http://www.w3.org/1999/xlink">
    <title>icones/statut/no-device</title>
    <g id="icones/statut/no-device" stroke="none" stroke-width="1" fill="none" fill-rule="evenodd">
        <g id="no-device" transform="translate(1, 2)">
            <g id="icon-nodevice">
                <g id="Véhicule-flotte" transform="translate(9, 8.3296)"></g>
                <g id="icones/icon-boitier" transform="translate(-5.52, -12.88)" stroke="#8B8B8B">
                    <g id="icon-Boitier" transform="translate(0, -0.348)">
                        <path d="M20.88,23.8080499 C22.8129966,23.8080499 24.38,25.3750533 24.38,27.3080499 L24.38,32.2680499 C24.38,34.2010465 22.8129966,35.7680499 20.88,35.7680499 L5.98,35.7680499 L5.98,23.8080499 L20.88,23.8080499 Z M38.18,14.5160499 L38.18,17.6440499 L35.052,17.6440499 L35.052,14.5160499 L38.18,14.5160499 Z M13.34,23.8080499 L13.34,35.7680499" id="Combined-Shape"></path>
                        <path d="M30.6460676,16.0590944 C30.6460676,17.7370483 31.3522174,18.5293469 32.764517,18.43599 L35.6321301,18.43599 L35.6321301,13.8 L32.764517,13.8 C31.3522174,13.8 30.6460676,14.5530315 30.6460676,16.0590944 C30.6460676,16.0590944 28.496045,16.0590944 24.196,16.0590944 C22.3824922,16.0249848 21.4757384,16.8172834 21.4757384,18.43599 C21.4757384,20.0546966 22.4438256,20.8640499 24.38,20.8640499 L34.04,20.8640499 C36.7199657,21.3285491 38.0599485,22.7721664 38.0599485,25.1949016 C38.0599485,27.6176368 36.7199657,29.1486863 34.04,29.7880499 L24.38,29.7880499" id="Line-Copy-3" transform="translate(29.7678, 21.794) rotate(-0) translate(-29.7678, -21.794)"></path>
                    </g>
                </g>
            </g>
            <g id="Components/Nav/Close" transform="translate(9, 4)" stroke="#E9445A" stroke-width="2">
                <g id="Filter">
                    <path d="M8,1 C9.93229167,1 11.6822355,1.78394903 12.9491432,3.05085678 C14.216051,4.31776453 15,6.06770833 15,8 C15,9.93229167 14.216051,11.6822355 12.9491432,12.9491432 C11.6822355,14.216051 9.93229167,15 8,15 C6.06770833,15 4.31776453,14.216051 3.05085678,12.9491432 C1.78394903,11.6822355 1,9.93229167 1,8 C1,6.06770833 1.78394903,4.31776453 3.05085678,3.05085678 C4.31776453,1.78394903 6.06770833,1 8,1 Z" id="Path"></path>
                    <path d="M8.35660181,7.99996039 L10.926234,5.43035368 C11.0244566,5.33181512 11.0246151,5.17228405 10.926234,5.07390392 C10.8273776,4.97536536 10.6680034,4.97536536 10.5694638,5.07390392 L8,7.64335221 L5.43035794,5.07390392 C5.33229368,4.97536536 5.17228576,4.97536536 5.07390465,5.07390392 C4.97536512,5.17228405 4.97536512,5.33181512 5.07390465,5.43035368 L7.64337838,7.99996039 L5.07406307,10.5692503 C4.97552354,10.6677888 4.97552354,10.8273199 5.07406307,10.9260169 C5.12333284,10.9751277 5.18781128,11 5.25228972,10.9998416 C5.31692658,11 5.38140502,10.9751277 5.43051636,10.9260169 L8,8.35656858 L10.5694638,10.9260169 C10.6187336,10.9751277 10.6833705,11 10.7478489,11 C10.8121689,11 10.8768058,10.9751277 10.926234,10.9260169 C11.0246151,10.8273199 11.0246151,10.6677888 10.9260755,10.5692503 L8.35660181,7.99996039 Z" id="Shape" stroke-linejoin="round"></path>
                </g>
            </g>
        </g>
    </g>
</svg>