<?xml version="1.0" encoding="UTF-8"?>
<svg width="36px" height="26px" viewBox="0 0 36 26" version="1.1" xmlns="http://www.w3.org/2000/svg" xmlns:xlink="http://www.w3.org/1999/xlink">
    <title>5C0FDAF1-9C4A-4EE2-A287-D915A41F7821</title>
    <g id="Home" stroke="none" stroke-width="1" fill="none" fill-rule="evenodd">
        <g id="Web-Flotte/Home/Fleet" transform="translate(-591.000000, -545.000000)">
            <g id="Card/Status/Desktop" transform="translate(124.000000, 451.000000)">
                <g id="Group" transform="translate(460.000000, 90.000000)">
                    <g id="Group" transform="translate(7.000000, 4.000000)">
                        <g id="pin-copy" transform="translate(18.500000, 13.000000) scale(-1, 1) translate(-18.500000, -13.000000) translate(10.000000, 0.000000)">
                            <path d="M8.5,0 C3.8131,0 0,4.10048438 0,9.140625 C0,10.8435234 0.438647222,12.5053906 1.26881389,13.9471719 L8.01616111,25.6399102 C8.14540833,25.8639063 8.37311389,26 8.61800833,26 C8.61989722,26 8.62173889,26 8.62362778,26 C8.87064722,25.997918 9.098825,25.8576094 9.22571111,25.6297031 L15.801075,13.8236719 C16.5854361,12.4123594 17,10.7929961 17,9.140625 C17,4.10048438 13.1869,0 8.5,0 Z" id="Shape" fill="#39A1D8"></path>
                            <path d="M8.5,4 C6.0187,4 4,6.243 4,9 C4,11.7393889 5.98585,14 8.5,14 C11.04515,14 13,11.7092778 13,9 C13,6.243 10.9813,4 8.5,4 Z M8.5,12.3444444 C6.83715,12.3444444 5.49,10.8426111 5.49,9 C5.49,7.162 6.8458,5.65555556 8.5,5.65555556 C10.1542,5.65555556 11.505,7.162 11.505,9 C11.505,10.8157222 10.1892,12.3444444 8.5,12.3444444 Z" id="Shape" fill="#FFFFFF"></path>
                        </g>
                    </g>
                </g>
            </g>
        </g>
    </g>
</svg>