<?xml version="1.0" encoding="UTF-8"?>
<svg width="26px" height="26px" viewBox="0 0 26 26" version="1.1" xmlns="http://www.w3.org/2000/svg" xmlns:xlink="http://www.w3.org/1999/xlink">
    <title>828DF9C9-AD05-480D-A718-6AC656D2E503</title>
    <g id="Home" stroke="none" stroke-width="1" fill="none" fill-rule="evenodd">
        <g id="Web-Flotte/Home/Fleet" transform="translate(-146.000000, -545.000000)">
            <g id="Card/Status/Desktop" transform="translate(124.000000, 451.000000)">
                <g id="Group" transform="translate(10.000000, 90.000000)">
                    <g id="Group" transform="translate(7.000000, 4.000000)">
                        <g id="p" transform="translate(5.000000, 0.000000)">
                            <path d="M4.01234568,26 L21.9876543,26 C24.2345679,26 26,24.2345679 26,21.9876543 L26,4.01234568 C26,1.7654321 24.2345679,0 21.9876543,0 L4.01234568,0 C1.7654321,0 0,1.7654321 0,4.01234568 L0,21.9876543 C0,24.0740741 1.7654321,26 4.01234568,26 Z" id="Shape" fill="#39A1D8"></path>
                            <path d="M10.9355469,22.5605469 L10.9355469,15.9589844 L12.6240234,15.9589844 C14.9261068,15.9589844 16.7013346,15.430013 17.949707,14.3720703 C19.1980794,13.3141276 19.8222656,11.7864583 19.8222656,9.7890625 C19.8222656,7.86783854 19.2361654,6.4226888 18.0639648,5.45361328 C16.8917643,4.48453776 15.180013,4 12.9287109,4 L12.9287109,4 L7,4 L7,22.5605469 L10.9355469,22.5605469 Z M12.2304688,12.734375 L10.9355469,12.734375 L10.9355469,7.22460938 L12.7255859,7.22460938 C13.8004557,7.22460938 14.589681,7.44466146 15.0932617,7.88476562 C15.5968424,8.32486979 15.8486328,9.0061849 15.8486328,9.92871094 C15.8486328,10.8427734 15.5481771,11.5388997 14.9472656,12.0170898 C14.3463542,12.4952799 13.4407552,12.734375 12.2304688,12.734375 L12.2304688,12.734375 Z" id="P" fill="#FFFFFF"></path>
                        </g>
                    </g>
                </g>
            </g>
        </g>
    </g>
</svg>