<?xml version="1.0" encoding="UTF-8"?>
<svg width="28px" height="28px" viewBox="0 0 28 28" version="1.1" xmlns="http://www.w3.org/2000/svg" xmlns:xlink="http://www.w3.org/1999/xlink">
    <title>EB18883F-0F17-490F-8D0C-DAFB839BB6AB</title>
    <g id="Home" stroke="none" stroke-width="1" fill="none" fill-rule="evenodd">
        <g id="Web-Flotte/Home/Fleet" transform="translate(-145.000000, -591.000000)" fill-rule="nonzero">
            <g id="Card/Status/Desktop" transform="translate(124.000000, 451.000000)">
                <g id="Group" transform="translate(10.000000, 137.000000)">
                    <g id="Group" transform="translate(7.000000, 4.000000)">
                        <g id="location-off" transform="translate(5.000000, 0.000000)">
                            <path d="M13.5,0 C8.8131,0 5,4.10048438 5,9.140625 C5,10.8435234 5.43864722,12.5053906 6.26881389,13.9471719 L13.0161611,25.6399102 C13.1454083,25.8639062 13.3731139,26 13.6180083,26 C13.6198972,26 13.6217389,26 13.6236278,26 C13.8706472,25.997918 14.098825,25.8576094 14.2257111,25.6297031 L20.801075,13.8236719 C21.5854361,12.4123594 22,10.7929961 22,9.140625 C22,4.10048438 18.1869,0 13.5,0 Z M19.1761772,12.851271 L13.6022378,22.88 L7.88251489,12.947493 C7.23822326,11.8262309 6.88888889,10.5326422 6.88888889,9.20650495 C6.88888889,5.28218255 9.86047656,2.08 13.5022015,2.08 C17.1439264,2.08 20.1111111,5.28218255 20.1111111,9.20650495 C20.1111111,10.4933088 19.7848045,11.7538272 19.1761772,12.851271 Z" id="Shape" fill="#3AA1D8"></path>
                            <path d="M13.5,4 C11.0187,4 9,6.0187 9,8.5 C9,10.96545 10.98585,13 13.5,13 C16.04515,13 18,10.93835 18,8.5 C18,6.0187 15.9813,4 13.5,4 Z M13.5024938,11.5 C11.8437905,11.5 10.5,10.1528405 10.5,8.5 C10.5,6.85129568 11.852419,5.5 13.5024938,5.5 C15.1525686,5.5 16.5,6.85129568 16.5,8.5 C16.5,10.1287209 15.1874813,11.5 13.5024938,11.5 Z" id="Shape" fill="#3AA1D8"></path>
                            <line x1="0.574463999" y1="25.425536" x2="25.5517241" y2="0.448275862" id="Path-2" stroke="#FF6A6A" stroke-width="1.5" stroke-linecap="round" transform="translate(13.000000, 13.000000) scale(-1, 1) translate(-13.000000, -13.000000) "></line>
                        </g>
                    </g>
                </g>
            </g>
        </g>
    </g>
</svg>