<?xml version="1.0" encoding="UTF-8"?>
<svg width="36px" height="26px" viewBox="0 0 36 26" version="1.1" xmlns="http://www.w3.org/2000/svg" xmlns:xlink="http://www.w3.org/1999/xlink">
    <title>icones/statut/stolen</title>
    <g id="icones/statut/stolen" stroke="none" stroke-width="1" fill="none" fill-rule="evenodd">
        <g id="stolen" transform="translate(3, 2)">
            <circle id="Oval" stroke="#E9445A" stroke-width="1.25522605" cx="15.8728481" cy="11.5" r="10.872387"></circle>
            <path d="M13.5322754,10.4091822 C16.708746,10.0966822 17.7675695,9.47168219 17.7675695,8.22168219 C17.7675695,7.28418219 17.0616872,6.65918219 15.6499225,6.65918219 C14.2381578,6.65918219 13.1793342,7.28418219 12.1205107,8.22168219 L10.0028636,6.03418219 C11.4146284,4.78418219 13.1793342,3.84668219 16.0028636,3.84668219 C19.5322754,3.84668219 22.0028636,5.40918219 22.0028636,8.22168219 C22.0028636,11.0341822 19.8852166,11.9716822 17.0616872,12.5966822 L16.708746,15.8466822 L14.2381578,15.8466822 L13.5322754,10.4091822 Z M17.0028636,16.8466822 L17.0028636,19.8466822 L14.0028636,19.8466822 L14.0028636,16.8466822 L17.0028636,16.8466822 Z" id="Shape" fill="#E9445A"></path>
        </g>
    </g>
</svg>