<?xml version="1.0" encoding="UTF-8"?>
<svg width="20px" height="20px" viewBox="0 0 20 20" version="1.1" xmlns="http://www.w3.org/2000/svg" xmlns:xlink="http://www.w3.org/1999/xlink">
    <title>icones/content/Alert-ionic</title>
    <g id="Symbols" stroke="none" stroke-width="1" fill="none" fill-rule="evenodd" stroke-linecap="round" stroke-linejoin="round">
        <g id="-System/Navigation/Primary/Mobile-right-Opened" transform="translate(-33, -165)" stroke="#4D4D4D">
            <g id="Primary-Nav-Icons" transform="translate(0, 65)">
                <g id="icones/content/Alert-ionic" transform="translate(33, 100)">
                    <g id="notifications-outline" transform="translate(2.5, 1.4286)">
                        <path d="M14.8102189,12.5039835 C13.7168279,11.2087912 12.9448973,10.5494505 12.9448973,6.97870879 C12.9448973,3.70879121 11.2196557,2.54381868 9.7996951,1.97802198 C9.61107664,1.90302198 9.43352834,1.73076923 9.37604868,1.54326923 C9.12697013,0.722802198 8.42869863,0 7.50050847,0 C6.57231831,0 5.87362104,0.723214286 5.62709714,1.54409341 C5.56961748,1.73365385 5.39206917,1.90302198 5.20345072,1.97802198 C3.78178698,2.54464286 2.05824856,3.70549451 2.05824856,6.97870879 C2.05611968,10.5494505 1.28418906,11.2087912 0.190798081,12.5039835 C-0.262226841,13.040522 0.134595741,13.8461538 0.926963578,13.8461538 L14.0783111,13.8461538 C14.8664212,13.8461538 15.2606891,13.0380495 14.8102189,12.5039835 Z M10.2254704,13.8461538 L10.2254704,14.5054945 C10.2254704,15.9620697 9.00546339,17.1428571 7.50050847,17.1428571 C5.99555355,17.1428571 4.77554654,15.9620697 4.77554654,14.5054945 L4.77554654,13.8461538" id="Shape" stroke-width="1.31868132"></path>
                    </g>
                </g>
            </g>
        </g>
    </g>
</svg>