<?xml version="1.0" encoding="UTF-8"?>
<svg width="26px" height="26px" viewBox="0 0 26 26" version="1.1" xmlns="http://www.w3.org/2000/svg" xmlns:xlink="http://www.w3.org/1999/xlink">
    <title>icones/Menu/folder</title>
    <g id="Symbols" stroke="none" stroke-width="1" fill="none" fill-rule="evenodd">
        <g id="-System/Navigation/Primary/Mobile-right-Opened" transform="translate(-30, -202)" fill="#4D4D4D">
            <g id="Primary-Nav-Icons" transform="translate(0, 65)">
                <g id="icones/Menu/folder" transform="translate(30, 137)">
                    <g id="folder" transform="translate(1.6063, 1.2101)">
                        <path d="M2.95283106,2.78573754 L2.95283106,2.83122026 C2.08145268,2.83122026 1.3189966,3.05998217 0.774385111,3.61135701 C0.229773622,4.16126544 0.00321524297,4.93113723 0.00321524297,5.8109907 L0.00321524297,19.6950786 C-0.00107174766,19.7409245 -0.00107174766,19.7870763 0.00321524297,19.8329223 C0.0616881686,20.1514898 0.320300703,20.3935398 0.639321461,20.4282898 C0.653841165,20.4286653 0.668370677,20.4286653 0.68289038,20.4282898 C0.698377584,20.4286653 0.713876691,20.4286653 0.729363894,20.4282898 L19.5642076,20.4282898 C19.8848417,20.4130616 20.1592697,20.1910286 20.2438827,19.8783814 L23.1949509,9.61342415 C23.2446451,9.39811322 23.1974476,9.17163445 23.0660322,8.99480401 C22.9346168,8.81797356 22.7324514,8.70891368 22.5138234,8.69691011 L20.2903563,8.69691011 C20.2874517,7.84491866 20.0899392,7.04278557 19.5642076,6.49727642 C19.0355714,5.94883442 18.2426171,5.71860609 17.3857617,5.71860609 L9.39812649,5.71860609 L9.03505217,3.42658778 C8.98871104,3.0580893 8.67677123,2.78280224 8.30890351,2.78573754 L2.95137877,2.78573754 L2.95283106,2.78573754 Z M2.95283106,4.29764272 L7.71927081,4.29764272 L8.08234514,6.58966103 C8.12868627,6.95815951 8.44062607,7.23344658 8.80849379,7.23048765 L17.3857617,7.23048765 C18.002988,7.23048765 18.3370164,7.36246567 18.5200058,7.55163417 C18.7000907,7.73933624 18.8337021,8.08687837 18.838059,8.69691011 L3.67752742,8.69691011 C3.35194845,8.68551541 3.05721965,8.89026101 2.95137877,9.20135944 L1.45551255,14.5171409 L1.45551255,5.80952428 C1.45551255,5.1642984 1.57750552,4.81675628 1.77356565,4.61878924 C1.96962579,4.42082221 2.31527255,4.29764272 2.95283106,4.29764272 Z M4.2235912,10.1633326 L21.5160952,10.1633326 L18.9745749,18.9164082 L1.72854444,18.9164082 L4.2235912,10.1633326 Z" id="Shape"></path>
                    </g>
                </g>
            </g>
        </g>
    </g>
</svg>