<?xml version="1.0" encoding="UTF-8"?>
<svg width="8px" height="18px" viewBox="0 0 8 18" version="1.1" xmlns="http://www.w3.org/2000/svg" xmlns:xlink="http://www.w3.org/1999/xlink">
    <title>Icon Help</title>
    <g id="Symbols" stroke="none" stroke-width="1" fill="none" fill-rule="evenodd">
        <g id="-System/Navigation/Primary/Mobile-right-Opened" transform="translate(-39, -130)" fill="#4D4D4D" fill-rule="nonzero">
            <g id="Primary-Nav-Icons" transform="translate(0, 65)">
                <path d="M43.2565598,77.9268293 C43.1710398,77.7154472 43.0855199,77.4573171 43,77.152439 C42.9144801,76.847561 42.8717201,76.5081301 42.8717201,76.1341463 C42.8717201,75.695122 42.9727891,75.2926829 43.1749271,74.9268293 C43.3770651,74.5609756 43.6316812,74.2093496 43.9387755,73.8719512 C44.2458698,73.5345528 44.5782313,73.195122 44.9358601,72.8536585 C45.2934888,72.5121951 45.6258503,72.1443089 45.9329446,71.75 C46.2400389,71.3556911 46.494655,70.9227642 46.696793,70.4512195 C46.898931,69.9796748 47,69.4430894 47,68.8414634 C47,68.2073171 46.8872692,67.6504065 46.6618076,67.1707317 C46.436346,66.6910569 46.1273081,66.2906504 45.7346939,65.9695122 C45.3420797,65.648374 44.8853256,65.4065041 44.3644315,65.2439024 C43.8435374,65.0813008 43.2876579,65 42.696793,65 C41.4217687,65 40.1895044,65.3902439 39,66.1707317 L39,66.1707317 L39,68.3170732 C39.9640428,67.2357724 41.1030126,66.695122 42.4169096,66.695122 C42.7823129,66.695122 43.1282799,66.745935 43.4548105,66.847561 C43.7813411,66.949187 44.068999,67.101626 44.3177843,67.304878 C44.5665695,67.5081301 44.7628766,67.7601626 44.9067055,68.0609756 C45.0505345,68.3617886 45.122449,68.7073171 45.122449,69.097561 C45.122449,69.5528455 45.0233236,69.9695122 44.8250729,70.347561 C44.6268222,70.7256098 44.3799806,71.0873984 44.0845481,71.4329268 C43.7891156,71.7784553 43.4664723,72.1199187 43.1166181,72.4573171 C42.7667638,72.7947154 42.4441205,73.1463415 42.148688,73.5121951 C41.8532556,73.8780488 41.606414,74.2703252 41.4081633,74.6890244 C41.2099125,75.1077236 41.1107872,75.5772358 41.1107872,76.097561 C41.1107872,76.4308943 41.1379981,76.7662602 41.1924198,77.1036585 C41.2468416,77.4410569 41.3090379,77.7154472 41.3790087,77.9268293 L41.3790087,77.9268293 L43.2565598,77.9268293 Z M42.4285714,83 C42.7706511,83 43.0738581,82.8699187 43.3381924,82.6097561 C43.5947522,82.3495935 43.7230321,82.0325203 43.7230321,81.6585366 C43.7230321,81.2764228 43.5947522,80.9593496 43.3381924,80.7073171 C43.0816327,80.4390244 42.7784257,80.304878 42.4285714,80.304878 C42.0787172,80.304878 41.7755102,80.4390244 41.5189504,80.7073171 C41.2623907,80.9593496 41.1341108,81.2764228 41.1341108,81.6585366 C41.1341108,82.0325203 41.2623907,82.3495935 41.5189504,82.6097561 C41.7832847,82.8699187 42.0864917,83 42.4285714,83 Z" id="Icon-Help"></path>
            </g>
        </g>
    </g>
</svg>