<?xml version="1.0" encoding="utf-8" ?>
<svg xmlns="http://www.w3.org/2000/svg" xmlns:xlink="http://www.w3.org/1999/xlink" width="25" height="25">
	<path fill="#4D4D4D" transform="translate(7 9)" d="M6.0664062 4.1796875Q6.0644531 4.0332031 6.0087891 3.9101562Q5.953125 3.7871094 5.8339844 3.6699219L2.8828125 0.77929688Q2.7050781 0.60351562 2.4472656 0.60351562Q2.2773438 0.60351562 2.1337891 0.6875Q1.9902344 0.77148438 1.9052734 0.91210938Q1.8203125 1.0527344 1.8203125 1.2246094Q1.8203125 1.484375 2.0214844 1.6816406L4.5957031 4.1777344L2.0214844 6.6777344Q1.8203125 6.8789062 1.8203125 7.1367188Q1.8203125 7.3085938 1.9052734 7.4492188Q1.9902344 7.5898438 2.1337891 7.6738281Q2.2773438 7.7578125 2.4472656 7.7578125Q2.7050781 7.7578125 2.8828125 7.5800781L5.8339844 4.6894531Q5.9550781 4.5722656 6.0107422 4.4482422Q6.0664062 4.3242188 6.0664062 4.1796875Z"/>
	<path fill="none" stroke="#4D4D4D" stroke-width="1.5" stroke-miterlimit="5" transform="translate(2 5)" d="M0 0L21 0L21 16L0 16L0 0Z"/>
	<path fill="none" stroke="#4D4D4D" stroke-width="1.5" stroke-linecap="square" stroke-miterlimit="10" transform="translate(17 6)" d="M0.5 0.5L0.5 13.5" fill-rule="evenodd"/>
</svg>
