<?xml version="1.0" encoding="UTF-8"?>
<svg width="18px" height="18px" viewBox="0 0 18 18" version="1.1" xmlns="http://www.w3.org/2000/svg" xmlns:xlink="http://www.w3.org/1999/xlink">
    <title>Icon Settings</title>
    <g id="Symbols" stroke="none" stroke-width="1" fill="none" fill-rule="evenodd">
        <g id="-System/Navigation/Primary/Mobile-right-Opened" transform="translate(-34, -95)" fill="#4D4D4D">
            <g id="Primary-Nav-Icons" transform="translate(0, 65)">
                <path d="M42.9998689,31.5 C42.8080196,31.5 42.6169378,31.50675 42.4281581,31.52025 C42.2002412,31.53675 41.9585111,31.731 41.9086303,32.06775 L41.8357276,32.5575 C41.7106419,33.4005 41.1189788,34.02675 40.4613195,34.37175 C40.3623253,34.4235 40.2656333,34.479 40.1704761,34.536 C39.5350713,34.92225 38.684028,35.10975 37.8744242,34.794 L37.4032424,34.61025 C37.0794009,34.48425 36.7870226,34.59075 36.6573325,34.776 C36.4432287,35.08275 36.2513795,35.406 36.0848543,35.74425 C35.9850927,35.94525 36.0365083,36.24525 36.3097017,36.456 L36.7110503,36.76575 C37.3940337,37.29225 37.6541812,38.1045 37.6303919,38.83425 L37.6280897,39 L37.6303919,39.16575 C37.6541812,39.8955 37.3940337,40.70775 36.7110503,41.23425 L36.3097017,41.544 C36.0365083,41.75475 35.9850927,42.05475 36.0848543,42.25575 C36.2513795,42.594 36.4432287,42.91725 36.6573325,43.224 C36.7870226,43.40925 37.0794009,43.51575 37.4032424,43.38975 L37.8744242,43.206 C38.684028,42.89025 39.5350713,43.0785 40.1704761,43.464 C40.2656333,43.521 40.3623253,43.5765 40.4613195,43.62825 C41.1189788,43.97325 41.7106419,44.5995 41.8357276,45.4425 L41.9086303,45.93225 C41.9585111,46.269 42.2002412,46.46325 42.4281581,46.47975 C42.6169378,46.49325 42.8080196,46.5 42.9998689,46.5 C43.1917182,46.5 43.3828,46.49325 43.5715797,46.47975 C43.800264,46.46325 44.0412267,46.269 44.0911075,45.93225 L44.1640102,45.4425 C44.2890959,44.5995 44.880759,43.97325 45.5384182,43.62825 C45.6374125,43.5765 45.7341045,43.521 45.8300291,43.464 C46.4646664,43.0785 47.3157097,42.89025 48.1253136,43.206 L48.5964954,43.38975 C48.9203369,43.51575 49.2127152,43.40925 49.3424053,43.224 C49.556509,42.91725 49.7483583,42.59325 49.9148835,42.25575 C50.0146451,42.05475 49.9632295,41.75475 49.6900361,41.544 L49.2886875,41.23425 C48.6057041,40.70775 48.3455565,39.8955 48.3693459,39.16575 L48.371648,39 L48.3693459,38.83425 C48.3455565,38.1045 48.6057041,37.29225 49.2886875,36.76575 L49.6900361,36.456 C49.9632295,36.24525 50.0146451,35.94525 49.9148835,35.74425 C49.7483583,35.40675 49.556509,35.08275 49.3424053,34.776 C49.2127152,34.59075 48.9203369,34.48425 48.5964954,34.61025 L48.1253136,34.794 C47.3157097,35.10975 46.4646664,34.92225 45.8300291,34.536 C45.7341045,34.479 45.6374125,34.4235 45.5384182,34.37175 C44.880759,34.02675 44.2890959,33.4005 44.1640102,32.5575 L44.0911075,32.06775 C44.0412267,31.731 43.800264,31.53675 43.5715797,31.52025 C43.3828,31.50675 43.1917182,31.5 42.9998689,31.5 Z M42.3161181,30.02475 C42.5417329,30.00825 42.7696498,30 42.9998689,30 C43.230088,30 43.4580049,30.00825 43.6836196,30.02475 C44.7464645,30.1005 45.4739569,30.9375 45.6097862,31.8525 L45.6826889,32.34225 C45.7210587,32.60025 45.9190472,32.86875 46.2643758,33.05025 C46.3917637,33.117 46.5168494,33.1875 46.6388656,33.2625 C46.9719159,33.46425 47.3088032,33.49725 47.5566724,33.4005 L48.0286216,33.21675 C48.9057564,32.87475 50.0092733,33.072 50.6093778,33.93 C50.8664558,34.29825 51.0974423,34.68675 51.2977329,35.09175 C51.7604733,36.02925 51.3821466,37.06275 50.6400736,37.63425 L50.2394924,37.94325 C50.029993,38.1045 49.8910942,38.406 49.9033725,38.78775 C49.9056747,38.85825 49.9064421,38.92875 49.9064421,39 C49.9064421,39.07125 49.9056747,39.14175 49.9033725,39.21225 C49.8910942,39.594 50.029993,39.8955 50.2394924,40.05675 L50.6400736,40.36575 C51.3821466,40.93725 51.7604733,41.97075 51.2977329,42.90825 C51.0974423,43.31325 50.8664558,43.70175 50.6093778,44.07 C50.0092733,44.928 48.9057564,45.12525 48.0286216,44.78325 L47.5566724,44.5995 C47.3088032,44.50275 46.9719159,44.53575 46.6388656,44.7375 C46.5168494,44.8125 46.3917637,44.883 46.2643758,44.94975 C45.9190472,45.13125 45.7210587,45.39975 45.6826889,45.65775 L45.6097862,46.1475 C45.4739569,47.0625 44.7464645,47.8995 43.6836196,47.97525 C43.4580049,47.99175 43.230088,48 42.9998689,48 C42.7696498,48 42.5417329,47.99175 42.3161181,47.97525 C41.2540407,47.8995 40.5257809,47.0625 40.3899516,46.1475 L40.3170489,45.65775 C40.2786791,45.39975 40.0806906,45.13125 39.735362,44.94975 C39.6079741,44.883 39.4828883,44.8125 39.3608722,44.7375 C39.0278219,44.53575 38.6909346,44.50275 38.4430654,44.5995 L37.9711162,44.78325 C37.0939814,45.12525 35.9904645,44.928 35.39036,44.07 C35.133282,43.70175 34.9022955,43.31325 34.7027723,42.90825 C34.2392645,41.97075 34.6175912,40.93725 35.3596641,40.36575 L35.7602454,40.05675 C35.9697448,39.8955 36.1086436,39.594 36.0963653,39.21225 C36.0940631,39.14175 36.0932957,39.07125 36.0932957,39 C36.0932957,38.92875 36.0940631,38.85825 36.0963653,38.78775 C36.1086436,38.406 35.9697448,38.1045 35.7602454,37.94325 L35.3596641,37.63425 C34.6175912,37.06275 34.2392645,36.02925 34.7027723,35.09175 C34.9022955,34.68675 35.133282,34.29825 35.39036,33.93 C35.9904645,33.072 37.0939814,32.87475 37.9711162,33.21675 L38.4430654,33.4005 C38.6909346,33.49725 39.0278219,33.46425 39.3608722,33.2625 C39.4828883,33.1875 39.6079741,33.117 39.735362,33.05025 C40.0806906,32.86875 40.2786791,32.60025 40.3170489,32.34225 L40.3899516,31.8525 C40.5257809,30.9375 41.2540407,30.1005 42.3161181,30.02475 Z M42.9998689,36.75 C41.728292,36.75 40.6976778,37.75725 40.6976778,39 C40.6976778,40.24275 41.728292,41.25 42.9998689,41.25 C44.2714458,41.25 45.30206,40.24275 45.30206,39 C45.30206,37.75725 44.2714458,36.75 42.9998689,36.75 Z M39.1628838,39 C39.1628838,36.92925 40.8803183,35.25 42.9998689,35.25 C45.1186521,35.25 46.836854,36.92925 46.836854,39 C46.836854,41.07075 45.1186521,42.75 42.9998689,42.75 C40.8803183,42.75 39.1628838,41.07075 39.1628838,39 L39.1628838,39 Z" id="Icon-Settings"></path>
            </g>
        </g>
    </g>
</svg>