<?xml version="1.0" encoding="UTF-8"?>
<svg width="22px" height="22px" viewBox="0 0 22 22" version="1.1" xmlns="http://www.w3.org/2000/svg" xmlns:xlink="http://www.w3.org/1999/xlink">
    <defs>
        <path d="M11,0 C17.0751322,0 22,4.92486775 22,11 C22,17.0751322 17.0751322,22 11,22 C4.92486775,22 0,17.0751322 0,11 C0,4.92486775 4.92486775,0 11,0 Z M11,1.01851852 C5.48738,1.01851852 1.01851852,5.48738 1.01851852,11 C1.01851852,14.1277342 2.45711987,16.9194651 4.70873374,18.7496038 C5.20512587,18.4256044 5.63363652,17.9428782 6.19236856,17.6016357 C6.42949133,17.4568143 7.11266404,17.2353312 7.37244519,17.163746 C7.7944612,17.0476757 8.41516359,16.9934754 8.59639431,16.5199902 C8.59639431,16.5199902 8.83871981,15.5769133 8.73911992,14.2975829 C8.73911992,14.2975829 7.79303768,14.1840691 7.89315097,11.9950949 C7.89315097,11.9950949 7.29349805,12.4926123 7.15077244,11.2557216 C7.15077244,11.2557216 6.99367158,10.4028347 6.87969646,10.2463698 C6.87969646,10.2463698 6.56549475,9.40779992 7.13639719,9.52131365 C7.13639719,9.52131365 7.03628391,7.87229661 6.9654345,7.50260999 C6.90382633,7.18456702 6.93976443,6.81232379 6.99572519,6.49734875 C7.04501173,6.22225692 7.13177658,5.94614244 7.28939083,5.71195645 C7.47010815,5.44402314 7.79149748,5.3192603 8.04460441,5.13313869 C8.36856074,4.89486211 8.67814183,4.63153071 9.02622803,4.42751279 C9.16330622,4.34774638 9.30346482,4.27258189 9.44721724,4.20559856 C9.52782127,4.16776065 9.87847448,4.10231129 9.91954659,4.04862236 C9.91954659,4.04862236 10.047897,3.87784044 10.3194863,3.87784044 C10.6095582,3.86096678 10.9042506,3.87426118 11.1932957,3.90187263 C11.4556438,3.92743878 11.7169652,3.96834463 11.9710989,4.0383959 C12.2827336,4.12378686 12.5974487,4.28280835 12.9013824,4.40041266 C13.124712,4.48682627 13.338287,4.59880603 13.5349198,4.7353293 C14.1155769,5.13825192 14.4374796,5.71502439 14.5298918,6.40837853 L14.5332908,6.43672175 C14.5343467,6.4460571 14.5356088,6.45764198 14.5370193,6.47139211 L14.5521606,6.65132892 C14.5842161,7.11902179 14.6081856,8.20631843 14.2870529,9.42160564 C14.2870529,9.42160564 15.058182,9.02379626 14.5298918,10.6871303 C14.5298918,10.6871303 14.3871662,11.1846477 14.3589292,11.4546263 C14.3589292,11.4546263 14.3158034,12.1653655 13.7736515,11.824313 C13.7736515,11.824313 13.8162638,14.1840691 13.0456482,14.2837771 C13.0456482,14.2837771 13.0422187,14.3696385 13.0407277,14.5088329 L13.0406163,14.7535583 C13.0468803,15.3989422 13.109772,16.4984198 13.4594498,16.657339 C13.4594498,16.657339 13.9302389,17.0132199 15.4863588,17.3113213 C15.4863588,17.3113213 16.9987229,17.948627 17.9259259,18.3781384 L17.7903246,18.3158952 C19.7532602,16.4931345 20.9814815,13.8900005 20.9814815,11 C20.9814815,5.48738 16.51262,1.01851852 11,1.01851852 Z" id="path-1"></path>
    </defs>
    <g id="Symbols" stroke="none" stroke-width="1" fill="none" fill-rule="evenodd">
        <g id="-System/Navigation/Primary/Mobile-right-Opened" transform="translate(-32, -245)">
            <g id="Primary-Nav-Icons" transform="translate(0, 65)">
                <g id="icones/Menu/User" transform="translate(32, 180)">
                    <mask id="mask-2" fill="white">
                        <use xlink:href="#path-1"></use>
                    </mask>
                    <use id="User" fill="#4D4D4D" fill-rule="evenodd" xlink:href="#path-1"></use>
                </g>
            </g>
        </g>
    </g>
</svg>