<?xml version="1.0" encoding="utf-8" ?>
<svg xmlns="http://www.w3.org/2000/svg" xmlns:xlink="http://www.w3.org/1999/xlink" width="13" height="18">
	<path fill="#01426A" transform="translate(0.197265 0.196446)" d="M7.6057348 0C8.0862246 0 8.5158253 0.39497104 8.5742254 0.88971668L8.691 1.885L11.487348 1.8857143C11.628591 1.8857143 11.746911 1.9890934 11.777834 2.1279371L11.785714 2.2C11.785714 2.3735752 11.652131 2.5142858 11.487348 2.5142858L10.813 2.5139999L10.318871 14.791073C10.299755 15.265335 9.9510956 15.65068 9.5127687 15.707156L9.4014578 15.714286L2.235158 15.714286C1.7485671 15.714286 1.3383293 15.301839 1.317729 14.791081L0.82200003 2.5139999L0.29836622 2.5142858C0.15712355 2.5142858 0.038803335 2.4109066 0.0078800647 2.2720628L0 2.2C0 2.0264249 0.13358311 1.8857143 0.29836622 1.8857143L2.8859999 1.885L3.0178199 0.88565725C3.0777137 0.42786366 3.4477911 0.060584605 3.8835273 0.0067889704L3.9936879 0L7.6057348 0ZM10.216 2.5139999L1.419 2.5139999L1.9139316 14.764796C1.920055 14.916618 2.0294268 15.047388 2.165343 15.081653L2.235158 15.090393L9.4014578 15.090393C9.5705843 15.090393 9.7154093 14.94487 9.7226677 14.764804L10.216 2.5139999ZM7.6057348 0.62322909L3.9936879 0.62322909C3.8095829 0.62322909 3.6334996 0.78321743 3.6090586 0.97003168L3.4890001 1.885L8.0900002 1.885L7.981977 0.96597224C7.9631991 0.80689442 7.826829 0.66379005 7.6726241 0.63049954L7.6057348 0.62322909ZM5.5946579 4.0761809L5.5946579 13.523819C5.5946579 13.692129 5.728241 13.828571 5.893024 13.828571C6.0578074 13.828571 6.1913905 13.692129 6.1913905 13.523819L6.1913905 4.0761809C6.1913905 3.907871 6.0578074 3.7714286 5.893024 3.7714286C5.728241 3.7714286 5.5946579 3.907871 5.5946579 4.0761809L5.5946579 4.0761809L5.5946579 4.0761809ZM7.9074035 4.0598359L7.3479671 13.502784C7.3379378 13.672069 7.4631429 13.81767 7.6276207 13.827992C7.7920985 13.838314 7.9335642 13.70945 7.943593 13.540164L8.5030298 4.0972166C8.5130587 3.9279311 8.3878536 3.78233 8.2233763 3.7720079C8.058898 3.7616856 7.9174328 3.8905506 7.9074035 4.0598359L7.9074035 4.0598359L7.9074035 4.0598359ZM3.2080607 4.0946693L3.7302015 13.539954C3.7395265 13.708638 3.880455 13.837633 4.0449739 13.828073C4.2094932 13.818511 4.3353028 13.674015 4.3259778 13.505331L3.8038368 4.0600457C3.7945118 3.8913612 3.6535835 3.7623665 3.4890645 3.7719276C3.3245454 3.7814887 3.1987357 3.9259851 3.2080607 4.0946693L3.2080607 4.0946693L3.2080607 4.0946693Z" fill-rule="evenodd"/>
	<path fill="none" stroke="#01426A" stroke-width="0.39285713" stroke-miterlimit="10" transform="translate(0.197265 0.196446)" d="M7.6057348 0C8.0862246 0 8.5158253 0.39497104 8.5742254 0.88971668L8.691 1.885L11.487348 1.8857143C11.628591 1.8857143 11.746911 1.9890934 11.777834 2.1279371L11.785714 2.2C11.785714 2.3735752 11.652131 2.5142858 11.487348 2.5142858L10.813 2.5139999L10.318871 14.791073C10.299755 15.265335 9.9510956 15.65068 9.5127687 15.707156L9.4014578 15.714286L2.235158 15.714286C1.7485671 15.714286 1.3383293 15.301839 1.317729 14.791081L0.82200003 2.5139999L0.29836622 2.5142858C0.15712355 2.5142858 0.038803335 2.4109066 0.0078800647 2.2720628L0 2.2C0 2.0264249 0.13358311 1.8857143 0.29836622 1.8857143L2.8859999 1.885L3.0178199 0.88565725C3.0777137 0.42786366 3.4477911 0.060584605 3.8835273 0.0067889704L3.9936879 0L7.6057348 0ZM10.216 2.5139999L1.419 2.5139999L1.9139316 14.764796C1.920055 14.916618 2.0294268 15.047388 2.165343 15.081653L2.235158 15.090393L9.4014578 15.090393C9.5705843 15.090393 9.7154093 14.94487 9.7226677 14.764804L10.216 2.5139999ZM7.6057348 0.62322909L3.9936879 0.62322909C3.8095829 0.62322909 3.6334996 0.78321743 3.6090586 0.97003168L3.4890001 1.885L8.0900002 1.885L7.981977 0.96597224C7.9631991 0.80689442 7.826829 0.66379005 7.6726241 0.63049954L7.6057348 0.62322909ZM5.5946579 4.0761809L5.5946579 13.523819C5.5946579 13.692129 5.728241 13.828571 5.893024 13.828571C6.0578074 13.828571 6.1913905 13.692129 6.1913905 13.523819L6.1913905 4.0761809C6.1913905 3.907871 6.0578074 3.7714286 5.893024 3.7714286C5.728241 3.7714286 5.5946579 3.907871 5.5946579 4.0761809L5.5946579 4.0761809L5.5946579 4.0761809ZM7.9074035 4.0598359L7.3479671 13.502784C7.3379378 13.672069 7.4631429 13.81767 7.6276207 13.827992C7.7920985 13.838314 7.9335642 13.70945 7.943593 13.540164L8.5030298 4.0972166C8.5130587 3.9279311 8.3878536 3.78233 8.2233763 3.7720079C8.058898 3.7616856 7.9174328 3.8905506 7.9074035 4.0598359L7.9074035 4.0598359L7.9074035 4.0598359ZM3.2080607 4.0946693L3.7302015 13.539954C3.7395265 13.708638 3.880455 13.837633 4.0449739 13.828073C4.2094932 13.818511 4.3353028 13.674015 4.3259778 13.505331L3.8038368 4.0600457C3.7945118 3.8913612 3.6535835 3.7623665 3.4890645 3.7719276C3.3245454 3.7814887 3.1987357 3.9259851 3.2080607 4.0946693L3.2080607 4.0946693L3.2080607 4.0946693Z" fill-rule="evenodd"/>
</svg>
