<?xml version="1.0" encoding="utf-8" ?>
<svg xmlns="http://www.w3.org/2000/svg" xmlns:xlink="http://www.w3.org/1999/xlink" width="22" height="13">
	<path fill="#01426A" d="M15.952559 1.8223745C18.750687 3.5220253 20.428572 5.3413458 20.428572 6.0516901C20.428572 6.7620344 18.499834 8.6753445 15.952559 10.000533C13.405281 11.325722 11.566734 11.785714 10.214286 11.785714C8.8618374 11.785714 6.7415776 11.238989 4.4867883 10.000533C2.2319994 8.7620783 0 6.7617912 0 6.0516901C0 5.341589 2.0414166 3.3373859 4.4867883 1.8223745C6.9321604 0.307363 8.2158384 0 10.214286 0C12.212733 0 13.154429 0.12272351 15.952559 1.8223745ZM10.214286 2.0680592C8.1294966 2.0680592 6.4394412 3.7605677 6.4394412 5.8483829C6.4394412 7.9361978 8.1294966 9.628706 10.214286 9.628706C12.299075 9.628706 13.98913 7.9361978 13.98913 5.8483829C13.98913 3.7605677 12.299075 2.0680592 10.214286 2.0680592ZM10.214286 3.8470349C11.317998 3.8470349 12.212733 4.7430687 12.212733 5.8483829C12.212733 6.9536967 11.317998 7.8497305 10.214286 7.8497305C9.1105738 7.8497305 8.2158384 6.9536967 8.2158384 5.8483829C8.2158384 4.7430687 9.1105738 3.8470349 10.214286 3.8470349Z" fill-rule="evenodd"/>
</svg>
