<?xml version="1.0" encoding="utf-8" ?>
<svg xmlns="http://www.w3.org/2000/svg" xmlns:xlink="http://www.w3.org/1999/xlink" width="16" height="16">
	<path fill="#01426A" transform="translate(0.0281806 0.211805)" d="M12.942587 0.63543916C12.095259 -0.21181306 10.72153 -0.21181306 9.8742027 0.63543916L1.2724822 9.2363958C1.2135328 9.2953405 1.1709687 9.3684082 1.1487449 9.4486332L0.017593831 13.531979C-0.028925383 13.699395 0.018347129 13.878675 0.1411428 14.001649C0.26412675 14.124434 0.44342342 14.171701 0.61085486 14.125375L4.6945629 12.994136C4.7747941 12.971914 4.8478689 12.929354 4.9068184 12.87041L13.50835 4.2692642C14.35436 3.4214473 14.35436 2.04897 13.50835 1.2011528L12.942587 0.63543916ZM2.3230252 9.5497608L9.3628683 2.5103543L11.633268 4.7805533L4.5932374 11.81996L2.3230252 9.5497608ZM1.8695101 10.459723L3.6833823 12.273623L1.1743587 12.968713L1.8695101 10.459723ZM12.826571 3.5875456L12.315236 4.0988345L10.044647 1.8284472L10.55617 1.317158C11.026824 0.84654599 11.789965 0.84654599 12.260619 1.317158L12.826571 1.8828717C13.296472 2.3540487 13.296472 3.1165569 12.826571 3.5875456L12.826571 3.5875456Z" fill-rule="evenodd"/>
</svg>
