<?xml version="1.0" encoding="utf-8" ?>
<svg xmlns="http://www.w3.org/2000/svg" xmlns:xlink="http://www.w3.org/1999/xlink" width="19" height="25">
	<path stroke="#39A1D8" d="M5.8182397 1.5432322C5.8576417 1.2460277 6.1415095 0.99150079 6.4383087 0.99150079L12.261367 0.99150079C12.551115 0.99150079 12.833318 1.2475415 12.867914 1.536774L13.121266 3.6548483C13.15377 3.9265864 14.108547 3.8052707 14.076043 3.5335326L13.822691 1.4154583C13.728543 0.62836301 13.035975 0 12.261367 0L6.4383087 0C5.6611648 0 4.9696937 0.61999989 4.8650918 1.4090002L4.5842862 3.5270743C4.5483217 3.7983491 5.5014701 3.9325809 5.5374346 3.6613064L5.8182397 1.5432322L5.8182397 1.5432322ZM1.323184 3.9290974L2.1243389 23.531265C2.1575491 24.343834 2.8189023 25 3.6033454 25L15.156289 25C15.945004 25 16.601885 24.348637 16.635271 23.531252L17.435915 3.9290841C17.4471 3.6552403 17.241005 3.4238911 16.975592 3.4123507C16.710176 3.4008105 16.485947 3.6134493 16.474762 3.8872931L15.674119 23.489462C15.662418 23.775928 15.428942 24.007444 15.156289 24.007444L3.6033454 24.007444C3.3350792 24.007444 3.0970066 23.771238 3.0854897 23.489449L2.2843349 3.8872797C2.2731426 3.6134365 2.0489087 3.4008038 1.7834942 3.4123514C1.5180798 3.4238989 1.3119918 3.6552541 1.323184 3.9290974L1.323184 3.9290974L1.323184 3.9290974ZM0.48100251 4L18.518997 4C18.784647 4 19 3.7761424 19 3.5C19 3.2238576 18.784647 3 18.518997 3L0.48100251 3C0.21535216 3 0 3.2238576 0 3.5C0 3.7761424 0.21535216 4 0.48100251 4L0.48100251 4L0.48100251 4ZM9.0192671 6.4848337L9.0192671 21.515167C9.0192671 21.782932 9.2346191 22 9.5002689 22C9.7659197 22 9.9812717 21.782932 9.9812717 21.515167L9.9812717 6.4848337C9.9812717 6.2170672 9.7659197 6 9.5002689 6C9.2346191 6 9.0192671 6.2170672 9.0192671 6.4848337L9.0192671 6.4848337L9.0192671 6.4848337ZM12.747693 6.4588304L11.845814 21.481701C11.829645 21.751019 12.031491 21.982656 12.296649 21.999079C12.561807 22.015501 12.789866 21.810488 12.806035 21.54117L13.707914 6.5182986C13.724083 6.248981 13.522237 6.0173435 13.257079 6.0009217C12.991921 5.9844999 12.763862 6.1895123 12.747693 6.4588304L12.747693 6.4588304L12.747693 6.4588304ZM5.1717825 6.5142465L6.0135369 21.540836C6.0285702 21.809198 6.2557635 22.014418 6.5209885 21.999207C6.7862129 21.983995 6.9890332 21.754114 6.9740005 21.485754L6.132246 6.4591637C6.1172132 6.1908021 5.8900194 5.9855828 5.624795 6.0007939C5.35957 6.0160046 5.1567497 6.2458854 5.1717825 6.5142465L5.1717825 6.5142465L5.1717825 6.5142465Z"/>
	<!-- <path fill="#39A1D8" transform="translate(-5 -1)" d="M0 0L28 0L28 28L0 28L0 0Z"/> -->
</svg>
