<?xml version="1.0" encoding="utf-8" ?>
<svg xmlns="http://www.w3.org/2000/svg" xmlns:xlink="http://www.w3.org/1999/xlink" width="20" height="20">
	<path fill="#39A1D8" transform="translate(0.0371094 0.269531)" d="M16.472383 0.80874074C15.393966 -0.26958025 13.645584 -0.26958025 12.567167 0.80874074L1.6195228 11.755413C1.5444963 11.830433 1.4903237 11.923429 1.462039 12.025533L0.022392146 17.222517C-0.036814123 17.435593 0.023350891 17.663769 0.17963628 17.82028C0.33616132 17.976551 0.5643571 18.036711 0.77745163 17.977751L5.9748979 16.537991C6.0770106 16.509708 6.1700149 16.455542 6.2450414 16.380522L17.192446 5.433609C18.269184 4.354569 18.269184 2.6077802 17.192446 1.5287399L16.472383 0.80874074ZM2.9565775 12.154241L11.916377 3.1949966L14.805979 6.084341L5.8459387 15.043586L2.9565775 12.154241ZM2.3793764 13.312376L4.6879411 15.620975L1.4946383 16.505634L2.3793764 13.312376ZM16.324726 4.5659671L15.673937 5.2166986L12.784097 2.3271146L13.435125 1.676383C14.03414 1.0774223 15.00541 1.0774223 15.604424 1.676383L16.324726 2.3963821C16.922781 2.996062 16.922781 3.966527 16.324726 4.5659671L16.324726 4.5659671Z" fill-rule="evenodd"/>
</svg>
