<?xml version="1.0" encoding="UTF-8"?>
<svg width="24px" height="21px" viewBox="0 0 24 21" version="1.1" xmlns="http://www.w3.org/2000/svg" xmlns:xlink="http://www.w3.org/1999/xlink">
    <title>icones/alerte/danger-export</title>
    <defs>
        <filter color-interpolation-filters="auto" id="filter-1">
            <feColorMatrix in="SourceGraphic" type="matrix" values="0 0 0 0 1.000000 0 0 0 0 1.000000 0 0 0 0 1.000000 0 0 0 1.000000 0"></feColorMatrix>
        </filter>
    </defs>
    <g id="icones/alerte/danger-export" stroke="none" stroke-width="1" fill="none" fill-rule="evenodd">
        <g filter="url(#filter-1)" id="danger">
            <g>
                <path d="M23.6907971,17.673273 L13.8463863,1.06100594 C13.4585424,0.40656393 12.7510577,0 11.9999793,0 C11.2489008,0 10.5414161,0.40656393 10.1535253,1.06105364 L0.309161445,17.673273 C-0.0916668624,18.349703 -0.103526243,19.1971723 0.278177056,19.8849541 C0.659974104,20.5727358 1.37931818,21 2.15556853,21 L21.84439,21 C22.6206403,21 23.3400313,20.5727358 23.7218283,19.8849064 C24.1035316,19.1970769 24.0916723,18.3496076 23.6907971,17.673273 Z M22.361234,19.103115 C22.2561402,19.292422 22.0580932,19.4100889 21.84439,19.4100889 L2.15556853,19.4100889 C1.94186531,19.4100889 1.74381835,19.2924697 1.63877142,19.1031627 C1.53367763,18.9138081 1.53695888,18.6804774 1.6472558,18.4943185 L11.4917134,1.8820514 C11.5984947,1.70190218 11.7932604,1.58995878 12.0000261,1.58995878 C12.206745,1.58995878 12.4015107,1.70190218 12.508292,1.8820514 L22.3526558,18.4943185 C22.4630465,18.6805251 22.4663278,18.9138081 22.361234,19.103115 Z" id="Shape" fill="#E9445A" fill-rule="nonzero"></path>
                <path d="M12.0075171,6.07894737 C11.3905768,6.07894737 10.9090909,6.41010496 10.9090909,6.99717476 C10.9090909,8.78836551 11.1197167,11.3622835 11.1197167,13.153523 C11.1197653,13.620132 11.5260799,13.8157895 12.0075658,13.8157895 C12.3686802,13.8157895 12.8802833,13.620132 12.8802833,13.153523 C12.8802833,11.3623322 13.0909091,8.78841418 13.0909091,6.99717476 C13.0909091,6.41015363 12.5943889,6.07894737 12.0075171,6.07894737 Z" id="Path" fill="#E9445A"></path>
                <path d="M12.0071238,14.9210526 C11.3797225,14.9210526 10.9090909,15.4234197 10.9090909,16.0263158 C10.9090909,16.6148241 11.3796764,17.1315789 12.0071238,17.1315789 C12.5917823,17.1315789 13.0909091,16.6148241 13.0909091,16.0263158 C13.0909091,15.4234197 12.5917362,14.9210526 12.0071238,14.9210526 Z" id="Path" fill="#E9445A"></path>
            </g>
        </g>
    </g>
</svg>