<?xml version="1.0" encoding="UTF-8"?>
<svg width="24px" height="21px" viewBox="0 0 24 21" version="1.1" xmlns="http://www.w3.org/2000/svg" xmlns:xlink="http://www.w3.org/1999/xlink">
    <title>icones/alerte/info-export</title>
    <defs>
        <path d="M10.5,-1.77635684e-15 C16.2989899,-1.77635684e-15 21,4.70101013 21,10.5 C21,16.2989899 16.2989899,21 10.5,21 C4.70101013,21 -1.77635684e-15,16.2989899 -1.77635684e-15,10.5 C-1.77635684e-15,4.70101013 4.70101013,-1.77635684e-15 10.5,-1.77635684e-15 Z M10.5552632,1.43684211 C5.51929827,1.43684211 1.43684211,5.51929827 1.43684211,10.5552632 C1.43684211,15.591228 5.51929827,19.6736842 10.5552632,19.6736842 C15.591228,19.6736842 19.6736842,15.591228 19.6736842,10.5552632 C19.6736842,5.51929827 15.591228,1.43684211 10.5552632,1.43684211 Z M11.4545455,8.11363636 L11.4545455,15.75 L12.4090909,15.75 L12.4090909,16.2272727 L8.59090909,16.2272727 L8.59090909,15.75 L9.54545455,15.75 L9.54545455,8.59090909 L8.59090909,8.59090909 L8.59090909,8.11363636 L11.4545455,8.11363636 Z M10.2613636,4.29545455 C10.9203398,4.29545455 11.4545455,4.82966024 11.4545455,5.48863636 C11.4545455,6.14761249 10.9203398,6.68181818 10.2613636,6.68181818 C9.60238751,6.68181818 9.06818182,6.14761249 9.06818182,5.48863636 C9.06818182,4.82966024 9.60238751,4.29545455 10.2613636,4.29545455 Z" id="path-1"></path>
    </defs>
    <g id="icones/alerte/info-export" stroke="none" stroke-width="1" fill="none" fill-rule="evenodd">
        <g id="Icon/Detail" transform="translate(1.500000, 0.000000)">
            <mask id="mask-2" fill="white">
                <use xlink:href="#path-1"></use>
            </mask>
            <use id="Detail" fill="#FFFFFF" xlink:href="#path-1"></use>
            <g id="Group" mask="url(#mask-2)" fill="#FFFFFF">
                <g id="Color">
                    <rect id="White" x="0" y="0" width="21" height="21"></rect>
                </g>
            </g>
        </g>
    </g>
</svg>