<?xml version="1.0" encoding="UTF-8"?>
<svg width="28px" height="28px" viewBox="0 0 28 28" version="1.1" xmlns="http://www.w3.org/2000/svg" xmlns:xlink="http://www.w3.org/1999/xlink">
    <title>icones/status-icons/Fuel-low-2</title>
    <g id="icones/status-icons/Fuel-low-2" stroke="none" fill="none" fill-rule="evenodd">
        <path d="M7.03595114,10.8702909 L14.7809728,10.8702909 L14.7809728,4.67144981 L7.03595114,4.67144981 L7.03595114,10.8702909 Z M23.9009943,17.3145584 L22.3008838,10.7159881 C22.2096228,10.3199038 22.2096228,9.90134227 22.313052,9.50708043 C22.319136,9.48581823 22.3313042,9.44936876 22.3495564,9.40562939 C22.5016581,9.54352991 22.7024325,9.61642886 22.9032068,9.61642886 C23.0674767,9.61642886 23.2256625,9.57147451 23.3716802,9.47609837 C23.7549766,9.22034454 23.8584058,8.7009395 23.6028749,8.317005 C22.8180298,7.14333184 21.9115033,6.04559509 20.9137158,5.05356182 C20.2322999,4.37863901 19.5022114,3.74441811 18.7356185,3.16851637 C18.3644903,2.89028536 17.8412602,2.9643993 17.561393,3.33314651 C17.2876098,3.70189372 17.3606186,4.2255512 17.7256629,4.50317472 C18.431415,5.0341221 19.1067468,5.61792123 19.7334061,6.23938481 C20.3539813,6.85598846 20.931968,7.52058393 21.4673662,8.21798392 C21.4612821,8.23681615 21.449114,8.25625588 21.4430299,8.27387312 C21.2605078,8.73070657 21.1449104,9.01926493 21.1023219,9.19057747 C20.9441361,9.78470395 20.938052,10.4134574 21.0840697,11.0100139 L22.6780962,17.6085842 C22.8727864,18.4171551 22.5990033,19.262783 21.9905962,19.712934 C21.7168131,19.9134061 21.4004414,20.0434093 21.0779857,20.0877561 C21.0110609,20.096261 20.9502202,20.1017284 20.8893795,20.1041584 C20.4209061,20.1193457 19.9646008,19.9462107 19.6117247,19.6060155 C19.2223442,19.2336234 18.9972336,18.7111809 18.9972336,18.1717286 L18.9972336,12.1763971 C18.9972336,11.1108574 18.1332956,10.2433599 17.0624992,10.2433599 L16.4540921,10.2433599 L16.4540921,3.83614929 C16.4540921,3.37445591 16.0768798,3.00024128 15.6144904,3.00024128 L6.19634942,3.00024128 C5.73396007,3.00024128 5.36283177,3.37445591 5.36283177,3.83614929 L5.36283177,22.328184 L4.83960172,22.328184 C4.37721237,22.328184 4,22.7023986 4,23.164092 C4,23.6257854 4.37721237,24 4.83960172,24 L16.8373886,24 C17.2997779,24 17.6709062,23.6257854 17.6709062,23.164092 C17.6709062,22.7023986 17.2997779,22.328184 16.8373886,22.328184 L16.4540921,22.328184 L16.4540921,11.4972219 L17.0624992,11.4972219 C17.4397115,11.4972219 17.7439151,11.8021825 17.7439151,12.1763971 L17.7439151,18.1717286 C17.7439151,19.050161 18.1089593,19.9024713 18.7417026,20.5099626 C19.3136052,21.0603497 20.0497778,21.3592354 20.8224547,21.3592354 C20.8589591,21.3592354 20.9015476,21.3586279 20.9441361,21.3568054 C21.0414812,21.352553 21.1449104,21.3440481 21.2483396,21.3300758 C21.7837378,21.2565694 22.2947997,21.0457699 22.7389369,20.7201546 C23.7610607,19.9620054 24.217366,18.6255246 23.9009943,17.3145584 L23.9009943,17.3145584 Z" id="Fill-1437" fill="#E9445A"></path>
    </g>
</svg>