<?xml version="1.0" encoding="utf-8" ?>
<svg xmlns="http://www.w3.org/2000/svg" xmlns:xlink="http://www.w3.org/1999/xlink" width="14" height="21">
	<path fill="#68D15C" d="M1.3835834 19.829079C0.80444849 20.258827 0 19.828751 0 19.08938L0 3.2396359C0 2.3635414 0.086760782 1.89679 0.33715457 1.4103919C0.57122308 0.95570618 0.91994089 0.593431 1.3576111 0.3502624C1.8258067 0.090133846 2.2750909 0 3.1183996 0L10.8816 0C11.724909 0 12.174193 0.090133846 12.642389 0.3502624C13.080059 0.593431 13.428777 0.95570618 13.662846 1.4103919C13.913239 1.89679 14 2.3635414 14 3.2396359L14 19.08938C14 19.828751 13.195552 20.258827 12.616417 19.829079L7 15.661385L1.3835834 19.829079Z" fill-rule="evenodd"/>
</svg>
