<?xml version="1.0" encoding="UTF-8"?>
<svg width="24px" height="21px" viewBox="0 0 24 21" version="1.1" xmlns="http://www.w3.org/2000/svg" xmlns:xlink="http://www.w3.org/1999/xlink">
    <title>icones/alerte/urgent-export</title>
    <defs>
        <filter color-interpolation-filters="auto" id="filter-1">
            <feColorMatrix in="SourceGraphic" type="matrix" values="0 0 0 0 1.000000 0 0 0 0 1.000000 0 0 0 0 1.000000 0 0 0 1.000000 0"></feColorMatrix>
        </filter>
    </defs>
    <g id="icones/alerte/urgent-export" stroke="none" stroke-width="1" fill="none" fill-rule="evenodd">
        <g filter="url(#filter-1)" id="danger">
            <g>
                <g id="Group-3" transform="translate(3.372935, 3.315789)">
                    <path d="M15.7594106,14.3684211 L16.3120422,16.5789474 L1.10526316,17.1315789 L0.552631579,14.9210526 L15.7594106,14.3684211 Z" id="Rectangle" stroke="#E9445A" stroke-width="1.10526316"></path>
                    <path d="M12.1896555,0.552631579 C12.4444177,0.552631579 12.6826737,0.639710964 12.8723332,0.788666472 C13.0619928,0.937621981 13.2030558,1.14845361 13.2634319,1.39595811 L13.2634319,1.39595811 L15.0453738,8.70080584 L15.7592836,11.313984 C15.8397181,11.6084045 15.7932004,11.9075548 15.652969,12.1532086 C15.5228725,12.3811082 15.3121187,12.5629645 15.0472477,12.6522856 L15.0472477,12.6522856 L2.13228213,12.7105263 C1.82707214,12.7105263 1.55075635,12.5868155 1.35074306,12.3868022 C1.16417651,12.2002357 1.04399781,11.9472813 1.028682,11.6664141 L1.028682,11.6664141 L3.59081516,1.38548752 C3.65310896,1.14053394 3.79452576,0.932319955 3.98355671,0.785344364 C4.17258767,0.638368774 4.40923278,0.552631579 4.6619832,0.552631579 L4.6619832,0.552631579 Z" id="Rectangle-Copy-2" stroke="#E9445A" stroke-width="1.10526316"></path>
                    <g id="Group-2" transform="translate(7.699508, 2.763158)" fill="#E9445A">
                        <path d="M0.849044165,0 C0.372171379,0 0,0.283849368 0,0.787052053 C0,2.32235841 0.162806174,2.87067912 0.162806174,4.40602719 C0.162843783,4.80597779 0.476910394,4.97368421 0.849081774,4.97368421 C1.12821031,4.97368421 1.5236612,4.80597779 1.5236612,4.40602719 C1.5236612,2.87072084 1.68646738,2.32240012 1.68646738,0.787052053 C1.68646738,0.283891086 1.30267504,0 0.849044165,0 Z" id="Path"></path>
                        <path d="M0.848740128,6.07894737 C0.36378141,6.07894737 0,6.45572264 0,6.90789474 C0,7.34927597 0.363745769,7.73684211 0.848740128,7.73684211 C1.30066021,7.73684211 1.68646738,7.34927597 1.68646738,6.90789474 C1.68646738,6.45572264 1.30062457,6.07894737 0.848740128,6.07894737 Z" id="Path"></path>
                    </g>
                </g>
                <g id="Group" fill="#E9445A">
                    <path d="M3.00474807,1.20419095 L6.37604245,1.17687005 C6.67812062,1.17442201 6.92498788,1.41732022 6.92743592,1.71939839 C6.92745993,1.7223612 6.92745987,1.72532416 6.92743573,1.72828698 L6.9273362,1.74050391 C6.92487829,2.04220264 6.68090017,2.28617031 6.37920133,2.28861527 L3.00790694,2.31593617 C2.70582878,2.3183842 2.45896151,2.07548599 2.45651348,1.77340782 C2.45648947,1.77044501 2.45648953,1.76748205 2.45651367,1.76451924 L2.4566132,1.7523023 C2.4590711,1.45060357 2.70304923,1.20663591 3.00474807,1.20419095 Z" id="Rectangle" transform="translate(4.691975, 1.746403) rotate(36.000000) translate(-4.691975, -1.746403) "></path>
                    <path d="M18.1829545,1.20419095 L21.5542489,1.17687005 C21.856327,1.17442201 22.1031943,1.41732022 22.1056423,1.71939839 C22.1056663,1.7223612 22.1056663,1.72532416 22.1056421,1.72828698 L22.1055426,1.74050391 C22.1030847,2.04220264 21.8591066,2.28617031 21.5574077,2.28861527 L18.1861133,2.31593617 C17.8840352,2.3183842 17.6371679,2.07548599 17.6347199,1.77340782 C17.6346959,1.77044501 17.6346959,1.76748205 17.6347201,1.76451924 L17.6348196,1.7523023 C17.6372775,1.45060357 17.8812556,1.20663591 18.1829545,1.20419095 Z" id="Rectangle-Copy" transform="translate(19.870181, 1.746403) scale(-1, 1) rotate(36.000000) translate(-19.870181, -1.746403) "></path>
                    <path d="M0.7561249,6.73050674 L4.12741928,6.70318584 C4.42949745,6.7007378 4.67636471,6.94363601 4.67881275,7.24571418 C4.67883676,7.24867699 4.6788367,7.25163995 4.67881256,7.25460277 L4.67871303,7.2668197 C4.67625512,7.56851843 4.432277,7.8124861 4.13057816,7.81493106 L0.759283772,7.84225196 C0.457205605,7.84469999 0.210338342,7.60180178 0.207890307,7.29972361 C0.207866296,7.2967608 0.20786636,7.29379784 0.207890497,7.29083503 L0.207990027,7.27861809 C0.210447932,6.97691936 0.454426061,6.7329517 0.7561249,6.73050674 Z" id="Rectangle-Copy-6" transform="translate(2.443352, 7.272719) rotate(36.000000) translate(-2.443352, -7.272719) "></path>
                    <path d="M19.8694218,6.73050674 L23.2407162,6.70318584 C23.5427944,6.7007378 23.7896617,6.94363601 23.7921097,7.24571418 C23.7921337,7.24867699 23.7921336,7.25163995 23.7921095,7.25460277 L23.79201,7.2668197 C23.7895521,7.56851843 23.5455739,7.8124861 23.2438751,7.81493106 L19.8725807,7.84225196 C19.5705025,7.84469999 19.3236353,7.60180178 19.3211873,7.29972361 C19.3211632,7.2967608 19.3211633,7.29379784 19.3211874,7.29083503 L19.321287,7.27861809 C19.3237449,6.97691936 19.567723,6.7329517 19.8694218,6.73050674 Z" id="Rectangle-Copy-5" transform="translate(21.556648, 7.272719) scale(-1, 1) rotate(36.000000) translate(-21.556648, -7.272719) "></path>
                    <path d="M0.358302946,3.48463484 L4.84732785,3.44825587 C5.14940601,3.44580783 5.39627328,3.68870605 5.39872131,3.99078422 C5.39874532,3.99374703 5.39874526,3.99670999 5.39872112,3.9996728 L5.39862159,4.01188973 C5.39616369,4.31358847 5.15218556,4.55755613 4.85048672,4.56000109 L0.361461819,4.59638006 C0.0593836522,4.59882809 -0.187483611,4.35592988 -0.189931647,4.05385171 C-0.189955657,4.0508889 -0.189955594,4.04792594 -0.189931456,4.04496313 L-0.189831926,4.03274619 C-0.187374021,3.73104746 0.0566041072,3.4870798 0.358302946,3.48463484 Z" id="Rectangle-Copy-4" transform="translate(2.604395, 4.022318) rotate(36.000000) translate(-2.604395, -4.022318) "></path>
                    <path d="M19.1495133,3.48463484 L23.6385382,3.44825587 C23.9406163,3.44580783 24.1874836,3.68870605 24.1899316,3.99078422 C24.1899557,3.99374703 24.1899556,3.99670999 24.1899315,3.9996728 L24.1898319,4.01188973 C24.187374,4.31358847 23.9433959,4.55755613 23.6416971,4.56000109 L19.1526722,4.59638006 C18.850594,4.59882809 18.6037267,4.35592988 18.6012787,4.05385171 C18.6012547,4.0508889 18.6012547,4.04792594 18.6012789,4.04496313 L18.6013784,4.03274619 C18.6038363,3.73104746 18.8478144,3.4870798 19.1495133,3.48463484 Z" id="Rectangle-Copy-3" transform="translate(21.395605, 4.022318) scale(-1, 1) rotate(36.000000) translate(-21.395605, -4.022318) "></path>
                </g>
            </g>
        </g>
    </g>
</svg>