<?xml version="1.0" encoding="UTF-8"?>
<svg width="26px" height="26px" viewBox="0 0 26 26" version="1.1" xmlns="http://www.w3.org/2000/svg" xmlns:xlink="http://www.w3.org/1999/xlink">
    <title>Components/Radio/Not-connected</title>
    <g id="Components/Radio/Not-connected" stroke="none" stroke-width="1" fill="none" fill-rule="evenodd">
        <circle id="Oval" stroke="#01426A" stroke-width="1.5" cx="13" cy="13" r="12.25"></circle>
        <path d="M20.1111111,6.77777778 L20.1111111,5.88888889 C20.1111111,5.4 19.7111111,5 19.2222222,5 L17.4444444,5 C16.9555556,5 16.5555556,5.4 16.5555556,5.88888889 L16.5555556,6.77777778 L16.5555556,6.77777778 C16.0666667,6.77777778 15.6666667,7.17777778 15.6666667,7.66666667 L15.6666667,10.3333333 C15.6666667,10.8222222 16.0666667,11.2222222 16.5555556,11.2222222 L17.4444444,11.2222222 L17.4444444,17.3644444 C17.4444444,18.2888889 16.7688889,19.1244444 15.8533333,19.2133333 C14.7866667,19.32 13.8888889,18.4844444 13.8888889,17.4444444 L13.8888889,8.68 C13.8888889,6.78666667 12.4577778,5.13333333 10.5644444,5.00888889 C8.49333333,4.87555556 6.77777778,6.51111111 6.77777778,8.55555556 L6.77777778,14.7777778 L5.88888889,14.7777778 C5.4,14.7777778 5,15.1777778 5,15.6666667 L5,18.3333333 C5,18.8222222 5.4,19.2222222 5.88888889,19.2222222 L5.88888889,19.2222222 L5.88888889,20.1111111 C5.88888889,20.6 6.28888889,21 6.77777778,21 L8.55555556,21 C9.04444444,21 9.44444444,20.6 9.44444444,20.1111111 L9.44444444,19.2222222 L9.44444444,19.2222222 C9.93333333,19.2222222 10.3333333,18.8222222 10.3333333,18.3333333 L10.3333333,15.6666667 C10.3333333,15.1777778 9.93333333,14.7777778 9.44444444,14.7777778 L8.55555556,14.7777778 L8.55555556,8.63555556 C8.55555556,7.71111111 9.23111111,6.87555556 10.1466667,6.78666667 C11.2133333,6.68 12.1111111,7.51555556 12.1111111,8.55555556 L12.1111111,17.32 C12.1111111,19.2133333 13.5422222,20.8666667 15.4355556,20.9911111 C17.5066667,21.1244444 19.2222222,19.4888889 19.2222222,17.4444444 L19.2222222,11.2222222 L20.1111111,11.2222222 C20.6,11.2222222 21,10.8222222 21,10.3333333 L21,7.66666667 C21,7.17777778 20.6,6.77777778 20.1111111,6.77777778 L20.1111111,6.77777778 Z" id="Path" fill="#01426A"></path>
        <line x1="5" y1="25.1067413" x2="21.1203296" y2="1" id="Path-2" stroke="#E9445A" stroke-width="2" stroke-linecap="round" stroke-linejoin="round" transform="translate(13.0602, 13.0534) scale(-1, 1) translate(-13.0602, -13.0534)"></line>
    </g>
</svg>